<?xml version="1.0" encoding="utf-8"?>
<!-- Generator: Adobe Illustrator 16.0.4, SVG Export Plug-In . SVG Version: 6.00 Build 0)  -->
<!DOCTYPE svg PUBLIC "-//W3C//DTD SVG 1.1//EN" "http://www.w3.org/Graphics/SVG/1.1/DTD/svg11.dtd">
<svg version="1.1" id="Layer_1" xmlns="http://www.w3.org/2000/svg" xmlns:xlink="http://www.w3.org/1999/xlink" x="0px" y="0px"
	 width="246px" height="104px" viewBox="0 0 246 104" enable-background="new 0 0 246 104" xml:space="preserve">
<path fill="#D0D0D0" d="M119.77,12.35c1.28,0.19,2.5,0.54,3.67,1.05c0.58,3.33,0.67,6.81-0.01,10.13c-0.79,1.65-3.29,1.16-3.61-0.5
	C119.17,19.51,119.64,15.9,119.77,12.35z"/>
<path fill="#D0D0D0" d="M201.5,19.36c4.33-0.83,8.75-0.8,13.1-0.09c0.08,2,0.13,4.01,0.19,6.01c3.95,1.15,8.3,1.89,11.46,4.72
	c-0.41,4.12-0.82,8.74-3.32,12.14c-2.19,0.38-4.24-1.18-6.31-1.76c-3.85-1.72-8.13-1.97-12.25-1.4c5.21,4.86,13.49,3.91,18.6,9.06
	c6.97,6.23,4.9,18.28-2.71,23.08c-0.73-0.28-2.19-0.85-2.92-1.14c0.38-3.93,4.49-6.07,5.03-9.93c0.63-3.12-0.33-6.58-2.84-8.63
	c-4.95-4.22-12.19-3.75-17.33-7.6c-3.03-2.43-2.13-7.7,1.44-9.12c5.51-2.21,11.42,0.12,16.74,1.77c0.25-1.44,0.49-2.88,0.75-4.33
	c-3.49-1.15-7.07-1.97-10.67-2.73c-0.21-1.96-0.41-3.92-0.6-5.89c-1.15,0-2.29,0-3.43,0c-0.36,1.88-0.09,4-1,5.71
	c-3.07,1.69-7.07,2.11-9.23,5.15c-2.58,3.65-2.67,9.39,0.84,12.5c4.86,4.44,12.1,4.04,17.4,7.65c3.37,2.42,2.53,8.04-1.19,9.66
	c-5.97,2.71-12.58,0.26-18.4-1.63c-0.26,1.43-0.51,2.87-0.75,4.31c3.76,1.26,7.64,2.12,11.54,2.81c0.22,2,0.52,4,0.75,6
	c1.02,0.01,2.05,0.03,3.09,0.04c0.52-1.18,1.05-2.37,1.57-3.55c1.16,0.4,2.48,0.48,3.47,1.26c0.49,2.26,0,4.57-0.14,6.84
	c-4.31,0.31-8.64,0.22-12.9-0.46c-0.04-1.98-0.07-3.96-0.09-5.94c-4.44-0.9-8.8-2.29-12.66-4.71c0.87-4.46,1.46-9.09,3.82-13.08
	c5.91,2.77,12.58,5.82,19.2,3.8c-0.04-0.4-0.11-1.2-0.14-1.6c-5.66-2.83-12.55-3.13-17.42-7.52c-5.75-4.82-6.02-14.25-1.27-19.85
	c2.16-2.72,5.46-4.07,8.49-5.57C201.42,23.34,201.46,21.35,201.5,19.36z"/>
<path fill="#D0D0D0" d="M100.06,19.24c3.16,2.73,5.46,6.26,7.48,9.88c-1.1,0.7-2.2,1.4-3.29,2.12c-2.02-2.78-4.41-5.39-5.71-8.61
	C98.69,21.38,99.57,20.36,100.06,19.24z"/>
<path fill="#D0D0D0" d="M143.24,19.8c1.13,0.68,2.26,1.38,3.4,2.07c-1.89,3-3.53,6.25-6.12,8.73c-1.56,0.49-3.58-0.44-2.86-2.34
	C139.01,25.14,141.25,22.53,143.24,19.8z"/>
<path fill="#D0D0D0" d="M27,23.13c5.41-3.86,13.25-3.65,18.46,0.47c6.49,4.83,9.07,13.63,7.6,21.41c-0.67,4.9-2.96,9.35-5.45,13.56
	c7.55,2.5,13.93,8.15,16.45,15.81c-1.29,0.54-2.54,1.24-3.91,1.55c-2.53-2.56-3.83-6.13-6.65-8.44c-3.61-3.06-8.36-4.05-12.82-5.22
	c-0.26-0.58-0.78-1.74-1.05-2.33c4.93-5.12,8.62-11.72,8.82-18.97c0.32-6.96-4.33-14.81-11.75-15.51
	c-6.94-0.49-12.48,6.04-13.16,12.53c-1.11,8.44,3.21,16.46,8.94,22.34c-3.31,3.85-9.14,3.07-12.96,6.24
	c-5.7,3.75-7.84,10.67-8.28,17.15c13.61,0.16,27.22-0.08,40.82,0.08c1.94-0.29,3.59,1.18,3.71,3.09c-0.91,2.37-3.72,1.93-5.76,2.06
	c-12.68-0.08-25.37-0.09-38.06,0.01c-1.74-0.09-3.67,0.08-5.16-1.02c-1.33-7.75,0.71-16.26,5.96-22.21c3.02-3.47,7.3-5.41,11.44-7.2
	c-2.75-4.46-5.06-9.31-5.63-14.58C17.38,36.19,20.37,27.62,27,23.13z"/>
<path fill="#D0D0D0" d="M101.69,49.01c-1.38-10.48,6.8-21.05,17.32-22.22c10.96-1.79,22.12,7.17,22.68,18.26
	c0.64,7.4-2.97,16.56-10.68,18.7c-0.22-0.7-0.67-2.09-0.9-2.78c3.82-3.74,7.68-8.25,7.45-13.96c0.49-9.89-9.93-18.34-19.49-15.7
	c-8.61,1.91-14.41,11.7-11.55,20.13c0.94,4.12,4.62,6.53,6.96,9.76c0.37,2.05,0.3,4.15,0.38,6.22c5.84,0.04,11.67,0,17.51,0.07
	c0.38,0.76,1.15,2.27,1.54,3.03c-1.59,0.46-3.13,1.2-4.81,1.18c-6.17,0.05-12.35,0.13-18.5-0.34c-0.06-2.69-0.07-5.38-0.13-8.07
	C105.63,59.37,102.1,54.68,101.69,49.01z"/>
<path fill="#D0D0D0" d="M78.12,46.73c0.21-3.52-1.21-8.44,2.96-10.13c1.1,3.26,1.32,6.7,1.18,10.11c3.04,0.25,6.65-0.83,9.22,1.24
	c0.15,4.6-6.29,2.33-9.25,2.88c-0.02,2.73-0.03,5.46-0.05,8.18c-0.67,0.47-2,1.4-2.66,1.86c-1.71-3.08-1.46-6.63-1.41-10.02
	c-2.88-0.03-5.78,0.14-8.63-0.36c-0.98-1.16-0.23-2.55,0.01-3.81C72.37,46.72,75.25,46.74,78.12,46.73z"/>
<path fill="#D0D0D0" d="M153.37,51.5c8.19,0,16.38-0.17,24.57,0.11c0.38,0.71,1.15,2.13,1.53,2.84c-1.36,0.79-2.71,1.84-4.37,1.77
	c-7.19,0.18-14.39-0.11-21.58,0.04C153.64,54.67,153.58,53.08,153.37,51.5z"/>
<path fill="#D0D0D0" d="M153.37,41.5c8.19,0,16.38-0.17,24.57,0.11c0.38,0.71,1.15,2.13,1.53,2.84c-1.36,0.79-2.71,1.84-4.37,1.77
	c-7.19,0.18-14.39-0.11-21.58,0.04C153.64,44.67,153.58,43.08,153.37,41.5z"/>
<path fill="#D0D0D0" d="M111.33,74.42c6.17-1.02,12.5-0.39,18.73-0.34c2.25-0.44,2.21,2.14,3.07,3.51
	c-5.77,1.01-11.63,0.66-17.46,0.7c0.46,1.09,0.92,2.18,1.38,3.26c2.86,0.01,5.72,0.02,8.58,0.03c1.07-0.94,2.15-1.88,3.23-2.83
	c0.56,0.41,1.69,1.23,2.25,1.64c-0.47,1.76-0.95,3.52-1.43,5.29c-5.22,0.15-10.44,0.15-15.66,0.07
	C112.88,82.1,110.37,78.34,111.33,74.42z"/>
</svg>
