<?xml version="1.0" encoding="utf-8"?>
<!-- Generator: Adobe Illustrator 16.0.4, SVG Export Plug-In . SVG Version: 6.00 Build 0)  -->
<!DOCTYPE svg PUBLIC "-//W3C//DTD SVG 1.1//EN" "http://www.w3.org/Graphics/SVG/1.1/DTD/svg11.dtd">
<svg version="1.1" id="Layer_1" xmlns="http://www.w3.org/2000/svg" xmlns:xlink="http://www.w3.org/1999/xlink" x="0px" y="0px"
	 width="444.6px" height="101.307px" viewBox="0 0 444.6 101.307" enable-background="new 0 0 444.6 101.307" xml:space="preserve">
<path fill="#FFFFFF" d="M259.704,41.547c0.071-3.024,1.008-5.328,2.592-6.984c1.655-1.656,3.744-2.448,6.265-2.448
	c2.807,0,4.967,0.792,6.479,2.448c1.368,1.512,2.231,3.888,2.448,6.984H259.704L259.704,41.547z M284.472,28.299
	c-3.888-4.176-9.288-6.336-16.272-6.336c-6.623,0-11.735,2.16-15.479,6.48c-3.6,4.176-5.399,10.008-5.399,17.424
	c0,7.776,1.871,13.751,5.543,18c3.744,4.248,8.929,6.408,15.553,6.408c5.472,0,10.008-1.296,13.607-3.96
	c3.601-2.592,6.049-6.336,7.272-11.159h-8.712c-1.368,0-2.448,0.287-3.168,0.863c-0.792,0.576-1.225,1.008-1.368,1.368
	c-0.288,0.36-0.647,0.647-0.937,0.937c-0.287,0.287-0.575,0.504-0.936,0.647c-1.439,0.792-3.096,1.224-5.04,1.224
	c-3.024,0-5.327-0.936-6.84-2.808c-1.584-1.728-2.521-4.392-2.592-7.992h30.168c0.071-0.216,0.144-0.648,0.144-1.224v-1.872
	C290.016,38.595,288.145,32.619,284.472,28.299L284.472,28.299z M239.615,23.115c-2.807,0-4.607,1.368-5.471,4.176l-8.209,28.369
	l-9.287-32.544H203.76l16.2,46.369h12.384l16.344-46.369H239.615L239.615,23.115z M190.729,56.164
	c-1.44,2.16-3.024,3.455-4.824,3.959c-1.801,0.504-3.601,0.433-5.328-0.144c-1.729-0.647-2.952-1.44-3.672-2.376
	c-1.729-2.088-2.736-5.76-2.953-11.088c-0.215-5.256,0.865-9.288,3.312-11.952c0.792-0.792,2.088-1.44,3.816-2.016
	c1.8-0.504,3.527-0.432,5.256,0.144c1.729,0.576,3.312,1.872,4.607,3.96c1.369,2.088,2.017,5.256,2.017,9.432
	C192.816,50.763,192.096,54.076,190.729,56.164L190.729,56.164z M192.096,23.403c-3.816-1.368-8.136-1.728-12.888-1.08
	c-4.752,0.576-8.64,2.664-11.664,6.12c-1.872,2.16-3.24,4.752-4.104,7.848c-0.863,3.168-1.367,6.336-1.367,9.432
	c0,3.816,0.576,7.56,1.584,11.088c1.08,3.528,2.808,6.336,5.256,8.425c2.304,2.088,5.4,3.6,9.287,4.463
	c3.961,0.864,7.777,0.793,11.664-0.215c4.248-0.937,7.776-3.312,10.584-7.201c1.297-1.871,2.377-4.104,3.168-6.768
	c0.793-2.664,1.225-5.904,1.225-9.576c0-5.112-1.008-9.648-2.952-13.464C199.8,28.155,196.488,25.131,192.096,23.403L192.096,23.403
	z M150.912,24.339c-2.952,0.792-5.544,2.088-7.776,3.816c-2.304,1.872-4.104,4.32-5.472,7.416c-1.296,3.096-2.016,6.84-2.016,11.376
	v22.537h12.24V45.579c0-3.456,0.792-6.048,2.448-7.632c1.584-1.656,4.104-2.448,7.488-2.448h3.959V23.115h-1.728
	C156.96,23.115,153.863,23.475,150.912,24.339L150.912,24.339z M118.224,56.379c-1.8,2.448-4.176,3.672-7.128,3.672
	c-3.312,0-5.76-1.224-7.488-3.672c-1.8-2.232-2.664-5.544-2.664-9.936c0-4.752,0.864-8.28,2.448-10.44
	c1.728-2.448,4.176-3.672,7.344-3.672c3.24,0,5.688,1.224,7.488,3.672c1.728,2.376,2.592,5.904,2.592,10.44
	C120.816,50.619,119.952,53.931,118.224,56.379L118.224,56.379z M120.6,23.619c-3.024-1.08-5.904-1.656-8.856-1.656
	c-5.544,0-10.729,1.512-15.48,4.464s-7.128,8.568-7.128,16.704v43.416h5.904c1.656,0,3.024-0.576,4.176-1.728
	c1.152-1.152,1.728-2.593,1.728-4.177v-17.28c1.44,2.448,3.312,4.248,5.616,5.4c2.16,1.08,4.752,1.584,7.632,1.584
	c5.472,0,9.936-2.232,13.464-6.624c3.456-4.536,5.184-10.512,5.184-17.784c0-7.128-1.728-12.96-5.184-17.496
	C125.856,26.355,123.552,24.771,120.6,23.619L120.6,23.619z M71.64,56.379c-1.728,2.448-4.104,3.672-7.128,3.672
	c-3.24,0-5.76-1.224-7.488-3.672c-1.728-2.232-2.592-5.544-2.592-9.936c0-4.752,0.792-8.28,2.376-10.44
	c1.8-2.448,4.176-3.672,7.344-3.672c3.24,0,5.76,1.224,7.488,3.672c1.728,2.376,2.592,5.904,2.592,10.44
	C74.232,50.619,73.368,53.931,71.64,56.379L71.64,56.379z M74.016,23.619c-2.952-1.08-5.904-1.656-8.784-1.656
	c-5.616,0-10.8,1.512-15.552,4.464s-7.128,8.568-7.128,16.704v43.416h5.904c1.656,0,3.024-0.576,4.176-1.728
	c1.152-1.152,1.8-2.593,1.8-4.177v-17.28c1.368,2.448,3.24,4.248,5.544,5.4c2.232,1.08,4.752,1.584,7.704,1.584
	c5.4,0,9.864-2.232,13.392-6.624c3.456-4.536,5.256-10.512,5.256-17.784c0-7.128-1.8-12.96-5.256-17.496
	C79.344,26.355,76.968,24.771,74.016,23.619L74.016,23.619z M27.864,50.403c0,3.312-0.936,5.833-2.808,7.704
	c-1.872,1.872-4.392,2.809-7.632,2.809c-3.6,0-6.12-1.801-6.12-5.616c0-5.472,5.544-6.048,9.72-6.984
	c2.952-0.648,5.184-1.44,6.84-2.232V50.403L27.864,50.403z M34.128,25.275c-3.24-2.16-8.136-3.312-14.688-3.312
	c-5.832,0-10.296,1.368-13.392,4.032c-2.808,2.304-4.464,5.328-4.896,8.928h11.664c0.576-1.296,1.512-2.16,2.808-2.664
	c1.296-0.432,2.736-0.648,4.32-0.648c2.808,0,7.704,0.504,7.704,4.176c0,2.304-2.52,3.816-7.632,4.536
	c-2.016,0.216-4.176,0.504-6.12,0.864C5.76,42.771,0,46.659,0,55.66c0,5.184,1.512,9,4.68,11.231
	c6.624,4.824,18.792,4.392,25.992,0.576c2.304-1.152,4.32-3.024,5.976-5.616c1.728-2.664,2.52-6.264,2.52-10.944v-15.84
	C39.168,30.891,37.512,27.651,34.128,25.275z"/>
<path fill="#FFFFFF" d="M444.6,57.675l-1.512-33.696c-0.721-15.048-14.4-25.344-29.016-23.832L320.76,9.939
	c-11.736,1.224-19.872,12.6-20.16,23.904l-0.791,27.288c-0.289,11.448,7.344,23.112,19.655,23.256l38.521,0.576
	c-1.225,6.911-3.457,10.151-9.648,16.344c15.408-3.312,24.984-7.416,32.328-16.056l36.072,0.504
	C432.216,85.971,445.32,73.371,444.6,57.675z M382.68,68.475h-6.119c-1.801,0-3.168-0.576-4.32-1.655
	c-1.08-1.152-1.656-2.593-1.656-4.32V38.811c0-2.808-0.792-4.824-2.52-6.12c-1.656-1.296-3.601-1.872-5.688-1.872
	s-3.96,0.576-5.616,1.872c-1.729,1.296-2.592,3.312-2.592,6.12v29.664h-12.023V38.811c0-4.896-3.385-7.992-8.209-7.992
	s-7.992,3.168-7.992,7.992v29.664h-12.168V41.259c0-10.656,4.248-16.992,14.4-19.512c6.624-1.584,14.904-0.864,20.305,3.6
	c1.728-1.512,3.815-2.592,6.191-3.24c2.376-0.648,4.824-1.008,7.416-1.08c13.032,0,20.592,6.984,20.592,20.232V68.475z
	 M428.256,47.163c0,0.648-0.072,1.008-0.216,1.224h-30.168c0.144,3.601,1.008,6.265,2.664,7.992
	c1.512,1.872,3.743,2.808,6.768,2.808c1.944,0,3.673-0.432,5.04-1.224c0.36-0.144,0.721-0.36,1.008-0.648
	c0.288-0.288,0.576-0.575,0.937-0.936c0.144-0.36,0.575-0.792,1.296-1.368c0.792-0.576,1.872-0.864,3.24-0.864h8.712
	c-1.296,4.824-3.744,8.568-7.345,11.16c-3.6,2.664-8.136,3.96-13.607,3.96c-6.624,0-11.736-2.16-15.48-6.408
	c-3.744-4.176-5.615-10.224-5.615-18c0-7.416,1.8-13.248,5.399-17.424c3.744-4.32,8.929-6.408,15.552-6.408
	c6.984,0,12.385,2.088,16.2,6.264c3.744,4.32,5.616,10.296,5.616,18V47.163z M406.8,31.107c-2.592,0-4.68,0.792-6.264,2.448
	c-1.656,1.656-2.521,3.96-2.664,6.984h17.784c-0.217-3.096-1.008-5.472-2.448-6.984C411.695,31.899,409.607,31.107,406.8,31.107z"/>
</svg>
