<?xml version="1.0" encoding="utf-8"?>
<!-- Generator: Adobe Illustrator 16.0.4, SVG Export Plug-In . SVG Version: 6.00 Build 0)  -->
<!DOCTYPE svg PUBLIC "-//W3C//DTD SVG 1.1//EN" "http://www.w3.org/Graphics/SVG/1.1/DTD/svg11.dtd">
<svg version="1.1" id="Layer_1" xmlns="http://www.w3.org/2000/svg" xmlns:xlink="http://www.w3.org/1999/xlink" x="0px" y="0px"
	 width="244.8px" height="245px" viewBox="0 0 244.8 245" enable-background="new 0 0 244.8 245" xml:space="preserve">
<circle fill="#FFFFFF" stroke="#323538" stroke-width="4" stroke-miterlimit="10" cx="122.828" cy="123.382" r="117.116"/>
<g>
	<path fill="#323538" d="M182.009,43.955c1.109-2.494,2.378-4.919,3.625-7.35c0.803,0.502,1.611,0.994,2.42,1.49
		c-3.165,4.328-6.289,8.693-9.385,13.073C179.473,48.626,180.937,46.38,182.009,43.955z"/>
	<path fill="#323538" d="M144.185,42.697c0.697-0.703,1.391-1.405,2.082-2.113c2.727,3.583,5.839,6.859,8.533,10.473
		C151.212,48.33,147.742,45.461,144.185,42.697z"/>
	<g>
		<path fill="#323538" d="M164.566,46.164c2.251-0.792,4.939-0.46,6.689,1.242c3.393,3.102,3.688,8.365,2.31,12.502
			c-0.931,3.329-3.303,6.05-4.053,9.422c7.149-0.676,14.584-2.985,21.653-0.64c2.896,2.045,5.606,6.616,2.881,9.829
			c1.817,1.881,1.348,4.692,1.647,7.065c0.169,0.026,0.502,0.074,0.667,0.1c-0.635,0.988-1.32,2.003-1.812,3.107
			c-0.697,0.581-1.543,0.935-2.336,1.363c0.207,2.483,0.344,5.448-1.754,7.223c-0.016,2.283-0.459,5.121-2.842,6.114
			c-3.271,0.946-6.675,1.654-10.104,1.49c-3.403-0.117-6.828,0.375-10.204-0.211c-0.835-0.275-1.375,0.645-2.035,0.972
			c0.522,0.724,1.052,1.442,1.585,2.156c-1.125,1.104-2.395,2.04-3.699,2.917c0.502,0.851,0.988,1.712,1.453,2.589
			c-10.31,7.007-20.968,13.485-31.589,20c-1.151-2.51-2.024-5.247-4-7.271c2.142,4.303,3.229,9.026,4.021,13.739
			c1.205,10.341-0.004,20.788,1.074,31.14c0.228,1.95,0.592,3.885,1.135,5.771c-1.822,0.962-3.762,1.664-5.653,2.462
			c-0.556,8.386-0.94,16.776-1.272,25.174c-0.556,2.769,2.426,4.164,4.189,5.67c-1.18,0.867-1.766,2.517-3.355,2.759
			c0.666,0.635,1.49,1.057,2.383,1.258c-1.029-1.803,1.146-2.479,2.272-3.267c0.884,0.713,1.923,1.185,2.837,1.851
			c-0.812,0.602-1.892,1.062-2.197,2.119c-0.244,0.01-0.72,0.037-0.957,0.053c-0.793,1.178,1.357,1.531,2.172,1.416
			c-0.211-0.291-0.635-0.877-0.846-1.168c0.998-0.646,2.002-1.284,3.006-1.924c2.742,1.84,5.918,3.594,7.213,6.822
			c0.904,1.771,0.387,3.741-0.121,5.533l-0.037-0.703c-3.857,0.364-7.848,0.169-11.498-1.227c-1.411-0.569-2.986-1.02-4-2.239
			c-1.215-1.332-2.452-2.669-3.926-3.72c-1.078-0.074-0.297,1.839-0.678,2.461c-2.425-0.491-4.914-0.781-7.25-1.633
			c-0.782-0.258-1.665-1.015-1.506-1.918c0.28-2.479,0.745-4.967,0.523-7.472c-0.602-8.829-0.306-17.696-0.74-26.532
			c-0.491,2.315-0.179,4.709-0.396,7.055c-0.058,7.748-0.888,15.462-1.248,23.193c-0.322,2.028,1.433,4.908-0.681,6.271
			c-2.505,0.761-5.121,1.205-7.715,1.58c-0.095-0.903-0.196-1.803-0.301-2.705c-2.685,1.438-4.154,4.502-7.134,5.438
			c-4.19,1.754-8.894,2.034-13.337,1.231c-0.217-1.759-0.333-3.699,0.719-5.235c1.532-2.871,4.518-4.424,7.186-6.052
			c1.052,0.946,3.583,1.647,2.193,3.403c0.771-0.254,1.564-0.492,2.298-0.856c-0.777-1.247-2.341-1.823-3.223-3.032
			c0.861-0.604,1.775-1.121,2.679-1.649c0.903,0.534,1.781,1.12,2.658,1.707c-0.164,0.555-0.259,1.125-0.322,1.707
			c0.877-0.37,1.707-0.841,2.457-1.421c-0.38-0.123-1.152-0.365-1.537-0.481c-0.513-0.834-1.11-1.61-1.76-2.336
			c1.443-1.058,2.97-2.062,4.08-3.481c0.307-0.809,0.164-1.703,0.217-2.543c-0.021-6.731-0.005-13.463-0.307-20.19
			c-0.872,2.271-2.256,4.476-4.586,5.463c-2.109,1.078-4.55,1.121-6.859,1.327c-1.495,0.18-1.881-1.896-1.162-2.875
			c0.522-1.326,2.124-0.898,3.234-1.047c-1.321-0.581-2.664-1.278-3.261-2.678c0.074-1.168-0.56-2.141-0.983-3.166
			c0.428-2.108,0.201-4.94,2.431-6.072c1.395-0.786,2.806,0.195,3.73,1.211c0.375-1.521,1.194-2.858,2.119-4.1
			c-0.338-0.106-1.015-0.317-1.353-0.424c-0.391,0.666-0.771,1.344-1.146,2.024c-1.221-0.333-2.42-0.734-3.614-1.136
			c-0.196,0.222-0.587,0.67-0.782,0.897c-6.209-1.627-12.545-3.124-18.22-6.209c-1.178-0.761-2.594-2.077-1.854-3.625
			c1.458-4.096,4.433-7.403,7.001-10.838c3.667-4.549,7.53-8.94,11.488-13.242c1.432-1.396,2.558-3.118,4.254-4.223
			c2.299-1.591,4.54-3.418,5.844-5.95c0.555,1.029,0.988,2.146,1.728,3.07c3.091,3.736,6.901,6.759,10.526,9.945
			c-2.225-1.189-4.195-2.779-6.314-4.139c4.158,5.163,8.94,9.771,13.337,14.723c0.951,1.131,1.939,2.234,3.022,3.244
			c-1.311-2.177-2.631-4.349-4.1-6.414c0.327-2.807,0.835-5.582,1.294-8.365c-1.2-0.72-2.352-1.518-3.493-2.326
			c-0.74,1.147-1.496,2.294-2.41,3.32c1.29-3.05,2.632-6.094,4.017-9.084c2.515,1.475,4.946,3.365,6.367,5.965
			c-0.767-0.564-1.506-1.178-2.256-1.758c-0.428,1.193-0.877,2.377-1.315,3.565c1.844,2.235,3.276,4.767,4.951,7.123
			c-0.402,7.551-1.343,15.14-0.429,22.687c0.418-7.019,0.936-14.041,1.1-21.074c0.564-7.799,0.65-15.736-1.189-23.389
			c-1.717,2.748-4.337,5.016-7.62,5.555c-7.43,1.49-14.753-2.241-20.339-6.854c-4.016-3.757-7.804-8.032-9.839-13.215
			c-1.052,1.712-3.224,1.907-4.915,1.083c-3.836-2.023-6.035-6.521-5.76-10.78c0.117-1.374,1.623-2.542,0.687-3.916
			c2.335-1.062,4.365-3.065,4.729-5.707c-1.733,2.013-3.081,4.655-5.765,5.548c-1.073,0.502-2.774,0.523-3.001-0.951
			c1.162-0.042,2.293-0.312,3.324-0.867c-1.242-3.958-2.299-7.984-3.112-12.048c-0.999-4.888,0.164-10.473,3.884-13.966
			c1.073-4.819,5.443-8.064,9.934-9.485c0.381-0.231,0.177-0.126,0.549-0.291c5.369-1.416,11.081-1.426,16.434,0.069
			c1.131-0.782,2.51-1.068,3.662-0.117c-4.169,2.605-7.573,6.288-11.948,8.587c-0.011,0.185-1.75,0.771-2.469,0.956
			c-3.699,1.3-7.72,1.184-11.567,0.729c-2.108,2.256-3.482,5.66-2.045,8.624c1.02,2.24,0.962,4.708,0.227,7.018
			c1.342-1.469,1.585-3.467,1.49-5.374c0.698,0.792,1.342,1.68,1.448,2.769c-0.84,4.344-3.731,7.784-5.929,11.483
			c2.299-1.781,4.132-4.148,5.385-6.764c-0.27,2.288,1.141,4.428,0.755,6.668c0.143,0.042,0.428,0.122,0.571,0.158
			c0.169,1.3-0.328,2.537-0.645,3.773c0.507-0.787,0.962-1.601,1.448-2.399c1.427,3.414,3.646,6.41,5.136,9.792
			c-0.75-0.207-1.749-0.079-2.182-0.872c-1.691-2.013-3.023-4.661-5.729-5.469c-1.405-0.687-3.498-0.095-3.852,1.559
			c-0.412,2.023,0.365,4.063,1.115,5.913c1.036,2.251,3.271,4.523,5.971,4.038c1.088-0.771,1.104-2.22,1.4-3.393
			c0.159,0.063,0.481,0.19,0.645,0.253c2.019,5.564,6.05,10.087,10.283,14.098c4.228,3.763,9.427,6.849,15.176,7.313
			c3.567,0.291,7.663-0.485,9.787-3.661c2.604-3.963,3.478-8.835,3.62-13.506c0.211-9.448-2.743-18.775-7.651-26.792
			c0.238,0,0.713-0.005,0.951-0.01c4.65,5.617,7.267,12.714,8.322,19.879c0.671,4.809,0.745,9.787-0.549,14.5
			c9.585-7.498,19.065-15.123,28.635-22.643c0.206,0.275,0.624,0.819,0.83,1.094c1.062-0.888,2.155-1.733,3.229-2.605
			c0.744,1.125,2.293-0.08,1.664-1.083c-1.943-4.603-2.736-9.602-3.043-14.558c0-2.283-0.354-4.713,0.702-6.833
			c1.628-3.493,3.292-6.986,4.544-10.637c0.979-4.845,1.194-9.881,0.565-14.791C162.78,47.421,163.46,46.37,164.566,46.164z
			 M164.444,48.409c0.655,4.381,0.37,8.856-0.164,13.243c-0.719,5.152-3.847,9.474-5.396,14.357
			c-0.549,4.582,0.359,9.179,1.143,13.681c0.523,2.89,1.665,5.712,3.826,7.773c-0.534-0.09-1.596-0.27-2.13-0.359
			c-0.576,0.497-1.146,0.999-1.707,1.506c1.495,1.892,2.912,3.842,4.254,5.839c0.386-0.227,1.157-0.687,1.538-0.914
			c-0.275-0.882-1.732-1.807-0.946-2.726c1.775-0.729,1.718,2.171,3.187,2.541c1.527,0.396,3.127,0.307,4.691,0.434
			c-1.686-1.596-2.172-3.91-1.77-6.135c-0.994-0.364-1.84-1.004-2.479-1.844c-0.861,0.243-1.728,0.481-2.595,0.703
			c1.108-1.929,2.22-3.968,2.399-6.225c-0.228-1.226-0.607-2.457-0.354-3.709c0.231-2.129,1.058-4.861,3.608-5.057
			c-0.682-2.399-0.846-5.723,1.455-7.319c2.789-0.856,5.76-0.148,8.592-0.512c1.585-0.841,3.012-2.082,4.83-2.394
			c0.037,0.238,0.117,0.713,0.158,0.957c-1.235,1.321-2.896,2.156-4.502,2.943c-2.842,0.455-5.859-0.438-8.633,0.518
			c-0.963,1.574-1.227,4.089-0.08,5.564c3.557,1.073,7.508,1.463,11.039,0.084c2.954-1.041,6.141-2.092,8.307-4.465
			c0.963-0.893,0.502-2.341,0-3.356c-0.809-1.453-1.771-3.191-3.566-3.498c-5.943-1.279-11.979,0.206-17.855,1.152
			c0.455,0.544,0.888,1.11,1.299,1.691c-1.061,1.078-2.456,0-3.148-0.925c-0.744-1.01-1.775-2.051-1.797-3.366
			c1.236-4.365,4.607-8.032,4.809-12.704c0.207-2.933-0.824-6.246-3.541-7.741C167.53,47.221,165.796,47.686,164.444,48.409z
			 M92.373,67.486c-1.876,0.882-3.926,1.236-5.881,1.891c5.438,0.56,10.568-2.626,14.019-6.584
			C97.868,64.473,95.184,66.101,92.373,67.486z M191.332,80.189c-2.774,1.411-5.729,2.457-8.693,3.408
			c-3.926,1.121-7.926-0.993-11.821-0.126c-1.659,1.273-1.263,3.81-1.284,5.691c3.557,0.333,7.018,2.024,10.627,1.269
			c3.762-0.629,7.541-1.237,11.229-2.23c0.818-0.348,2.14-0.491,2.156-1.643c0.259-1.76,0.242-3.572-0.08-5.321
			C193.359,80.257,192.155,79.655,191.332,80.189z M177.523,91.771c-2.674-0.037-5.279-0.798-7.953-0.782
			c0.026,1.485-0.242,3.16,0.661,4.465c1.761,1.004,3.752,1.617,5.749,1.923c2.917,0.069,5.844-0.285,8.734-0.666
			c0.697-0.026,1.147-1.231,1.861-0.761c1.014,0.952,2.473-0.005,3.201-0.872c1.174-1.348,0.143-3.351,1.311-4.703
			C186.548,90.535,182.078,91.703,177.523,91.771z M155.535,99.846c2.42,3.387,4.856,6.759,7.182,10.209
			c0.925-0.788,1.871-1.543,2.816-2.299c-2.562-3.329-4.898-6.827-7.42-10.178C157.257,98.34,156.402,99.101,155.535,99.846z
			 M181.703,98.562c-3,0.433-6.088,0.586-9.031-0.264c0.148,1.13-0.068,2.51,0.861,3.376c1.131,1.178,2.864,1.421,4.418,1.458
			l-0.386,0.608c3.097-1.279,6.886-0.671,9.86-2.489c1.152-0.782,0.93-2.346,1.184-3.535c-1.453,0.206-2.906,0.434-4.37,0.539
			C183.473,97.399,182.58,98.673,181.703,98.562z M125.843,128.825c1.082,2.219,1.986,4.518,2.906,6.806
			c-0.713,0.829-1.422,1.659-2.115,2.504c0.936,1.231,1.978,2.441,2.58,3.879c-0.201,2.643-0.787,5.242-1.047,7.885
			c-0.67,5.707-2.334,11.266-2.694,17.009c1.543-4.091,2.331-8.412,2.88-12.735c0.729-4.206,1.443-8.418,1.906-12.661
			c-0.786-1.052-1.668-2.034-2.287-3.192c0.115-1.088,1.273-1.774,1.923-2.604C128.686,133.348,127.75,130.753,125.843,128.825z
			 M97.081,133.248l0.661,0.624c1.02,2.579,1.686,5.284,2.473,7.942c0.19,0.586,0.317,1.479,1.184,1.293
			c1.506,0.111,3.012,0.271,4.481,0.64c-0.486,1.421-1.136,2.778-1.881,4.085c4.555,3.535,9.01,7.223,13.021,11.372
			c1.897,2.022,3.657,4.18,5.59,6.172c-1.511-3.551-4.401-6.214-7.064-8.903c-3.255-3.171-6.786-6.029-10.315-8.879
			c0.666-1.469,1.279-2.959,1.76-4.496c-1.839-0.561-3.742-0.841-5.654-0.856c-0.793-2.996-1.797-5.966-3.477-8.593
			C97.726,133.316,97.382,133.29,97.081,133.248z M96.891,150.029c-0.459,1.238-0.486,2.871-1.76,3.6
			c-3.365,2.219-6.71,4.492-9.802,7.086c-1.86-0.666-3.884-0.307-5.559,0.666c0.882,0.08,2.008-0.354,2.589,0.544l-0.344-0.909
			c4.803,0.364,8.951,3.166,13.649,4.026c0.391,1.222,1.923,0.987,2.896,1.358c-0.079,0.343-0.243,1.035-0.322,1.379
			c0.459,0.111,1.384,0.322,1.844,0.433c-0.143-5.325-1.136-10.558-2.595-15.662c0.851-2.965,1.015-6.209-0.491-9.004
			C97.298,145.697,97.599,147.917,96.891,150.029z M91.369,171.723c0.84,0.327,1.69,0.645,2.546,0.945
			c1.1-1.807,2.14-3.646,3.208-5.475c-0.713-0.231-1.422-0.459-2.135-0.676C93.683,168.182,92.605,170.004,91.369,171.723z
			 M97.282,168.784c-0.428,0.708-0.777,1.464-1.125,2.214c0.94,0.281,1.854,0.645,2.737,1.084c-1.622,1.227-2.764,2.848-3.16,4.861
			c-1.152,0.613-2.42,0.981-3.683,1.293c0.433-0.666,0.956-1.258,1.564-1.771c-1.559-1.653-4.359,0.777-3.345,2.626
			c1.11,2.506,4.402,1.231,6.373,0.688c-1.184,2.42-5.015,2.166-6.88,0.613c0.169,0.945,0.243,2.129,1.326,2.482
			c2.341,1.337,4.856-0.062,7.039-0.988c-1.422,2.954-5.216,2.547-7.89,2.108c0.962,0.81,1.929,1.76,3.239,1.955
			c2.125,0.479,4.063-0.714,5.939-1.507c-0.021,0.666-0.301,1.343-0.988,1.576c-1.664,0.729-3.376,1.362-5.088,1.986
			c-0.021,0.412-0.058,1.242-0.079,1.654c2.309-0.413,4.809-1.11,6.415-2.938c1.496-2.389,2.23-5.168,2.875-7.89
			c0.217-0.132,0.65-0.386,0.867-0.519c-0.153-0.125-0.465-0.391-0.618-0.518c-0.232-2.494,0.417-5.146-0.513-7.529
			C100.706,169.566,98.989,168.953,97.282,168.784z M124.464,180.932c-0.026,8.566,0.074,17.143,0.369,25.709
			c0.629-0.117,1.252-0.223,1.881-0.328c-0.073-8.719,0-17.438-0.03-26.156C125.938,180.404,125.199,180.657,124.464,180.932z
			 M121.087,181.557c-0.026,8.702,1.036,17.426,0.132,26.119c0.946-0.227,1.898-0.443,2.849-0.66
			c-0.232-1.162,0.491-3.054-0.982-3.551c0.242,0.085,0.733,0.243,0.977,0.322c-0.443-7.604-0.216-15.234-0.438-22.85
			C122.773,181.139,121.928,181.344,121.087,181.557z M117.668,182.146c-0.307,8.641-0.032,17.302,0.597,25.924
			c0.813-0.104,1.627-0.211,2.436-0.316c0.169-8.666-0.322-17.327-0.496-25.992C119.359,181.889,118.514,182.021,117.668,182.146z
			 M104.896,183.02c0.074,0.271,0.222,0.819,0.296,1.094c-0.265-0.041-0.798-0.121-1.062-0.163l0.761,0.333
			c0.074,7.482-0.544,14.98-0.661,22.474c0.624,0.142,1.247,0.295,1.876,0.444c0.486-7.271,0.74-14.553,1.189-21.824
			c0.037-0.783-0.037-1.564-0.084-2.341C106.439,183.036,105.668,183.025,104.896,183.02z M108.167,183.115
			c-0.544,8.152-0.692,16.333-1.395,24.476c0.961,0.291,1.923,0.571,2.89,0.856c-0.501-5.86,0.132-11.731,0.502-17.581
			c-0.328-0.46-0.957-1.21-0.005-1.38c0.417-2.139,0.407-4.327,0.607-6.488C109.9,183.041,109.034,183.078,108.167,183.115z
			 M111.649,182.93c-0.708,8.471-1.226,16.957-1.548,25.454c0.835,0.185,1.664,0.375,2.504,0.56
			c0.94-8.702,1.305-17.448,1.707-26.193C113.42,182.809,112.538,182.872,111.649,182.93z M90.671,189.075
			c0.365,0.485,0.903,0.592,1.612,0.312c0.56-0.222,0.745-0.57,0.549-1.046C91.961,188.161,91.242,188.404,90.671,189.075z"/>
	</g>
	<path fill="#323538" d="M193.455,59.458c3.403-2.145,6.812-4.286,10.305-6.283c0.27,0.581,0.545,1.163,0.82,1.744
		C200.805,56.272,197.228,58.111,193.455,59.458z"/>
	<path fill="#323538" d="M107.28,61.134c1.506-1.057,3.461-1.094,5.041-0.174c-0.037,0.576-0.084,1.152-0.143,1.723
		c-3.044-1.147-5.897,0.687-8.233,2.452c2.769,2.716,6.304,5.089,7.319,9.073c-2.859-2.758-5.47-5.807-8.788-8.064
		c-1.01,0.597-2.056,1.147-3.192,1.454C101.964,65.467,104.405,63.004,107.28,61.134z"/>
	<path fill="#323538" d="M138.035,61.16c4.18,0.882,8.412,1.474,12.565,2.484c-4.308-0.011-8.593-0.444-12.888-0.682
		C137.791,62.513,137.955,61.609,138.035,61.16z"/>
	<path fill="#323538" d="M89.339,76.601c0.777-1.797,2.69-4.058,4.862-3.26C92.315,73.996,90.714,75.174,89.339,76.601z"/>
	<path fill="#323538" d="M103.581,77.531c0.037-1.818,1.342-3.345,3.229-3.319c4.423-0.66,7.813,2.875,9.086,6.732
		c0.135,0.295,0.181,0.445,0.191,0.509c0.301,1.4,0.79,2.661,0.921,4.093c-1.168-0.856-1.22-2.473-1.86-3.678
		c-0.92-1.945-1.924-4.302-4.211-4.904C108.532,75.919,105.858,76.426,103.581,77.531z"/>
	<path fill="#323538" d="M89.932,78.688c1.167-2.246,3.271-4.492,6.077-3.805C93.842,75.914,91.833,77.224,89.932,78.688z"/>
	<path fill="#323538" d="M201.126,75.861c3.006-0.328,6.041-0.201,9.058-0.375c0.026,0.661,0.037,1.321,0.032,1.987
		C207.194,76.892,204.134,76.516,201.126,75.861z"/>
	<path fill="#323538" d="M93.567,78.667c1.67-1.036,3.715-0.301,5.343,0.444c-4.054,1.479-7.182,4.697-9.248,8.407
		c-0.438,0.803-1.004,1.527-1.569,2.246c0.491-1.775,0.2-3.725,1.125-5.379C90.106,82.123,91.602,80.109,93.567,78.667z"/>
	<path fill="#323538" d="M141.332,80.86c2.799-0.851,5.496-2.019,8.328-2.759c-2.326,1.76-4.979,3.018-7.494,4.471
		C141.886,81.996,141.611,81.431,141.332,80.86z"/>
	<path fill="#323538" d="M104.114,83.148c0.909,1.538,1.131,3.382,2.114,4.872c2.077,2.478,5.533,2.917,7.937,4.951
		c1.76,1.4,3.382,3.376,3.435,5.723c0.095,2.314-2.362,4.195-4.586,3.545c-1.945-0.459-4.307-0.941-5.348-2.843
		c2.151,1.015,4.666,1.517,6.986,0.824c1.463-0.75,1.226-2.874,0.507-4.095c-1.876-2.859-5.104-4.275-8.047-5.754
		C105.06,88.659,103.956,85.8,104.114,83.148z"/>
	<path fill="#323538" d="M108.58,88.596c-1.406-1.162,0.285-2.626,1.369-3.239c1.817-0.978,4.967-1.231,5.844,1.094
		C113.203,86.202,110.271,86.281,108.58,88.596z"/>
	<path fill="#323538" d="M95.697,90.932c1.448-0.571,3.604-0.904,4.523,0.687c-3.197-0.127-6.029,1.96-7.625,4.597
		c-0.158,0.143-0.481,0.417-0.645,0.555C91.083,94.176,93.361,91.703,95.697,90.932z"/>
	<path fill="#323538" d="M78.391,103.244c1.801-1.215,4.047,0.143,5.125,1.696c-1.03-0.338-2.013-0.983-3.133-0.936
		c-0.793,0.27-1.48,0.756-2.214,1.136C77.498,104.623,77.672,103.619,78.391,103.244z"/>
	<g>
		<path fill="#323538" d="M107.776,108.824c4.333-0.65,9.01-2.377,11.234-6.436c0.084,1.062-0.164,2.114-0.782,2.985
			c-2.409,3.044-0.138,7.551-2.864,10.468c-2.806,2.299-7.345,2.082-9.934-0.486c-1.643-1.405-2.885-3.17-4.027-4.988
			c-0.978-1.617-2.557-2.695-4.005-3.852c-0.851,1.136-1.442,2.515-2.616,3.371c0.153-3.081,2.299-6.33,5.638-6.436
			c0.032,1.167-1.199,1.521-1.95,2.134C100.537,108.491,104.426,109.273,107.776,108.824z M102.925,109.881
			c3.303,2.663,8.661,3.662,12,0.533c-0.142-0.74-0.285-1.474-0.417-2.214C110.931,110.013,106.852,110.309,102.925,109.881z"/>
	</g>
	<path fill="#323538" d="M113.103,120.872c1.617-0.185,2.906-1.242,4.211-2.114c-0.739,1.443-1.595,3.06-3.202,3.673
		c-2.373,0.834-5.216-0.232-6.405-2.473C109.415,120.624,111.248,121.3,113.103,120.872z"/>
</g>
<g>
	<path fill="#FEFDFD" d="M164.444,48.409c1.353-0.724,3.086-1.188,4.47-0.264c2.717,1.495,3.748,4.808,3.541,7.741
		c-0.201,4.671-3.572,8.338-4.809,12.704c0.021,1.315,1.053,2.356,1.797,3.366c0.691,0.925,2.087,2.003,3.148,0.925
		c-0.411-0.582-0.844-1.147-1.299-1.691c5.875-0.946,11.912-2.431,17.855-1.152c1.796,0.307,2.758,2.045,3.566,3.498
		c0.502,1.015,0.963,2.463,0,3.356c-2.166,2.373-5.353,3.424-8.307,4.465c-3.529,1.379-7.482,0.988-11.039-0.084
		c-1.146-1.475-0.883-3.99,0.079-5.564c2.774-0.957,5.792-0.063,8.634-0.518c1.606-0.788,3.267-1.623,4.502-2.943
		c-0.041-0.243-0.121-0.719-0.158-0.957c-1.817,0.312-3.244,1.553-4.83,2.394c-2.832,0.364-5.803-0.344-8.592,0.512
		c-2.299,1.596-2.135,4.919-1.455,7.319c-2.551,0.195-3.375,2.927-3.608,5.057c-0.253,1.252,0.127,2.483,0.354,3.709
		c-0.18,2.257-1.291,4.296-2.399,6.225c0.867-0.222,1.733-0.46,2.595-0.703c0.639,0.84,1.484,1.479,2.479,1.844
		c-0.402,2.225,0.084,4.54,1.77,6.135c-1.564-0.127-3.164-0.037-4.691-0.434c-1.469-0.37-1.412-3.271-3.187-2.541
		c-0.786,0.919,0.671,1.844,0.946,2.726c-0.381,0.228-1.152,0.687-1.538,0.914c-1.343-1.997-2.759-3.947-4.254-5.839
		c0.56-0.507,1.131-1.009,1.707-1.506c0.534,0.09,1.596,0.27,2.13,0.359c-2.161-2.061-3.303-4.883-3.826-7.773
		c-0.781-4.502-1.691-9.1-1.143-13.681c1.549-4.883,4.677-9.205,5.396-14.357C164.814,57.266,165.099,52.79,164.444,48.409z"/>
	<path fill="#FEFDFD" d="M92.373,67.486c2.811-1.385,5.495-3.013,8.137-4.693c-3.45,3.958-8.581,7.144-14.019,6.584
		C88.447,68.722,90.497,68.368,92.373,67.486z"/>
	<path fill="#FEFDFD" d="M191.332,80.189c0.823-0.534,2.028,0.068,2.135,1.046c0.322,1.749,0.338,3.562,0.078,5.321
		c-0.016,1.152-1.336,1.295-2.155,1.643c-3.688,0.994-7.468,1.602-11.229,2.23c-3.609,0.755-7.07-0.936-10.625-1.269
		c0.021-1.881-0.375-4.417,1.283-5.691c3.895-0.867,7.895,1.247,11.821,0.126C185.603,82.646,188.556,81.6,191.332,80.189z"/>
	<path fill="#FEFDFD" d="M177.523,91.771c4.555-0.068,9.025-1.236,13.564-1.395c-1.168,1.353-0.137,3.355-1.312,4.703
		c-0.729,0.867-2.188,1.823-3.202,0.872c-0.713-0.47-1.162,0.735-1.859,0.761c-2.892,0.38-5.818,0.734-8.735,0.666
		c-1.997-0.306-3.989-0.919-5.749-1.923c-0.904-1.305-0.634-2.98-0.661-4.465C172.244,90.974,174.849,91.735,177.523,91.771z"/>
	<path fill="#FEFDFD" d="M155.535,99.846c0.867-0.745,1.723-1.506,2.579-2.267c2.521,3.351,4.856,6.849,7.419,10.178
		c-0.945,0.755-1.892,1.511-2.816,2.299C160.391,106.604,157.955,103.233,155.535,99.846z"/>
	<path fill="#FEFDFD" d="M181.703,98.562c0.877,0.111,1.771-1.163,2.537-0.307c1.463-0.105,2.918-0.333,4.37-0.539
		c-0.253,1.189-0.032,2.753-1.185,3.535c-2.975,1.818-6.764,1.21-9.859,2.489l0.387-0.608c-1.555-0.037-3.287-0.28-4.418-1.458
		c-0.931-0.866-0.714-2.246-0.861-3.376C175.615,99.148,178.701,98.995,181.703,98.562z"/>
	<path fill="#FEFDFD" d="M102.925,109.881c3.926,0.428,8.006,0.132,11.583-1.681c0.132,0.74,0.275,1.474,0.417,2.214
		C111.586,113.542,106.228,112.544,102.925,109.881z"/>
	<path fill="#FEFDFD" d="M125.843,128.825c1.906,1.929,2.843,4.522,4.053,6.89c-0.65,0.83-1.807,1.518-1.923,2.605
		c0.618,1.156,1.5,2.14,2.288,3.191c-0.465,4.243-1.178,8.455-1.907,12.661c-0.549,4.323-1.337,8.646-2.88,12.735
		c0.359-5.744,2.023-11.303,2.695-17.01c0.259-2.643,0.845-5.241,1.045-7.883c-0.602-1.438-1.644-2.647-2.578-3.88
		c0.691-0.846,1.4-1.675,2.113-2.504C127.83,133.343,126.927,131.044,125.843,128.825z"/>
	<path fill="#FEFDFD" d="M97.081,133.248c0.301,0.042,0.645,0.068,0.777,0.4c1.68,2.627,2.684,5.597,3.477,8.593
		c1.913,0.016,3.815,0.296,5.654,0.856c-0.481,1.537-1.094,3.027-1.76,4.496c3.529,2.85,7.06,5.708,10.315,8.879
		c2.663,2.688,5.553,5.353,7.064,8.903c-1.934-1.992-3.693-4.147-5.59-6.172c-4.011-4.147-8.465-7.837-13.021-11.372
		c0.745-1.307,1.396-2.664,1.881-4.085c-1.469-0.37-2.975-0.528-4.481-0.64c-0.867,0.186-0.994-0.707-1.184-1.293
		c-0.788-2.658-1.454-5.364-2.473-7.942L97.081,133.248z"/>
	<path fill="#FEFDFD" d="M96.891,150.029c0.708-2.112,0.407-4.332,0.106-6.482c1.506,2.795,1.342,6.04,0.491,9.004
		c1.458,5.104,2.452,10.336,2.595,15.662c-0.46-0.111-1.385-0.322-1.844-0.434c0.079-0.342,0.243-1.035,0.322-1.379
		c-0.972-0.369-2.505-0.137-2.896-1.357c-4.698-0.861-8.846-3.662-13.649-4.025l0.344,0.908c-0.582-0.898-1.707-0.465-2.589-0.544
		c1.675-0.972,3.699-1.331,5.559-0.666c3.091-2.594,6.437-4.866,9.802-7.086C96.405,152.898,96.431,151.268,96.891,150.029z"/>
	<path fill="#FEFDFD" d="M91.369,171.723c1.236-1.718,2.314-3.541,3.619-5.205c0.713,0.217,1.422,0.443,2.135,0.676
		c-1.068,1.828-2.108,3.668-3.208,5.475C93.06,172.366,92.209,172.05,91.369,171.723z"/>
	<path fill="#FEFDFD" d="M97.282,168.784c1.707,0.169,3.424,0.782,5.003,1.485c0.93,2.383,0.281,5.035,0.513,7.529
		c0.153,0.126,0.465,0.391,0.618,0.518c-0.217,0.133-0.65,0.387-0.867,0.519c-0.645,2.722-1.379,5.501-2.875,7.89
		c-1.606,1.828-4.105,2.525-6.415,2.938c0.021-0.413,0.058-1.242,0.079-1.654c1.712-0.624,3.424-1.258,5.088-1.986
		c0.688-0.232,0.967-0.91,0.988-1.576c-1.876,0.793-3.815,1.986-5.939,1.507c-1.311-0.195-2.277-1.146-3.239-1.955
		c2.674,0.438,6.468,0.846,7.89-2.108c-2.183,0.926-4.698,2.325-7.039,0.988c-1.083-0.354-1.157-1.537-1.326-2.482
		c1.865,1.553,5.696,1.807,6.88-0.613c-1.971,0.544-5.263,1.818-6.373-0.688c-1.014-1.85,1.786-4.279,3.345-2.626
		c-0.608,0.513-1.131,1.104-1.564,1.771c1.263-0.312,2.531-0.682,3.683-1.293c0.396-2.014,1.538-3.637,3.16-4.861
		c-0.882-0.439-1.796-0.803-2.737-1.084C96.505,170.248,96.854,169.492,97.282,168.784z"/>
	<path fill="#FEFDFD" d="M124.464,180.932c0.734-0.274,1.475-0.527,2.22-0.777c0.03,8.72-0.042,17.438,0.03,26.158
		c-0.627,0.104-1.252,0.211-1.881,0.326C124.539,198.074,124.438,189.498,124.464,180.932z"/>
	<path fill="#FEFDFD" d="M121.087,181.557c0.84-0.211,1.686-0.418,2.536-0.619c0.223,7.615-0.004,15.246,0.438,22.85
		c-0.243-0.079-0.733-0.237-0.978-0.322c1.475,0.497,0.75,2.389,0.983,3.551c-0.95,0.217-1.902,0.434-2.849,0.66
		C122.123,198.982,121.061,190.259,121.087,181.557z"/>
	<path fill="#FEFDFD" d="M117.668,182.146c0.845-0.125,1.691-0.258,2.537-0.385c0.174,8.665,0.666,17.326,0.496,25.992
		c-0.808,0.105-1.622,0.211-2.436,0.316C117.637,199.448,117.362,190.788,117.668,182.146z"/>
	<path fill="#FEFDFD" d="M104.896,183.02c0.771,0.006,1.543,0.017,2.314,0.017c0.047,0.776,0.122,1.558,0.084,2.341
		c-0.449,7.271-0.703,14.553-1.189,21.824c-0.629-0.148-1.252-0.303-1.876-0.444c0.117-7.493,0.735-14.991,0.661-22.474
		l-0.761-0.333c0.264,0.042,0.797,0.122,1.062,0.164C105.119,183.838,104.97,183.289,104.896,183.02z"/>
	<path fill="#FEFDFD" d="M108.167,183.115c0.866-0.037,1.733-0.074,2.6-0.117c-0.201,2.162-0.19,4.35-0.607,6.488
		c-0.951,0.17-0.323,0.92,0.005,1.38c-0.37,5.85-1.004,11.72-0.502,17.581c-0.967-0.286-1.929-0.565-2.89-0.856
		C107.476,199.448,107.623,191.268,108.167,183.115z"/>
	<path fill="#FEFDFD" d="M111.649,182.93c0.888-0.058,1.771-0.121,2.664-0.18c-0.402,8.745-0.767,17.491-1.707,26.193
		c-0.84-0.185-1.669-0.375-2.504-0.56C110.424,199.887,110.942,191.4,111.649,182.93z"/>
	<path fill="#FEFDFD" d="M90.671,189.075c0.57-0.671,1.29-0.915,2.161-0.734c0.195,0.476,0.011,0.824-0.549,1.046
		C91.575,189.667,91.036,189.562,90.671,189.075z"/>
</g>
</svg>
