<?xml version="1.0" encoding="utf-8"?>
<!-- Generator: Adobe Illustrator 16.0.4, SVG Export Plug-In . SVG Version: 6.00 Build 0)  -->
<!DOCTYPE svg PUBLIC "-//W3C//DTD SVG 1.1//EN" "http://www.w3.org/Graphics/SVG/1.1/DTD/svg11.dtd">
<svg version="1.1" id="Layer_1" xmlns="http://www.w3.org/2000/svg" xmlns:xlink="http://www.w3.org/1999/xlink" x="0px" y="0px"
	 width="217.762px" height="204.605px" viewBox="1.9 48.395 217.762 204.605" enable-background="new 1.9 48.395 217.762 204.605"
	 xml:space="preserve">
<path fill="#323538" d="M211.473,80.986c2.7-0.402,5.427-0.633,8.147-0.885c0.008,0.947,0.026,1.893,0.041,2.841
	c-5.35-0.348-10.71-0.642-16.066-0.903C206.171,81.353,208.852,81.383,211.473,80.986z"/>
<path fill="#323538" d="M192.237,48.395c0.967,0.211,1.932,0.419,2.9,0.623c-1.561,4.224-2.654,8.608-4.258,12.821
	C191.254,57.348,191.813,52.879,192.237,48.395z"/>
<path fill="#323538" d="M166.858,107.898c-1.125,1.104-2.396,2.04-3.698,2.917c0.502,0.851,0.987,1.712,1.452,2.589
	c-10.31,7.007-20.968,13.485-31.589,20c-1.15-2.51-2.023-5.247-4-7.271c2.143,4.303,3.229,9.026,4.021,13.739
	c1.205,10.341-0.004,20.788,1.074,31.14c0.228,1.95,0.592,3.885,1.135,5.771c-1.822,0.962-3.762,1.664-5.653,2.462
	c-0.556,8.386-0.94,16.776-1.272,25.174c-0.556,2.769,2.426,4.164,4.189,5.67c-1.18,0.867-1.766,2.517-3.355,2.759
	c0.666,0.635,1.49,1.057,2.383,1.258c-1.028-1.803,1.146-2.479,2.272-3.267c0.884,0.713,1.923,1.185,2.837,1.851
	c-0.812,0.603-1.892,1.062-2.197,2.119c-0.244,0.01-0.72,0.037-0.957,0.053c-0.793,1.179,1.357,1.531,2.172,1.416
	c-0.211-0.291-0.635-0.877-0.846-1.168c0.998-0.646,2.002-1.283,3.006-1.924c2.742,1.84,5.918,3.594,7.213,6.822
	c0.904,1.771,0.388,3.741-0.121,5.533l-0.036-0.703c-3.857,0.364-7.849,0.169-11.498-1.227c-1.411-0.569-2.986-1.021-4-2.239
	c-1.216-1.332-2.452-2.669-3.927-3.72c-1.078-0.074-0.297,1.839-0.678,2.461c-2.425-0.491-4.914-0.781-7.25-1.633
	c-0.782-0.258-1.665-1.016-1.506-1.918c0.28-2.479,0.745-4.967,0.523-7.473c-0.602-8.828-0.306-17.695-0.74-26.531
	c-0.491,2.314-0.179,4.709-0.396,7.055c-0.058,7.748-0.888,15.462-1.248,23.193c-0.322,2.027,1.433,4.907-0.681,6.271
	c-2.505,0.761-5.121,1.205-7.715,1.58c-0.095-0.903-0.196-1.804-0.301-2.705c-2.685,1.438-4.154,4.502-7.134,5.438
	c-4.19,1.754-8.894,2.033-13.337,1.23c-0.217-1.76-0.333-3.699,0.719-5.234c1.532-2.871,4.518-4.425,7.186-6.053
	c1.052,0.945,3.583,1.646,2.193,3.402c0.771-0.254,1.564-0.491,2.298-0.855c-0.777-1.247-2.341-1.822-3.223-3.031
	c0.861-0.604,1.775-1.121,2.679-1.649c0.903,0.534,1.781,1.12,2.658,1.707c-0.164,0.555-0.259,1.125-0.322,1.706
	c0.877-0.369,1.707-0.84,2.457-1.42c-0.38-0.123-1.152-0.365-1.537-0.481c-0.513-0.834-1.11-1.61-1.76-2.336
	c1.443-1.058,2.97-2.062,4.08-3.481c0.307-0.809,0.164-1.703,0.217-2.543c-0.021-6.73-0.005-13.463-0.307-20.189
	c-0.872,2.271-2.256,4.477-4.586,5.463c-2.109,1.078-4.55,1.121-6.859,1.327c-1.495,0.18-1.881-1.896-1.162-2.875
	c0.522-1.326,2.124-0.897,3.234-1.048c-1.321-0.58-2.664-1.277-3.261-2.678c0.074-1.168-0.56-2.141-0.983-3.166
	c0.428-2.107,0.201-4.939,2.431-6.072c1.395-0.785,2.806,0.195,3.73,1.212c0.375-1.521,1.194-2.858,2.119-4.101
	c-0.338-0.105-1.015-0.316-1.353-0.424c-0.391,0.666-0.771,1.344-1.146,2.024c-1.221-0.333-2.42-0.734-3.614-1.136
	c-0.196,0.222-0.587,0.67-0.782,0.896c-6.209-1.627-12.545-3.124-18.22-6.209c-1.178-0.761-2.594-2.077-1.854-3.625
	c1.458-4.096,4.433-7.402,7.001-10.838c3.667-4.549,7.53-8.939,11.488-13.242c1.432-1.396,2.558-3.117,4.254-4.223
	c2.299-1.592,4.54-3.418,5.844-5.95c0.555,1.028,0.988,2.146,1.728,3.069c3.091,3.736,6.901,6.76,10.526,9.945
	c-2.225-1.188-4.195-2.779-6.314-4.139c4.158,5.163,8.94,9.771,13.337,14.723c0.951,1.131,1.939,2.234,3.022,3.244
	c-1.311-2.177-2.631-4.349-4.1-6.414c0.327-2.807,0.835-5.582,1.294-8.365c-1.2-0.72-2.352-1.518-3.493-2.326
	c-0.74,1.147-1.496,2.295-2.41,3.32c1.29-3.05,2.632-6.094,4.017-9.084c2.515,1.475,4.946,3.365,6.367,5.965
	c-0.767-0.563-1.506-1.178-2.256-1.758c-0.428,1.193-0.877,2.377-1.315,3.565c1.844,2.235,3.276,4.767,4.951,7.123
	c-0.402,7.551-1.343,15.14-0.429,22.687c0.418-7.019,0.936-14.041,1.1-21.074c0.564-7.799,0.65-15.735-1.189-23.389
	c-1.717,2.748-4.336,5.016-7.62,5.555c-7.43,1.49-14.753-2.24-20.339-6.854c-4.016-3.757-7.804-8.032-9.839-13.215
	c-1.052,1.712-3.224,1.907-4.915,1.083c-3.836-2.023-6.035-6.521-5.76-10.78c0.117-1.374,1.623-2.542,0.687-3.916
	c2.335-1.062,4.365-3.065,4.729-5.707c-1.733,2.013-3.081,4.655-5.765,5.548c-1.073,0.502-2.774,0.523-3.001-0.951
	c1.162-0.042,2.293-0.312,3.324-0.867c-1.242-3.958-2.299-7.984-3.112-12.048c-0.999-4.888,0.164-10.473,3.884-13.966
	c1.073-4.819,5.443-8.064,9.934-9.485c0.381-0.231,0.177-0.126,0.549-0.291c5.369-1.416,11.081-1.426,16.434,0.069
	c1.131-0.782,2.51-1.068,3.662-0.117c-4.169,2.605-7.573,6.288-11.948,8.587c-0.011,0.185-1.75,0.771-2.469,0.956
	c-3.699,1.3-7.72,1.184-11.567,0.729c-2.108,2.256-3.482,5.66-2.045,8.624c1.02,2.24,0.962,4.708,0.227,7.018
	c1.342-1.469,1.585-3.467,1.49-5.374c0.698,0.792,1.342,1.68,1.448,2.769c-0.84,4.344-3.731,7.784-5.929,11.483
	c2.299-1.781,4.132-4.148,5.385-6.764c-0.27,2.288,1.141,4.428,0.755,6.668c0.143,0.042,0.428,0.122,0.571,0.158
	c0.169,1.3-0.328,2.537-0.645,3.773c0.507-0.787,0.962-1.601,1.448-2.399c1.427,3.414,3.646,6.41,5.136,9.792
	c-0.75-0.207-1.749-0.079-2.182-0.872c-1.691-2.013-3.023-4.661-5.729-5.469c-1.405-0.687-3.498-0.095-3.852,1.559
	c-0.412,2.023,0.365,4.063,1.115,5.913c1.036,2.251,3.271,4.523,5.971,4.038c1.088-0.771,1.104-2.22,1.4-3.393
	c0.159,0.063,0.481,0.19,0.645,0.253c2.019,5.564,6.05,10.087,10.283,14.098c4.228,3.764,9.427,6.85,15.176,7.312
	c3.567,0.291,7.663-0.484,9.787-3.66c2.604-3.963,3.478-8.835,3.62-13.506c0.211-9.448-2.743-18.775-7.651-26.792
	c0.238,0,0.713-0.005,0.951-0.01c4.65,5.617,7.267,12.714,8.322,19.879c0.671,4.809,0.745,9.787-0.55,14.5
	c9.586-7.498,19.066-15.123,28.636-22.643c0.206,0.275,0.624,0.819,0.83,1.094c1.062-0.888,2.155-1.733,3.229-2.605
	C158.91,97.491,166.326,107.184,166.858,107.898z M92.373,67.486c-1.876,0.882-3.926,1.236-5.881,1.891
	c5.438,0.56,10.568-2.626,14.019-6.584C97.868,64.473,95.184,66.101,92.373,67.486z M155.535,99.846
	c2.42,3.387,4.856,6.759,7.182,10.209c0.926-0.788,1.871-1.543,2.816-2.299c-2.562-3.329-4.898-6.827-7.42-10.178
	C157.257,98.34,156.402,99.101,155.535,99.846z M125.843,128.825c1.082,2.219,1.986,4.518,2.906,6.806
	c-0.713,0.829-1.422,1.659-2.115,2.504c0.936,1.231,1.978,2.441,2.58,3.879c-0.201,2.644-0.787,5.242-1.047,7.885
	c-0.67,5.707-2.334,11.267-2.694,17.01c1.543-4.092,2.331-8.412,2.88-12.735c0.729-4.206,1.443-8.418,1.906-12.661
	c-0.786-1.052-1.668-2.033-2.287-3.191c0.115-1.088,1.273-1.774,1.923-2.604C128.686,133.348,127.75,130.753,125.843,128.825z
	 M97.081,133.248l0.661,0.624c1.02,2.579,1.686,5.284,2.473,7.942c0.19,0.586,0.317,1.479,1.184,1.293
	c1.506,0.11,3.012,0.271,4.481,0.64c-0.486,1.421-1.136,2.778-1.881,4.085c4.555,3.535,9.01,7.223,13.021,11.372
	c1.897,2.022,3.657,4.18,5.59,6.172c-1.511-3.551-4.401-6.214-7.064-8.903c-3.255-3.171-6.786-6.029-10.315-8.879
	c0.666-1.469,1.279-2.959,1.76-4.496c-1.839-0.561-3.742-0.841-5.654-0.855c-0.793-2.996-1.797-5.967-3.477-8.594
	C97.726,133.316,97.382,133.29,97.081,133.248z M96.891,150.029c-0.459,1.238-0.486,2.871-1.76,3.6
	c-3.365,2.219-6.71,4.492-9.802,7.086c-1.86-0.666-3.884-0.307-5.559,0.666c0.882,0.08,2.008-0.354,2.589,0.544l-0.344-0.909
	c4.803,0.364,8.951,3.166,13.649,4.026c0.391,1.222,1.923,0.987,2.896,1.358c-0.079,0.343-0.243,1.035-0.322,1.379
	c0.459,0.111,1.384,0.322,1.844,0.433c-0.143-5.325-1.136-10.558-2.595-15.662c0.851-2.965,1.015-6.209-0.491-9.004
	C97.298,145.697,97.599,147.917,96.891,150.029z M91.369,171.723c0.84,0.327,1.69,0.646,2.546,0.945
	c1.1-1.807,2.14-3.646,3.208-5.475c-0.713-0.231-1.422-0.459-2.135-0.676C93.683,168.182,92.605,170.004,91.369,171.723z
	 M97.282,168.784c-0.428,0.708-0.777,1.464-1.125,2.214c0.94,0.281,1.854,0.645,2.737,1.084c-1.622,1.227-2.764,2.848-3.16,4.861
	c-1.152,0.613-2.42,0.98-3.683,1.293c0.433-0.666,0.956-1.258,1.564-1.771c-1.559-1.652-4.359,0.777-3.345,2.626
	c1.11,2.507,4.402,1.231,6.373,0.688c-1.184,2.42-5.015,2.166-6.88,0.613c0.169,0.944,0.243,2.129,1.326,2.481
	c2.341,1.337,4.856-0.062,7.039-0.987c-1.422,2.953-5.216,2.547-7.89,2.107c0.962,0.811,1.929,1.76,3.239,1.955
	c2.125,0.479,4.063-0.715,5.939-1.508c-0.021,0.666-0.301,1.344-0.988,1.576c-1.664,0.729-3.376,1.362-5.088,1.986
	c-0.021,0.412-0.058,1.242-0.079,1.654c2.309-0.413,4.809-1.11,6.415-2.938c1.496-2.39,2.23-5.169,2.875-7.891
	c0.217-0.132,0.65-0.387,0.867-0.52c-0.153-0.125-0.465-0.391-0.618-0.518c-0.232-2.494,0.417-5.146-0.513-7.529
	C100.706,169.566,98.989,168.953,97.282,168.784z M124.464,180.932c-0.026,8.566,0.074,17.144,0.369,25.709
	c0.629-0.117,1.252-0.223,1.881-0.328c-0.073-8.719,0-17.438-0.03-26.155C125.938,180.404,125.199,180.657,124.464,180.932z
	 M121.087,181.557c-0.026,8.702,1.036,17.426,0.132,26.119c0.946-0.227,1.898-0.443,2.849-0.66
	c-0.232-1.162,0.491-3.054-0.982-3.551c0.242,0.085,0.733,0.243,0.978,0.322c-0.442-7.604-0.216-15.234-0.438-22.85
	C122.773,181.139,121.928,181.344,121.087,181.557z M117.668,182.146c-0.307,8.641-0.032,17.302,0.597,25.924
	c0.813-0.104,1.627-0.211,2.436-0.316c0.169-8.666-0.322-17.327-0.496-25.992C119.359,181.889,118.514,182.021,117.668,182.146z
	 M104.896,183.02c0.074,0.271,0.222,0.819,0.296,1.094c-0.265-0.04-0.798-0.12-1.062-0.162l0.761,0.333
	c0.074,7.481-0.544,14.979-0.661,22.474c0.624,0.143,1.247,0.295,1.876,0.444c0.486-7.271,0.74-14.554,1.189-21.824
	c0.037-0.782-0.037-1.563-0.084-2.341C106.439,183.036,105.668,183.025,104.896,183.02z M108.167,183.115
	c-0.544,8.152-0.692,16.333-1.395,24.476c0.961,0.291,1.923,0.571,2.89,0.856c-0.501-5.86,0.132-11.731,0.502-17.581
	c-0.328-0.46-0.957-1.21-0.005-1.38c0.417-2.139,0.407-4.327,0.607-6.488C109.9,183.041,109.034,183.078,108.167,183.115z
	 M111.649,182.93c-0.708,8.471-1.226,16.957-1.548,25.454c0.835,0.185,1.664,0.375,2.504,0.56c0.94-8.701,1.305-17.447,1.707-26.192
	C113.42,182.809,112.538,182.872,111.649,182.93z M90.671,189.075c0.365,0.485,0.903,0.592,1.612,0.312
	c0.56-0.222,0.745-0.57,0.549-1.046C91.961,188.161,91.242,188.404,90.671,189.075z M158.585,97.842
	c0.298-0.561,0.265-1.089,0.538-1.668c0.817-1.732,2.655-3.38,5.136-4.077c0.7-0.197,1.471-0.245,2.235-0.525
	c2.221-0.813,4.171-1.878,6.507-2.969c1.898-0.887,3.918-1.818,5.587-2.675c2.259-1.156,4.584-2.157,6.826-2.805
	c0.68,0.468,1.05,1.747,1.002,2.328c-0.075,0.912-1.169,1.941-1.984,2.702c-1.236,1.154-3.427,2.606-4.864,3.582
	c0.856,0.767,1.199,2.115,0.949,3.032c0.716,0.342,1.635,0.192,2.017,1.433c0.391,1.273-0.863,2.532-1.757,3.338
	c0.999,2.657-2.484,4.609-5.139,4.883c-0.889,1.204-2.748,2.201-4.599,2.533c-0.499,0.089-1.041,0.056-1.567,0.096
	c-0.533,0.039-1.069,0.1-1.567,0.096c-1.083-0.007-2.053-0.197-2.907-0.406 M165.561,105.801c0.562,0.194,0.948,0.406,1.542,0.534
	c1.358,0.292,3.021,0.243,4.889-0.683c0.546-0.271,0.896-0.68,1.373-1.06c-0.311-0.368-0.822-0.458-1.051-0.944
	c-0.141-0.303-0.049-0.618-0.192-0.965c-0.668-0.144-1.435-0.373-1.667-1.345c-0.951-0.14-1.805-0.552-2.493-1.399
	c-1.749,0.657-3.246,0.644-4.456-0.133l0.036-0.098l-0.003-0.103c1.287,0.791,3.347-0.546,4.391-1.633
	c0.379-0.391,0.716-0.862,1.146-1.018c0.369-0.133,1.134,0.027,1.732,0.138c1.579,0.289,3.402,0.731,5.182,0.234
	c0.334-0.092,0.742-0.244,1.102-0.44c0.473-0.257,0.951-0.546,1.048-1.097c-1.445-0.77-3.362-1.221-5.25-1.873
	c-0.441-0.154-0.85-0.331-1.32-0.452c-0.88-0.221-1.761-0.57-2.695-0.75c-1.286-0.248-2.816-0.444-4.523,0.393
	c-2.555,1.252-4.18,3.524-3.974,6.084 M176.27,103.637c1.251-0.516,2.932-1.915,2.697-2.777c-1.738,0.964-3.233,1.312-4.878,1.793
	C173.834,103.943,175.343,104.02,176.27,103.637z M176.471,100.822c1.142-0.586,1.866-1.076,2.659-1.77
	c0.614-0.538,1.185-1.153,1.392-1.563c0.275-0.549,0.414-1.738-0.488-1.882c0.136,0.118,0.232,0.333,0.233,0.511
	c-0.375,0.665-0.743,1.223-1.492,1.61c-0.506,0.26-1.136,0.299-1.66,0.572c-0.319,0.166-0.613,0.515-0.958,0.747
	c-0.693,0.469-1.415,1.002-2.29,1.354c-0.54,0.218-1.253,0.299-1.519,0.879C172.932,102.613,175.235,101.457,176.471,100.822z
	 M173.917,98.211c-0.758-0.061-1.476-0.194-2.182-0.304c-0.38-0.059-0.853-0.229-1.125-0.166c-0.52,0.119-1.074,0.611-1.142,0.891
	c-0.137,0.562,0.416,1.268,0.801,1.491c1.141,0.649,3.506-0.923,4.699-1.648C174.723,98.215,174.299,98.242,173.917,98.211z
	 M177.129,94.393c0.318,0.151,1.067,0.632,1.395,0.48c0.623-0.297,0.204-2.142-0.498-2.312c-0.758,0.369-1.666,0.683-2.208,1.131
	C176.143,94.011,176.617,94.154,177.129,94.393z M170.514,91.966c0.871,0.22,1.541,0.527,2.465,0.794
	c0.37,0.106,1.022,0.387,1.272,0.347c0.334-0.054,0.654-0.348,0.9-0.472c0.372-0.192,0.804-0.329,1.278-0.585
	c1.382-0.744,2.965-1.789,4.434-2.765c1.452-0.966,2.823-2.137,3.387-3.156c0.227-0.407,0.387-0.976,0.153-1.431
	c-0.483-0.095-0.932,0.24-1.353,0.431c-1.812,0.828-3.512,1.603-5.122,2.337c-2.96,1.351-5.741,2.745-8.642,4.129
	C169.612,91.908,170.083,91.858,170.514,91.966z"/>
<path fill="#323538" d="M204.534,98.964c3.637,1.721,7.273,3.448,10.832,5.323c-0.345,0.54-0.688,1.085-1.031,1.628
	C211.167,103.457,207.696,101.425,204.534,98.964z"/>
<path fill="#323538" d="M107.28,61.134c1.506-1.057,3.461-1.094,5.041-0.174c-0.037,0.576-0.084,1.152-0.143,1.723
	c-3.044-1.147-5.897,0.687-8.233,2.452c2.769,2.716,6.304,5.089,7.319,9.073c-2.859-2.758-5.47-5.807-8.788-8.064
	c-1.01,0.597-2.056,1.147-3.192,1.454C101.964,65.467,104.405,63.004,107.28,61.134z"/>
<path fill="#323538" d="M173.357,53.114c1.499,4,3.271,7.889,4.647,11.936c-2.303-3.641-4.237-7.489-6.341-11.241
	C172.083,53.634,172.935,53.287,173.357,53.114z"/>
<path fill="#323538" d="M89.339,76.601c0.777-1.797,2.69-4.058,4.862-3.26C92.315,73.996,90.714,75.174,89.339,76.601z"/>
<path fill="#323538" d="M103.581,77.531c0.037-1.818,1.342-3.345,3.229-3.319c4.423-0.66,7.813,2.875,9.086,6.732
	c0.135,0.295,0.181,0.445,0.191,0.509c0.301,1.4,0.79,2.661,0.921,4.093c-1.168-0.856-1.22-2.473-1.86-3.678
	c-0.92-1.945-1.924-4.302-4.211-4.904C108.532,75.919,105.858,76.426,103.581,77.531z"/>
<path fill="#323538" d="M89.932,78.688c1.167-2.246,3.271-4.492,6.077-3.805C93.842,75.914,91.833,77.224,89.932,78.688z"/>
<path fill="#323538" d="M194.81,114.24c1.89,2.36,3.412,4.989,5.178,7.441c-0.544,0.377-1.095,0.74-1.66,1.094
	C197.197,119.913,195.872,117.13,194.81,114.24z"/>
<path fill="#323538" d="M93.567,78.667c1.67-1.036,3.715-0.301,5.343,0.444c-4.054,1.479-7.182,4.697-9.248,8.407
	c-0.438,0.803-1.004,1.527-1.569,2.246c0.491-1.775,0.2-3.725,1.125-5.379C90.106,82.123,91.602,80.109,93.567,78.667z"/>
<path fill="#323538" d="M158.503,66.467c2.22,1.905,4.653,3.554,6.797,5.547c-2.733-1.018-5.219-2.581-7.794-3.924
	C157.842,67.545,158.171,67.01,158.503,66.467z"/>
<path fill="#323538" d="M104.114,83.148c0.909,1.538,1.131,3.382,2.114,4.872c2.077,2.478,5.533,2.917,7.937,4.951
	c1.76,1.4,3.382,3.376,3.435,5.723c0.095,2.314-2.362,4.195-4.586,3.545c-1.945-0.459-4.307-0.941-5.348-2.843
	c2.151,1.015,4.666,1.517,6.986,0.824c1.463-0.75,1.226-2.874,0.507-4.095c-1.876-2.859-5.104-4.275-8.047-5.754
	C105.06,88.659,103.956,85.8,104.114,83.148z"/>
<path fill="#323538" d="M108.58,88.596c-1.406-1.162,0.285-2.626,1.369-3.239c1.817-0.978,4.967-1.231,5.844,1.094
	C113.203,86.202,110.271,86.281,108.58,88.596z"/>
<path fill="#323538" d="M95.697,90.932c1.448-0.571,3.604-0.904,4.523,0.687c-3.197-0.127-6.029,1.96-7.625,4.597
	c-0.158,0.143-0.481,0.417-0.645,0.555C91.083,94.176,93.361,91.703,95.697,90.932z"/>
<path fill="#323538" d="M78.391,103.244c1.801-1.215,4.047,0.143,5.125,1.696c-1.03-0.338-2.013-0.983-3.133-0.936
	c-0.793,0.27-1.48,0.756-2.214,1.136C77.498,104.623,77.672,103.619,78.391,103.244z"/>
<g>
	<path fill="#323538" d="M107.776,108.824c4.333-0.65,9.01-2.377,11.234-6.436c0.084,1.062-0.164,2.114-0.782,2.985
		c-2.409,3.044-0.138,7.551-2.864,10.468c-2.806,2.299-7.345,2.082-9.934-0.486c-1.643-1.405-2.885-3.17-4.027-4.988
		c-0.978-1.617-2.557-2.695-4.005-3.852c-0.851,1.136-1.442,2.515-2.616,3.371c0.153-3.081,2.299-6.33,5.638-6.436
		c0.032,1.167-1.199,1.521-1.95,2.134C100.537,108.491,104.426,109.273,107.776,108.824z M102.925,109.881
		c3.303,2.663,8.661,3.662,12,0.533c-0.142-0.74-0.285-1.474-0.417-2.214C110.931,110.013,106.852,110.309,102.925,109.881z"/>
</g>
<path fill="#323538" d="M113.103,120.872c1.617-0.185,2.906-1.242,4.211-2.114c-0.739,1.443-1.595,3.06-3.202,3.673
	c-2.373,0.834-5.216-0.232-6.405-2.473C109.415,120.624,111.248,121.3,113.103,120.872z"/>
<path fill="#FEFDFD" d="M92.373,67.486c2.811-1.385,5.495-3.013,8.137-4.693c-3.45,3.958-8.581,7.144-14.019,6.584
	C88.447,68.722,90.497,68.368,92.373,67.486z"/>
<path fill="#FEFDFD" d="M155.535,99.846c0.867-0.745,1.723-1.506,2.579-2.267c2.521,3.351,4.856,6.849,7.419,10.178
	c-0.945,0.755-1.892,1.511-2.816,2.299C160.391,106.604,157.955,103.233,155.535,99.846z"/>
<path fill="#FEFDFD" d="M102.925,109.881c3.926,0.428,8.006,0.132,11.583-1.681c0.132,0.74,0.275,1.474,0.417,2.214
	C111.586,113.542,106.228,112.544,102.925,109.881z"/>
<path fill="#FEFDFD" d="M125.843,128.825c1.906,1.929,2.843,4.522,4.053,6.89c-0.65,0.83-1.807,1.518-1.923,2.605
	c0.618,1.156,1.5,2.14,2.288,3.19c-0.465,4.243-1.178,8.455-1.907,12.661c-0.549,4.323-1.337,8.646-2.88,12.735
	c0.359-5.744,2.023-11.304,2.695-17.011c0.259-2.643,0.845-5.24,1.045-7.883c-0.603-1.438-1.645-2.646-2.578-3.88
	c0.691-0.846,1.4-1.675,2.113-2.504C127.83,133.343,126.927,131.044,125.843,128.825z"/>
<path fill="#FEFDFD" d="M97.081,133.248c0.301,0.042,0.645,0.068,0.777,0.4c1.68,2.627,2.684,5.597,3.477,8.593
	c1.913,0.016,3.815,0.296,5.654,0.856c-0.481,1.536-1.094,3.026-1.76,4.495c3.529,2.851,7.06,5.708,10.315,8.88
	c2.663,2.688,5.553,5.353,7.064,8.902c-1.934-1.992-3.693-4.146-5.59-6.172c-4.011-4.146-8.465-7.837-13.021-11.372
	c0.745-1.308,1.396-2.664,1.881-4.085c-1.469-0.37-2.975-0.528-4.481-0.641c-0.867,0.187-0.994-0.707-1.184-1.293
	c-0.788-2.658-1.454-5.363-2.473-7.941L97.081,133.248z"/>
<path fill="#FEFDFD" d="M96.891,150.029c0.708-2.112,0.407-4.332,0.106-6.482c1.506,2.795,1.342,6.04,0.491,9.004
	c1.458,5.104,2.452,10.336,2.595,15.662c-0.46-0.111-1.385-0.322-1.844-0.434c0.079-0.342,0.243-1.035,0.322-1.379
	c-0.972-0.369-2.505-0.137-2.896-1.357c-4.698-0.861-8.846-3.662-13.649-4.025l0.344,0.908c-0.582-0.898-1.707-0.465-2.589-0.544
	c1.675-0.972,3.699-1.331,5.559-0.666c3.091-2.594,6.437-4.866,9.802-7.086C96.405,152.898,96.431,151.268,96.891,150.029z"/>
<path fill="#FEFDFD" d="M91.369,171.723c1.236-1.718,2.314-3.541,3.619-5.205c0.713,0.217,1.422,0.443,2.135,0.676
	c-1.068,1.828-2.108,3.668-3.208,5.476C93.06,172.366,92.209,172.05,91.369,171.723z"/>
<path fill="#FEFDFD" d="M97.282,168.784c1.707,0.169,3.424,0.782,5.003,1.485c0.93,2.383,0.281,5.035,0.513,7.528
	c0.153,0.126,0.465,0.392,0.618,0.519c-0.217,0.133-0.65,0.387-0.867,0.519c-0.645,2.722-1.379,5.501-2.875,7.89
	c-1.606,1.828-4.105,2.525-6.415,2.938c0.021-0.413,0.058-1.242,0.079-1.654c1.712-0.624,3.424-1.258,5.088-1.985
	c0.688-0.232,0.967-0.91,0.988-1.576c-1.876,0.793-3.815,1.986-5.939,1.507c-1.311-0.195-2.277-1.146-3.239-1.955
	c2.674,0.438,6.468,0.847,7.89-2.108c-2.183,0.926-4.698,2.325-7.039,0.988c-1.083-0.354-1.157-1.537-1.326-2.482
	c1.865,1.554,5.696,1.808,6.88-0.612c-1.971,0.544-5.263,1.817-6.373-0.688c-1.014-1.85,1.786-4.279,3.345-2.625
	c-0.608,0.512-1.131,1.104-1.564,1.771c1.263-0.312,2.531-0.683,3.683-1.293c0.396-2.015,1.538-3.638,3.16-4.861
	c-0.882-0.438-1.796-0.803-2.737-1.084C96.505,170.248,96.854,169.492,97.282,168.784z"/>
<path fill="#FEFDFD" d="M124.464,180.932c0.734-0.273,1.475-0.527,2.22-0.777c0.03,8.721-0.042,17.438,0.03,26.158
	c-0.627,0.104-1.252,0.211-1.881,0.326C124.539,198.074,124.438,189.498,124.464,180.932z"/>
<path fill="#FEFDFD" d="M121.087,181.557c0.84-0.211,1.686-0.418,2.536-0.619c0.224,7.615-0.004,15.246,0.438,22.851
	c-0.243-0.079-0.733-0.237-0.978-0.322c1.475,0.497,0.75,2.39,0.982,3.552c-0.949,0.217-1.902,0.434-2.849,0.659
	C122.123,198.982,121.061,190.259,121.087,181.557z"/>
<path fill="#FEFDFD" d="M117.668,182.146c0.845-0.125,1.691-0.258,2.537-0.385c0.174,8.664,0.666,17.325,0.496,25.991
	c-0.808,0.104-1.622,0.211-2.436,0.315C117.637,199.448,117.362,190.788,117.668,182.146z"/>
<path fill="#FEFDFD" d="M104.896,183.02c0.771,0.006,1.543,0.018,2.314,0.018c0.047,0.775,0.122,1.559,0.084,2.341
	c-0.449,7.271-0.703,14.554-1.189,21.824c-0.629-0.147-1.252-0.304-1.876-0.444c0.117-7.492,0.735-14.99,0.661-22.474l-0.761-0.333
	c0.264,0.042,0.797,0.122,1.062,0.164C105.119,183.838,104.97,183.289,104.896,183.02z"/>
<path fill="#FEFDFD" d="M108.167,183.115c0.866-0.037,1.733-0.074,2.6-0.117c-0.201,2.162-0.19,4.35-0.607,6.488
	c-0.951,0.17-0.323,0.92,0.005,1.38c-0.37,5.85-1.004,11.72-0.502,17.581c-0.967-0.286-1.929-0.565-2.89-0.856
	C107.476,199.448,107.623,191.268,108.167,183.115z"/>
<path fill="#FEFDFD" d="M111.649,182.93c0.888-0.058,1.771-0.121,2.664-0.18c-0.402,8.745-0.767,17.491-1.707,26.193
	c-0.84-0.186-1.669-0.375-2.504-0.561C110.424,199.887,110.942,191.4,111.649,182.93z"/>
<path fill="#FEFDFD" d="M90.671,189.075c0.57-0.671,1.29-0.915,2.161-0.734c0.195,0.476,0.011,0.824-0.549,1.046
	C91.575,189.667,91.036,189.562,90.671,189.075z"/>
<g>
	<path fill="#323538" d="M18.293,239.495l0.929-1.281c0.634,0.69,1.662,1.31,2.972,1.31c1.352,0,1.874-0.662,1.874-1.296
		c0-1.972-5.465-0.746-5.465-4.196c0-1.563,1.352-2.761,3.422-2.761c1.451,0,2.648,0.479,3.507,1.324l-0.929,1.225
		c-0.747-0.746-1.747-1.084-2.732-1.084c-0.958,0-1.578,0.479-1.578,1.169c0,1.761,5.465,0.676,5.465,4.169
		c0,1.563-1.113,2.915-3.634,2.915C20.392,240.988,19.138,240.369,18.293,239.495z"/>
	<path fill="#323538" d="M27.053,232.271c0-0.507,0.409-0.915,0.916-0.915s0.916,0.408,0.916,0.915s-0.409,0.915-0.916,0.915
		S27.053,232.777,27.053,232.271z M27.222,240.819v-6.803h1.479v6.803H27.222z"/>
	<path fill="#323538" d="M30.532,242.565l0.69-1.07c0.563,0.634,1.268,0.873,2.169,0.873c0.972,0,2.014-0.45,2.014-1.901v-0.774
		c-0.521,0.69-1.295,1.141-2.183,1.141c-1.732,0-3.014-1.253-3.014-3.492c0-2.211,1.253-3.493,3.014-3.493
		c0.859,0,1.634,0.381,2.183,1.113v-0.944h1.479v6.45c0,2.451-1.831,3.113-3.493,3.113C32.236,243.58,31.377,243.326,30.532,242.565
		z M35.405,238.608v-2.55c-0.338-0.492-1.056-0.901-1.746-0.901c-1.183,0-1.93,0.874-1.93,2.184s0.747,2.169,1.93,2.169
		C34.349,239.51,35.067,239.102,35.405,238.608z"/>
	<path fill="#323538" d="M43.405,240.819v-4.253c0-1.07-0.549-1.409-1.38-1.409c-0.747,0-1.395,0.451-1.747,0.901v4.761h-1.479
		v-6.803h1.479v0.916c0.451-0.535,1.338-1.085,2.408-1.085c1.465,0,2.197,0.789,2.197,2.184v4.788H43.405z"/>
	<path fill="#323538" d="M50.475,237.102v-5.676h1.676v5.633c0,1.493,0.831,2.465,2.395,2.465c1.563,0,2.394-0.972,2.394-2.465
		v-5.633h1.676v5.676c0,2.323-1.338,3.887-4.07,3.887C51.827,240.988,50.475,239.425,50.475,237.102z"/>
	<path fill="#323538" d="M62.052,239.876v3.535h-1.479v-9.395h1.479v0.93c0.507-0.676,1.296-1.099,2.183-1.099
		c1.76,0,3.014,1.324,3.014,3.563s-1.253,3.577-3.014,3.577C63.375,240.988,62.615,240.594,62.052,239.876z M65.728,237.411
		c0-1.324-0.76-2.254-1.929-2.254c-0.69,0-1.409,0.395-1.747,0.901v2.69c0.324,0.507,1.056,0.93,1.747,0.93
		C64.967,239.679,65.728,238.735,65.728,237.411z"/>
	<path fill="#323538" d="M72.727,240.819v-5.521h-1.126v-1.282h1.126v-0.38c0-1.479,0.859-2.353,2.141-2.353
		c0.62,0,1.225,0.155,1.633,0.592l-0.577,0.916c-0.197-0.184-0.451-0.296-0.775-0.296c-0.591,0-0.943,0.38-0.943,1.141v0.38h1.38
		v1.282h-1.38v5.521H72.727z"/>
	<path fill="#323538" d="M76.305,237.411c0-1.958,1.324-3.563,3.493-3.563s3.493,1.605,3.493,3.563c0,1.943-1.324,3.577-3.493,3.577
		S76.305,239.354,76.305,237.411z M81.755,237.411c0-1.197-0.69-2.254-1.958-2.254c-1.253,0-1.958,1.057-1.958,2.254
		c0,1.211,0.704,2.268,1.958,2.268C81.065,239.679,81.755,238.622,81.755,237.411z"/>
	<path fill="#323538" d="M84.797,240.819v-6.803h1.479v0.986c0.521-0.648,1.338-1.155,2.211-1.155v1.465
		c-0.126-0.028-0.268-0.042-0.451-0.042c-0.634,0-1.464,0.422-1.76,0.915v4.634H84.797z"/>
	<path fill="#323538" d="M92.754,239.495l0.929-1.281c0.634,0.69,1.662,1.31,2.972,1.31c1.352,0,1.874-0.662,1.874-1.296
		c0-1.972-5.465-0.746-5.465-4.196c0-1.563,1.352-2.761,3.422-2.761c1.451,0,2.648,0.479,3.507,1.324l-0.929,1.225
		c-0.747-0.746-1.747-1.084-2.732-1.084c-0.958,0-1.578,0.479-1.578,1.169c0,1.761,5.465,0.676,5.465,4.169
		c0,1.563-1.113,2.915-3.634,2.915C94.853,240.988,93.599,240.369,92.754,239.495z"/>
	<path fill="#323538" d="M106.274,240.819v-0.901c-0.479,0.535-1.324,1.07-2.394,1.07c-1.465,0-2.197-0.774-2.197-2.154v-4.817
		h1.479v4.268c0,1.057,0.535,1.395,1.38,1.395c0.746,0,1.394-0.437,1.732-0.888v-4.774h1.479v6.803H106.274z"/>
	<path fill="#323538" d="M111.147,239.876v3.535h-1.479v-9.395h1.479v0.93c0.507-0.676,1.296-1.099,2.183-1.099
		c1.76,0,3.014,1.324,3.014,3.563s-1.253,3.577-3.014,3.577C112.471,240.988,111.711,240.594,111.147,239.876z M114.823,237.411
		c0-1.324-0.76-2.254-1.929-2.254c-0.69,0-1.409,0.395-1.747,0.901v2.69c0.324,0.507,1.056,0.93,1.747,0.93
		C114.063,239.679,114.823,238.735,114.823,237.411z"/>
	<path fill="#323538" d="M119.302,239.876v3.535h-1.479v-9.395h1.479v0.93c0.507-0.676,1.296-1.099,2.183-1.099
		c1.76,0,3.014,1.324,3.014,3.563s-1.254,3.577-3.014,3.577C120.626,240.988,119.866,240.594,119.302,239.876z M122.978,237.411
		c0-1.324-0.76-2.254-1.929-2.254c-0.69,0-1.409,0.395-1.747,0.901v2.69c0.324,0.507,1.056,0.93,1.747,0.93
		C122.218,239.679,122.978,238.735,122.978,237.411z"/>
	<path fill="#323538" d="M125.569,237.411c0-1.958,1.324-3.563,3.493-3.563s3.493,1.605,3.493,3.563
		c0,1.943-1.324,3.577-3.493,3.577S125.569,239.354,125.569,237.411z M131.02,237.411c0-1.197-0.69-2.254-1.958-2.254
		c-1.253,0-1.958,1.057-1.958,2.254c0,1.211,0.705,2.268,1.958,2.268C130.33,239.679,131.02,238.622,131.02,237.411z"/>
	<path fill="#323538" d="M134.062,240.819v-6.803h1.479v0.986c0.521-0.648,1.338-1.155,2.211-1.155v1.465
		c-0.127-0.028-0.268-0.042-0.45-0.042c-0.634,0-1.465,0.422-1.761,0.915v4.634H134.062z"/>
	<path fill="#323538" d="M139.258,239.228v-3.929h-1.127v-1.282h1.127v-1.858h1.479v1.858h1.381v1.282h-1.381v3.562
		c0,0.465,0.226,0.817,0.648,0.817c0.281,0,0.535-0.127,0.647-0.254l0.353,1.127c-0.268,0.239-0.704,0.437-1.381,0.437
		C139.85,240.988,139.258,240.369,139.258,239.228z"/>
	<path fill="#323538" d="M143.23,239.975c0-0.521,0.451-0.972,0.986-0.972s0.972,0.45,0.972,0.972c0,0.535-0.437,0.985-0.972,0.985
		S143.23,240.51,143.23,239.975z M143.568,237.933l-0.268-6.507h1.803l-0.253,6.507H143.568z"/>
</g>
<rect x="2.9" y="219.333" fill="none" stroke="#323538" stroke-width="2" stroke-miterlimit="10" width="163.4" height="32.667"/>
</svg>
