<?xml version="1.0" encoding="utf-8"?>
<!-- Generator: Adobe Illustrator 16.0.4, SVG Export Plug-In . SVG Version: 6.00 Build 0)  -->
<!DOCTYPE svg PUBLIC "-//W3C//DTD SVG 1.1 Tiny//EN" "http://www.w3.org/Graphics/SVG/1.1/DTD/svg11-tiny.dtd">
<svg version="1.1" baseProfile="tiny" id="Layer_1" xmlns="http://www.w3.org/2000/svg" xmlns:xlink="http://www.w3.org/1999/xlink"
	 x="0px" y="0px" width="165.881px" height="204.605px" viewBox="0 0 165.881 204.605" overflow="auto" xml:space="preserve">
<rect x="2.816" y="174.789" fill="none" stroke="#000000" stroke-width="2" stroke-miterlimit="10" width="131.733" height="26.337"/>
<g>
	<path d="M16.085,191.304v-8.071h1.416v8.071H16.085z"/>
	<path d="M19.447,189.937v-3.376h-0.968v-1.102h0.968v-1.597h1.271v1.597h1.186v1.102h-1.186v3.062c0,0.399,0.194,0.701,0.557,0.701
		c0.242,0,0.46-0.108,0.557-0.218l0.303,0.969c-0.23,0.205-0.605,0.375-1.186,0.375C19.955,191.45,19.447,190.918,19.447,189.937z"
		/>
	<path d="M23.486,186.271l-0.581-0.46c0.387-0.23,0.798-0.727,0.871-1.138c-0.024,0.012-0.121,0.024-0.206,0.024
		c-0.399,0-0.714-0.314-0.714-0.763c0-0.447,0.363-0.822,0.823-0.822c0.496,0,0.932,0.398,0.932,1.101
		C24.611,185.049,24.151,185.799,23.486,186.271z"/>
	<path d="M25.142,190.53l0.581-0.907c0.411,0.423,1.222,0.811,1.972,0.811c0.762,0,1.162-0.314,1.162-0.774
		c0-1.149-3.533-0.327-3.533-2.577c0-0.956,0.823-1.767,2.299-1.767c0.992,0,1.743,0.351,2.263,0.811l-0.532,0.896
		c-0.351-0.388-0.992-0.702-1.73-0.702c-0.666,0-1.077,0.314-1.077,0.726c0,1.029,3.533,0.255,3.533,2.578
		c0,1.04-0.859,1.827-2.432,1.827C26.642,191.45,25.747,191.123,25.142,190.53z"/>
	<path d="M38.423,191.304v-3.654c0-0.92-0.472-1.21-1.186-1.21c-0.641,0-1.198,0.387-1.5,0.774v4.09h-1.271v-5.845h1.271v0.787
		c0.387-0.46,1.149-0.932,2.069-0.932c1.258,0,1.888,0.678,1.888,1.875v4.114H38.423z"/>
	<path d="M41.189,183.96c0-0.436,0.351-0.786,0.787-0.786c0.436,0,0.786,0.351,0.786,0.786s-0.351,0.786-0.786,0.786
		C41.54,184.746,41.189,184.395,41.189,183.96z M41.334,191.304v-5.845h1.271v5.845H41.334z"/>
	<path d="M43.898,188.376c0-1.767,1.247-3.061,3.013-3.061c1.149,0,1.827,0.483,2.239,1.04l-0.835,0.763
		c-0.327-0.46-0.774-0.678-1.343-0.678c-1.053,0-1.767,0.799-1.767,1.936c0,1.138,0.714,1.948,1.767,1.948
		c0.569,0,1.017-0.241,1.343-0.701l0.835,0.786c-0.412,0.545-1.089,1.041-2.239,1.041C45.144,191.45,43.898,190.142,43.898,188.376z
		"/>
	<path d="M49.92,188.376c0-1.693,1.234-3.061,2.965-3.061c1.754,0,2.868,1.331,2.868,3.17v0.314h-4.501
		c0.097,0.871,0.75,1.609,1.852,1.609c0.581,0,1.246-0.229,1.67-0.653l0.581,0.835c-0.593,0.557-1.452,0.859-2.372,0.859
		C51.215,191.45,49.92,190.227,49.92,188.376z M52.872,186.355c-1.077,0-1.585,0.835-1.633,1.537h3.291
		C54.494,187.203,54.022,186.355,52.872,186.355z"/>
	<path d="M60.392,189.937v-3.376h-0.968v-1.102h0.968v-1.597h1.271v1.597h1.186v1.102h-1.186v3.062c0,0.399,0.194,0.701,0.557,0.701
		c0.242,0,0.46-0.108,0.557-0.218l0.303,0.969c-0.23,0.205-0.605,0.375-1.186,0.375C60.901,191.45,60.392,190.918,60.392,189.937z"
		/>
	<path d="M63.633,188.376c0-1.682,1.138-3.061,3.001-3.061c1.864,0,3.001,1.379,3.001,3.061c0,1.67-1.137,3.074-3.001,3.074
		C64.77,191.45,63.633,190.046,63.633,188.376z M68.316,188.376c0-1.028-0.593-1.936-1.682-1.936c-1.077,0-1.682,0.907-1.682,1.936
		c0,1.041,0.605,1.948,1.682,1.948C67.723,190.324,68.316,189.417,68.316,188.376z"/>
	<path d="M81.22,191.304v-3.812c0-0.629-0.278-1.053-0.968-1.053c-0.569,0-1.101,0.387-1.355,0.774v4.09h-1.271v-3.812
		c0-0.629-0.266-1.053-0.956-1.053c-0.569,0-1.089,0.399-1.355,0.774v4.09h-1.271v-5.845h1.271v0.787
		c0.254-0.352,1.017-0.932,1.912-0.932c0.871,0,1.403,0.436,1.597,1.064c0.327-0.521,1.101-1.064,1.984-1.064
		c1.065,0,1.682,0.58,1.682,1.767v4.223H81.22z"/>
	<path d="M83.779,188.376c0-1.693,1.234-3.061,2.965-3.061c1.754,0,2.868,1.331,2.868,3.17v0.314H85.11
		c0.097,0.871,0.75,1.609,1.852,1.609c0.581,0,1.246-0.229,1.67-0.653l0.581,0.835c-0.593,0.557-1.452,0.859-2.372,0.859
		C85.074,191.45,83.779,190.227,83.779,188.376z M86.732,186.355c-1.077,0-1.585,0.835-1.633,1.537h3.291
		C88.353,187.203,87.881,186.355,86.732,186.355z"/>
	<path d="M90.515,188.376c0-1.693,1.234-3.061,2.965-3.061c1.754,0,2.868,1.331,2.868,3.17v0.314h-4.501
		c0.097,0.871,0.75,1.609,1.852,1.609c0.581,0,1.246-0.229,1.67-0.653l0.581,0.835c-0.593,0.557-1.452,0.859-2.372,0.859
		C91.81,191.45,90.515,190.227,90.515,188.376z M93.468,186.355c-1.077,0-1.585,0.835-1.633,1.537h3.291
		C95.089,187.203,94.617,186.355,93.468,186.355z"/>
	<path d="M97.868,189.937v-3.376H96.9v-1.102h0.968v-1.597h1.271v1.597h1.186v1.102h-1.186v3.062c0,0.399,0.194,0.701,0.557,0.701
		c0.242,0,0.46-0.108,0.557-0.218l0.303,0.969c-0.23,0.205-0.605,0.375-1.186,0.375C98.376,191.45,97.868,190.918,97.868,189.937z"
		/>
	<path d="M104.518,192.454c0.133,0.061,0.339,0.097,0.484,0.097c0.412,0,0.678-0.121,0.847-0.508l0.291-0.666l-2.408-5.917h1.368
		l1.706,4.381l1.706-4.381h1.355l-2.819,6.897c-0.399,0.992-1.089,1.307-1.996,1.319c-0.182,0-0.545-0.037-0.714-0.085
		L104.518,192.454z"/>
	<path d="M110.311,188.376c0-1.682,1.138-3.061,3.001-3.061s3.001,1.379,3.001,3.061c0,1.67-1.138,3.074-3.001,3.074
		S110.311,190.046,110.311,188.376z M114.993,188.376c0-1.028-0.593-1.936-1.682-1.936c-1.077,0-1.682,0.907-1.682,1.936
		c0,1.041,0.604,1.948,1.682,1.948C114.401,190.324,114.993,189.417,114.993,188.376z"/>
	<path d="M121.548,191.304v-0.774c-0.411,0.46-1.138,0.92-2.058,0.92c-1.258,0-1.887-0.666-1.887-1.852v-4.139h1.271v3.667
		c0,0.907,0.459,1.197,1.186,1.197c0.642,0,1.198-0.375,1.488-0.762v-4.103h1.271v5.845H121.548z"/>
	<path d="M124.279,190.579c0-0.448,0.387-0.835,0.847-0.835s0.835,0.387,0.835,0.835c0,0.459-0.375,0.847-0.835,0.847
		S124.279,191.038,124.279,190.579z M124.569,188.824l-0.229-5.591h1.549l-0.218,5.591H124.569z"/>
</g>
<g>
	<path d="M33.816,30.491c-0.292-1.433-0.354-2.871-0.247-4.334c0.211-2.86,0.872-5.628,1.706-8.354
		c1.191-3.893,2.754-7.633,4.925-11.094c0.971-1.546,1.989-3.067,3.374-4.28c0.487-0.427,1.052-0.797,1.64-1.067
		c1.344-0.618,2.849,0.179,3.379,1.696c0.504,1.444,0.062,2.75-0.621,3.983c-1.229,2.218-2.954,4.061-4.66,5.907
		c-1.383,1.498-2.799,2.965-4.168,4.475c-0.308,0.339-0.566,0.77-0.705,1.205c-0.877,2.769-1.775,5.537-2.123,8.438
		c-0.088,0.736-0.102,1.489-0.065,2.23c0.037,0.739,0.249,0.843,0.894,0.51c1.281-0.66,2.352-1.606,3.299-2.666
		c4.645-5.199,9.264-10.423,13.89-15.639c0.87-0.981,1.729-1.971,2.595-2.954c0.121-0.136,0.24-0.303,0.396-0.369
		c0.243-0.102,0.552-0.234,0.769-0.162c0.365,0.121,0.426,0.518,0.278,0.834c-0.261,0.555-0.511,1.147-0.906,1.605
		c-3.413,3.958-6.864,7.882-10.29,11.831c-1.909,2.2-3.781,4.432-5.688,6.634c-0.955,1.103-1.996,2.114-3.245,2.901
		c-1.532,0.966-3.281,0.718-4.06-0.702c-0.011-0.021-0.062-0.02-0.097-0.03C33.996,30.892,33.906,30.692,33.816,30.491z
		 M40.081,13.96c0.213-0.142,0.298-0.176,0.354-0.238c1.489-1.666,3.021-3.298,4.445-5.019c0.952-1.149,1.816-2.403,2.083-3.918
		c0.075-0.424-0.075-0.923-0.241-1.341c-0.146-0.363-0.533-0.486-0.859-0.188c-0.494,0.449-1.062,0.879-1.384,1.439
		C43.52,6.369,42.62,8.081,41.787,9.82C41.166,11.117,40.684,12.48,40.081,13.96z"/>
	<g>
		<path d="M15.72,25.515h-1.067c-0.561-1.45-1.125-2.89-1.692-4.319c-0.566-1.426-1.13-2.865-1.692-4.317
			c-0.225,0.589-0.449,1.171-0.674,1.741c-0.224,0.572-0.449,1.147-0.673,1.727L7.9,25.515H6.833L2.466,14.408H4.01l2.022,5.167
			c0.225,0.571,0.45,1.144,0.674,1.72c0.224,0.576,0.444,1.159,0.66,1.748c0.224-0.599,0.45-1.184,0.674-1.755
			c0.224-0.57,0.449-1.142,0.674-1.711l2.022-5.167h1.082l2.021,5.153c0.225,0.571,0.45,1.144,0.675,1.72
			c0.224,0.577,0.45,1.164,0.674,1.762c0.225-0.607,0.447-1.197,0.666-1.769c0.221-0.573,0.443-1.143,0.668-1.713l2.022-5.153h1.544
			L15.72,25.515z"/>
		<path d="M29.326,20.545c-1.01,0.58-2.518,0.871-4.521,0.871h-2.078v4.1h-1.46V14.409h3.818c1.919,0,3.358,0.294,4.318,0.885
			c0.959,0.589,1.439,1.45,1.439,2.583C30.843,19.074,30.337,19.963,29.326,20.545z M29.221,17.159
			c-0.108-0.242-0.314-0.461-0.619-0.659c-0.303-0.197-0.73-0.358-1.277-0.483c-0.547-0.128-1.257-0.19-2.127-0.19h-2.471v4.171
			h2.049c0.964,0,1.749-0.061,2.352-0.183c0.604-0.122,1.072-0.283,1.404-0.484c0.333-0.2,0.557-0.428,0.675-0.681
			c0.117-0.252,0.176-0.509,0.176-0.771C29.383,17.643,29.328,17.403,29.221,17.159z"/>
	</g>
	<g>
		<path d="M64.736,23.444c-0.262,0.426-0.618,0.788-1.067,1.087c-0.458,0.31-1,0.55-1.623,0.724c-0.622,0.173-1.298,0.26-2.028,0.26
			c-0.608,0-1.163-0.042-1.664-0.127c-0.501-0.083-0.962-0.216-1.383-0.393c-0.422-0.177-0.81-0.402-1.166-0.673
			c-0.356-0.271-0.693-0.594-1.011-0.969l1.137-0.941c0.44,0.553,0.983,0.974,1.629,1.263c0.646,0.291,1.47,0.436,2.471,0.436
			c0.627,0,1.174-0.072,1.643-0.218c0.468-0.145,0.865-0.325,1.193-0.541c0.261-0.168,0.46-0.365,0.596-0.59
			c0.136-0.225,0.204-0.459,0.204-0.702c0-0.328-0.076-0.585-0.232-0.772c-0.154-0.187-0.329-0.333-0.525-0.435
			c-0.113-0.066-0.239-0.128-0.379-0.183c-0.14-0.056-0.326-0.117-0.556-0.183c-0.229-0.064-0.517-0.141-0.863-0.224
			c-0.347-0.084-0.781-0.183-1.306-0.295c-0.533-0.122-0.976-0.224-1.326-0.309c-0.351-0.083-0.645-0.161-0.878-0.231
			c-0.235-0.07-0.426-0.135-0.576-0.197c-0.15-0.06-0.295-0.128-0.436-0.204c-0.167-0.083-0.33-0.194-0.484-0.33
			c-0.155-0.134-0.29-0.293-0.407-0.471c-0.119-0.176-0.213-0.381-0.289-0.61c-0.074-0.229-0.112-0.484-0.112-0.766
			c0-0.42,0.114-0.828,0.343-1.221c0.229-0.393,0.592-0.716,1.088-0.969c0.44-0.234,0.941-0.4,1.502-0.499
			c0.561-0.097,1.179-0.146,1.854-0.146c0.599,0,1.134,0.039,1.607,0.119c0.473,0.079,0.896,0.211,1.272,0.392
			c0.373,0.183,0.708,0.419,1.003,0.71c0.295,0.291,0.565,0.642,0.808,1.053l-1.292,0.687c-0.15-0.261-0.316-0.487-0.498-0.681
			c-0.183-0.192-0.408-0.353-0.675-0.483c-0.267-0.132-0.58-0.23-0.94-0.295c-0.361-0.064-0.789-0.098-1.285-0.098
			c-0.562,0-1.077,0.04-1.544,0.119c-0.468,0.081-0.837,0.2-1.109,0.359c-0.243,0.13-0.417,0.276-0.519,0.436
			c-0.104,0.159-0.155,0.346-0.155,0.562c0,0.206,0.054,0.386,0.161,0.54c0.107,0.154,0.255,0.279,0.443,0.372
			c0.121,0.056,0.257,0.109,0.408,0.161c0.148,0.052,0.338,0.107,0.567,0.169c0.229,0.06,0.514,0.13,0.85,0.211
			c0.337,0.079,0.758,0.175,1.264,0.287c0.422,0.094,0.798,0.177,1.131,0.252c0.332,0.076,0.631,0.153,0.898,0.231
			c0.267,0.08,0.508,0.169,0.723,0.268c0.216,0.099,0.422,0.208,0.618,0.33c0.16,0.104,0.316,0.227,0.47,0.371
			c0.155,0.146,0.294,0.315,0.422,0.507c0.126,0.192,0.226,0.407,0.301,0.646c0.075,0.238,0.113,0.504,0.113,0.792
			C65.129,22.547,64.998,23.019,64.736,23.444z"/>
		<path d="M66.238,25.318V14.212h1.461v11.106H66.238z"/>
		<path d="M78.019,17.412c-0.291-0.365-0.562-0.676-0.815-0.933c-0.251-0.258-0.512-0.463-0.778-0.618
			c-0.268-0.155-0.552-0.267-0.85-0.336c-0.301-0.07-0.642-0.106-1.025-0.106c-0.486,0-0.995,0.075-1.521,0.225
			c-0.531,0.15-1.016,0.392-1.461,0.73c-0.444,0.337-0.81,0.784-1.095,1.341c-0.286,0.556-0.429,1.241-0.429,2.057
			c0,0.693,0.117,1.309,0.352,1.846c0.234,0.539,0.555,0.993,0.961,1.363c0.406,0.369,0.889,0.65,1.446,0.842
			c0.558,0.192,1.154,0.288,1.79,0.288c0.478,0,0.969-0.063,1.475-0.19c0.506-0.126,0.978-0.315,1.417-0.568v-2.119h-4.058v-1.419
			h5.518v4.297c-0.392,0.262-0.774,0.482-1.143,0.66c-0.37,0.177-0.732,0.322-1.09,0.436c-0.355,0.112-0.716,0.192-1.08,0.239
			c-0.364,0.048-0.744,0.07-1.139,0.07c-0.777,0-1.519-0.127-2.23-0.379c-0.713-0.252-1.34-0.625-1.882-1.118
			c-0.542-0.492-0.979-1.093-1.306-1.802c-0.328-0.712-0.492-1.526-0.492-2.443c0-0.702,0.088-1.332,0.267-1.889
			c0.178-0.557,0.416-1.049,0.716-1.475c0.3-0.425,0.646-0.79,1.039-1.095c0.393-0.304,0.809-0.553,1.249-0.745
			c0.439-0.191,0.886-0.332,1.34-0.421c0.454-0.087,0.887-0.132,1.298-0.132c0.553,0,1.048,0.053,1.482,0.161
			c0.437,0.106,0.837,0.269,1.2,0.484c0.366,0.215,0.712,0.487,1.04,0.814c0.329,0.328,0.665,0.712,1.011,1.151L78.019,17.412z"/>
		<path d="M88.339,25.318c-1.61-1.984-2.986-3.683-4.128-5.097c-1.143-1.413-2.083-2.579-2.822-3.496
			c0.01,0.917,0.014,2.078,0.014,3.481s0,3.107,0,5.111h-1.46V14.211h1.235c1.611,2.003,2.989,3.709,4.136,5.118
			c1.146,1.41,2.085,2.562,2.815,3.461c-0.01-0.907-0.015-2.059-0.015-3.452c0-1.405,0-3.114,0-5.125h1.46v11.106H88.339z"/>
		<path d="M99.656,25.318l-1.559-3.468h-4.492l-1.543,3.468h-1.572l4.9-11.106h0.94l4.929,11.106H99.656z M96.594,18.354
			c-0.123-0.281-0.244-0.562-0.366-0.843c-0.121-0.281-0.248-0.566-0.379-0.856c-0.113,0.281-0.227,0.556-0.344,0.829
			c-0.116,0.271-0.236,0.543-0.358,0.814l-0.912,2.133h3.244L96.594,18.354z"/>
		<path d="M104.85,15.63v9.688h-1.459V15.63H99.29v-1.418h9.661v1.418H104.85z"/>
		<path d="M118.891,22.972c-0.179,0.609-0.448,1.103-0.814,1.482c-0.363,0.379-0.828,0.648-1.391,0.812
			c-0.561,0.164-1.229,0.247-2.008,0.247c-0.757,0-1.416-0.083-1.971-0.247c-0.558-0.164-1.02-0.435-1.385-0.812
			c-0.364-0.379-0.637-0.875-0.813-1.489c-0.176-0.613-0.267-1.364-0.267-2.253v-6.5h1.462v6.473c0,0.664,0.043,1.213,0.132,1.649
			c0.089,0.436,0.246,0.787,0.47,1.052c0.226,0.268,0.53,0.455,0.913,0.561c0.383,0.108,0.87,0.162,1.459,0.162
			c0.609,0,1.108-0.054,1.504-0.162c0.392-0.106,0.701-0.294,0.926-0.561c0.226-0.267,0.38-0.619,0.464-1.052
			c0.084-0.436,0.127-0.985,0.127-1.649v-6.473h1.46v6.5C119.158,21.611,119.069,22.365,118.891,22.972z"/>
		<path d="M129.689,25.318l-4.452-4.324h-2.947v4.324h-1.459V14.212h3.915c1.808,0,3.175,0.276,4.102,0.828
			c0.926,0.554,1.389,1.381,1.389,2.486c0,0.431-0.081,0.824-0.245,1.18c-0.163,0.356-0.386,0.672-0.667,0.954
			c-0.281,0.281-0.614,0.52-0.997,0.718c-0.385,0.196-0.796,0.345-1.235,0.449l4.676,4.492L129.689,25.318L129.689,25.318z
			 M128.663,16.901c-0.075-0.219-0.252-0.424-0.533-0.611c-0.282-0.188-0.698-0.343-1.249-0.471
			c-0.554-0.126-1.303-0.189-2.248-0.189h-2.345v3.946h3.286c0.57,0,1.058-0.062,1.461-0.189c0.401-0.127,0.731-0.289,0.989-0.484
			c0.257-0.197,0.447-0.417,0.568-0.661c0.122-0.243,0.184-0.481,0.184-0.716C128.777,17.328,128.738,17.12,128.663,16.901z"/>
		<path d="M132.117,25.318V14.212h7.68v1.418h-6.219v3.201h5.053v1.419h-5.053v3.65h6.416v1.418L132.117,25.318L132.117,25.318z"/>
	</g>
</g>
<g>
	<path d="M140.286,33.219c0.894-2.008,1.914-3.961,2.919-5.918c0.646,0.404,1.297,0.8,1.948,1.2
		c-2.549,3.484-5.063,6.999-7.556,10.525C138.244,36.979,139.424,35.171,140.286,33.219z"/>
	<path d="M109.832,32.205c0.562-0.565,1.12-1.131,1.677-1.701c2.195,2.885,4.7,5.522,6.87,8.432
		C115.49,36.74,112.697,34.43,109.832,32.205z"/>
	<g>
		<path d="M126.242,34.997c1.812-0.638,3.978-0.371,5.386,1c2.731,2.498,2.969,6.735,1.858,10.066
			c-0.749,2.68-2.659,4.871-3.263,7.585c5.758-0.544,11.742-2.403,17.436-0.515c2.33,1.646,4.512,5.327,2.319,7.914
			c1.462,1.514,1.084,3.777,1.325,5.688c0.136,0.021,0.403,0.06,0.536,0.081c-0.512,0.795-1.061,1.612-1.457,2.501
			c-0.562,0.468-1.243,0.753-1.881,1.097c0.166,2,0.276,4.387-1.413,5.816c-0.014,1.838-0.369,4.123-2.287,4.923
			c-2.635,0.761-5.376,1.332-8.137,1.2c-2.739-0.094-5.498,0.302-8.215-0.169c-0.674-0.222-1.107,0.519-1.639,0.782
			c0.419,0.583,0.848,1.162,1.274,1.735c-0.905,0.89-1.927,1.644-2.977,2.35c0.404,0.685,0.795,1.378,1.169,2.083
			c-8.3,5.643-16.882,10.858-25.433,16.104c-0.926-2.021-1.629-4.225-3.221-5.854c1.725,3.464,2.599,7.268,3.238,11.062
			c0.97,8.325-0.003,16.737,0.865,25.071c0.183,1.57,0.477,3.128,0.913,4.647c-1.467,0.774-3.028,1.339-4.552,1.982
			c-0.446,6.751-0.756,13.507-1.023,20.268c-0.448,2.229,1.953,3.354,3.373,4.565c-0.95,0.698-1.422,2.026-2.702,2.221
			c0.536,0.512,1.2,0.852,1.918,1.014c-0.829-1.451,0.923-1.996,1.829-2.631c0.713,0.575,1.549,0.954,2.285,1.49
			c-0.654,0.485-1.524,0.855-1.769,1.706c-0.196,0.008-0.581,0.03-0.771,0.043c-0.638,0.948,1.093,1.232,1.75,1.141
			c-0.17-0.235-0.512-0.707-0.682-0.94c0.804-0.52,1.612-1.034,2.42-1.55c2.208,1.481,4.766,2.894,5.808,5.493
			c0.728,1.427,0.312,3.013-0.098,4.455l-0.03-0.566c-3.105,0.293-6.318,0.137-9.257-0.987c-1.135-0.459-2.404-0.821-3.22-1.803
			c-0.978-1.073-1.974-2.148-3.161-2.995c-0.868-0.06-0.239,1.48-0.546,1.981c-1.953-0.396-3.957-0.629-5.837-1.314
			c-0.63-0.208-1.341-0.817-1.212-1.545c0.225-1.996,0.599-3.999,0.421-6.016c-0.484-7.108-0.246-14.248-0.596-21.362
			c-0.396,1.863-0.145,3.792-0.319,5.681c-0.047,6.238-0.716,12.449-1.005,18.674c-0.26,1.632,1.154,3.95-0.549,5.048
			c-2.016,0.613-4.123,0.971-6.212,1.273c-0.076-0.728-0.157-1.453-0.242-2.179c-2.162,1.158-3.345,3.625-5.744,4.379
			c-3.374,1.412-7.161,1.638-10.738,0.991c-0.174-1.417-0.268-2.979,0.579-4.215c1.234-2.312,3.637-3.562,5.786-4.874
			c0.848,0.762,2.886,1.326,1.766,2.74c0.621-0.205,1.259-0.396,1.851-0.688c-0.626-1.005-1.886-1.468-2.596-2.441
			c0.693-0.486,1.429-0.902,2.157-1.327c0.728,0.43,1.434,0.901,2.14,1.374c-0.132,0.446-0.208,0.905-0.26,1.373
			c0.707-0.297,1.375-0.676,1.979-1.143c-0.305-0.099-0.927-0.295-1.238-0.388c-0.413-0.672-0.893-1.297-1.417-1.881
			c1.162-0.852,2.392-1.66,3.285-2.804c0.247-0.65,0.132-1.371,0.175-2.047c-0.016-5.419-0.003-10.84-0.247-16.256
			c-0.702,1.829-1.816,3.604-3.692,4.398c-1.698,0.868-3.663,0.903-5.522,1.069c-1.203,0.145-1.514-1.527-0.936-2.314
			c0.421-1.068,1.711-0.724,2.604-0.844c-1.063-0.468-2.145-1.029-2.625-2.157c0.059-0.939-0.451-1.723-0.792-2.549
			c0.344-1.696,0.162-3.978,1.958-4.89c1.123-0.632,2.259,0.158,3.003,0.977c0.302-1.225,0.961-2.301,1.706-3.302
			c-0.272-0.085-0.817-0.255-1.089-0.341c-0.315,0.536-0.622,1.081-0.923,1.63c-0.983-0.269-1.948-0.592-2.909-0.915
			c-0.159,0.18-0.473,0.54-0.63,0.723c-4.999-1.311-10.101-2.516-14.67-4.999c-0.948-0.613-2.088-1.673-1.492-2.92
			c1.173-3.297,3.569-5.959,5.636-8.726c2.953-3.662,6.062-7.197,9.25-10.662c1.153-1.124,2.06-2.509,3.425-3.399
			c1.851-1.281,3.655-2.752,4.706-4.791c0.446,0.828,0.795,1.728,1.392,2.472c2.487,3.008,5.556,5.442,8.474,8.007
			c-1.791-0.957-3.378-2.237-5.084-3.332c3.348,4.157,7.198,7.868,10.739,11.854c0.766,0.91,1.561,1.799,2.433,2.611
			c-1.056-1.752-2.118-3.501-3.301-5.164c0.263-2.26,0.671-4.494,1.041-6.735c-0.966-0.579-1.894-1.222-2.812-1.873
			c-0.596,0.924-1.204,1.849-1.94,2.674c1.039-2.455,2.119-4.906,3.235-7.314c2.025,1.188,3.981,2.709,5.125,4.803
			c-0.617-0.453-1.212-0.948-1.816-1.415c-0.344,0.961-0.707,1.914-1.059,2.871c1.485,1.8,2.638,3.838,3.986,5.734
			c-0.324,6.08-1.081,12.189-0.345,18.267c0.336-5.651,0.753-11.306,0.885-16.969c0.455-6.279,0.524-12.669-0.957-18.831
			c-1.383,2.212-3.492,4.039-6.136,4.472c-5.983,1.2-11.878-1.804-16.376-5.518c-3.233-3.025-6.284-6.467-7.921-10.64
			c-0.847,1.378-2.596,1.536-3.958,0.872c-3.088-1.629-4.859-5.251-4.637-8.68c0.094-1.106,1.307-2.046,0.553-3.153
			c1.88-0.854,3.515-2.468,3.808-4.595c-1.396,1.621-2.481,3.749-4.643,4.467c-0.863,0.404-2.233,0.421-2.416-0.766
			c0.936-0.033,1.846-0.251,2.676-0.698c-1-3.186-1.852-6.428-2.506-9.7c-0.804-3.936,0.132-8.433,3.128-11.245
			c0.863-3.88,4.382-6.493,7.998-7.637c0.307-0.186,0.142-0.102,0.442-0.234c4.323-1.14,8.922-1.147,13.231,0.056
			c0.911-0.629,2.021-0.86,2.949-0.094c-3.356,2.097-6.097,5.062-9.619,6.914c-0.01,0.148-1.41,0.621-1.988,0.77
			c-2.979,1.047-6.217,0.953-9.314,0.587c-1.697,1.816-2.803,4.557-1.646,6.943c0.822,1.804,0.775,3.791,0.184,5.65
			c1.081-1.183,1.276-2.791,1.2-4.326c0.562,0.637,1.08,1.353,1.166,2.229c-0.676,3.497-3.005,6.268-4.775,9.246
			c1.852-1.434,3.328-3.34,4.336-5.446c-0.217,1.842,0.919,3.565,0.609,5.369c0.114,0.034,0.344,0.098,0.458,0.127
			c0.137,1.046-0.264,2.042-0.519,3.037c0.408-0.634,0.774-1.289,1.165-1.931c1.15,2.749,2.936,5.162,4.136,7.884
			c-0.604-0.167-1.409-0.064-1.757-0.702c-1.361-1.621-2.434-3.753-4.613-4.403c-1.131-0.554-2.816-0.077-3.102,1.255
			c-0.332,1.629,0.294,3.271,0.898,4.761c0.834,1.812,2.634,3.641,4.808,3.251c0.876-0.621,0.889-1.787,1.127-2.732
			c0.128,0.051,0.388,0.153,0.519,0.204c1.626,4.48,4.872,8.122,8.28,11.351c3.404,3.03,7.591,5.515,12.219,5.887
			c2.873,0.234,6.17-0.39,7.879-2.947c2.098-3.191,2.801-7.113,2.915-10.875c0.17-7.606-2.209-15.116-6.16-21.571
			c0.191,0,0.574-0.004,0.765-0.008c3.744,4.522,5.852,10.236,6.701,16.005c0.541,3.872,0.601,7.88-0.442,11.675
			c7.718-6.037,15.351-12.176,23.055-18.231c0.166,0.221,0.503,0.66,0.669,0.88c0.855-0.715,1.735-1.396,2.6-2.097
			c0.601,0.906,1.847-0.065,1.341-0.873c-1.565-3.706-2.203-7.731-2.45-11.721c0-1.838-0.286-3.795,0.564-5.501
			c1.312-2.812,2.65-5.625,3.658-8.564c0.789-3.901,0.962-7.956,0.456-11.909C124.803,36.009,125.352,35.163,126.242,34.997z
			 M126.144,36.804c0.527,3.527,0.298,7.13-0.133,10.663c-0.579,4.148-3.097,7.628-4.344,11.56
			c-0.441,3.689,0.29,7.391,0.921,11.016c0.421,2.327,1.339,4.598,3.08,6.258c-0.431-0.073-1.285-0.218-1.715-0.289
			c-0.465,0.399-0.923,0.804-1.376,1.212c1.206,1.523,2.346,3.093,3.426,4.701c0.312-0.183,0.933-0.553,1.239-0.736
			c-0.222-0.71-1.395-1.455-0.763-2.194c1.43-0.588,1.384,1.747,2.566,2.045c1.23,0.318,2.518,0.247,3.776,0.349
			c-1.356-1.285-1.748-3.148-1.424-4.939c-0.8-0.294-1.481-0.809-1.995-1.485c-0.694,0.195-1.392,0.387-2.091,0.565
			c0.892-1.553,1.788-3.195,1.932-5.012c-0.185-0.987-0.489-1.979-0.285-2.986c0.186-1.715,0.853-3.914,2.905-4.072
			c-0.549-1.932-0.682-4.608,1.171-5.893c2.245-0.69,4.638-0.12,6.918-0.413c1.276-0.677,2.425-1.676,3.889-1.928
			c0.03,0.192,0.094,0.574,0.127,0.771c-0.993,1.063-2.332,1.736-3.624,2.37c-2.288,0.367-4.718-0.353-6.95,0.417
			c-0.775,1.267-0.988,3.292-0.065,4.479c2.864,0.864,6.045,1.178,8.889,0.068c2.378-0.838,4.944-1.685,6.688-3.595
			c0.776-0.719,0.404-1.885,0-2.702c-0.651-1.17-1.427-2.569-2.871-2.816c-4.783-1.03-9.645,0.166-14.375,0.927
			c0.366,0.438,0.714,0.894,1.046,1.361c-0.854,0.868-1.978,0-2.535-0.745c-0.599-0.813-1.429-1.651-1.446-2.71
			c0.995-3.515,3.709-6.467,3.872-10.229c0.166-2.361-0.664-5.029-2.852-6.232C128.628,35.848,127.233,36.222,126.144,36.804z
			 M68.116,52.164c-1.511,0.71-3.161,0.996-4.735,1.523c4.378,0.451,8.509-2.114,11.288-5.301
			C72.54,49.739,70.379,51.049,68.116,52.164z M147.792,62.392c-2.232,1.136-4.612,1.979-6.999,2.744
			c-3.161,0.903-6.382-0.799-9.518-0.101c-1.335,1.025-1.017,3.067-1.033,4.582c2.863,0.268,5.65,1.63,8.557,1.021
			c3.029-0.506,6.071-0.995,9.041-1.795c0.658-0.281,1.722-0.395,1.735-1.323c0.207-1.417,0.195-2.876-0.063-4.284
			C149.425,62.447,148.454,61.962,147.792,62.392z M136.674,71.717c-2.152-0.029-4.25-0.641-6.403-0.629
			c0.021,1.195-0.194,2.544,0.531,3.595c1.419,0.809,3.021,1.302,4.631,1.548c2.348,0.056,4.704-0.229,7.031-0.536
			c0.562-0.021,0.924-0.992,1.5-0.613c0.815,0.766,1.99-0.004,2.575-0.702c0.946-1.085,0.116-2.698,1.057-3.787
			C143.941,70.722,140.341,71.662,136.674,71.717z M118.971,78.219c1.948,2.727,3.909,5.441,5.782,8.219
			c0.745-0.635,1.506-1.242,2.268-1.851c-2.063-2.681-3.944-5.497-5.975-8.195C120.358,77.006,119.668,77.618,118.971,78.219z
			 M140.04,77.184c-2.416,0.35-4.901,0.472-7.272-0.212c0.12,0.91-0.055,2.021,0.694,2.719c0.91,0.949,2.305,1.144,3.557,1.173
			l-0.312,0.49c2.494-1.03,5.545-0.54,7.94-2.004c0.928-0.629,0.748-1.889,0.952-2.846c-1.17,0.166-2.339,0.349-3.519,0.434
			C141.464,76.249,140.746,77.274,140.04,77.184z M95.065,101.552c0.872,1.786,1.599,3.637,2.34,5.479
			c-0.575,0.667-1.145,1.336-1.704,2.016c0.753,0.992,1.592,1.966,2.078,3.123c-0.162,2.128-0.634,4.222-0.843,6.349
			c-0.539,4.595-1.879,9.071-2.17,13.695c1.243-3.295,1.878-6.772,2.319-10.254c0.587-3.387,1.163-6.777,1.535-10.193
			c-0.634-0.848-1.343-1.638-1.841-2.57c0.093-0.876,1.025-1.429,1.547-2.097C97.353,105.192,96.599,103.103,95.065,101.552z
			 M71.906,105.112l0.532,0.503c0.821,2.076,1.357,4.255,1.991,6.395c0.152,0.472,0.255,1.19,0.953,1.041
			c1.213,0.089,2.426,0.218,3.608,0.516c-0.391,1.144-0.915,2.236-1.515,3.289c3.668,2.846,7.254,5.814,10.484,9.155
			c1.528,1.629,2.944,3.365,4.5,4.969c-1.215-2.858-3.542-5.003-5.687-7.168c-2.621-2.553-5.464-4.854-8.306-7.148
			c0.537-1.183,1.03-2.383,1.417-3.62c-1.48-0.451-3.013-0.677-4.552-0.688c-0.639-2.413-1.447-4.805-2.8-6.92
			C72.427,105.168,72.149,105.146,71.906,105.112z M71.753,118.624c-0.37,0.997-0.392,2.312-1.417,2.897
			c-2.709,1.787-5.402,3.617-7.892,5.705c-1.498-0.535-3.127-0.246-4.476,0.537c0.71,0.064,1.617-0.285,2.085,0.438l-0.277-0.731
			c3.867,0.293,7.207,2.549,10.989,3.241c0.315,0.983,1.548,0.795,2.332,1.095c-0.064,0.275-0.196,0.832-0.259,1.11
			c0.37,0.089,1.114,0.259,1.485,0.348c-0.115-4.288-0.916-8.5-2.09-12.61c0.686-2.388,0.818-4.999-0.395-7.25
			C72.081,115.135,72.324,116.924,71.753,118.624z M67.307,136.091c0.676,0.263,1.361,0.52,2.05,0.761
			c0.886-1.455,1.723-2.937,2.583-4.408c-0.574-0.187-1.145-0.37-1.718-0.544C69.171,133.239,68.303,134.706,67.307,136.091z
			 M72.069,133.724c-0.345,0.569-0.626,1.178-0.906,1.782c0.757,0.227,1.492,0.519,2.204,0.873
			c-1.307,0.987-2.226,2.293-2.544,3.914c-0.928,0.493-1.948,0.789-2.966,1.04c0.35-0.535,0.77-1.012,1.26-1.426
			c-1.254-1.33-3.51,0.626-2.694,2.114c0.894,2.019,3.545,0.992,5.131,0.555c-0.953,1.948-4.037,1.744-5.539,0.494
			c0.135,0.76,0.195,1.714,1.067,1.998c1.884,1.075,3.91-0.051,5.667-0.796c-1.145,2.378-4.2,2.051-6.353,1.697
			c0.774,0.652,1.553,1.417,2.607,1.574c1.71,0.385,3.271-0.576,4.782-1.214c-0.017,0.536-0.242,1.082-0.795,1.27
			c-1.34,0.587-2.718,1.097-4.096,1.599c-0.018,0.331-0.047,1-0.063,1.332c1.858-0.333,3.872-0.894,5.164-2.366
			c1.205-1.924,1.796-4.161,2.314-6.353c0.175-0.105,0.524-0.311,0.699-0.418c-0.123-0.102-0.375-0.314-0.498-0.417
			c-0.187-2.008,0.336-4.144-0.413-6.062C74.825,134.353,73.442,133.86,72.069,133.724z M93.955,143.505
			c-0.022,6.896,0.059,13.804,0.297,20.699c0.506-0.094,1.007-0.179,1.514-0.264c-0.06-7.021,0-14.04-0.025-21.06
			C95.14,143.08,94.546,143.284,93.955,143.505z M91.235,144.008c-0.021,7.007,0.834,14.03,0.106,21.03
			c0.762-0.183,1.528-0.357,2.294-0.532c-0.187-0.936,0.395-2.459-0.791-2.858c0.195,0.068,0.589,0.195,0.786,0.259
			c-0.355-6.121-0.173-12.266-0.353-18.396C92.593,143.671,91.912,143.836,91.235,144.008z M88.482,144.482
			c-0.247,6.957-0.025,13.931,0.481,20.873c0.654-0.084,1.31-0.17,1.961-0.255c0.136-6.978-0.259-13.951-0.399-20.928
			C89.844,144.275,89.163,144.383,88.482,144.482z M78.199,145.185c0.06,0.219,0.179,0.659,0.237,0.881
			c-0.213-0.032-0.641-0.097-0.854-0.131l0.613,0.269c0.06,6.023-0.438,12.061-0.531,18.095c0.501,0.114,1.003,0.237,1.509,0.357
			c0.392-5.854,0.596-11.718,0.958-17.572c0.03-0.629-0.03-1.258-0.067-1.885C79.441,145.199,78.821,145.19,78.199,145.185z
			 M80.832,145.262c-0.438,6.564-0.557,13.15-1.124,19.707c0.773,0.234,1.549,0.46,2.327,0.688
			c-0.403-4.718,0.106-9.444,0.405-14.154c-0.265-0.371-0.771-0.975-0.004-1.111c0.335-1.723,0.328-3.483,0.489-5.224
			C82.228,145.203,81.531,145.233,80.832,145.262z M83.635,145.114c-0.569,6.819-0.987,13.652-1.246,20.493
			c0.671,0.148,1.34,0.303,2.016,0.451c0.756-7.006,1.05-14.048,1.375-21.089C85.062,145.015,84.352,145.067,83.635,145.114z
			 M66.745,150.061c0.294,0.392,0.728,0.477,1.298,0.251c0.451-0.179,0.599-0.46,0.442-0.843
			C67.784,149.326,67.205,149.521,66.745,150.061z"/>
	</g>
	<path d="M149.501,45.7c2.74-1.727,5.485-3.451,8.298-5.059c0.217,0.468,0.438,0.937,0.66,1.404
		C155.419,43.135,152.539,44.616,149.501,45.7z"/>
	<path d="M80.117,47.05c1.214-0.851,2.788-0.88,4.059-0.14c-0.029,0.464-0.068,0.928-0.115,1.388
		c-2.451-0.923-4.748,0.553-6.628,1.974c2.229,2.187,5.075,4.098,5.893,7.305c-2.303-2.221-4.404-4.676-7.075-6.493
		c-0.814,0.481-1.656,0.923-2.57,1.17C75.838,50.538,77.803,48.555,80.117,47.05z"/>
	<path d="M104.881,47.071c3.365,0.71,6.773,1.187,10.117,2c-3.468-0.009-6.918-0.358-10.376-0.549
		C104.684,48.16,104.816,47.432,104.881,47.071z"/>
	<path d="M65.673,59.503c0.626-1.447,2.166-3.268,3.915-2.625C68.069,57.406,66.78,58.354,65.673,59.503z"/>
	<path d="M77.14,60.252c0.03-1.464,1.081-2.693,2.601-2.672c3.56-0.532,6.29,2.314,7.315,5.42c0.108,0.238,0.146,0.358,0.153,0.41
		c0.243,1.127,0.636,2.143,0.741,3.295c-0.94-0.689-0.982-1.991-1.497-2.961c-0.741-1.566-1.549-3.464-3.39-3.949
		C81.127,58.954,78.973,59.362,77.14,60.252z"/>
	<path d="M66.15,61.183c0.94-1.809,2.634-3.617,4.893-3.063C69.299,58.95,67.681,60.005,66.15,61.183z"/>
	<path d="M155.679,58.907c2.42-0.264,4.864-0.162,7.292-0.302c0.021,0.532,0.03,1.063,0.026,1.6
		C160.563,59.737,158.101,59.435,155.679,58.907z"/>
	<path d="M69.077,61.166c1.344-0.834,2.992-0.242,4.302,0.357c-3.265,1.191-5.782,3.782-7.446,6.77
		c-0.353,0.646-0.809,1.229-1.264,1.809c0.396-1.429,0.161-3,0.906-4.332C66.29,63.949,67.495,62.327,69.077,61.166z"/>
	<path d="M107.535,62.932c2.254-0.686,4.425-1.626,6.705-2.222c-1.873,1.417-4.009,2.43-6.034,3.6
		C107.982,63.847,107.76,63.392,107.535,62.932z"/>
	<path d="M77.569,64.774c0.733,1.239,0.911,2.724,1.703,3.923c1.672,1.995,4.454,2.348,6.39,3.986
		c1.417,1.126,2.723,2.717,2.765,4.607c0.077,1.863-1.901,3.378-3.692,2.854c-1.566-0.37-3.467-0.758-4.306-2.29
		c1.731,0.817,3.757,1.222,5.625,0.663c1.178-0.604,0.987-2.313,0.408-3.297c-1.511-2.301-4.11-3.441-6.48-4.632
		C78.331,69.212,77.442,66.909,77.569,64.774z"/>
	<path d="M81.165,69.161c-1.132-0.936,0.229-2.115,1.103-2.609c1.462-0.787,3.999-0.991,4.705,0.881
		C84.887,67.234,82.527,67.297,81.165,69.161z"/>
	<path d="M70.792,71.042c1.166-0.46,2.901-0.728,3.642,0.553c-2.574-0.103-4.854,1.578-6.139,3.701
		c-0.127,0.115-0.389,0.336-0.52,0.447C67.077,73.654,68.911,71.662,70.792,71.042z"/>
	<path d="M56.858,80.955c1.45-0.979,3.258,0.115,4.126,1.366c-0.829-0.272-1.62-0.792-2.522-0.754
		c-0.638,0.218-1.192,0.608-1.782,0.914C56.139,82.065,56.28,81.257,56.858,80.955z"/>
	<g>
		<path d="M80.517,85.448c3.49-0.523,7.255-1.915,9.045-5.182c0.067,0.855-0.132,1.702-0.629,2.404
			c-1.94,2.451-0.112,6.079-2.306,8.428c-2.259,1.851-5.914,1.676-7.999-0.392c-1.322-1.13-2.322-2.552-3.242-4.016
			c-0.787-1.302-2.059-2.17-3.224-3.102c-0.686,0.915-1.162,2.025-2.107,2.714c0.124-2.48,1.851-5.097,4.54-5.182
			c0.026,0.94-0.965,1.226-1.569,1.718C74.689,85.179,77.82,85.808,80.517,85.448z M76.612,86.298
			c2.66,2.145,6.974,2.948,9.662,0.43c-0.114-0.596-0.229-1.187-0.335-1.783C83.058,86.405,79.773,86.643,76.612,86.298z"/>
	</g>
	<path d="M84.807,95.148c1.302-0.15,2.339-1,3.391-1.703c-0.595,1.162-1.285,2.463-2.579,2.957
		c-1.911,0.672-4.199-0.187-5.156-1.991C81.837,94.948,83.313,95.492,84.807,95.148z"/>
</g>
</svg>
