<?xml version="1.0" encoding="utf-8"?>
<!-- Generator: Adobe Illustrator 16.0.4, SVG Export Plug-In . SVG Version: 6.00 Build 0)  -->
<!DOCTYPE svg PUBLIC "-//W3C//DTD SVG 1.1 Tiny//EN" "http://www.w3.org/Graphics/SVG/1.1/DTD/svg11-tiny.dtd">
<svg version="1.1" baseProfile="tiny" id="Layer_1" xmlns="http://www.w3.org/2000/svg" xmlns:xlink="http://www.w3.org/1999/xlink"
	 x="0px" y="0px" width="26.794px" height="33.45px" viewBox="0 0 26.794 33.45" xml:space="preserve">
<path fill="#FFFFFF" d="M1.208,30.483c-0.292-1.434-0.354-2.871-0.247-4.334c0.211-2.861,0.872-5.629,1.706-8.354
	c1.191-3.894,2.754-7.634,4.925-11.095c0.971-1.546,1.989-3.067,3.374-4.28c0.487-0.427,1.052-0.797,1.64-1.067
	c1.344-0.618,2.849,0.179,3.379,1.696c0.504,1.444,0.062,2.75-0.621,3.983c-1.229,2.218-2.954,4.061-4.66,5.907
	c-1.383,1.498-2.799,2.965-4.168,4.475c-0.308,0.34-0.566,0.77-0.705,1.205c-0.877,2.768-1.775,5.536-2.123,8.438
	c-0.088,0.736-0.102,1.49-0.065,2.23c0.037,0.738,0.249,0.843,0.894,0.51c1.281-0.66,2.352-1.606,3.299-2.666
	c4.645-5.199,9.264-10.423,13.891-15.639c0.869-0.981,1.729-1.971,2.595-2.954c0.12-0.136,0.239-0.303,0.396-0.369
	c0.244-0.102,0.553-0.234,0.77-0.162c0.365,0.121,0.426,0.518,0.278,0.834c-0.261,0.555-0.511,1.147-0.906,1.605
	c-3.413,3.958-6.864,7.883-10.29,11.83c-1.909,2.2-3.781,4.433-5.688,6.635c-0.955,1.103-1.996,2.113-3.245,2.9
	c-1.532,0.966-3.281,0.718-4.06-0.701c-0.011-0.021-0.062-0.02-0.097-0.03C1.388,30.884,1.298,30.684,1.208,30.483z M7.473,13.952
	c0.213-0.142,0.298-0.176,0.354-0.238c1.489-1.666,3.021-3.298,4.445-5.019c0.952-1.149,1.816-2.403,2.083-3.918
	c0.074-0.424-0.075-0.923-0.241-1.341c-0.146-0.363-0.533-0.486-0.859-0.188c-0.494,0.449-1.062,0.879-1.384,1.439
	c-0.958,1.674-1.859,3.385-2.691,5.125C8.558,11.109,8.076,12.471,7.473,13.952z"/>
</svg>
