<?xml version="1.0" encoding="utf-8"?>
<!-- Generator: Adobe Illustrator 18.1.1, SVG Export Plug-In . SVG Version: 6.00 Build 0)  -->
<svg version="1.1" id="Layer_1" xmlns="http://www.w3.org/2000/svg" xmlns:xlink="http://www.w3.org/1999/xlink" x="0px" y="0px"
	 viewBox="-190.4 393.3 118.7 22.7" enable-background="new -190.4 393.3 118.7 22.7" xml:space="preserve">
<g>
	<path d="M-177.8,407.9l-2.2-9.2l-2.2,9.2h-4l-4.2-14.7h4.2l2.2,9.8l2.5-9.8h2.9l2.5,9.8l2.2-9.8h4.3l-4.2,14.7H-177.8z"/>
	<path d="M-169.7,407.9v-14.7h7.3c3.3,0,5.1,2.2,5.1,4.9c0,2.6-1.8,4.9-5.1,4.9h-3.6v4.9H-169.7z M-161.1,398.1c0-1-0.8-1.6-1.8-1.6
		h-3v3.1h3C-161.9,399.7-161.1,399.1-161.1,398.1z"/>
</g>
<g>
	<path d="M-155.5,407.6c-0.6-0.2-1-0.5-1.3-0.8s-0.5-0.8-0.6-1.3c-0.1-0.5-0.1-1,0-1.5c0.1-0.5,0.2-1,0.3-1.5c0.6-0.6,1.2-1.3,1.9-2
		c0.7-0.8,1.4-1.5,2.2-2.3c0.8-0.8,1.6-1.4,2.4-2.1c0.8-0.6,1.7-1.1,2.6-1.5c0.3-0.1,0.5-0.1,0.7,0c0.2,0.1,0.3,0.4,0.4,0.6
		c0.1,0.3,0.1,0.6,0.1,1c0,0.4,0,0.8-0.1,1.1c-0.1,0.4-0.1,0.7-0.2,1c-0.1,0.3-0.2,0.5-0.3,0.6c-0.2,0.2-0.4,0.4-0.9,0.7
		c-0.4,0.3-0.9,0.5-1.4,0.8c-0.5,0.3-1.1,0.6-1.7,0.9s-1.2,0.6-1.7,1c-0.6,0.3-1.1,0.7-1.5,1c-0.5,0.3-0.8,0.7-1,1
		c-0.2,0.3-0.3,0.6-0.3,0.9c0.1,0.3,0.3,0.6,0.8,0.9c0.6,0.1,1.4,0,2.3-0.1s1.8-0.3,2.8-0.6s1.8-0.5,2.7-0.7
		c0.9-0.3,1.6-0.4,2.1-0.6l0.3,0.3c-0.3,0.4-0.7,0.7-1.2,1c-0.5,0.3-1.1,0.6-1.7,0.9c-0.6,0.3-1.3,0.5-2.1,0.7
		c-0.7,0.2-1.4,0.3-2.1,0.4c-0.7,0.1-1.3,0.2-1.9,0.1C-154.6,407.8-155.1,407.7-155.5,407.6z M-148.8,397c0,0-0.2,0-0.4,0.2
		c-0.3,0.2-0.6,0.4-1,0.7c-0.4,0.3-0.8,0.6-1.2,0.9c-0.4,0.3-0.8,0.7-1.2,1c-0.4,0.3-0.7,0.5-0.9,0.8c-0.2,0.2-0.3,0.3-0.3,0.3
		c0.3,0.1,0.7,0,1.2-0.1c0.5-0.1,1-0.3,1.5-0.6c0.5-0.3,1-0.5,1.5-0.9c0.5-0.3,0.8-0.6,1.1-1c0.3-0.3,0.4-0.6,0.4-0.8
		C-148.2,397.3-148.4,397.1-148.8,397z"/>
	<path d="M-146.6,407.7c-0.1-0.1-0.1-0.2,0-0.4c0.1-0.2,0.4-0.3,0.7-0.5s0.7-0.4,1.1-0.6c0.4-0.2,0.8-0.4,1.2-0.6
		c0.4-0.2,0.7-0.3,1-0.5c0.3-0.1,0.5-0.2,0.6-0.3c0.3-0.3,0.5-0.5,0.6-0.7c0.1-0.2,0.1-0.4,0-0.5c-0.1-0.1-0.3-0.2-0.5-0.3
		c-0.2-0.1-0.5-0.2-0.8-0.2c-0.3-0.1-0.6-0.1-1-0.2c-0.3,0-0.7-0.1-1-0.2c-0.3-0.1-0.6-0.1-0.8-0.2c-0.2-0.1-0.4-0.2-0.5-0.3
		c-0.1-0.1-0.1-0.3,0-0.5c0.1-0.2,0.3-0.4,0.7-0.6c0.2-0.1,0.4-0.3,0.8-0.5c0.3-0.2,0.7-0.5,1.1-0.7c0.4-0.2,0.8-0.5,1.1-0.7
		c0.4-0.2,0.7-0.3,0.9-0.4c0.1,0,0.3,0,0.4,0c0.1,0.1,0.3,0.1,0.3,0.2c0.1,0.1,0.1,0.2,0.1,0.3c0,0.1-0.1,0.2-0.2,0.3
		c-0.7,0.4-1.3,0.7-2,1.1c-0.6,0.3-1.3,0.7-1.9,1.2c0,0.1,0,0.2,0,0.3c0.1,0.1,0.1,0.1,0.2,0.2c1,0.1,1.9,0.2,2.5,0.4
		c0.6,0.2,1.1,0.4,1.3,0.6c0.3,0.2,0.4,0.5,0.4,0.7c0,0.3-0.1,0.5-0.3,0.8c-0.2,0.3-0.5,0.5-0.8,0.8s-0.7,0.5-1.2,0.7
		s-0.9,0.4-1.3,0.6c-0.4,0.2-0.9,0.3-1.2,0.5c-0.4,0.1-0.7,0.2-1,0.3C-146.3,407.8-146.5,407.8-146.6,407.7z"/>
	<path d="M-140.5,407.7c0.6-1.9,1.1-3.4,1.6-4.5c0.5-1.1,0.9-1.9,1.2-2.3c0.3-0.4,0.5-0.6,0.7-0.4c0.1,0.2,0.1,0.6,0,1.2
		c-0.1,0.6-0.4,1.5-0.9,2.6c-0.4,1.1-1,2.3-1.8,3.7c-0.1,0-0.2,0.1-0.4,0C-140.4,407.9-140.5,407.8-140.5,407.7z M-136.8,397.4
		c0,0,0-0.1,0-0.2c0-0.1,0-0.1,0-0.2c0-0.1,0-0.2,0-0.2c0-0.1,0-0.1,0-0.1c0.3-0.1,0.6-0.1,0.8,0c0.2,0.1,0.3,0.2,0.3,0.4
		c0,0.2,0,0.3,0,0.5c-0.1,0.2-0.1,0.3-0.2,0.4c-0.1,0.1-0.2,0.1-0.4,0C-136.5,397.9-136.6,397.7-136.8,397.4z"/>
	<path d="M-139.4,414.2c-0.5-0.2-0.8-0.4-1.1-0.7c-0.3-0.3-0.5-0.7-0.7-1.1c-0.2-0.4-0.2-0.8-0.3-1.2c0-0.4,0-0.7,0-1
		c0.1-0.3,0.1-0.5,0.3-0.7c0.1-0.2,0.3-0.2,0.4-0.1c0,1.3,0.1,2.3,0.5,2.9c0.3,0.7,0.7,1.1,1.2,1.2c0.5,0.2,1.1,0.1,1.7-0.1
		s1.3-0.6,2-1.2c0.7-0.5,1.3-1.2,1.9-1.9c0.6-0.7,1.1-1.5,1.5-2.3c0.4-0.8,0.7-1.6,0.9-2.4c0.2-0.8,0.2-1.5,0-2.1
		c-1.1,0.8-1.9,1.3-2.6,1.6c-0.7,0.3-1.2,0.4-1.6,0.4c-0.4,0-0.6-0.2-0.7-0.5c-0.1-0.3-0.1-0.7,0-1.2c0.1-0.5,0.3-1,0.6-1.6
		c0.3-0.6,0.6-1.2,1-1.7c0.4-0.6,0.8-1.1,1.2-1.6c0.4-0.5,0.9-0.9,1.3-1.2s0.8-0.4,1.2-0.5c0.4,0,0.7,0.1,1,0.5
		c0.3,0.5,0.6,1.1,0.6,1.9c0.1,0.8,0.1,1.7-0.1,2.6c-0.1,1-0.4,1.9-0.7,3c-0.3,1-0.7,2.1-1.2,3c-0.5,1-1.1,1.9-1.7,2.8
		c-0.6,0.9-1.3,1.6-2,2.1c-0.7,0.6-1.5,0.9-2.3,1.1C-137.8,414.6-138.6,414.5-139.4,414.2z M-134.9,403.1c0,0,0,0.1,0,0.2
		s0,0.2,0,0.4c0,0.1,0,0.3,0,0.4c0,0.1,0,0.2,0,0.2c0.4,0.1,0.7,0.1,1.1-0.1c0.4-0.2,0.7-0.4,1.1-0.8c0.3-0.3,0.7-0.7,1-1.2
		c0.3-0.4,0.6-0.9,0.8-1.3c0.2-0.4,0.4-0.8,0.5-1.2c0.1-0.4,0.1-0.6,0.1-0.8c-0.1-0.2-0.2-0.2-0.4-0.2c-0.2,0.1-0.6,0.3-1,0.7
		c-0.2,0.2-0.4,0.4-0.7,0.7c-0.3,0.3-0.6,0.6-0.9,0.9c-0.3,0.3-0.6,0.7-0.8,1C-134.6,402.5-134.8,402.9-134.9,403.1z"/>
	<path d="M-121.8,407.7c0-0.4,0-0.9,0.1-1.3c0.1-0.4,0.3-0.8,0.5-1.2c0.2-0.4,0.4-0.8,0.6-1.2c0.2-0.4,0.4-0.8,0.6-1.2
		c0.2-0.4,0.3-0.8,0.3-1.2c0.1-0.4,0-0.8-0.1-1.1c-0.3-0.1-0.7-0.1-1.1,0.1c-0.4,0.2-0.9,0.4-1.3,0.8c-0.5,0.3-1,0.7-1.5,1.2
		c-0.5,0.5-1,0.9-1.5,1.4c-0.5,0.5-0.9,0.9-1.4,1.4c-0.4,0.4-0.8,0.8-1.2,1.1c-0.3,0.3-0.6,0.5-0.9,0.5c-0.2,0.1-0.4,0-0.5-0.2
		c0,0,0-0.1,0.1-0.3c0.1-0.2,0.2-0.4,0.4-0.7c0.2-0.3,0.3-0.7,0.5-1c0.2-0.4,0.4-0.8,0.6-1.2c0.2-0.4,0.4-0.8,0.6-1.2
		c0.2-0.4,0.4-0.8,0.6-1.1c0.2-0.3,0.3-0.6,0.4-0.8c0.1-0.2,0.2-0.3,0.2-0.3c0.3,0.2,0.4,0.4,0.4,0.6c0,0.2,0,0.4-0.1,0.7
		c-0.1,0.2-0.2,0.5-0.3,0.7c-0.1,0.2-0.1,0.5,0,0.7c0.2-0.1,0.5-0.3,0.9-0.6s0.8-0.5,1.2-0.8c0.4-0.3,0.9-0.5,1.4-0.8
		c0.5-0.3,0.9-0.5,1.3-0.6c0.4-0.2,0.8-0.2,1.1-0.2c0.3,0,0.6,0.1,0.7,0.3s0.2,0.5,0.1,1c-0.1,0.5-0.3,1.1-0.6,1.9
		c0,0.1-0.1,0.2-0.2,0.4c-0.1,0.2-0.2,0.4-0.3,0.6c-0.1,0.2-0.2,0.5-0.3,0.8c-0.1,0.3-0.2,0.5-0.3,0.8c-0.1,0.2-0.2,0.4-0.3,0.6
		c-0.1,0.2-0.1,0.3-0.1,0.4c0,0.1,0,0.1-0.1,0.3c0,0.1,0,0.3-0.1,0.5c0,0.2-0.1,0.3-0.1,0.5c-0.1,0.1-0.1,0.3-0.2,0.3
		c0,0-0.1,0.1-0.1,0c0,0-0.1,0-0.1-0.1C-121.7,407.9-121.7,407.8-121.8,407.7C-121.8,407.8-121.8,407.7-121.8,407.7z"/>
	<path d="M-118.2,407.5c-0.3-0.2-0.4-0.6-0.4-1c0-0.4,0-0.9,0.2-1.5c0.2-0.5,0.4-1.1,0.7-1.7c0.3-0.6,0.6-1.2,1-1.7
		c0.4-0.5,0.8-1,1.3-1.5c0.5-0.4,0.9-0.7,1.4-1c0.5-0.2,0.9-0.3,1.3-0.2c0.4,0.1,0.8,0.3,1.2,0.8c0.2,0.3,0.4,0.6,0.4,0.8
		c0,0.3,0,0.6,0,0.9c-0.1,0.3-0.1,0.6-0.3,0.9c-0.1,0.3-0.2,0.6-0.4,0.9c-0.1,0.3-0.2,0.6-0.3,1c-0.1,0.3-0.1,0.7,0,1
		c0,0.3,0.2,0.5,0.4,0.7c0.2,0.1,0.4,0.2,0.7,0.1c0.3,0,0.6-0.1,1-0.2c0.4-0.1,0.7-0.3,1.1-0.5c0.4-0.2,0.7-0.4,1.1-0.6
		c0.3-0.2,0.7-0.4,0.9-0.6c0.3-0.2,0.6-0.4,0.9-0.6c0.3-0.1,0.5,0,0.5,0.1c0,0.1,0,0.3-0.2,0.5c-0.2,0.2-0.4,0.4-0.7,0.7
		c-0.3,0.3-0.7,0.5-1.1,0.8c-0.4,0.2-0.9,0.5-1.3,0.7c-0.5,0.2-0.9,0.3-1.4,0.4c-0.4,0.1-0.9,0.1-1.3,0c-0.4-0.1-0.7-0.3-1-0.6
		c-0.1-0.1-0.2-0.3-0.3-0.4s-0.2-0.3-0.3-0.4c-0.2,0.2-0.4,0.4-0.6,0.6c-0.2,0.2-0.5,0.5-0.8,0.7c-0.3,0.2-0.6,0.5-0.9,0.7
		c-0.3,0.2-0.6,0.4-0.9,0.5c-0.3,0.1-0.6,0.2-1,0.1C-117.6,407.9-117.9,407.8-118.2,407.5z M-118,407c0.1,0.3,0.2,0.4,0.4,0.5
		c0.2,0,0.5,0,0.8-0.1s0.6-0.3,1-0.6c0.4-0.3,0.7-0.6,1.1-1s0.7-0.8,1-1.3c0.3-0.5,0.6-1,0.8-1.5c0.2-0.5,0.4-1.1,0.5-1.6
		c0.1-0.5,0.1-1.1,0-1.6c-0.2-0.2-0.4-0.2-0.7-0.1c-0.3,0.1-0.6,0.2-0.9,0.5c-0.3,0.2-0.7,0.5-1,0.9s-0.7,0.8-1,1.2
		c-0.3,0.4-0.6,0.9-0.9,1.4s-0.5,0.9-0.7,1.4c-0.2,0.4-0.3,0.8-0.4,1.2C-118.1,406.4-118.1,406.7-118,407z"/>
	<path d="M-106.5,407.7c0,0,0-0.1,0-0.2c0-0.1,0-0.2,0-0.2c0-0.1,0.1-0.4,0.2-0.8c0.1-0.4,0.2-0.7,0.3-1.1c0.1-0.4,0.2-0.8,0.3-1.1
		s0.2-0.6,0.2-0.7c0.1-0.2,0.1-0.4,0.2-0.6c0.1-0.2,0.1-0.5,0-0.7c-0.2,0-0.4,0-0.7,0.1c-0.3,0.1-0.6,0.1-0.8,0.2
		c-0.3,0-0.5,0-0.8,0c-0.2,0-0.4-0.2-0.5-0.5c0.1-0.2,0.2-0.4,0.4-0.5c0.2-0.1,0.4-0.2,0.6-0.2c0.2-0.1,0.4-0.1,0.7-0.1
		c0.2,0,0.5-0.1,0.7-0.1c0.2,0,0.4-0.1,0.6-0.2c0.2-0.1,0.4-0.2,0.5-0.4c0.1-0.3,0.3-0.7,0.4-1.2c0.2-0.5,0.3-1,0.5-1.5
		c0.2-0.5,0.4-1.1,0.6-1.6c0.2-0.5,0.4-1,0.7-1.4c0.1-0.1,0.3-0.1,0.4,0c0.1,0.1,0.2,0.2,0.2,0.4c0.1,0.2,0.1,0.3,0.1,0.5
		c0,0.2,0,0.3,0,0.3c-0.1,0.3-0.2,0.7-0.4,1.1c-0.2,0.4-0.4,0.8-0.5,1.2c-0.2,0.4-0.3,0.8-0.4,1.2c-0.1,0.4-0.1,0.8,0,1.1h4.2
		c0,0,0.1,0,0.1,0.1c0.1,0.1,0.1,0.1,0.1,0.2c0.1,0.2,0,0.3-0.2,0.4c-0.2,0.1-0.5,0.1-0.8,0.1s-0.8,0-1.2,0c-0.4,0-0.9,0-1.3,0.1
		c-0.4,0.1-0.8,0.1-1.1,0.3c-0.3,0.1-0.5,0.3-0.7,0.6c-0.3,0.9-0.7,1.8-0.9,2.6c-0.3,0.9-0.6,1.8-0.8,2.6c0,0.1-0.1,0.1-0.2,0.2
		c-0.1,0.1-0.2,0.2-0.2,0.2c-0.1,0.1-0.2,0.1-0.3,0.1C-106.3,407.9-106.4,407.9-106.5,407.7z"/>
	<path d="M-92.4,407.7c-0.4-0.1-0.6-0.3-0.9-0.6c-0.2-0.2-0.4-0.5-0.5-0.8c-0.1-0.3-0.2-0.6-0.3-0.9c-0.1-0.3-0.1-0.7-0.2-1
		c-0.1-0.1-0.2,0-0.4,0.1c-0.2,0.1-0.4,0.3-0.7,0.5s-0.5,0.5-0.9,0.7c-0.3,0.3-0.6,0.5-1,0.8c-0.3,0.2-0.7,0.5-1,0.6
		c-0.3,0.2-0.6,0.3-0.9,0.3c-0.3,0-0.6,0-0.8-0.2c-0.2-0.2-0.4-0.5-0.6-0.9c-0.1-0.2-0.1-0.5,0.1-0.8c0.1-0.4,0.3-0.8,0.5-1.2
		c0.2-0.4,0.5-0.9,0.8-1.4c0.3-0.5,0.6-0.9,0.9-1.3c0.3-0.4,0.5-0.8,0.8-1.1c0.2-0.3,0.4-0.5,0.5-0.6c0.3,0.1,0.4,0.4,0.4,0.7
		c0,0.3-0.2,0.6-0.4,1c-0.2,0.4-0.5,0.8-0.8,1.2c-0.3,0.4-0.6,0.9-0.9,1.3c-0.3,0.4-0.5,0.8-0.7,1.2c-0.2,0.4-0.2,0.7-0.1,1
		c0.2,0.1,0.5,0.1,0.8,0c0.3-0.1,0.6-0.3,1-0.6c0.3-0.3,0.7-0.6,1.1-0.9c0.4-0.4,0.8-0.7,1.1-1.1s0.7-0.8,1.1-1.2
		c0.4-0.4,0.7-0.8,1-1.1c0.3-0.3,0.6-0.6,0.8-0.9c0.2-0.2,0.4-0.4,0.5-0.5c0.3,0.1,0.4,0.3,0.4,0.6c0,0.3-0.1,0.6-0.2,1
		c-0.1,0.4-0.3,0.8-0.5,1.2c-0.2,0.4-0.4,0.9-0.6,1.3c-0.2,0.4-0.2,0.8-0.3,1.2c0,0.4,0.1,0.7,0.3,1l0.7,0.8h2c0.1,0,0.1,0,0.1,0.1
		c-0.1,0.1-0.1,0.2-0.2,0.3c-0.1,0.1-0.2,0.2-0.3,0.3c-0.1,0.1-0.2,0.1-0.2,0.1c-0.2,0-0.3,0-0.4,0s-0.2,0-0.4,0
		c-0.1,0-0.2,0-0.4-0.1S-92.3,407.8-92.4,407.7z"/>
	<path d="M-90,407.7c0,0,0-0.2,0-0.4c0-0.3,0.1-0.6,0.1-1c0.1-0.4,0.1-0.9,0.2-1.4c0.1-0.5,0.2-1,0.3-1.4c0.1-0.5,0.2-0.9,0.4-1.2
		s0.3-0.6,0.4-0.7c0.1-0.1,0.2-0.1,0.3,0c0.1,0.1,0.2,0.2,0.2,0.3c0.1,0.1,0.2,0.2,0.3,0.3c0.1,0.1,0.2,0.1,0.3,0
		c0.3-0.5,0.7-0.9,1.1-1.4c0.4-0.4,0.9-0.8,1.4-1.1c0,0,0.2-0.1,0.4-0.2c0.2-0.1,0.5-0.2,0.8-0.2c0.3-0.1,0.6-0.1,0.9-0.2
		c0.3-0.1,0.5-0.1,0.8-0.1c0.2,0,0.4,0.1,0.4,0.2c0.1,0.1,0,0.3-0.1,0.5c-0.5,0-1.1,0.1-1.6,0.4c-0.5,0.2-1,0.6-1.4,0.9
		c-0.4,0.4-0.8,0.8-1.2,1.3s-0.7,1-1.1,1.5c-0.3,0.5-0.6,1-0.9,1.5c-0.3,0.5-0.5,0.9-0.7,1.3c-0.2,0.4-0.4,0.7-0.5,0.9
		c-0.1,0.2-0.2,0.4-0.3,0.4c0,0-0.1,0-0.2-0.1C-89.9,407.8-90,407.7-90,407.7z"/>
	<path d="M-82.3,407.7c-0.4-0.1-0.7-0.3-0.9-0.6c-0.2-0.3-0.3-0.6-0.4-0.9c-0.1-0.3-0.1-0.7,0-1s0.1-0.7,0.2-1
		c0.4-0.4,0.8-0.9,1.3-1.4c0.5-0.5,1-1.1,1.6-1.6c0.5-0.5,1.1-1,1.7-1.5c0.6-0.4,1.2-0.8,1.8-1c0.2-0.1,0.4-0.1,0.5,0
		s0.2,0.2,0.3,0.5c0.1,0.2,0.1,0.4,0.1,0.7c0,0.3,0,0.5-0.1,0.8c0,0.3-0.1,0.5-0.2,0.7c-0.1,0.2-0.1,0.4-0.2,0.4
		c-0.1,0.1-0.3,0.3-0.6,0.5c-0.3,0.2-0.6,0.4-1,0.6s-0.8,0.4-1.2,0.6c-0.4,0.2-0.8,0.4-1.2,0.7c-0.4,0.2-0.7,0.5-1.1,0.7
		c-0.3,0.2-0.6,0.5-0.7,0.7c-0.2,0.2-0.2,0.5-0.2,0.7c0,0.2,0.2,0.4,0.5,0.6c0.4,0.1,1,0,1.6-0.1c0.6-0.1,1.3-0.2,1.9-0.4
		c0.7-0.2,1.3-0.3,1.9-0.5c0.6-0.2,1.1-0.3,1.5-0.4l0.2,0.2c-0.2,0.2-0.5,0.5-0.8,0.7c-0.4,0.2-0.8,0.4-1.2,0.6
		c-0.5,0.2-0.9,0.3-1.4,0.5c-0.5,0.1-1,0.2-1.5,0.3c-0.5,0.1-0.9,0.1-1.4,0.1C-81.6,407.8-82,407.8-82.3,407.7z M-77.6,400.3
		c0,0-0.1,0-0.3,0.2c-0.2,0.1-0.4,0.3-0.7,0.5c-0.3,0.2-0.6,0.4-0.9,0.7c-0.3,0.2-0.6,0.5-0.8,0.7c-0.3,0.2-0.5,0.4-0.6,0.5
		c-0.2,0.1-0.2,0.2-0.2,0.2c0.2,0,0.5,0,0.8-0.1c0.3-0.1,0.7-0.2,1-0.4c0.4-0.2,0.7-0.4,1-0.6c0.3-0.2,0.6-0.5,0.8-0.7
		s0.3-0.4,0.3-0.6C-77.2,400.5-77.3,400.3-77.6,400.3z"/>
</g>
</svg>
