<?xml version="1.0" encoding="utf-8"?>
<!-- Generator: Adobe Illustrator 16.0.4, SVG Export Plug-In . SVG Version: 6.00 Build 0)  -->
<!DOCTYPE svg PUBLIC "-//W3C//DTD SVG 1.1//EN" "http://www.w3.org/Graphics/SVG/1.1/DTD/svg11.dtd">
<svg version="1.1" id="Layer_1" xmlns="http://www.w3.org/2000/svg" xmlns:xlink="http://www.w3.org/1999/xlink" x="0px" y="0px"
	 width="203.036px" height="122.333px" viewBox="-39.009 0 203.036 122.333" enable-background="new -39.009 0 203.036 122.333"
	 xml:space="preserve">
<path fill="#8A8A89" d="M136.858,93.871c-3.474-5.444-15.132-8.83-26.679-13.667c-11.539-4.836-14.283-6.52-14.283-6.52
	l-0.104-11.133c0,0,4.325-3.345,5.666-13.822c2.705,0.787,5.543-4.058,5.702-6.611c0.146-2.459-0.382-9.282-3.671-8.598
	c0.666-5.137,1.158-9.755,0.92-12.201c-0.861-8.946-9.619-18.383-23.088-18.383S59.084,12.374,58.231,21.32
	c-0.244,2.445,0.245,7.064,0.919,12.201c-3.301-0.684-3.826,6.139-3.672,8.598c0.15,2.554,2.991,7.398,5.695,6.611
	c1.342,10.478,5.676,13.822,5.676,13.822l-0.113,11.133c0,0-2.738,1.684-14.284,6.52c-11.54,4.837-23.211,8.223-26.68,13.667
	c-3.114,4.875-2.177,28.315-2.177,28.315h57.727h57.709C139.031,122.186,139.979,98.747,136.858,93.871z"/>
<path fill="#AAAAAA" d="M4.91,64.809c5.66-7.313,19.171-7.313,24.82,0.02c2.331,2.782,1.6,6.492,1.654,9.764
	c0.902,1.99,2.395,4.112,1.579,6.362c-0.763,1.281-1.955,2.282-2.997,3.362c-1.138,5.951-9.032,7.172-10.535,12.895
	c-2.696,8.133-2.042,16.796-2.063,25.199c-11.835,0-23.671,0.01-35.506-0.01c0.063-4.521-0.302-9.134,0.816-13.575
	c0.719-2.701,3.833-3.802,6.25-4.883c6.477-2.431,13.114-4.45,19.472-7.163c-0.032-1.81-0.064-3.63-0.107-5.441
	c-1.354-2.279-2.514-4.643-3.608-7.021c-1.333-1.472-3.48-2.812-3.255-4.982c0.139-1.7,1.117-3.201,1.826-4.742
	C3.299,71.311,2.568,67.6,4.91,64.809z"/>
</svg>
