<?xml version="1.0" encoding="utf-8"?>
<!-- Generator: Adobe Illustrator 16.0.4, SVG Export Plug-In . SVG Version: 6.00 Build 0)  -->
<!DOCTYPE svg PUBLIC "-//W3C//DTD SVG 1.1//EN" "http://www.w3.org/Graphics/SVG/1.1/DTD/svg11.dtd">
<svg version="1.1" id="Layer_1" xmlns="http://www.w3.org/2000/svg" xmlns:xlink="http://www.w3.org/1999/xlink" x="0px" y="0px"
	 width="17.001px" height="19.75px" viewBox="0 0 17.001 19.75" enable-background="new 0 0 17.001 19.75" xml:space="preserve">
<path fill-rule="evenodd" clip-rule="evenodd" fill="#0074A2" stroke="#11598B" stroke-miterlimit="10" d="M2.5,0.5h12
	c1.104,0,2,0.896,2,2v11c0,1.104-0.896,2-2,2c0,0-0.806,0-3.904,0c-0.529,0-0.602,3-0.602,3l-2.773-3H2.5c-1.104,0-2-0.896-2-2v-11
	C0.5,1.396,1.396,0.5,2.5,0.5z"/>
<path fill="#FFFFFF" d="M5.119,13.053c-0.114-0.559-0.139-1.12-0.097-1.691c0.083-1.116,0.34-2.196,0.666-3.259
	c0.465-1.52,1.075-2.98,1.922-4.331c0.379-0.603,0.776-1.197,1.316-1.67c0.19-0.167,0.411-0.311,0.641-0.417
	c0.523-0.241,1.111,0.07,1.317,0.662c0.197,0.564,0.025,1.074-0.242,1.554C10.163,4.768,9.49,5.486,8.825,6.208
	c-0.54,0.584-1.092,1.157-1.627,1.746c-0.12,0.133-0.221,0.3-0.275,0.47C6.58,9.504,6.23,10.584,6.094,11.717
	c-0.034,0.288-0.04,0.581-0.025,0.87c0.015,0.289,0.097,0.329,0.349,0.199c0.5-0.258,0.918-0.628,1.288-1.041
	c1.813-2.028,3.616-4.067,5.421-6.103c0.34-0.383,0.675-0.769,1.014-1.153c0.047-0.053,0.094-0.119,0.154-0.144
	c0.095-0.04,0.216-0.092,0.3-0.063c0.143,0.047,0.166,0.202,0.108,0.325c-0.102,0.217-0.199,0.448-0.354,0.626
	c-1.331,1.545-2.679,3.076-4.016,4.618c-0.745,0.859-1.476,1.729-2.22,2.589c-0.373,0.431-0.779,0.825-1.266,1.133
	c-0.598,0.377-1.281,0.279-1.585-0.274c-0.004-0.008-0.024-0.008-0.038-0.012C5.189,13.21,5.154,13.132,5.119,13.053z M7.563,6.602
	C7.647,6.546,7.68,6.533,7.702,6.509C8.283,5.859,8.88,5.222,9.437,4.55c0.371-0.448,0.709-0.938,0.812-1.529
	c0.029-0.165-0.029-0.36-0.094-0.523C10.1,2.356,9.947,2.308,9.82,2.425C9.627,2.6,9.405,2.767,9.28,2.986
	c-0.375,0.653-0.726,1.321-1.051,2C7.987,5.492,7.799,6.024,7.563,6.602z"/>
</svg>
