<?xml version="1.0" encoding="utf-8"?>
<!-- Generator: Adobe Illustrator 16.0.4, SVG Export Plug-In . SVG Version: 6.00 Build 0)  -->
<!DOCTYPE svg PUBLIC "-//W3C//DTD SVG 1.1//EN" "http://www.w3.org/Graphics/SVG/1.1/DTD/svg11.dtd">
<svg version="1.1" id="Layer_1" xmlns="http://www.w3.org/2000/svg" xmlns:xlink="http://www.w3.org/1999/xlink" x="0px" y="0px"
	 width="206.039px" height="122.333px" viewBox="0 0 206.039 122.333" enable-background="new 0 0 206.039 122.333"
	 xml:space="preserve">
<g>
	<path fill="#0298CC" d="M31.436,5.317c0.788-0.407,1.701-0.345,2.56-0.341c46.173,0.001,92.344-0.004,138.516,0.003
		c1.385-0.021,2.721,0.886,3.215,2.179c0.297,0.701,0.24,1.476,0.24,2.221c-0.002,31.043,0.002,62.088-0.002,93.133
		c0.043,1.839-1.611,3.49-3.453,3.436c-18.422,0.004-36.844,0-55.267,0.002c0.122,3.854,0.272,7.736,1.031,11.529
		c0.266,1,0.44,2.158,1.25,2.877c1.598,0.564,3.343,0.567,4.959,1.083c0.181,0.064,0.322,0.186,0.417,0.361
		c-0.738,0.272-1.502,0.516-2.298,0.525c-13.116-0.005-26.234-0.005-39.354,0c-1.011,0.05-2.037-0.12-2.95-0.564
		c0.282-0.371,0.77-0.421,1.189-0.529c1.199-0.252,2.417-0.411,3.613-0.674c1.108-0.145,1.362-1.422,1.649-2.304
		c0.962-4.024,1.069-8.188,1.219-12.307c-18.382-0.001-36.764,0.009-55.144-0.005c-1.872,0.004-3.462-1.74-3.356-3.595
		c0-31.271-0.001-62.541,0.001-93.811C29.43,7.2,30.22,5.883,31.436,5.317z"/>
</g>
<rect x="38.185" y="12.833" fill="#F1F1F1" width="129" height="84"/>
<path fill="#AAAAAA" d="M125.782,33.787H76.288v13.199v39.596h52.794V33.787H125.782z M96.085,40.386h3.3v3.3h-3.3V40.386z
	 M89.486,40.386h3.299v3.3h-3.299V40.386z M82.887,40.386h3.3v3.3h-3.3V40.386z M122.482,79.982H82.887V46.986h39.596V79.982z"/>
<rect x="96.085" y="53.585" fill="#AAAAAA" width="23.098" height="3.3"/>
<rect x="87.011" y="53.585" fill="#AAAAAA" width="4.95" height="3.3"/>
<rect x="96.085" y="60.184" fill="#AAAAAA" width="23.098" height="3.3"/>
<rect x="87.011" y="60.184" fill="#AAAAAA" width="4.95" height="3.3"/>
<rect x="96.085" y="66.784" fill="#AAAAAA" width="23.098" height="3.3"/>
<rect x="87.011" y="66.784" fill="#AAAAAA" width="4.95" height="3.3"/>
</svg>
