<?xml version="1.0" encoding="utf-8"?>
<!-- Generator: Adobe Illustrator 18.1.1, SVG Export Plug-In . SVG Version: 6.00 Build 0)  -->
<svg version="1.1" id="Layer_1" xmlns="http://www.w3.org/2000/svg" xmlns:xlink="http://www.w3.org/1999/xlink" x="0px" y="0px"
	 viewBox="-421 482 155.3 38" enable-background="new -421 482 155.3 38" xml:space="preserve">
<g>
	<circle fill="#6D6E71" cx="-405" cy="485.4" r="1.3"/>
	<path fill="#6D6E71" d="M-389.8,501.8l-3.2-12.7c0.4-0.2,0.7-0.7,0.7-1.2c0-0.7-0.6-1.3-1.3-1.3c-0.5,0-1,0.3-1.2,0.7
		c-2.5,0.2-4.2,1.1-5.6,1.9c-1.1,0.6-2.2,1.2-3.5,1.4v-2.3h1.2v-1.2h-4.7v1.2h1.2v2.3c-1.4-0.2-2.4-0.8-3.6-1.4
		c-1.4-0.8-2.9-1.6-5.2-1.9c-0.2-0.5-0.7-0.8-1.2-0.8c-0.5,0-1,0.3-1.2,0.8c0,0,0,0,0,0l0,0.1c-0.1,0.1-0.1,0.3-0.1,0.5
		c0,0.5,0.3,1,0.8,1.2l-3.2,12.7h-0.1c0,0,0.3,2.4,3.8,2.4c3.5,0,3.8-2.4,3.8-2.4h-0.1l-3.2-12.7c0.3-0.1,0.5-0.3,0.6-0.6
		c2,0.2,3.4,1,4.7,1.7c1.2,0.7,2.5,1.4,4.1,1.6v17.7h-2.1v1.2h-2.2v1.2h11.4v-1.2h-2.2v-1.2h-2.7v-17.7c1.7-0.2,2.9-0.9,4.1-1.6
		c1.4-0.8,2.9-1.6,5.1-1.8c0.2,0.3,0.4,0.5,0.7,0.6l-3.2,12.7h-0.1c0,0,0.3,2.4,3.8,2.4c3.5,0,3.8-2.4,3.8-2.4L-389.8,501.8
		L-389.8,501.8z M-419.4,501.8l3.1-12.3v12.3C-416.3,501.8-419.4,501.8-419.4,501.8z M-415.9,501.8v-12.3l3.1,12.3
		C-412.9,501.8-415.9,501.8-415.9,501.8z M-396.7,501.8l3.1-12.3v12.3C-393.7,501.8-396.7,501.8-396.7,501.8z M-393.3,501.8v-12.3
		l3.1,12.3C-390.2,501.8-393.3,501.8-393.3,501.8z"/>
</g>
<g>
	<path fill="#6D6E71" d="M-371.8,511.9l-2.2-9.2l-2.2,9.2h-4l-4.2-14.7h4.2l2.2,9.8l2.5-9.8h2.9l2.5,9.8l2.2-9.8h4.3l-4.2,14.7
		H-371.8z"/>
	<path fill="#6D6E71" d="M-363.7,511.9v-14.7h7.3c3.3,0,5.1,2.2,5.1,4.9c0,2.6-1.8,4.9-5.1,4.9h-3.6v4.9H-363.7z M-355.1,502.1
		c0-1-0.8-1.6-1.8-1.6h-3v3.1h3C-355.9,503.7-355.1,503.1-355.1,502.1z"/>
</g>
<g>
	<path fill="#6D6E71" d="M-384.3,493.9v-8.2h0.4v7.9h4.1v0.4H-384.3z"/>
	<path fill="#6D6E71" d="M-378.9,493.9v-8.2h5v0.4h-4.6v3.4h4.6v0.4h-4.6v3.7h4.6v0.4L-378.9,493.9L-378.9,493.9z"/>
	<path fill="#6D6E71" d="M-373.1,489.8c0-2.5,1.8-4.3,4.1-4.3c1.2,0,2.2,0.4,3,1.3l-0.3,0.3c-0.6-0.7-1.7-1.2-2.8-1.2
		c-2.1,0-3.7,1.6-3.7,3.9c0,2.3,1.6,3.9,3.7,3.9c1.2,0,2.1-0.6,2.6-1.1v-2.3h-3.4V490h3.8v2.8c-0.7,0.8-1.8,1.3-3,1.3
		C-371.2,494.1-373.1,492.4-373.1,489.8z"/>
	<path fill="#6D6E71" d="M-358.7,493.9l-0.9-2.2h-4.6l-0.9,2.2h-0.5l3.4-8.2h0.5l3.4,8.2H-358.7z M-361.9,486.2l-2.2,5.2h4.3
		L-361.9,486.2z"/>
	<path fill="#6D6E71" d="M-357.8,493.9v-8.2h0.4v7.9h4.1v0.4H-357.8z"/>
	<path fill="#6D6E71" d="M-352.7,493.9v-8.2h0.4v7.9h4.1v0.4H-352.7z"/>
	<path fill="#6D6E71" d="M-346.4,493.9v-3.6l-3.3-4.7h0.5l3,4.3l3-4.3h0.5l-3.3,4.7v3.6L-346.4,493.9L-346.4,493.9z"/>
	<path fill="#6D6E71" d="M-340,492.8l0.3-0.3c0.5,0.6,1.4,1.2,2.6,1.2c1.9,0,2.4-1.1,2.4-1.9c0-2.7-5-1.4-5-4.2
		c0-1.3,1.2-2.1,2.6-2.1c1.2,0,2.1,0.4,2.7,1.2l-0.3,0.3c-0.6-0.8-1.4-1.1-2.4-1.1c-1.2,0-2.2,0.7-2.2,1.7c0,2.3,5,1.1,5,4.2
		c0,0.9-0.6,2.2-2.8,2.2C-338.4,494.1-339.4,493.5-340,492.8z"/>
	<path fill="#6D6E71" d="M-333.2,493.9v-8.2h0.4v8.2C-332.8,493.9-333.2,493.9-333.2,493.9z"/>
	<path fill="#6D6E71" d="M-331.7,489.8c0-2.5,1.8-4.3,4.1-4.3c1.2,0,2.2,0.4,3,1.3l-0.3,0.3c-0.6-0.7-1.7-1.2-2.8-1.2
		c-2.1,0-3.7,1.6-3.7,3.9c0,2.3,1.6,3.9,3.7,3.9c1.2,0,2.1-0.6,2.6-1.1v-2.3h-3.4V490h3.8v2.8c-0.7,0.8-1.8,1.3-3,1.3
		C-329.8,494.1-331.7,492.4-331.7,489.8z"/>
	<path fill="#6D6E71" d="M-317.4,493.9l-5.6-7.6v7.6h-0.4v-8.2h0.4l5.6,7.5v-7.5h0.4v8.2C-317,493.9-317.4,493.9-317.4,493.9z"/>
	<path fill="#6D6E71" d="M-315.6,493.9v-8.2h5v0.4h-4.6v3.4h4.6v0.4h-4.6v3.7h4.6v0.4L-315.6,493.9L-315.6,493.9z"/>
	<path fill="#6D6E71" d="M-309.4,493.9v-8.2h2.4c2.6,0,4.1,1.9,4.1,4.1c0,2.2-1.5,4.1-4.1,4.1H-309.4z M-303.3,489.8
		c0-2.1-1.3-3.8-3.7-3.8h-2.1v7.5h2.1C-304.6,493.6-303.3,491.9-303.3,489.8z"/>
	<path fill="#6D6E71" d="M-299.2,490.8v-5.1h0.4v5.1c0,1.8,0.9,2.9,2.7,2.9c1.7,0,2.7-1.1,2.7-2.9v-5.1h0.4v5.1c0,2-1.1,3.3-3.1,3.3
		S-299.2,492.8-299.2,490.8z"/>
	<path fill="#6D6E71" d="M-292.1,492.8l0.3-0.3c0.5,0.6,1.4,1.2,2.6,1.2c1.9,0,2.4-1.1,2.4-1.9c0-2.7-5-1.4-5-4.2
		c0-1.3,1.2-2.1,2.6-2.1c1.2,0,2.1,0.4,2.7,1.2l-0.3,0.3c-0.6-0.8-1.4-1.1-2.4-1.1c-1.2,0-2.2,0.7-2.2,1.7c0,2.3,5,1.1,5,4.2
		c0,0.9-0.6,2.2-2.8,2.2C-290.5,494.1-291.5,493.5-292.1,492.8z"/>
	<path fill="#6D6E71" d="M-285.3,493.9v-8.2h0.4v8.2C-284.9,493.9-285.3,493.9-285.3,493.9z"/>
	<path fill="#6D6E71" d="M-277.5,493.9l-5.6-7.6v7.6h-0.4v-8.2h0.4l5.6,7.5v-7.5h0.4v8.2C-277.1,493.9-277.5,493.9-277.5,493.9z"/>
	<path fill="#6D6E71" d="M-276,489.8c0-2.5,1.8-4.3,4.1-4.3c1.2,0,2.2,0.4,3,1.3l-0.3,0.3c-0.6-0.7-1.7-1.2-2.8-1.2
		c-2.1,0-3.7,1.6-3.7,3.9c0,2.3,1.6,3.9,3.7,3.9c1.2,0,2.1-0.6,2.6-1.1v-2.3h-3.4V490h3.8v2.8c-0.7,0.8-1.8,1.3-3,1.3
		C-274.1,494.1-276,492.4-276,489.8z"/>
</g>
<g>
	<path fill="#6D6E71" d="M-349.5,511.6c-0.6-0.2-1-0.5-1.3-0.8c-0.3-0.4-0.5-0.8-0.6-1.3c-0.1-0.5-0.1-1,0-1.5
		c0.1-0.5,0.2-1,0.3-1.5c0.6-0.6,1.2-1.3,1.9-2c0.7-0.8,1.4-1.5,2.2-2.3s1.6-1.4,2.4-2.1c0.8-0.6,1.7-1.1,2.6-1.5
		c0.3-0.1,0.5-0.1,0.7,0c0.2,0.1,0.3,0.4,0.4,0.6s0.1,0.6,0.1,1c0,0.4,0,0.8-0.1,1.1c-0.1,0.4-0.1,0.7-0.2,1
		c-0.1,0.3-0.2,0.5-0.3,0.6c-0.2,0.2-0.4,0.4-0.9,0.7c-0.4,0.3-0.9,0.5-1.4,0.8c-0.5,0.3-1.1,0.6-1.7,0.9s-1.2,0.6-1.7,1
		c-0.6,0.3-1.1,0.7-1.5,1c-0.5,0.3-0.8,0.7-1,1c-0.2,0.3-0.3,0.6-0.3,0.9c0.1,0.3,0.3,0.6,0.8,0.9c0.6,0.1,1.4,0,2.3-0.1
		s1.8-0.3,2.8-0.6s1.8-0.5,2.7-0.7c0.9-0.3,1.6-0.4,2.1-0.6l0.3,0.3c-0.3,0.4-0.7,0.7-1.2,1c-0.5,0.3-1.1,0.6-1.7,0.9
		c-0.6,0.3-1.3,0.5-2.1,0.7c-0.7,0.2-1.4,0.3-2.1,0.4c-0.7,0.1-1.3,0.2-1.9,0.1C-348.6,511.8-349.1,511.7-349.5,511.6z M-342.8,501
		c0,0-0.2,0-0.4,0.2c-0.3,0.2-0.6,0.4-1,0.7s-0.8,0.6-1.2,0.9c-0.4,0.3-0.8,0.7-1.2,1c-0.4,0.3-0.7,0.5-0.9,0.8
		c-0.2,0.2-0.3,0.3-0.3,0.3c0.3,0.1,0.7,0,1.2-0.1c0.5-0.1,1-0.3,1.5-0.6c0.5-0.3,1-0.5,1.5-0.9s0.8-0.6,1.1-1
		c0.3-0.3,0.4-0.6,0.4-0.8C-342.2,501.3-342.4,501.1-342.8,501z"/>
	<path fill="#6D6E71" d="M-340.6,511.7c-0.1-0.1-0.1-0.2,0-0.4c0.1-0.2,0.4-0.3,0.7-0.5s0.7-0.4,1.1-0.6c0.4-0.2,0.8-0.4,1.2-0.6
		c0.4-0.2,0.7-0.3,1-0.5c0.3-0.1,0.5-0.2,0.6-0.3c0.3-0.3,0.5-0.5,0.6-0.7c0.1-0.2,0.1-0.4,0-0.5c-0.1-0.1-0.3-0.2-0.5-0.3
		c-0.2-0.1-0.5-0.2-0.8-0.2c-0.3-0.1-0.6-0.1-1-0.2s-0.7-0.1-1-0.2c-0.3-0.1-0.6-0.1-0.8-0.2c-0.2-0.1-0.4-0.2-0.5-0.3
		c-0.1-0.1-0.1-0.3,0-0.5c0.1-0.2,0.3-0.4,0.7-0.6c0.2-0.1,0.4-0.3,0.8-0.5c0.3-0.2,0.7-0.5,1.1-0.7c0.4-0.2,0.8-0.5,1.1-0.7
		c0.4-0.2,0.7-0.3,0.9-0.4c0.1,0,0.3,0,0.4,0c0.1,0.1,0.3,0.1,0.3,0.2c0.1,0.1,0.1,0.2,0.1,0.3c0,0.1-0.1,0.2-0.2,0.3
		c-0.7,0.4-1.3,0.7-2,1.1c-0.6,0.3-1.3,0.7-1.9,1.2c0,0.1,0,0.2,0,0.3c0.1,0.1,0.1,0.1,0.2,0.2c1,0.1,1.9,0.2,2.5,0.4
		c0.6,0.2,1.1,0.4,1.3,0.6c0.3,0.2,0.4,0.5,0.4,0.7c0,0.3-0.1,0.5-0.3,0.8c-0.2,0.3-0.5,0.5-0.8,0.8c-0.4,0.3-0.7,0.5-1.2,0.7
		c-0.4,0.2-0.9,0.4-1.3,0.6c-0.4,0.2-0.9,0.3-1.2,0.5c-0.4,0.1-0.7,0.2-1,0.3C-340.3,511.8-340.5,511.8-340.6,511.7z"/>
	<path fill="#6D6E71" d="M-334.5,511.7c0.6-1.9,1.1-3.4,1.6-4.5c0.5-1.1,0.9-1.9,1.2-2.3c0.3-0.4,0.5-0.6,0.7-0.4
		c0.1,0.2,0.1,0.6,0,1.2c-0.1,0.6-0.4,1.5-0.9,2.6s-1,2.3-1.8,3.7c-0.1,0-0.2,0.1-0.4,0C-334.4,511.9-334.5,511.8-334.5,511.7z
		 M-330.8,501.4c0,0,0-0.1,0-0.2c0-0.1,0-0.1,0-0.2c0-0.1,0-0.2,0-0.2c0-0.1,0-0.1,0-0.1c0.3-0.1,0.6-0.1,0.8,0
		c0.2,0.1,0.3,0.2,0.3,0.4c0,0.2,0,0.3,0,0.5c-0.1,0.2-0.1,0.3-0.2,0.4c-0.1,0.1-0.2,0.1-0.4,0
		C-330.5,501.9-330.6,501.7-330.8,501.4z"/>
	<path fill="#6D6E71" d="M-333.4,518.2c-0.5-0.2-0.8-0.4-1.1-0.7c-0.3-0.3-0.5-0.7-0.7-1.1c-0.2-0.4-0.2-0.8-0.3-1.2
		c0-0.4,0-0.7,0-1c0.1-0.3,0.1-0.5,0.3-0.7c0.1-0.2,0.3-0.2,0.4-0.1c0,1.3,0.1,2.3,0.5,2.9c0.3,0.7,0.7,1.1,1.2,1.2
		c0.5,0.2,1.1,0.1,1.7-0.1s1.3-0.6,2-1.2c0.7-0.5,1.3-1.2,1.9-1.9c0.6-0.7,1.1-1.5,1.5-2.3c0.4-0.8,0.7-1.6,0.9-2.4
		c0.2-0.8,0.2-1.5,0-2.1c-1.1,0.8-1.9,1.3-2.6,1.6c-0.7,0.3-1.2,0.4-1.6,0.4c-0.4,0-0.6-0.2-0.7-0.5c-0.1-0.3-0.1-0.7,0-1.2
		c0.1-0.5,0.3-1,0.6-1.6c0.3-0.6,0.6-1.2,1-1.7c0.4-0.6,0.8-1.1,1.2-1.6c0.4-0.5,0.9-0.9,1.3-1.2c0.4-0.3,0.8-0.4,1.2-0.5
		c0.4,0,0.7,0.1,1,0.5c0.3,0.5,0.6,1.1,0.6,1.9c0.1,0.8,0.1,1.7-0.1,2.6c-0.1,1-0.4,1.9-0.7,3c-0.3,1-0.7,2.1-1.2,3
		c-0.5,1-1.1,1.9-1.7,2.8c-0.6,0.9-1.3,1.6-2,2.1c-0.7,0.6-1.5,0.9-2.3,1.1C-331.8,518.6-332.6,518.5-333.4,518.2z M-328.9,507.1
		c0,0,0,0.1,0,0.2c0,0.1,0,0.2,0,0.4c0,0.1,0,0.3,0,0.4c0,0.1,0,0.2,0,0.2c0.4,0.1,0.7,0.1,1.1-0.1c0.4-0.2,0.7-0.4,1.1-0.8
		c0.3-0.3,0.7-0.7,1-1.2c0.3-0.4,0.6-0.9,0.8-1.3s0.4-0.8,0.5-1.2c0.1-0.4,0.1-0.6,0.1-0.8s-0.2-0.2-0.4-0.2c-0.2,0.1-0.6,0.3-1,0.7
		c-0.2,0.2-0.4,0.4-0.7,0.7c-0.3,0.3-0.6,0.6-0.9,0.9c-0.3,0.3-0.6,0.7-0.8,1S-328.8,506.9-328.9,507.1z"/>
	<path fill="#6D6E71" d="M-315.8,511.7c0-0.4,0-0.9,0.1-1.3c0.1-0.4,0.3-0.8,0.5-1.2c0.2-0.4,0.4-0.8,0.6-1.2
		c0.2-0.4,0.4-0.8,0.6-1.2c0.2-0.4,0.3-0.8,0.3-1.2c0.1-0.4,0-0.8-0.1-1.1c-0.3-0.1-0.7-0.1-1.1,0.1c-0.4,0.2-0.9,0.4-1.3,0.8
		c-0.5,0.3-1,0.7-1.5,1.2c-0.5,0.5-1,0.9-1.5,1.4c-0.5,0.5-0.9,0.9-1.4,1.4c-0.4,0.4-0.8,0.8-1.2,1.1c-0.3,0.3-0.6,0.5-0.9,0.5
		c-0.2,0.1-0.4,0-0.5-0.2c0,0,0-0.1,0.1-0.3c0.1-0.2,0.2-0.4,0.4-0.7c0.1-0.3,0.3-0.7,0.5-1s0.4-0.8,0.6-1.2
		c0.2-0.4,0.4-0.8,0.6-1.2c0.2-0.4,0.4-0.8,0.6-1.1c0.2-0.3,0.3-0.6,0.4-0.8c0.1-0.2,0.2-0.3,0.2-0.3c0.3,0.2,0.4,0.4,0.4,0.6
		c0,0.2,0,0.4-0.1,0.7c-0.1,0.2-0.2,0.5-0.3,0.7c-0.1,0.2-0.1,0.5,0,0.7c0.2-0.1,0.5-0.3,0.9-0.6s0.8-0.5,1.2-0.8
		c0.4-0.3,0.9-0.5,1.4-0.8c0.5-0.3,0.9-0.5,1.3-0.6c0.4-0.2,0.8-0.2,1.1-0.2c0.3,0,0.6,0.1,0.7,0.3c0.2,0.2,0.2,0.5,0.1,1
		c-0.1,0.5-0.3,1.1-0.6,1.9c0,0.1-0.1,0.2-0.2,0.4c-0.1,0.2-0.2,0.4-0.3,0.6c-0.1,0.2-0.2,0.5-0.3,0.8c-0.1,0.3-0.2,0.5-0.3,0.8
		c-0.1,0.2-0.2,0.4-0.3,0.6c-0.1,0.2-0.1,0.3-0.1,0.4c0,0.1,0,0.1-0.1,0.3c0,0.1,0,0.3-0.1,0.5c0,0.2-0.1,0.3-0.1,0.5
		c-0.1,0.1-0.1,0.3-0.2,0.3c0,0-0.1,0.1-0.1,0c0,0-0.1,0-0.1-0.1S-315.7,511.8-315.8,511.7C-315.8,511.8-315.8,511.7-315.8,511.7z"
		/>
	<path fill="#6D6E71" d="M-312.2,511.5c-0.3-0.2-0.4-0.6-0.4-1c0-0.4,0-0.9,0.2-1.5c0.2-0.5,0.4-1.1,0.7-1.7c0.3-0.6,0.6-1.2,1-1.7
		c0.4-0.5,0.8-1,1.3-1.5c0.5-0.4,0.9-0.7,1.4-1c0.5-0.2,0.9-0.3,1.3-0.2c0.4,0.1,0.8,0.3,1.2,0.8c0.2,0.3,0.4,0.6,0.4,0.8
		c0,0.3,0,0.6,0,0.9c-0.1,0.3-0.1,0.6-0.3,0.9c-0.1,0.3-0.2,0.6-0.4,0.9c-0.1,0.3-0.2,0.6-0.3,1c-0.1,0.3-0.1,0.7,0,1
		c0,0.3,0.2,0.5,0.4,0.7c0.2,0.1,0.4,0.2,0.7,0.1c0.3,0,0.6-0.1,1-0.2c0.4-0.1,0.7-0.3,1.1-0.5c0.4-0.2,0.7-0.4,1.1-0.6
		c0.3-0.2,0.7-0.4,0.9-0.6c0.3-0.2,0.6-0.4,0.9-0.6c0.3-0.1,0.5,0,0.5,0.1c0,0.1,0,0.3-0.2,0.5c-0.2,0.2-0.4,0.4-0.7,0.7
		c-0.3,0.3-0.7,0.5-1.1,0.8c-0.4,0.2-0.9,0.5-1.3,0.7c-0.5,0.2-0.9,0.3-1.4,0.4c-0.4,0.1-0.9,0.1-1.3,0c-0.4-0.1-0.7-0.3-1-0.6
		c-0.1-0.1-0.2-0.3-0.3-0.4c-0.1-0.1-0.2-0.3-0.3-0.4c-0.2,0.2-0.4,0.4-0.6,0.6c-0.2,0.2-0.5,0.5-0.8,0.7c-0.3,0.2-0.6,0.5-0.9,0.7
		c-0.3,0.2-0.6,0.4-0.9,0.5c-0.3,0.1-0.6,0.2-1,0.1C-311.6,511.9-311.9,511.8-312.2,511.5z M-312,511c0.1,0.3,0.2,0.4,0.4,0.5
		c0.2,0,0.5,0,0.8-0.1c0.3-0.1,0.6-0.3,1-0.6c0.4-0.3,0.7-0.6,1.1-1s0.7-0.8,1-1.3c0.3-0.5,0.6-1,0.8-1.5c0.2-0.5,0.4-1.1,0.5-1.6
		c0.1-0.5,0.1-1.1,0-1.6c-0.2-0.2-0.4-0.2-0.7-0.1c-0.3,0.1-0.6,0.2-0.9,0.5c-0.3,0.2-0.7,0.5-1,0.9c-0.3,0.4-0.7,0.8-1,1.2
		c-0.3,0.4-0.6,0.9-0.9,1.4c-0.3,0.5-0.5,0.9-0.7,1.4c-0.2,0.4-0.3,0.8-0.4,1.2C-312.1,510.4-312.1,510.7-312,511z"/>
	<path fill="#6D6E71" d="M-300.5,511.7c0,0,0-0.1,0-0.2c0-0.1,0-0.2,0-0.2c0-0.1,0.1-0.4,0.2-0.8c0.1-0.4,0.2-0.7,0.3-1.1
		c0.1-0.4,0.2-0.8,0.3-1.1c0.1-0.4,0.2-0.6,0.2-0.7c0.1-0.2,0.1-0.4,0.2-0.6c0.1-0.2,0.1-0.5,0-0.7c-0.2,0-0.4,0-0.7,0.1
		c-0.3,0.1-0.6,0.1-0.8,0.2c-0.3,0-0.5,0-0.8,0c-0.2,0-0.4-0.2-0.5-0.5c0.1-0.2,0.2-0.4,0.4-0.5c0.2-0.1,0.4-0.2,0.6-0.2
		c0.2-0.1,0.4-0.1,0.7-0.1c0.2,0,0.5-0.1,0.7-0.1c0.2,0,0.4-0.1,0.6-0.2c0.2-0.1,0.4-0.2,0.5-0.4c0.1-0.3,0.3-0.7,0.4-1.2
		c0.2-0.5,0.3-1,0.5-1.5c0.2-0.5,0.4-1.1,0.6-1.6c0.2-0.5,0.4-1,0.7-1.4c0.1-0.1,0.3-0.1,0.4,0c0.1,0.1,0.2,0.2,0.2,0.4
		c0.1,0.2,0.1,0.3,0.1,0.5c0,0.2,0,0.3,0,0.3c-0.1,0.3-0.2,0.7-0.4,1.1c-0.2,0.4-0.4,0.8-0.5,1.2c-0.2,0.4-0.3,0.8-0.4,1.2
		c-0.1,0.4-0.1,0.8,0,1.1h4.2c0,0,0.1,0,0.1,0.1c0.1,0.1,0.1,0.1,0.1,0.2c0.1,0.2,0,0.3-0.2,0.4c-0.2,0.1-0.5,0.1-0.8,0.1
		s-0.8,0-1.2,0c-0.4,0-0.9,0-1.3,0.1c-0.4,0.1-0.8,0.1-1.1,0.3c-0.3,0.1-0.5,0.3-0.7,0.6c-0.3,0.9-0.7,1.8-0.9,2.6
		c-0.3,0.9-0.6,1.8-0.8,2.6c0,0.1-0.1,0.1-0.2,0.2c-0.1,0.1-0.2,0.2-0.2,0.2c-0.1,0.1-0.2,0.1-0.3,0.1
		C-300.4,511.9-300.4,511.9-300.5,511.7z"/>
	<path fill="#6D6E71" d="M-286.4,511.7c-0.4-0.1-0.6-0.3-0.9-0.6c-0.2-0.2-0.4-0.5-0.5-0.8c-0.1-0.3-0.2-0.6-0.3-0.9
		c-0.1-0.3-0.1-0.7-0.2-1c-0.1-0.1-0.2,0-0.4,0.1c-0.2,0.1-0.4,0.3-0.7,0.5c-0.3,0.2-0.5,0.5-0.9,0.7c-0.3,0.3-0.6,0.5-1,0.8
		c-0.3,0.2-0.7,0.5-1,0.6c-0.3,0.2-0.6,0.3-0.9,0.3c-0.3,0-0.6,0-0.8-0.2c-0.2-0.2-0.4-0.5-0.6-0.9c-0.1-0.2-0.1-0.5,0.1-0.8
		c0.1-0.4,0.3-0.8,0.5-1.2c0.2-0.4,0.5-0.9,0.8-1.4c0.3-0.5,0.6-0.9,0.9-1.3c0.3-0.4,0.5-0.8,0.8-1.1c0.2-0.3,0.4-0.5,0.5-0.6
		c0.3,0.1,0.4,0.4,0.4,0.7c0,0.3-0.2,0.6-0.4,1c-0.2,0.4-0.5,0.8-0.8,1.2c-0.3,0.4-0.6,0.9-0.9,1.3c-0.3,0.4-0.5,0.8-0.7,1.2
		c-0.2,0.4-0.2,0.7-0.1,1c0.2,0.1,0.5,0.1,0.8,0c0.3-0.1,0.6-0.3,1-0.6c0.3-0.3,0.7-0.6,1.1-0.9c0.4-0.4,0.8-0.7,1.1-1.1
		s0.7-0.8,1.1-1.2c0.4-0.4,0.7-0.8,1-1.1c0.3-0.3,0.6-0.6,0.8-0.9c0.2-0.2,0.4-0.4,0.5-0.5c0.3,0.1,0.4,0.3,0.4,0.6
		c0,0.3-0.1,0.6-0.2,1c-0.1,0.4-0.3,0.8-0.5,1.2c-0.2,0.4-0.4,0.9-0.6,1.3c-0.2,0.4-0.2,0.8-0.3,1.2c0,0.4,0.1,0.7,0.3,1l0.7,0.8h2
		c0.1,0,0.1,0,0.1,0.1c-0.1,0.1-0.1,0.2-0.2,0.3c-0.1,0.1-0.2,0.2-0.3,0.3c-0.1,0.1-0.2,0.1-0.2,0.1c-0.2,0-0.3,0-0.4,0
		s-0.2,0-0.4,0c-0.1,0-0.2,0-0.4-0.1C-286.2,511.8-286.3,511.8-286.4,511.7z"/>
	<path fill="#6D6E71" d="M-284,511.7c0,0,0-0.2,0-0.4c0-0.3,0.1-0.6,0.1-1c0.1-0.4,0.1-0.9,0.2-1.4c0.1-0.5,0.2-1,0.3-1.4
		c0.1-0.5,0.2-0.9,0.4-1.2c0.1-0.4,0.3-0.6,0.4-0.7c0.1-0.1,0.2-0.1,0.3,0c0.1,0.1,0.2,0.2,0.2,0.3c0.1,0.1,0.2,0.2,0.3,0.3
		c0.1,0.1,0.2,0.1,0.3,0c0.3-0.5,0.7-0.9,1.1-1.4c0.4-0.4,0.9-0.8,1.4-1.1c0,0,0.2-0.1,0.4-0.2c0.2-0.1,0.5-0.2,0.8-0.2
		c0.3-0.1,0.6-0.1,0.9-0.2c0.3-0.1,0.5-0.1,0.8-0.1c0.2,0,0.4,0.1,0.4,0.2c0.1,0.1,0,0.3-0.1,0.5c-0.5,0-1.1,0.1-1.6,0.4
		c-0.5,0.2-1,0.6-1.4,0.9c-0.4,0.4-0.8,0.8-1.2,1.3c-0.4,0.5-0.7,1-1.1,1.5c-0.3,0.5-0.6,1-0.9,1.5s-0.5,0.9-0.7,1.3
		c-0.2,0.4-0.4,0.7-0.5,0.9c-0.1,0.2-0.2,0.4-0.3,0.4c0,0-0.1,0-0.2-0.1C-283.9,511.8-284,511.7-284,511.7z"/>
	<path fill="#6D6E71" d="M-276.3,511.7c-0.4-0.1-0.7-0.3-0.9-0.6c-0.2-0.3-0.3-0.6-0.4-0.9c-0.1-0.3-0.1-0.7,0-1
		c0-0.4,0.1-0.7,0.2-1c0.4-0.4,0.8-0.9,1.3-1.4c0.5-0.5,1-1.1,1.6-1.6c0.5-0.5,1.1-1,1.7-1.5c0.6-0.4,1.2-0.8,1.8-1
		c0.2-0.1,0.4-0.1,0.5,0c0.1,0.1,0.2,0.2,0.3,0.5c0.1,0.2,0.1,0.4,0.1,0.7c0,0.3,0,0.5-0.1,0.8c0,0.3-0.1,0.5-0.2,0.7
		c-0.1,0.2-0.1,0.4-0.2,0.4c-0.1,0.1-0.3,0.3-0.6,0.5c-0.3,0.2-0.6,0.4-1,0.6c-0.4,0.2-0.8,0.4-1.2,0.6c-0.4,0.2-0.8,0.5-1.2,0.7
		c-0.4,0.2-0.7,0.5-1.1,0.7c-0.3,0.2-0.6,0.5-0.7,0.7c-0.2,0.2-0.2,0.5-0.2,0.7c0,0.2,0.2,0.4,0.5,0.6c0.4,0.1,1,0,1.6-0.1
		c0.6-0.1,1.3-0.2,1.9-0.4c0.7-0.2,1.3-0.3,1.9-0.5c0.6-0.2,1.1-0.3,1.5-0.4l0.2,0.2c-0.2,0.2-0.5,0.5-0.8,0.7
		c-0.4,0.2-0.8,0.4-1.2,0.6c-0.5,0.2-0.9,0.3-1.5,0.5c-0.5,0.1-1,0.2-1.5,0.3c-0.5,0.1-0.9,0.1-1.4,0.1
		C-275.6,511.8-276,511.8-276.3,511.7z M-271.6,504.3c0,0-0.1,0-0.3,0.2c-0.2,0.1-0.4,0.3-0.7,0.5c-0.3,0.2-0.6,0.4-0.9,0.7
		c-0.3,0.2-0.6,0.5-0.8,0.7c-0.3,0.2-0.5,0.4-0.6,0.5c-0.2,0.1-0.2,0.2-0.2,0.2c0.2,0,0.5,0,0.8-0.1c0.3-0.1,0.7-0.2,1-0.4
		c0.4-0.2,0.7-0.4,1-0.6c0.3-0.2,0.6-0.5,0.8-0.7s0.3-0.4,0.3-0.6C-271.2,504.5-271.3,504.3-271.6,504.3z"/>
</g>
<g>
	<g>
		<path fill="#FFFFFF" d="M114.9,359.5c-12-12.6-28.1-19.5-45.4-19.5h-183.8c0.2,1.5,0.2,2.7,0.2,4H69.5c16.2,0,31.1,6.5,42.6,18.5
			c11.6,11.8,17.6,27.7,17.6,44.5c0,34.9-27.1,63-60.1,63h-247.8c-3.8,1.7-7.8,3.2-11.8,4H69.7c35.3,0,64.3-30,64.3-67
			C133.8,389.1,126.8,372.3,114.9,359.5z M-132.7,343.5L-132.7,343.5L-132.7,343.5L-132.7,343.5z"/>
	</g>
	<g>
		<path fill="#FFFFFF" d="M-137.8,406.9c0,27.9-16.8,52.1-40.7,63c-3.8,1.7-7.8,3.2-11.8,4c-5.3,1.3-10.9,2.1-16.8,2.1
			c-38.2,0-69.1-31.1-69.1-69.1c0-38.2,31.1-69.1,69.1-69.1c5.7,0,11.3,0.6,16.8,2.1h10.1c0,1.1-0.2,2.3-0.2,3.4c0,0.2,0,0.6,0,0.8
			c0,2.5,0,4.8,0,7.4c0,0.2,0,0.6,0,0.8c-8-4-17-6.1-26.5-6.1c-33.8,0-60.9,27.3-60.9,60.9s27.3,60.9,60.9,60.9s60.9-27.3,60.9-60.9
			c0-1.7,0-3.4-0.2-4.6c2.7-1.3,5.3-2.7,7.8-4.2C-137.8,400.8-137.8,404-137.8,406.9z"/>
	</g>
	<g>
		<path fill="#FFFFFF" d="M17.4,426.3c0-1.1,0.4-1.9,1.1-2.5c0.6-0.6,1.5-0.8,2.3-0.8c1.1,0,1.9,0.2,2.3,0.8
			c0.4,0.6,0.8,1.5,0.8,2.5H17.4L17.4,426.3z M26.2,421.4c-1.5-1.5-3.4-2.3-5.9-2.3s-4.2,0.8-5.5,2.3s-1.9,3.8-1.9,6.3
			c0,2.9,0.6,4.8,2.1,6.5c1.5,1.5,3.4,2.3,5.5,2.3s3.8-0.4,4.8-1.5s2.3-2.3,2.7-4H25c-0.4,0-0.8,0.2-1.3,0.2
			c-0.2,0.2-0.4,0.4-0.4,0.4c-0.2,0.2-0.2,0.2-0.4,0.4c-0.2,0-0.2,0.2-0.4,0.2c-0.6,0.2-1.1,0.4-1.9,0.4c-1.1,0-1.9-0.4-2.5-1.1
			c-0.6-0.6-0.8-1.7-1.1-2.9h10.9c0,0,0-0.2,0-0.4v-0.6C28.3,425.2,27.5,422.9,26.2,421.4L26.2,421.4z M10.1,419.7
			c-1.1,0-1.7,0.4-2.1,1.5L5,431.5l-3.4-11.8h-4.6l5.7,16.6h4.4l5.9-16.6L10.1,419.7L10.1,419.7z M-7.1,431.5
			c-0.6,0.8-1.1,1.3-1.7,1.5c-0.6,0.2-1.3,0.2-1.9,0c-0.6-0.2-1.1-0.6-1.3-0.8c-0.6-0.8-1.1-2.1-1.1-4s0.4-3.4,1.3-4.2
			c0.2-0.2,0.8-0.6,1.5-0.8c0.6-0.2,1.3-0.2,1.9,0c0.6,0.2,1.3,0.6,1.7,1.5c0.4,0.8,0.8,1.9,0.8,3.6C-6.5,429.4-6.7,430.7-7.1,431.5
			L-7.1,431.5z M-6.7,419.7c-1.5-0.4-2.9-0.6-4.6-0.4c-1.7,0.2-3.2,1.1-4,2.3c-0.6,0.8-1.3,1.7-1.5,2.9c-0.4,1.3-0.4,2.3-0.4,3.6
			c0,1.5,0.2,2.7,0.6,4c0.4,1.3,1.1,2.3,1.9,3.2c0.8,0.8,1.9,1.3,3.4,1.7s2.9,0.2,4,0c1.5-0.4,2.9-1.3,4-2.7
			c0.4-0.6,0.8-1.5,1.3-2.5c0.2-1.1,0.4-2.1,0.4-3.6c0-1.9-0.4-3.6-1.1-4.8C-4.2,421.2-5.3,420.4-6.7,419.7L-6.7,419.7z
			 M-21.4,420.2c-1.1,0.2-2.1,0.8-2.9,1.5s-1.5,1.7-2.1,2.7c-0.4,1.1-0.8,2.5-0.8,4v8.2h4.2v-8.8c0-1.3,0.2-2.3,0.8-2.7
			c0.6-0.6,1.5-0.8,2.7-0.8h1.5v-4.4h-0.6C-19.5,419.7-20.6,419.7-21.4,420.2L-21.4,420.2z M-33.4,431.5c-0.6,0.8-1.5,1.3-2.7,1.3
			c-1.3,0-2.1-0.4-2.7-1.3c-0.6-0.8-1.1-2.1-1.1-3.6c0-1.7,0.4-3.2,0.8-3.8c0.6-0.8,1.5-1.3,2.7-1.3c1.3,0,2.1,0.4,2.7,1.3
			c0.6,0.8,1.1,2.1,1.1,3.8C-32.3,429.4-32.8,430.7-33.4,431.5L-33.4,431.5z M-32.6,419.7c-1.1-0.4-2.1-0.6-3.4-0.6
			c-2.1,0-4,0.6-5.5,1.7c-1.7,1.1-2.7,3.2-2.7,5.9v15.5h2.1c0.6,0,1.1-0.2,1.5-0.6c0.4-0.4,0.6-1.1,0.6-1.5V434
			c0.6,0.8,1.3,1.5,2.1,1.9s1.7,0.6,2.7,0.6c2.1,0,3.6-0.8,4.8-2.5c1.3-1.7,1.9-3.8,1.9-6.3c0-2.5-0.6-4.6-1.9-6.3
			C-30.5,420.6-31.3,420.4-32.6,419.7L-32.6,419.7z M-50,431.5c-0.6,0.8-1.5,1.3-2.7,1.3c-1.3,0-2.1-0.4-2.7-1.3
			c-0.6-0.8-1.1-2.1-1.1-3.6c0-1.7,0.2-3.2,0.8-3.8c0.6-0.8,1.5-1.3,2.7-1.3c1.3,0,2.1,0.4,2.7,1.3c0.6,0.8,1.1,2.1,1.1,3.8
			C-49.1,429.4-49.4,430.7-50,431.5L-50,431.5z M-49.1,419.7c-1.1-0.4-2.1-0.6-3.2-0.6c-2.1,0-4,0.6-5.5,1.7
			c-1.7,1.1-2.5,3.2-2.5,5.9v15.5h2.1c0.6,0,1.1-0.2,1.5-0.6c0.4-0.4,0.6-1.1,0.6-1.5V434c0.4,0.8,1.3,1.5,2.1,1.9s1.7,0.6,2.7,0.6
			c1.9,0,3.6-0.8,4.8-2.5c1.3-1.7,1.9-3.8,1.9-6.3c0-2.5-0.6-4.6-1.9-6.3C-47.3,420.6-48.1,420.4-49.1,419.7L-49.1,419.7z
			 M-65.7,429.2c0,1.3-0.4,2.1-1.1,2.7s-1.7,1.1-2.7,1.1c-1.3,0-2.3-0.6-2.3-2.1c0-2.1,2.1-2.3,3.6-2.5c1.1-0.2,1.9-0.6,2.5-0.8
			L-65.7,429.2L-65.7,429.2z M-63.4,420.4c-1.3-0.8-2.9-1.3-5.3-1.3c-2.1,0-3.8,0.4-4.6,1.5c-1.1,0.8-1.7,1.9-1.9,3.4h4
			c0.2-0.4,0.6-0.8,1.1-1.1c0.4-0.2,1.1-0.2,1.7-0.2c1.1,0,2.9,0.2,2.9,1.5c0,0.8-0.8,1.5-2.7,1.7c-0.8,0-1.5,0.2-2.3,0.4
			c-2.9,0.6-4.8,2.1-4.8,5c0,1.9,0.6,3.4,1.7,4c2.5,1.7,6.7,1.7,9.5,0.2c0.8-0.4,1.7-1.1,2.1-2.1c0.6-1.1,0.8-2.3,0.8-4v-5.7
			C-61.5,422.3-62.2,421.2-63.4,420.4z"/>
		<path fill="#FFFFFF" d="M83.8,431.9l-0.6-12c-0.2-5.3-5-9-10.5-8.6l-33.6,3.6c-4.2,0.4-7.1,4.4-7.1,8.6l-0.2,9.9
			c-0.2,4,2.7,8.4,6.9,8.4l13.9,0.2c-0.4,2.5-1.3,3.8-3.6,5.9c5.5-1.3,9-2.7,11.8-5.7l12.8,0.2C79.4,442.2,84,437.6,83.8,431.9z
			 M61.5,435.9h-2.3c-0.6,0-1.3-0.2-1.7-0.6s-0.6-1.1-0.6-1.7V425c0-1.1-0.2-1.7-0.8-2.3c-0.6-0.4-1.3-0.6-2.1-0.6s-1.5,0.2-2.1,0.6
			c-0.6,0.4-1.1,1.3-1.1,2.3v10.7h-4.2V425c0-1.9-1.3-2.9-2.9-2.9c-1.7,0-2.9,1.3-2.9,2.9v10.7h-4.2v-9.9c0-4,1.5-6.1,5-6.9
			c2.5-0.6,5.3-0.2,7.4,1.3c0.6-0.6,1.5-1.1,2.3-1.3c0.8-0.2,1.7-0.4,2.7-0.4c4.6,0,7.4,2.5,7.4,7.4L61.5,435.9L61.5,435.9z
			 M77.9,428.1c0,0.2,0,0.4,0,0.4H67c0,1.3,0.4,2.3,1.1,2.9c0.6,0.6,1.5,1.1,2.5,1.1c0.6,0,1.3-0.2,1.9-0.4c0.2,0,0.2-0.2,0.4-0.2
			c0.2-0.2,0.2-0.2,0.4-0.4c0-0.2,0.2-0.2,0.4-0.4c0.2-0.2,0.6-0.4,1.3-0.4h3.2c-0.4,1.7-1.5,3.2-2.7,4c-1.3,1.1-2.9,1.5-4.8,1.5
			c-2.5,0-4.2-0.8-5.5-2.3c-1.5-1.5-2.1-3.8-2.1-6.5s0.6-4.6,1.9-6.3c1.5-1.7,3.4-2.3,5.5-2.3c2.5,0,4.4,0.8,5.7,2.3
			c1.5,1.7,2.1,3.8,2.1,6.5L77.9,428.1L77.9,428.1z M70.3,422.5c-1.1,0-1.7,0.2-2.3,0.8c-0.6,0.6-0.8,1.5-1.1,2.5h6.3
			c0-1.1-0.4-2.1-0.8-2.5C72,422.7,71.2,422.5,70.3,422.5z"/>
		<g enable-background="new    ">
			<path fill="#FFFFFF" d="M86.5,412.4v5h-0.8v-5H84v-0.6h4v0.6H86.5z M94.1,417.6v-4.8l-1.9,4.8H92l-1.9-4.8v4.8h-0.8v-5.9h1.1
				L92,416l1.7-4.2h1.1v5.9H94.1z"/>
		</g>
	</g>
	<g>
		<path fill="#FFFFFF" d="M-181.7,391.4v-7.8c0-13.7-11.3-24.8-25-24.8c-13.7,0-25,11.1-25,24.8v7.8h-5.5v50.2h61.1v-50.2H-181.7z
			 M-202.7,430.5h-9.2l2.3-12.6c-1.5-0.8-2.3-2.3-2.3-4c0-2.7,2.1-4.6,4.6-4.6s4.6,2.1,4.6,4.6c0,1.7-1.1,3.2-2.3,4L-202.7,430.5z
			 M-192.6,391.4h-27.7v-7.8c0-7.4,6.3-13.4,13.9-13.4s13.9,6.1,13.9,13.4V391.4L-192.6,391.4z"/>
	</g>
	<g>
		<path fill="#FFFFFF" d="M-178.3,343.9c0.4,0.2,0.8,0.4,1.3,0.6c0-0.2,0-0.4,0-0.6H-178.3z M-178.3,343.9c0.4,0.2,0.8,0.4,1.3,0.6
			c0-0.2,0-0.4,0-0.6H-178.3z M-178.3,343.9c0.4,0.2,0.8,0.4,1.3,0.6c0-0.2,0-0.4,0-0.6H-178.3z M-178.3,343.9
			c0.4,0.2,0.8,0.4,1.3,0.6c0-0.2,0-0.4,0-0.6H-178.3z M-178.3,343.9c0.4,0.2,0.8,0.4,1.3,0.6c0-0.2,0-0.4,0-0.6H-178.3z
			 M-178.3,343.9c0.4,0.2,0.8,0.4,1.3,0.6c0-0.2,0-0.4,0-0.6H-178.3z M-178.3,343.9c0.4,0.2,0.8,0.4,1.3,0.6c0-0.2,0-0.4,0-0.6
			H-178.3z M-178.3,343.9c0.4,0.2,0.8,0.4,1.3,0.6c0-0.2,0-0.4,0-0.6H-178.3z M-178.3,343.9c0.4,0.2,0.8,0.4,1.3,0.6
			c0-0.2,0-0.4,0-0.6H-178.3z M-178.3,343.9c0.4,0.2,0.8,0.4,1.3,0.6c0-0.2,0-0.4,0-0.6H-178.3z M-178.3,343.9
			c0.4,0.2,0.8,0.4,1.3,0.6c0-0.2,0-0.4,0-0.6H-178.3z"/>
		<path fill="#FFFFFF" d="M-114.3,343.9c0-1.5-0.2-2.7-0.2-4c-0.2-2.5-0.4-4.8-0.8-7.1c-6.7,0.4-13.7-0.8-20.2-2.7
			c-4-1.3-8-2.7-11.8-4.4c-4.2,2.1-9,3.8-13.7,4.8c-5.9,1.7-12.2,2.7-18.5,2.1c-0.4,2.5-0.6,4.8-0.8,7.4c0,1.1-0.2,2.3-0.2,3.4
			c0,0.2,0,0.6,0,0.8c0,2.5,0,4.8,0,7.4c0,0.2,0,0.6,0,0.8c0.2,4.6,0.8,9.5,2.1,13.9c1.7,6.9,4.6,13.4,8.8,19.3
			c4,5.5,9.2,10.3,14.9,13.9c2.3,1.5,4.6,2.7,7.1,3.6c0.4-0.2,0.8-0.4,1.3-0.6c2.7-1.3,5.3-2.7,7.8-4.2c0.2-0.2,0.6-0.4,0.8-0.6
			c4.2-3.2,8.2-6.7,11.6-11.1c3.2-4,5.7-8.8,7.6-13.7c2.1-5.3,3.4-11.1,4-16.6C-114.3,351.9-114,347.9-114.3,343.9z M-117.6,358
			c-0.6,4.8-1.7,9.9-3.4,14.1c-1.7,4.2-4,8.2-6.5,11.8c-2.9,3.8-6.1,6.7-9.9,9.5c-0.6,0.4-1.1,0.6-1.5,1.1c-2.5,1.7-4.8,2.9-7.1,3.8
			l-0.4,0.2l-1.1,0.4l-1.5-0.6c-2.1-0.8-4-1.9-6.3-3.2c-4.8-3.2-9.5-7.1-12.8-12c-3.4-4.8-6.1-10.5-7.6-16.6c-1.1-4-1.7-8-1.9-12.2
			c0-0.2,0-0.4,0-0.6c0-2.9,0-5.9,0.2-9c-0.4-0.2-0.8-0.4-1.3-0.6h1.3c0-1.5,0.2-2.7,0.4-4c0-0.4,0-0.6,0.2-1.1l0.6-3.8l3.8,0.2
			c4,0.2,8.2-0.2,13-1.7c3.6-1.1,6.9-2.1,10.1-3.8l1.7-0.8l1.7,0.8c2.7,1.3,5.5,2.3,8.8,3.4c5.5,1.7,10.3,2.3,14.3,1.9l3.8-0.2
			l0.6,3.8c0,0.4,0,0.6,0.2,1.1c0.2,1.5,0.4,2.9,0.4,4C-117.2,349-117.2,353.6-117.6,358z"/>
	</g>
	<g>
		<g>
			<path fill="#FFFFFF" d="M-125.8,343.9c0-0.2,0-0.2,0-0.4c-4-0.2-8.6-0.8-13.2-2.3c-1.5-0.4-3.2-0.8-4.2-1.5
				c-1.3-0.4-2.7-1.1-3.8-1.5c-1.3,0.6-2.5,1.1-4,1.5c-1.9,0.6-4,1.3-5.7,1.9c-4.2,1.1-8.2,1.9-11.8,1.9c0,0.2,0,0.2,0,0.4
				c-0.2,1.7-0.2,3.4-0.4,4.8c0,1.7,0,3.4,0,4.8c0,1.9,0.2,3.8,0.6,5.5c0.2,1.9,0.6,3.6,1.1,5c1.3,5,3.6,9.9,6.3,13.7
				c2.9,4,6.5,7.4,10.7,9.9c0.8,0.6,1.7,1.1,2.5,1.5c0.4,0.2,0.6,0.4,1.1,0.4c1.7-0.8,3.6-1.9,5.3-3.2c0.4-0.2,0.8-0.6,1.1-0.8
				c2.7-2.1,4.8-4.2,6.9-6.9c2.3-2.9,4-6.1,5.3-9.7c1.5-3.8,2.3-7.8,2.9-12C-125.4,353.2-125.4,348.8-125.8,343.9z M-148.3,370
				l-1.3,1.7l-2.1,2.3l-1.9-2.5l-8.2-9.2l2.7-5.3l4,4l4,4l18.3-21l0.2-0.2l0.2,0.2l2.5,2.5L-148.3,370z"/>
		</g>
	</g>
	<g enable-background="new    ">
		<path fill="#FFFFFF" d="M-93,399.8l-10.7-26.7h7.6l6.9,18.7l6.9-18.7h7.6l-10.7,26.7H-93z"/>
		<path fill="#FFFFFF" d="M-73.3,386.6c0-7.8,5.7-14.1,13.9-14.1c8,0,13.4,5.9,13.4,14.7v1.7h-20c0.4,3.4,3.2,5.9,7.8,5.9
			c2.3,0,5.5-0.8,7.1-2.5l3.2,4.6c-2.7,2.5-6.9,3.8-10.9,3.8C-67,400.6-73.3,395-73.3,386.6z M-59.4,378.2c-4.4,0-6.3,3.2-6.5,5.7
			h13.2C-52.9,381.3-54.6,378.2-59.4,378.2z"/>
		<path fill="#FFFFFF" d="M-40.7,399.8v-26.7h6.9v3.6c1.9-2.3,5.3-4.2,8.6-4.2v6.9c-0.4-0.2-1.1-0.2-1.9-0.2c-2.3,0-5.5,1.3-6.5,3.2
			V400h-7.1V399.8z"/>
		<path fill="#FFFFFF" d="M-21.6,366c0-2.3,1.9-4.2,4.2-4.2s4.2,1.9,4.2,4.2c0,2.3-1.9,4.2-4.2,4.2C-19.7,370.2-21.6,368.3-21.6,366
			z M-21,399.8v-26.7h6.9v26.7H-21z"/>
		<path fill="#FFFFFF" d="M-5.3,399.8v-20.6h-4.4v-6.1h4.4v-1.1c0-6.3,3.8-9.7,9-9.7c2.1,0,3.8,0.4,5,1.1l-1.5,5.3
			c-0.6-0.4-1.3-0.6-2.3-0.6c-1.9,0-3.4,1.3-3.4,3.8v1.1h5.5v6.1H1.7v20.6h-6.9V399.8z M10.5,366c0-2.3,1.9-4.2,4.2-4.2
			s4.2,1.9,4.2,4.2c0,2.3-1.9,4.2-4.2,4.2S10.5,368.3,10.5,366z M11.1,399.8v-26.7h6.9v26.7H11.1z"/>
		<path fill="#FFFFFF" d="M23.5,386.6c0-7.8,5.7-14.1,13.9-14.1c8,0,13.4,5.9,13.4,14.7v1.7h-20c0.4,3.4,3.2,5.9,7.8,5.9
			c2.3,0,5.5-0.8,7.1-2.5l3.2,4.6c-2.7,2.5-6.9,3.8-10.9,3.8C29.6,400.6,23.5,395,23.5,386.6z M37.4,378.2c-4.4,0-6.3,3.2-6.5,5.7
			h13.2C43.9,381.3,42,378.2,37.4,378.2z"/>
		<path fill="#FFFFFF" d="M74.3,399.8v-3.4c-2.1,2.7-5,4.2-8.2,4.2c-6.7,0-11.8-5-11.8-14.1c0-8.6,5-14.1,11.8-14.1
			c3.2,0,6.1,1.3,8.2,4.2V363h7.1v36.8H74.3z M74.3,391.2v-9.5c-1.3-1.7-3.8-3.2-6.1-3.2c-4,0-6.7,3.2-6.7,7.8s2.7,7.8,6.7,7.8
			C70.6,394.3,73.1,393.1,74.3,391.2z"/>
	</g>
	<g enable-background="new    ">
		<path fill="#FFFFFF" d="M-103.8,432.8v-13.7h1.5v5.3c0.8-1.1,2.1-1.7,3.4-1.7c2.5,0,4.4,2.1,4.4,5.3c0,3.2-1.9,5.3-4.4,5.3
			c-1.5,0-2.5-0.6-3.4-1.7v1.5h-1.5V432.8z M-99.3,431.7c1.9,0,3.2-1.7,3.2-3.8c0-2.1-1.3-3.8-3.2-3.8c-1.3,0-2.5,0.8-2.9,1.7v4.4
			C-101.7,430.9-100.6,431.7-99.3,431.7z"/>
		<path fill="#FFFFFF" d="M-92.4,435.3c0.2,0,0.6,0.2,0.8,0.2c0.6,0,1.1-0.2,1.5-1.1l0.6-1.5l-4.2-10.1h1.7l3.4,8.2l3.4-8.2h1.7
			l-5,12c-0.6,1.5-1.7,1.9-2.9,2.1c-0.4,0-0.8,0-1.1-0.2L-92.4,435.3z"/>
	</g>
</g>
</svg>
