<?xml version="1.0" encoding="UTF-8" ?>
<!DOCTYPE svg PUBLIC "-//W3C//DTD SVG 1.1//EN" "http://www.w3.org/Graphics/SVG/1.1/DTD/svg11.dtd">
<svg width="37pt" height="37pt" viewBox="0 0 37 37" version="1.1" xmlns="http://www.w3.org/2000/svg">
<g id="#2b4663ff">
<path fill="#2b4663" opacity="1.00" d=" M 0.71 28.08 C 3.91 21.53 5.47 14.30 8.47 7.64 C 10.10 7.70 11.73 7.76 13.36 7.80 C 15.64 14.03 17.72 20.32 20.01 26.54 L 19.32 27.44 C 19.77 27.16 20.67 26.58 21.12 26.29 C 21.72 24.79 21.31 22.87 22.77 21.79 C 25.34 19.88 28.77 19.97 31.77 19.20 C 31.72 15.31 26.71 16.01 25.39 18.76 C 24.01 18.71 22.64 18.62 21.27 18.51 C 22.25 16.65 23.01 14.13 25.35 13.60 C 28.63 12.86 33.04 12.69 35.24 15.74 C 36.40 20.30 35.06 25.14 36.22 29.74 C 36.41 29.64 36.80 29.43 37.00 29.32 L 37.00 29.74 C 34.97 29.67 32.48 30.54 31.13 28.52 C 28.40 30.79 24.29 31.22 21.90 28.19 C 21.17 28.60 20.65 29.28 20.16 29.95 C 18.83 29.89 17.49 29.84 16.15 29.79 C 15.70 28.30 15.26 26.82 14.81 25.33 C 12.17 25.32 9.54 25.27 6.90 25.24 C 6.36 26.82 5.77 28.39 5.22 29.98 C 3.48 29.87 1.74 29.79 0.00 29.75 L 0.00 28.57 C 0.18 28.45 0.54 28.20 0.71 28.08 M 8.02 21.61 C 9.92 21.62 11.81 21.63 13.71 21.63 C 12.66 18.80 11.87 15.88 11.01 12.98 C 9.72 15.75 8.95 18.71 8.02 21.61 M 25.41 26.08 C 27.99 29.41 32.57 25.63 31.69 22.12 C 29.39 22.82 24.91 22.53 25.41 26.08 Z" />
</g>
</svg>
