<?xml version="1.0" encoding="utf-8" ?>
<!-- Generator: Adobe Illustrator 16.0.4, SVG Export Plug-In . SVG Version: 6.00 Build 0)  -->
<!DOCTYPE svg PUBLIC "-//W3C//DTD SVG 1.1//EN" "http://www.w3.org/Graphics/SVG/1.1/DTD/svg11.dtd">
<svg version="1.1" id="Layer_1" xmlns="http://www.w3.org/2000/svg" xmlns:xlink="http://www.w3.org/1999/xlink" x="0px" y="0px"
	 width="243.208px" height="55.262px" viewBox="0 0 243.208 55.262" enable-background="new 0 0 243.208 55.262"
	 xml:space="preserve">
<g>
	<path d="M55.44,51.883c-0.517-2.534-0.628-5.078-0.437-7.664c0.374-5.06,1.541-9.953,3.017-14.772
		c2.107-6.885,4.87-13.5,8.711-19.62c1.716-2.734,3.516-5.424,5.964-7.568c0.861-0.754,1.862-1.409,2.9-1.886
		C77.97-0.72,80.633,0.688,81.57,3.37c0.892,2.555,0.111,4.863-1.097,7.044c-2.174,3.922-5.224,7.181-8.241,10.446
		c-2.446,2.648-4.95,5.243-7.373,7.912c-0.543,0.601-1.001,1.362-1.245,2.131c-1.551,4.896-3.139,9.79-3.754,14.922
		c-0.156,1.303-0.18,2.635-0.114,3.944c0.064,1.307,0.439,1.49,1.58,0.901c2.265-1.167,4.159-2.841,5.834-4.715
		c8.215-9.193,16.383-18.432,24.564-27.655c1.538-1.734,3.058-3.485,4.591-5.224c0.212-0.24,0.423-0.537,0.699-0.652
		c0.429-0.18,0.976-0.414,1.36-0.286c0.645,0.214,0.753,0.915,0.492,1.476c-0.461,0.981-0.904,2.029-1.602,2.839
		c-6.036,6.999-12.139,13.938-18.196,20.921c-3.377,3.891-6.688,7.839-10.061,11.731c-1.689,1.95-3.53,3.738-5.737,5.13
		c-2.71,1.709-5.803,1.27-7.179-1.24c-0.02-0.038-0.113-0.035-0.173-0.053C55.759,52.591,55.6,52.238,55.44,51.883z M66.519,22.649
		c0.378-0.251,0.528-0.312,0.625-0.421c2.633-2.945,5.342-5.833,7.862-8.875c1.682-2.031,3.211-4.249,3.684-6.93
		c0.132-0.749-0.133-1.633-0.427-2.371c-0.257-0.642-0.942-0.859-1.52-0.332c-0.872,0.793-1.877,1.553-2.446,2.545
		c-1.696,2.96-3.288,5.986-4.761,9.062C68.438,17.621,67.586,20.031,66.519,22.649z"/>
	<g>
		<path d="M23.439,43.082h-1.887c-0.993-2.565-1.991-5.11-2.992-7.638c-1.001-2.521-1.999-5.066-2.992-7.635
			c-0.397,1.043-0.794,2.07-1.192,3.08c-0.397,1.01-0.794,2.027-1.192,3.054l-3.575,9.14H7.722L0,23.441h2.731l3.575,9.139
			c0.397,1.01,0.795,2.021,1.192,3.041c0.397,1.019,0.786,2.049,1.167,3.092c0.397-1.061,0.795-2.094,1.192-3.104
			c0.397-1.01,0.794-2.02,1.192-3.027l3.576-9.139h1.912l3.576,9.113c0.397,1.009,0.795,2.023,1.192,3.041
			c0.397,1.021,0.795,2.058,1.192,3.116c0.397-1.075,0.791-2.118,1.179-3.129c0.389-1.012,0.782-2.021,1.18-3.028l3.576-9.113h2.731
			L23.439,43.082z"/>
		<path d="M47.5,34.292c-1.787,1.025-4.453,1.54-7.995,1.54H35.83v7.25h-2.582V23.442h6.753c3.394,0,5.939,0.521,7.636,1.564
			c1.696,1.043,2.545,2.564,2.545,4.569C50.182,31.693,49.288,33.265,47.5,34.292z M47.314,28.307
			c-0.191-0.43-0.555-0.816-1.093-1.167c-0.538-0.348-1.291-0.633-2.26-0.854c-0.968-0.226-2.222-0.335-3.762-0.335h-4.37v7.375
			h3.625c1.705,0,3.091-0.107,4.159-0.323c1.068-0.215,1.896-0.5,2.483-0.856c0.587-0.354,0.985-0.757,1.192-1.204
			c0.207-0.445,0.311-0.9,0.311-1.363C47.6,29.161,47.504,28.738,47.314,28.307z"/>
	</g>
	<g>
		<path d="M110.119,39.419c-0.464,0.754-1.093,1.395-1.887,1.924c-0.811,0.547-1.767,0.973-2.868,1.279
			c-1.101,0.306-2.296,0.459-3.588,0.459c-1.076,0-2.057-0.074-2.942-0.226c-0.886-0.146-1.701-0.381-2.446-0.693
			c-0.745-0.313-1.432-0.712-2.061-1.191c-0.629-0.479-1.225-1.051-1.788-1.713l2.011-1.664c0.778,0.978,1.738,1.722,2.881,2.234
			c1.142,0.514,2.598,0.771,4.37,0.771c1.109,0,2.077-0.128,2.905-0.386c0.827-0.256,1.531-0.574,2.11-0.955
			c0.463-0.298,0.815-0.646,1.055-1.043c0.24-0.397,0.36-0.812,0.36-1.242c0-0.579-0.136-1.034-0.41-1.365
			c-0.273-0.33-0.583-0.588-0.931-0.77c-0.199-0.116-0.422-0.226-0.67-0.323c-0.248-0.1-0.576-0.207-0.981-0.323
			c-0.406-0.112-0.915-0.248-1.527-0.396c-0.613-0.149-1.382-0.323-2.31-0.521c-0.943-0.215-1.726-0.396-2.346-0.547
			c-0.621-0.146-1.139-0.285-1.552-0.409c-0.415-0.124-0.753-0.238-1.018-0.348c-0.265-0.104-0.521-0.228-0.77-0.36
			c-0.297-0.146-0.583-0.343-0.856-0.583c-0.273-0.237-0.513-0.518-0.72-0.832c-0.208-0.312-0.377-0.674-0.509-1.078
			c-0.132-0.405-0.199-0.856-0.199-1.354c0-0.744,0.202-1.465,0.608-2.16c0.405-0.693,1.046-1.267,1.924-1.713
			c0.778-0.414,1.664-0.708,2.657-0.882c0.993-0.173,2.085-0.26,3.277-0.26c1.059,0,2.007,0.069,2.843,0.211
			c0.836,0.141,1.585,0.373,2.248,0.693c0.662,0.323,1.253,0.741,1.775,1.256c0.522,0.513,0.997,1.134,1.428,1.86l-2.284,1.216
			c-0.265-0.463-0.559-0.862-0.881-1.204c-0.323-0.339-0.72-0.625-1.192-0.854c-0.472-0.232-1.026-0.406-1.663-0.521
			c-0.638-0.114-1.395-0.174-2.272-0.174c-0.993,0-1.904,0.071-2.731,0.211c-0.828,0.143-1.481,0.354-1.962,0.635
			c-0.43,0.23-0.736,0.487-0.918,0.77c-0.183,0.281-0.273,0.612-0.273,0.993c0,0.364,0.095,0.683,0.285,0.955
			c0.19,0.271,0.451,0.494,0.783,0.658c0.214,0.1,0.455,0.193,0.72,0.284c0.265,0.093,0.6,0.19,1.005,0.3
			c0.405,0.106,0.907,0.23,1.502,0.373c0.595,0.141,1.341,0.31,2.235,0.508c0.745,0.166,1.411,0.312,1.999,0.445
			c0.587,0.135,1.117,0.271,1.589,0.41c0.472,0.142,0.898,0.298,1.279,0.474c0.381,0.174,0.745,0.366,1.093,0.583
			c0.281,0.183,0.558,0.4,0.831,0.656c0.274,0.259,0.521,0.557,0.745,0.896c0.224,0.339,0.401,0.72,0.534,1.142
			c0.132,0.422,0.199,0.892,0.199,1.402C110.814,37.834,110.583,38.667,110.119,39.419z"/>
		<path d="M112.776,42.734v-19.64h2.583v19.64H112.776z"/>
		<path d="M133.609,28.754c-0.514-0.646-0.993-1.195-1.44-1.65c-0.445-0.456-0.905-0.818-1.377-1.093
			c-0.473-0.273-0.975-0.472-1.502-0.596c-0.531-0.124-1.136-0.188-1.812-0.188c-0.859,0-1.76,0.133-2.691,0.398
			c-0.938,0.265-1.798,0.693-2.584,1.291c-0.787,0.597-1.433,1.387-1.937,2.372c-0.506,0.983-0.758,2.195-0.758,3.638
			c0,1.226,0.207,2.313,0.621,3.265c0.414,0.952,0.981,1.755,1.701,2.409c0.718,0.654,1.572,1.15,2.556,1.489
			c0.986,0.34,2.041,0.51,3.166,0.51c0.846,0,1.715-0.112,2.607-0.336c0.896-0.224,1.729-0.559,2.508-1.005V35.51h-7.177V33h9.759
			v7.599c-0.694,0.463-1.369,0.854-2.022,1.167c-0.653,0.314-1.295,0.57-1.925,0.771c-0.629,0.196-1.268,0.339-1.911,0.422
			s-1.315,0.124-2.013,0.124c-1.375,0-2.688-0.226-3.946-0.67c-1.261-0.447-2.368-1.105-3.328-1.977
			c-0.959-0.869-1.73-1.933-2.309-3.188c-0.58-1.259-0.869-2.698-0.869-4.321c0-1.241,0.157-2.354,0.472-3.34
			c0.314-0.984,0.736-1.854,1.266-2.607c0.53-0.753,1.143-1.396,1.838-1.937c0.695-0.538,1.431-0.979,2.208-1.316
			c0.777-0.339,1.567-0.587,2.371-0.745c0.803-0.155,1.568-0.234,2.297-0.234c0.979,0,1.852,0.095,2.619,0.285
			c0.771,0.188,1.479,0.476,2.123,0.855c0.646,0.381,1.258,0.861,1.838,1.44c0.58,0.58,1.176,1.258,1.787,2.036L133.609,28.754z"/>
		<path d="M151.859,42.734c-2.847-3.509-5.28-6.514-7.3-9.013c-2.021-2.5-3.684-4.561-4.991-6.183
			c0.017,1.623,0.024,3.675,0.024,6.156c0,2.483,0,5.496,0,9.038h-2.582v-19.64h2.186c2.848,3.542,5.284,6.56,7.312,9.05
			c2.027,2.492,3.688,4.531,4.979,6.12c-0.018-1.604-0.025-3.641-0.025-6.105c0-2.483,0-5.506,0-9.063h2.582v19.64H151.859z"/>
		<path d="M171.872,42.734l-2.756-6.133h-7.943l-2.731,6.133h-2.778l8.664-19.64h1.664l8.717,19.64H171.872z M166.459,30.418
			c-0.217-0.497-0.433-0.993-0.646-1.49c-0.216-0.496-0.438-1.001-0.67-1.515c-0.199,0.497-0.402,0.983-0.609,1.465
			c-0.205,0.479-0.418,0.961-0.633,1.439l-1.613,3.773h5.735L166.459,30.418z"/>
		<path d="M181.059,25.602v17.132h-2.582V25.602h-7.251v-2.508h17.084v2.508H181.059z"/>
		<path d="M205.889,38.587c-0.314,1.076-0.794,1.949-1.439,2.62c-0.646,0.67-1.466,1.147-2.459,1.438
			c-0.992,0.289-2.176,0.437-3.551,0.437c-1.34,0-2.504-0.146-3.486-0.437c-0.986-0.29-1.803-0.77-2.447-1.438
			c-0.646-0.671-1.127-1.548-1.439-2.633c-0.312-1.084-0.472-2.412-0.472-3.984V23.094h2.584v11.447
			c0,1.175,0.077,2.146,0.233,2.917c0.157,0.77,0.436,1.391,0.832,1.86c0.397,0.474,0.937,0.806,1.613,0.993
			c0.68,0.19,1.539,0.286,2.582,0.286c1.076,0,1.961-0.096,2.657-0.286c0.694-0.188,1.241-0.521,1.639-0.993
			c0.397-0.472,0.671-1.093,0.819-1.86c0.148-0.771,0.224-1.742,0.224-2.917V23.094h2.583V34.59
			C206.362,36.179,206.204,37.511,205.889,38.587z"/>
		<path d="M224.983,42.734l-7.871-7.646h-5.214v7.646h-2.582v-19.64h6.927c3.195,0,5.612,0.488,7.252,1.465
			c1.639,0.979,2.457,2.442,2.457,4.396c0,0.762-0.146,1.457-0.435,2.086s-0.683,1.189-1.179,1.688
			c-0.498,0.497-1.086,0.919-1.764,1.27c-0.681,0.347-1.406,0.61-2.187,0.794l8.271,7.943L224.983,42.734L224.983,42.734z
			 M223.17,27.849c-0.133-0.389-0.447-0.75-0.943-1.081c-0.497-0.331-1.232-0.606-2.21-0.832c-0.978-0.223-2.302-0.335-3.974-0.335
			h-4.146v6.979h5.812c1.008,0,1.869-0.111,2.582-0.335c0.711-0.226,1.295-0.512,1.75-0.856c0.455-0.348,0.791-0.736,1.006-1.168
			c0.215-0.43,0.322-0.852,0.322-1.266C223.37,28.606,223.303,28.238,223.17,27.849z"/>
		<path d="M229.279,42.734v-19.64h13.582v2.508h-10.999v5.661h8.938v2.509h-8.938v6.455h11.348v2.508L229.279,42.734L229.279,42.734
			z"/>
	</g>
</g>
</svg>
