<?xml version="1.0" encoding="utf-8"?>
<!-- Generator: Adobe Illustrator 16.0.4, SVG Export Plug-In . SVG Version: 6.00 Build 0)  -->
<!DOCTYPE svg PUBLIC "-//W3C//DTD SVG 1.1//EN" "http://www.w3.org/Graphics/SVG/1.1/DTD/svg11.dtd">
<svg version="1.1" id="Layer_1" xmlns="http://www.w3.org/2000/svg" xmlns:xlink="http://www.w3.org/1999/xlink" x="0px" y="0px"
	 width="40px" height="40px" viewBox="0 0 40 40" enable-background="new 0 0 40 40" xml:space="preserve">
<g>
	<path fill="#FFFFFF" d="M20.077,0C9.074,0,0.154,8.92,0.154,19.922c0,11.003,8.92,19.922,19.923,19.922
		C31.081,39.845,40,30.926,40,19.922C40,8.92,31.081,0,20.077,0z M23.472,10.623l5.193,5.193l-12.46,12.459l-5.193-5.194
		L23.472,10.623z M30.562,32.222H7.068l0.001-0.004l-0.001,0.001l3.318-7.688l4.367,4.369l-5.361,2.315h21.169V32.222z
		 M29.702,14.775l-5.19-5.19c1.146-1.148,3.006-1.148,4.153,0l1.037,1.038C30.849,11.77,30.849,13.63,29.702,14.775z"/>
	
		<rect x="11.459" y="17.675" transform="matrix(0.7071 -0.7071 0.7071 0.7071 -7.5114 18.6845)" fill="#FFFFFF" width="14.682" height="1.469"/>
</g>
</svg>
