<?xml version="1.0" encoding="utf-8"?>
<!-- Generator: Adobe Illustrator 16.0.4, SVG Export Plug-In . SVG Version: 6.00 Build 0)  -->
<!DOCTYPE svg PUBLIC "-//W3C//DTD SVG 1.1//EN" "http://www.w3.org/Graphics/SVG/1.1/DTD/svg11.dtd">
<svg version="1.1" id="Layer_1" xmlns="http://www.w3.org/2000/svg" xmlns:xlink="http://www.w3.org/1999/xlink" x="0px" y="0px"
	 width="244.799px" height="245px" viewBox="0 0 244.799 245" enable-background="new 0 0 244.799 245" xml:space="preserve">
<path fill="#939393" d="M-76.379,267.107"/>
<g>
	<path fill="#A9B1BA" d="M91.414,206.512c3.986,0.613,7.917,1.6,11.717,2.951c8.45,3.006,16.239,7.868,22.401,14.411
		c1.654,1.757,3.188,3.625,4.588,5.588c1.157,1.624,2.978,3.686,2.762,5.827c-0.188,1.876-1.901,3.086-3.453,3.863
		c-2.438,1.219-4.834,1.997-7.546,2.227c-1.037,0.09-2.072,0.286-3.115,0.408c-1.128,0.133-2.3,0.148-3.478,0.143
		c-1.973-0.009-3.907,0.475-5.878,0.555c-2.399,0.096-4.86,0.378-7.275,0.138c-2.291-0.229-4.582-0.552-6.827-1.104
		c-1.175-0.289-2.259-1.239-3.5-1.201c-1.19,0.038-2.444,0.386-3.652,0.474c-1.398,0.1-2.774,0.229-4.179,0.223
		c-1.875-0.008-3.857,0.166-5.713,0.407c-1.999,0.261-3.857,0.267-5.861,0.267c-1.237,0-2.428-0.01-3.649-0.145
		c-1.272-0.138-2.532-0.12-3.771-0.403c-2.053-0.47-4.172-0.667-6.264-0.933c-2.177-0.274-4.42-0.236-6.601-0.538
		c-2.029-0.281-6.619,0.312-7.075-2.361c-0.465-2.723,1.798-4.934,3.272-6.943c5.638-7.686,12.491-14.825,20.906-19.464
		C75.983,207.174,83.723,205.329,91.414,206.512z"/>
	<path fill="#90979E" d="M130.573,234.618c-1.535,0.859-3.124,1.621-4.754,2.287c-9.693,3.966-20.396,4.425-30.733,3.938
		c-4.919-0.233-10.242-0.233-15.032-1.439c-2.113-0.531-4.001-0.42-6.168-0.284c-2.946,0.183-5.902-0.083-8.851,0.052
		c-4.088,0.188-8.32,0.456-12.379,0c-1.074-0.121-4.271,0.436-4.641-1.085c-0.146-0.598,0.606-2.008,0.885-2.57
		c1.96-3.945,5.566-7.726,8.53-10.946c3.723-4.044,8.093-6.516,12.763-9.222c-0.191,1.63-1.352,2.957-2.055,4.396
		c-1.59,3.249-0.859,6.403,2.295,8.245c3.62,2.113,7.83,0.81,11.644,0.089c5.364-1.014,11.376-2.299,16.86-3.945
		c4.85-1.456,11.172-5.358,16.322-3.708c1.825,0.587,4.125,2.188,2.742,4.233c-1.571,2.324-6.917,3.058-9.365,3.792
		c-2.728,0.819-5.479,1.556-8.246,2.232c-0.691,0.168-1.384,0.333-2.077,0.494c-0.458,0.107-1.525,0.141-1.865,0.474
		c-1.242,1.219,6.579,0.887,7.095,0.845c5.034-0.404,10.497-0.947,15.277-2.681c0.535-0.193,4.527-2.567,4.411-2.636
		C125.699,228.638,129.195,232.084,130.573,234.618z"/>
	<path fill="#797F85" d="M44.518,235.332c0.553-1.048,1.128-2.1,1.716-3.14c0.606-1.028,1.244-2.039,1.892-3.045
		c1.303-2.008,2.68-3.978,4.15-5.889c2.984-3.779,6.346-7.33,10.203-10.369c3.823-3.075,8.187-5.591,12.939-7.268
		c4.752-1.669,9.945-2.289,15.023-1.743c1.29,0.133,2.471,0.353,3.689,0.589c1.205,0.237,2.404,0.511,3.595,0.814
		c2.379,0.609,4.729,1.344,7.025,2.221c2.287,0.904,4.52,1.939,6.684,3.104c1.082,0.581,2.147,1.195,3.19,1.843
		c1.041,0.654,2.051,1.354,3.042,2.078c1.978,1.454,3.874,3.017,5.63,4.722c1.747,1.714,3.377,3.537,4.87,5.457
		c2.943,3.876,5.342,8.128,6.973,12.629l-0.562,0.271c-2.054-4.233-4.631-8.221-7.708-11.782c-3.07-3.566-6.624-6.713-10.519-9.355
		c-7.795-5.286-16.903-8.587-26.223-9.812c-4.661-0.542-9.421,0.029-13.876,1.498c-4.463,1.469-8.624,3.784-12.402,6.584
		c-3.783,2.804-7.206,6.081-10.317,9.622c-3.113,3.543-5.923,7.349-8.49,11.313L44.518,235.332z"/>
</g>
<path fill="#A9B1BA" d="M58.961,232.416c0.958,0.195,2.032-0.141,2.607-1.426c0.854-1.905-0.913-3.618-2.808-2.864
	c-0.602,0.239-0.923,0.664-1.252,1.195C56.657,230.692,57.33,232.084,58.961,232.416z"/>
<path fill="#A9B1BA" d="M65.047,231.012c-1.263,0.082-2.537,1.953-1.538,2.938c0.501,0.493,2.38,0.159,2.88-0.303
	c0.827-0.764-0.032-2.406-1.002-2.611C65.275,231.012,65.162,231.004,65.047,231.012z"/>
<path fill="#90979E" d="M95.66,217.004c0.056,2.043,3.98,1.553,4.617,0.136C101.015,215.499,95.575,213.828,95.66,217.004z"/>
<path fill="#90979E" d="M95.983,212.775c0.642-2.402-2.457-1.683-3.929-1.506c-1.261,0.151-4.62,1.814-3.109,3.492
	c0.818,0.908,3.156,0.281,4.061,0.059C94.115,214.55,95.618,214.142,95.983,212.775z"/>
<g>
	<g>
		<g>
			<polygon fill="#213247" points="224.504,20.417 223.189,17.736 210.643,25.549 			"/>
			<polygon fill="#213247" points="212.938,-0.29 201.48,15.315 215.472,1.933 			"/>
			<polygon fill="#213247" points="206.282,71.794 207.831,70.166 196.776,61.191 			"/>
			<polygon fill="#213247" points="216.435,56.682 217.274,54.597 206.464,51.449 			"/>
			<polygon fill="#213247" points="224.254,39.893 224.267,37.646 213.058,38.705 			"/>
			<path fill="#213247" d="M140.691,43.404c-0.121,0.124-0.255,0.248-0.425,0.378c-0.608,0.47-1.244,0.795-1.918,1.14
				c-0.278,0.142-0.56,0.287-0.846,0.443c-0.12,0.066-0.249,0.134-0.385,0.205c-0.678,0.359-1.448,0.766-1.935,1.313
				c-0.443,0.5-0.8,1.261-0.907,1.938c-0.045,0.294-0.061,0.597-0.06,0.901c-2.192-0.032-4.519-0.244-6.173-0.429
				c-0.076-0.63-0.209-1.28-0.403-1.886c-0.122-0.378-0.361-0.699-0.689-0.924c-0.362-0.25-0.778-0.366-1.203-0.455
				c-0.417-0.088-0.848-0.077-1.271-0.111c-0.442-0.037-0.883-0.093-1.319-0.172c-0.552-0.098-1.101-0.232-1.635-0.41
				c-0.515-0.172-1.018-0.385-1.486-0.656c-0.441-0.254-0.854-0.562-1.203-0.934c-0.749-0.802-1.089-1.807-1.009-2.985l0.018-0.264
				c0.091-1.385,0.187-2.817,0.789-4.01c0.824-1.633,2.486-1.441,4.927-0.963c0.789,0.155,1.534,0.3,2.208,0.314
				c0.262,0.007,0.521-0.016,0.777-0.038c0.741-0.063,1.109-0.076,1.423,0.347c0.282,0.38,0.702,1.126,0.34,1.85
				c-0.415,0.831-1.247,1.486-2.072,1.632c-0.449,0.08-0.925,0.041-1.428,0c-0.495-0.039-1.008-0.082-1.538-0.012l-0.429,0.055
				l-0.055,0.429c-0.016,0.124-0.02,0.286-0.021,0.476c-0.005,0.476-0.011,1.128-0.361,1.566c-0.194,0.241-0.155,0.594,0.086,0.787
				c0.244,0.194,0.595,0.153,0.787-0.088c0.165-0.206,0.281-0.429,0.368-0.655c0.204-0.533,0.231-1.083,0.236-1.487
				c0.271,0,0.548,0.023,0.836,0.046c0.551,0.044,1.121,0.089,1.712-0.014c0.244-0.044,0.487-0.122,0.723-0.22
				c0.896-0.372,1.701-1.104,2.156-2.014c0.459-0.919,0.299-2.019-0.442-3.018c-0.698-0.943-1.652-0.863-2.419-0.795
				c-0.217,0.019-0.44,0.04-0.657,0.034c-0.577-0.011-1.275-0.149-2.016-0.293c-2.172-0.425-4.873-0.955-6.142,1.556
				c-0.413,0.818-0.616,1.688-0.737,2.569c-0.084,0.623-0.129,1.251-0.17,1.872l-0.018,0.263c-0.038,0.557,0,1.083,0.111,1.579
				c0.188,0.841,0.588,1.593,1.198,2.246c2.102,2.247,5.916,2.551,7.396,2.58c0.625,0.128,1.04,0.279,1.162,0.659
				c0.146,0.454,0.253,0.935,0.324,1.409c-0.688-0.087-1.113-0.149-1.132-0.152l-0.331-0.049l-0.41,3.664
				c0.187,0.059,0.662,0.469,0.882,0.524l0.368-3.121c1.447,0.202,6.52,0.904,10.41,0.551c-0.13,0.652-0.39,2.629-0.516,3.431
				c0.218-0.005,0.83-0.327,1.034-0.336c0.153-0.972,0.45-3.149,0.577-3.692l0.103-0.434l-0.441,0.052
				c-0.645,0.075-1.358,0.114-2.105,0.127c-0.001-0.255,0.01-0.502,0.046-0.728c0.071-0.458,0.34-1.034,0.637-1.37
				c0.351-0.395,1.056-0.767,1.622-1.065c0.14-0.074,0.275-0.146,0.4-0.214c0.275-0.151,0.547-0.29,0.816-0.428
				c0.688-0.353,1.402-0.717,2.092-1.251c0.152-0.117,0.285-0.232,0.407-0.347C141.121,44.031,140.897,43.727,140.691,43.404z"/>
			<path fill="#213247" d="M116.708,40.686l0.018-0.263c0.041-0.62,0.085-1.249,0.17-1.872c-0.935-4.062,0.597-7.902,1.788-9.413
				c0.3,0.043,0.678,0.091,1.117,0.14c0.131-0.585,0.303-1.155,0.538-1.694c-0.846-0.089-1.479-0.173-1.816-0.241l-0.457-0.091
				l-0.33,0.33c-0.666,0.665-1.395,1.854-1.954,3.355c-0.747-0.009-1.555,0.002-2.4,0.018c-1.276,0.023-2.648,0.046-3.946-0.014
				c-0.078-1.568-0.8-2.944-2.065-3.892l-0.194-0.145l-0.243-0.025c-0.385-0.038-0.785-0.105-1.167-0.169
				c-0.792-0.132-1.477-0.246-2.039-0.153l-0.167,0.045c-1.741,0.663-3.027,2.235-3.72,4.548c-1.063,3.551-0.488,8.138,1.339,10.667
				l0.229,0.319l0.391,0.039c0.659,0.065,1.527,0.08,2.271,0.08c0.327,0,0.63-0.002,0.881-0.005l0.614-0.003l0.152-0.059
				c1.228-0.477,2.51-2.015,2.973-3.492c2.1,0.057,4.75,0.141,6.509,0.229c0.216,0.948,0.534,1.903,1.006,2.848l0.256,0.512
				l0.356-0.02C116.708,41.769,116.669,41.242,116.708,40.686z M105.669,28.458c-0.954,1.133-1.753,3.028-2.103,5.133
				c-0.459,2.766-0.046,5.217,1.122,6.916c-0.666,0.006-1.581,0.008-2.312-0.037c-1.341-2.167-1.727-5.939-0.865-8.82
				c0.363-1.212,1.104-2.769,2.577-3.381c0.306-0.021,0.879,0.076,1.391,0.161C105.541,28.439,105.606,28.447,105.669,28.458z
				 M105.223,40.497c-1.238-1.605-1.689-4.045-1.226-6.835c0.355-2.144,1.214-4.101,2.184-5.125c0.108,0.016,0.211,0.035,0.32,0.048
				c0.518,0.439,1.061,1.144,1.18,2.206c-0.138-0.019-0.275-0.038-0.412-0.06c-0.098-0.016-0.205-0.046-0.305-0.027
				c-0.212,0.042-0.38,0.211-0.543,0.342c-0.161,0.129-0.304,0.281-0.431,0.444c-0.464,0.598-0.717,1.343-0.868,2.076
				c-0.172,0.835-0.215,1.7-0.159,2.549c0.032,0.475,0.092,0.949,0.197,1.414c0.052,0.232,0.116,0.462,0.191,0.688
				c0.042,0.123,0.092,0.244,0.189,0.333c0.098,0.089,0.207,0.068,0.332,0.072c0.326,0.007,0.651,0.016,0.976,0.023
				C106.462,39.457,105.774,40.212,105.223,40.497z M105.922,36.877c-0.257-1.582-0.07-3.444,0.533-4.525
				c1.445,0.3,3.132,0.373,4.8,0.373c0.731,0,1.458-0.014,2.157-0.026c0.64-0.012,1.264-0.023,1.846-0.023
				c-0.323,1.37-0.479,2.896-0.34,4.488C112.046,37.028,107.396,36.912,105.922,36.877z"/>
			<path fill="#213247" d="M127.151,40.512c-0.235,0.098-0.479,0.176-0.723,0.22c-0.591,0.104-1.161,0.058-1.712,0.014
				c-0.288-0.023-0.565-0.045-0.836-0.046c-0.005,0.404-0.032,0.955-0.236,1.487c3.529,0.048,7.488,0.178,10.754,0.285
				c2.549,0.084,4.6,0.151,5.846,0.162c-0.293-0.55-0.548-1.136-0.762-1.756c-1.263-0.026-3.042-0.084-5.027-0.149
				C132.227,40.656,129.675,40.573,127.151,40.512z"/>
			<path fill="#213247" d="M119.8,29.278c-0.043,0.195-0.096,0.386-0.128,0.585c-0.141,0.897,0.05,1.683,0.554,2.272
				c0.559,0.654,1.457,1.014,2.528,1.015c0.251,0,0.509-0.02,0.768-0.06c0.765-0.118,1.322-0.48,1.711-1.094
				c0.322,0.474,0.863,0.872,1.594,1.144c0.386,0.143,0.787,0.215,1.191,0.216c0.813,0,1.615-0.29,2.32-0.837l0.098-0.077
				c0.011-0.009,0.021-0.02,0.031-0.028c0.279,0.285,0.705,0.51,1.348,0.65c0.43,0.094,0.85,0.141,1.246,0.141
				c0.753,0,1.436-0.171,2.057-0.502c0.281,0.281,0.705,0.505,1.343,0.644c0.431,0.094,0.85,0.141,1.247,0.141
				c0.408,0,0.794-0.06,1.164-0.157c0.062-0.429,0.137-0.855,0.229-1.276c-0.695,0.327-1.488,0.398-2.401,0.198
				c-0.959-0.208-1.063-0.415-0.859-1.695c0.258-1.621,1.089-3.173,2.221-4.15c0.678-0.584,1.629-0.947,2.482-0.947
				c0.496,0,0.923,0.12,1.279,0.351c0.218-0.306,0.449-0.6,0.685-0.887c-0.55-0.382-1.219-0.583-1.964-0.583
				c-0.766,0-1.588,0.227-2.311,0.611c-0.612-0.579-1.411-0.894-2.334-0.894c-0.833,0-1.734,0.262-2.499,0.71
				c-0.042-0.093-0.077-0.188-0.137-0.276c-0.475-0.713-1.326-0.93-2.014-1.04c-1.173-0.187-2.243,0.082-3.165,0.753
				c-0.556-0.293-1.248-0.367-1.764-0.422c-0.124-0.013-0.245-0.026-0.362-0.041c-1.868-0.234-3.35,0.421-4.567,2.024
				c-0.421,0.554-0.77,1.167-1.052,1.818C120.103,28.123,119.931,28.693,119.8,29.278z M125.241,24.814
				c0.186,0,0.377,0.013,0.576,0.037c0.123,0.017,0.253,0.03,0.384,0.044c0.414,0.044,0.729,0.092,0.979,0.156
				c-0.577,0.676-1.07,1.544-1.456,2.602c-0.18,0.49-0.313,0.986-0.438,1.479c-0.276,0.412-0.435,0.856-0.582,1.29
				c-0.117,0.344-0.227,0.668-0.391,0.944c-0.218,0.367-0.497,0.546-0.963,0.618c-0.202,0.031-0.402,0.047-0.597,0.047
				c-0.728,0-1.338-0.227-1.676-0.622c-0.289-0.338-0.389-0.799-0.3-1.371c0.208-1.313,0.742-2.59,1.504-3.594
				C123.125,25.332,124.066,24.814,125.241,24.814z M135.897,25.177c0.546,0,1.005,0.148,1.382,0.429
				c-1.301,1.147-2.25,2.925-2.546,4.776c-0.072,0.454-0.12,0.896-0.075,1.298c-0.741,0.415-1.603,0.509-2.606,0.29
				c-0.959-0.209-1.063-0.416-0.858-1.694c0.26-1.624,1.09-3.175,2.222-4.152C134.091,25.54,135.042,25.177,135.897,25.177z
				 M130.088,30.099c-0.069,0.424-0.115,0.837-0.085,1.218c-0.092,0.089-0.183,0.179-0.279,0.258l-0.072,0.057
				c-0.752,0.584-1.634,0.753-2.436,0.456c-0.327-0.122-1.38-0.581-1.174-1.374c0.064-0.248,0.124-0.497,0.186-0.744
				c0.164-0.674,0.32-1.311,0.548-1.934c0.481-1.316,1.608-3.525,3.75-3.525c0.177,0,0.36,0.015,0.546,0.044
				c0.464,0.074,1.025,0.204,1.26,0.556c0.071,0.106,0.111,0.233,0.14,0.367C131.258,26.627,130.371,28.327,130.088,30.099z"/>
			<path fill="#213247" d="M162.375,43.317c-0.396,0.72-0.934,1.394-1.505,1.861c-0.11-0.002-0.241-0.005-0.384-0.009
				c0.272,0.174,0.56,0.342,0.868,0.495l-0.387,0.781c-0.733-0.363-1.396-0.811-1.991-1.331c-1.613-0.065-3.829-0.168-6.002-0.271
				c-3.688-0.172-7.495-0.35-8.966-0.374c-2.094-1.548-3.388-4.379-3.561-7.816c-0.233-4.649,1.586-9.229,4.762-12.032
				c2.123-0.068,9.612,0.12,13.729,0.224c0.339,0.008,0.655,0.016,0.954,0.024c0.732-0.634,1.515-1.068,2.316-1.246l0.188,0.852
				c-0.359,0.08-0.717,0.228-1.068,0.429c0.328,0.007,0.593,0.013,0.772,0.015c0.255,0.205,0.86,0.996,1.007,2.212
				c0.523,0.021,1.123,0.048,1.757,0.08c-0.156-2.024-1.311-3.746-2.351-4.007l-0.212-0.026c-0.304,0-1.635-0.033-3.32-0.076
				c-4.665-0.117-12.469-0.314-14.168-0.208l-0.286,0.019l-0.22,0.184c-0.652,0.548-1.251,1.162-1.804,1.828
				c-0.235,0.287-0.467,0.581-0.685,0.887c-1.295,1.821-2.225,3.964-2.722,6.243c-0.092,0.421-0.166,0.847-0.229,1.276
				c-0.16,1.122-0.223,2.265-0.164,3.412c0.073,1.486,0.342,2.877,0.775,4.137c0.214,0.62,0.469,1.206,0.762,1.756
				c0.141,0.264,0.288,0.523,0.447,0.769c0.206,0.323,0.43,0.627,0.667,0.916c0.551,0.677,1.179,1.264,1.878,1.741l0.222,0.151
				h0.269c1.162,0,5.23,0.189,9.166,0.374c3.744,0.175,7.281,0.34,8.269,0.34h0.28l0.228-0.162c1.079-0.772,2.041-2.022,2.597-3.348
				C163.593,43.382,162.947,43.349,162.375,43.317z"/>
			<path fill="#213247" d="M198.329,17.284l-0.341-0.351l-0.478,0.107c-0.006,0.001-0.012,0.003-0.02,0.005
				c-0.26,0.042-0.516,0.102-0.767,0.178c-1.422,0.334-3.108,0.755-4.882,1.197c-5.911,1.475-13.268,3.31-16.282,3.31
				c-0.272,0-0.498-0.015-0.666-0.046l-0.346-0.062l-0.295,0.195c-1.776,1.185-3.134,3.2-4.086,5.654
				c-0.684-0.026-1.859-0.085-3.086-0.148c-0.73-0.038-1.491-0.077-2.216-0.112c-0.634-0.031-1.233-0.059-1.757-0.08
				c-0.603-0.024-1.106-0.04-1.42-0.04h-0.383l-0.259,0.281c-2.936,3.187-4.643,11.108-0.988,15.523l0.234,0.282l0.365,0.03
				c0.39,0.033,0.994,0.069,1.716,0.109c0.572,0.032,1.218,0.064,1.891,0.099c0.191,0.009,0.383,0.02,0.577,0.029
				c1.586,0.081,3.34,0.168,4.285,0.239c0.431,2.033,1.077,3.905,1.942,5.449l0.195,0.35l0.394,0.079
				c0.702,0.14,1.485,0.312,2.324,0.505c0.448,0.104,0.912,0.213,1.392,0.329c2.646,0.636,5.715,1.437,8.719,2.22
				c2.96,0.772,6.009,1.567,8.672,2.211c0.138,0.053,0.279,0.099,0.424,0.137l0.009-0.032c0.05,0.012,0.102,0.024,0.151,0.036
				l0.221,0.053l0.217-0.061c3.383-0.947,6.749-5.945,8.579-12.733C204.486,34.357,204.54,23.673,198.329,17.284z M168.812,41.914
				c-0.979-0.063-2.397-0.136-3.882-0.21c-1.421-0.072-2.884-0.146-3.75-0.204c-2.708-3.694-1.126-10.102,0.904-12.658
				c1.056,0.026,3.088,0.13,4.907,0.223c0.997,0.051,1.907,0.098,2.596,0.128C168.453,33.077,168.204,37.727,168.812,41.914z
				 M194.019,26.146c2.396,0.623,2.001,7.315,0.115,6.525c-0.155-0.065-1.382-0.992-1.484-3.175
				C192.604,28.54,192.906,25.856,194.019,26.146z M194.495,34.442c0.146-0.038,0.301-0.043,0.438,0.02
				c1.681,0.775-0.226,6.654-0.723,7.8c-0.351,0.806-1.976,3.08-2.297,3.289c0.08-0.655,0.395-1.324,0.559-1.973
				c0.437-1.728,1.296-6.7,1.256-7.418C193.698,35.562,193.766,34.633,194.495,34.442z M184.534,50.928
				c-4.4-1.149-8.944-2.335-12.129-2.995c-3.562-6.859-2.844-20.474,2.558-24.482c2.495,0.225,8.7-1.209,14.729-2.698
				c-1.838,2.227-3.467,5.958-4.395,10.261c-1.658,7.676-0.835,15.285,2.182,20.681C186.498,51.439,185.512,51.183,184.534,50.928z
				 M188.076,51.849c-3.141-5.321-4.026-12.989-2.353-20.744c0.985-4.565,2.752-8.462,4.702-10.535
				c0.617-0.153,1.232-0.306,1.84-0.458c0.235-0.059,0.465-0.116,0.696-0.174c-3.104,3.825-4.84,10.782-5.228,17.508
				c-0.306,5.285,0.226,11.438,2.322,14.909C189.404,52.19,188.743,52.021,188.076,51.849z M200.682,41.773
				c-0.701,2.601-1.641,4.932-2.7,6.812c-0.194,0.346-0.395,0.671-0.598,0.984c-1.112,1.728-2.325,2.956-3.522,3.501
				c-0.114,0.051-0.227,0.105-0.339,0.146c-0.034-0.009-0.07-0.017-0.104-0.025c-0.275-0.103-0.543-0.246-0.795-0.454
				c-0.633-0.521-1.19-1.365-1.654-2.464c7.858-4.76,8.373-16.7,6.214-23.69c-0.818-2.652-1.978-4.379-3.299-4.972
				c0.961-1.362,2.063-2.315,3.293-2.702c0.075-0.018,0.161-0.038,0.234-0.056C202.775,24.76,202.639,34.513,200.682,41.773z"/>
			<path fill="#213247" d="M156.438,34.358c0.521-4.286,2.566-8.122,4.893-9.454c0.352-0.201,0.709-0.349,1.068-0.429l-0.188-0.852
				c-0.802,0.178-1.584,0.612-2.316,1.246c-2.131,1.842-3.837,5.392-4.321,9.384c-0.56,4.608,0.697,8.499,3.404,10.861
				c0.596,0.52,1.258,0.968,1.991,1.331l0.387-0.781c-0.309-0.152-0.596-0.32-0.868-0.495
				C156.021,42.313,156.15,36.729,156.438,34.358z"/>
			<path fill="#213247" d="M136.534,53.157c-3.323,0.082-8.178-0.239-10.833-0.896c-0.22-0.054-0.425-0.111-0.613-0.17
				c-0.368-0.117-0.675-0.241-0.894-0.375c-1.792,8.073-3.052,28.698-29.099,35.526c0,0,0.138,0.885,0.371,2.271
				c1.86,0.628,2.555,0.882,2.555,0.882s4.733,7.512,5.571,11.469c29.007-11.564,32.476-28.436,34.75-48.806
				c-0.35,0.034-0.745,0.06-1.171,0.079C136.967,53.146,136.753,53.151,136.534,53.157z"/>
		</g>
	</g>
	<g>
		<path fill="#213247" d="M111.168,201.677c-0.649,0.416-2.847,0.817-3.793,1.644c0.27,0.225,0.494,0.262,0.807,0.488
			c-0.201,0.195-0.558,0.469-0.814,0.67l-2.096-1.206c0.124-0.239,0.484-0.653,0.848-0.765c0.268,0.147,0.409,0.266,0.669,0.418
			c0.495-0.869,2.403-1.697,3.25-1.921c-1.152-0.657-2.169-1.282-3.071-1.886c-0.677,0.395-2.846,0.777-3.793,1.571
			c0.269,0.217,0.492,0.25,0.804,0.468c-0.203,0.19-0.564,0.455-0.816,0.659l-2.086-1.179c0.125-0.233,0.492-0.636,0.857-0.741
			c0.265,0.143,0.401,0.26,0.662,0.407c0.453-0.759,2.126-1.672,3.109-2.075c-2.336-1.728-3.753-3.318-4.726-5.046
			c-0.4-7.738-1.924-41.666-1.924-41.666c-0.133-1.549-0.285-3.099-0.446-4.649h-3.938c0.126,1.293,0.253,2.587,0.381,3.877
			c0.291,2.932,0.646,6.312,1.052,9.896l0.644,5.575c0.212,1.921,0.407,3.864,0.584,5.801c0.062,0.687,0.123,1.373,0.183,2.058
			c0.216,2.484,0.414,4.94,0.591,7.311c0.324,4.331,0.582,8.376,0.769,11.766c-0.874,0.037-1.457,0.031-2.314,0.283
			c-0.152-0.558-0.57-4.537-0.947-8.771c-0.379-4.233-0.763-8.724-0.968-10.268c-0.467-3.64-0.607-7.321-0.809-10.993
			c-0.182-3.632-0.311-7.274-0.761-10.896c-0.232-1.88-0.484-3.758-0.747-5.637h-0.703c0.164,1.298,0.322,2.595,0.473,3.894
			c0.393,3.396,0.525,6.81,0.677,10.22c0.158,3.396,0.342,6.854,0.686,10.258c0.355,3.42,0.929,6.781,1.046,10.221
			c0.018,0.544,0.275,3.554,0.57,6.443c0.295,2.888,0.64,5.655,0.733,5.72c-1.183,0.284-2.452,0.451-3.731,0.576
			c0.735-5.097-0.987-16.428-1.609-21.455c-0.38-3.103-0.343-6.147-0.593-9.271c-0.236-3.134-0.434-6.264-0.463-9.395
			c-0.021-2.407-0.059-4.808-0.092-7.211h-0.627c0.022,1.962,0.049,3.924,0.065,5.887c0.028,3.003,0.129,6.352,0.285,9.886
			l0.243,5.354c0.07,1.805,0.102,3.697,0.346,5.515c0.965,7.273,1.723,14.612,1.992,20.657c0,0.024,0.025,0.048,0.058,0.071
			c-1.041,0.095-1.718,0.115-2.724,0.208c-0.04-0.197-0.182-2.278-0.156-3.053c0.036-1.058-0.011-2.15-0.045-3.183
			c-0.118-3.547-0.346-8.12-0.583-13.021c-0.474-9.803-1.819-20.685-1.27-27.616c0.019-0.233,0.047-0.47,0.069-0.704h-2.488
			c0.043,0.543,0.098,1.086,0.174,1.629c0.641,4.526,0.425,9.233,1.068,13.826c0.64,4.567,0.413,9.619,0.736,14.211
			c0.306,4.157,0.62,13.556,0.314,17.824c-1.003,0.034-2.042,0.09-3.081,0.125c0.029-0.026,0.05-0.054,0.047-0.078
			c0.085-6.347-0.132-13.229-0.294-20.585c-0.165-7.351-0.849-14.852-1.146-20.812c-0.102-2.047-0.197-4.094-0.287-6.141H81.39
			c0.107,2.497,0.222,4.994,0.347,7.492c0.31,6.219,0.562,12.602,0.777,18.832c0.192,5.081,0.525,15.83,0.806,21.304
			c-1.284,0.034-2.562,0.027-3.77-0.108c0.084-0.075,0.082-2.85-0.011-5.737c-0.088-2.887-0.25-5.888-0.309-6.424
			c-0.364-3.403-0.286-6.79-0.476-10.198c-0.375-6.796-1.808-13.501-2.18-20.301c-0.088-1.619-0.157-3.238-0.225-4.859h-0.687
			c0.061,2.247,0.142,4.492,0.248,6.736c0.343,7.267,1.992,14.414,2.166,21.698c0.034,1.543,0.308,6.007,0.502,10.228
			c0.203,4.22,0.292,8.196,0.209,8.765c-0.878-0.144-1.453-0.065-2.322,0.008l-2.789-42.094c-0.126-1.779-0.253-3.56-0.379-5.341
			h-3.884c0.126,2.265,0.279,4.524,0.468,6.778c0.042,0.501,0.088,0.991,0.133,1.487c0.747,8.446,1.706,16.18,2.533,22.781
			c0.88,6.987,1.603,12.722,1.848,16.675c-0.572,1.373-1.417,2.708-2.738,4.065c-0.404,0.41-0.858,0.823-1.356,1.226
			c1.012,0.284,2.76,0.985,3.271,1.644c0.245-0.146,0.371-0.261,0.621-0.41c0.371,0.074,0.771,0.418,0.912,0.628
			c-0.256,0.149-0.659,0.394-1.045,0.604c-0.388,0.221-0.75,0.357-0.94,0.496c-0.254-0.211-0.635-0.396-0.848-0.548
			c0.292-0.179,0.509-0.211,0.758-0.407c-1.007-0.65-3.196-0.858-3.898-1.156c-0.422,0.273-2.888,1.55-2.888,1.55
			c0.846,0.19,2.784,0.947,3.309,1.795c0.255-0.16,0.39-0.283,0.649-0.438c0.367,0.097,0.74,0.495,0.872,0.729l-2.041,1.275
			c-0.261-0.191-0.627-0.449-0.833-0.636c0.303-0.237,0.525-0.283,0.786-0.516c-0.972-0.788-3.172-1.106-3.833-1.498
			c-3.989,2.627-9.35,6.733-6.277,11.399c0.16,0.244,0.381,0.27,0.694,0.254c5.66-0.276,11.828-1.59,16.658-4.814
			c1.706-2.023,1.589-2.063,4.703-5.154c0.61,1.081,1.121,2.616,1.381,2.53c0.961-0.308,4.792-1.629,5.768-2.005
			c-0.08-1.216-0.404-8.897-0.348-9.275c0.2-0.045,0.576-0.361,0.616-0.435c0.094,0.062,0.192,0.117,0.301,0.149
			c-0.002,0.027,0.918,9.77,0.886,10.04c0.004-0.037,3.794,0.633,4.552,0.854c0.265,0.077,0.722-1.484,1.295-2.59
			c3.24,2.988,3.125,3.036,4.911,5.005c4.969,3.061,11.21,4.155,16.905,4.229c0.313,0.002,0.535-0.03,0.688-0.28
			C120.804,208.099,115.27,204.169,111.168,201.677z"/>
	</g>
	<g>
		<g>
			<path fill="#213247" d="M78.089,11.075c-0.023,0.015-0.046,0.031-0.068,0.046c-0.528,0.348-2.763,1.717-2.763,1.717
				c1.301-0.261,2.799-0.833,4.137-1.451c3,2.473,5.535,5.688,6.971,7.668c-0.075,0.006-0.146,0.01-0.222,0.019
				c-2.702,0.314-5.558,1.893-6.804,4.389c0.857-0.004,1.631-0.608,2.443-0.83c0.691-0.189,1.229-0.215,1.931-0.307
				c0.684-0.09,1.506-0.147,2.365-0.136c0.946,0.013,1.93,0.112,2.815,0.339c0.334,0.305,0.624,0.608,0.877,1.091
				c0.588,1.116,1.015,2.258,1.378,3.417c0.549,1.754,0.95,3.545,1.534,5.344c0.33,1.017,0.549,2.065,0.641,3.129
				c0.014,0.185,0.121,0.309,0.262,0.427c0.299,0.249,0.279-0.258,0.306-0.47c0.481-3.765-1.221-10.242-3.296-12.461
				c-0.04-0.443-0.05-1.306-0.108-1.49c-0.183-0.558-0.476-0.996-0.895-1.403c-0.547-0.531-1.099-0.832-1.703-0.978
				c-0.046-0.1-0.09-0.192-0.129-0.273c-1.134-2.339-3.084-4.605-4.833-6.518c-0.555-0.607-1.217-1.246-1.826-1.815
				c0.003,0,0.005-0.001,0.007-0.003c1.467-0.797,2.876-1.691,4.493-2.167c1.147-0.339,2.491-0.585,3.685-0.335
				c0.337,0.071,0.668,0.215,0.995,0.334c0.092,0.033,0.664,0.324,0.752,0.266c1.883-1.276-0.395-3.556-3.383-3.034
				c-0.747,0.13-1.487,0.406-2.147,0.715c-1.153,0.541-2.06,1.185-2.314,1.347C81.459,8.752,79.798,9.947,78.089,11.075z"/>
			<path fill="#213247" d="M50.03,52.161c-0.935-0.633-2.136-0.983-3.248-0.64c-0.618,0.191-1.195,0.544-1.352,1.211
				c-0.069,0.292,0.049,0.853,0.212,1.104c0.226,0.346,0.645-0.075,0.917-0.234c0.416-0.244,0.808-0.456,1.265-0.599
				c1.177-0.374,2.703,0.485,3.582,1.199c0.157,0.127,0.232,0.365,0.388,0.458c-0.008-0.005-0.185-0.51-0.346-0.909
				c-0.083-0.204-0.16-0.38-0.209-0.445C50.9,52.851,50.499,52.479,50.03,52.161z"/>
			<path fill="#213247" d="M100.088,49.359c-0.605-2.159-1.331-4.281-2.178-6.346c-0.903-2.044-1.892-4.045-3.09-5.917l-0.033-0.052
				c-0.151-0.238-0.461-0.328-0.72-0.201c-0.275,0.137-0.392,0.472-0.255,0.75c3.821,7.756,5.688,16.446,5.61,25.088
				c-0.031,2.426-0.217,4.853-0.584,7.25c-0.287,1.87-0.681,3.72-1.21,5.532c-0.607,2.062-1.392,4.072-2.422,5.94
				c-1.035,1.851-2.329,3.589-4.003,4.809c-0.846,0.62-1.727,1.042-2.756,1.307c-1.017,0.276-2.061,0.446-3.114,0.509
				c-2.107,0.127-4.236-0.168-6.275-0.778c-4.091-1.226-7.815-3.565-11.091-6.341c-1.651-1.404-3.143-2.914-4.517-4.602
				c-1.392-1.664-2.709-3.384-3.926-5.171c-0.278-0.411-0.549-0.823-0.816-1.241c-1.654-2.586-3.1-5.322-4.104-8.229
				c-0.142-0.408-0.274-0.819-0.397-1.234c-0.071-0.243-0.352-1.844-0.916-1.542c-0.24,0.126-0.395,0.317-0.424,0.605
				c-0.143,1.31-0.875,3.125-2.276,3.071c-4.881-0.19-6.54-6.715-6.786-8.872c-0.201-1.762-0.297-4.672,1.793-5.455
				c3.052-1.145,6.108,2.166,7.387,4.363c0.466,0.801,1.477,2.613,1.541,2.678c0.018-0.011,0.031-0.036,0.04-0.072
				c0.244,0.634,0.534,1.198,0.93,1.3c0.501,0.129,1.185,0.315,1.71,0.317c0.16,0-2.5-6.108-3.362-8.242
				c-0.531-1.31-1.036-2.64-1.472-3.992c-0.103,0.423-0.26,0.835-0.53,1.248c-0.477,0.721-0.936,1.493-1.56,2.083
				c-0.015-0.011-0.033-0.022-0.05-0.032c0.732-1.3,1.652-3.324,1.636-4.994c-0.376-1.397-0.662-2.818-0.793-4.263
				c-0.114-1.291-0.096-2.595,0.081-3.881c-0.748,1.515-1.839,2.9-3.07,4.139c-0.975,0.985-2.039,1.878-3.084,2.679
				c-0.278,0.21-0.624,0.4-0.937,0.534c-0.357,0.152,0.359-0.815,0.905-1.415c0.228-0.252,0.477-0.48,0.705-0.75
				c2.016-2.378,4.056-4.778,5.462-7.583c0.289-0.574,0.589-1.124,0.894-1.686c0.105-0.193,0.188-0.416,0.271-0.64
				c0.287-1.538-0.414-3.314-1.497-3.845c0.448,2.511-1.138,5.242-2.446,6.36c0.678-1.352,0.995-2.269,1.27-3.636
				c0.229-1.139,0.146-2.396-0.06-3.638c-0.378-1.407-0.857-4.254-0.561-5.191c0.595-1.89,1.897-4.742,3.654-5.827
				c0.625-0.387,0.412-0.234,1.103-0.064c3.646,0.893,7.492,1.242,11.228,0.818c2.444-0.277,4.705-1.075,6.871-2.125
				c3.32-1.608,6.407-3.814,9.538-5.689c0.729-0.436,1.526-0.79,2.297-1.167c0.138-0.069,0.279-0.136,0.413-0.207
				c1.106-0.571-1.414-1.614-2.154-1.261c-0.485,0.23-0.972,0.452-1.458,0.679c-0.833-0.481-5.004-1.742-6.974-2.106
				c-5.866-1.084-12.16-0.917-17.705,1.451c-3.359,1.436-7.517,4.754-8.287,8.545c-0.508,0.04-1.096,0.738-1.458,1.035
				c-1.553,1.269-2.527,3.081-3.39,4.954c-1.63,3.543-1.832,7.275-1.467,11.111c0.409,4.312,0.958,8.622,1.913,12.849
				c0.007,0.028,0.013,0.057,0.019,0.085c-0.295,0.281-1.756,1.132-3.754,0.575c-0.122,0.492-0.267,1.027,0.118,1.369
				c1.105,0.977,3.333,0.352,4.512-0.201c0.59-0.278,1.136-0.703,1.667-1.08c1.256-0.889,2.423-2.053,3.317-3.308
				c0.246-0.346,0.886-1.23,0.803-1.698c0.388,2.153-1.856,4.779-3.424,5.749c-0.832,0.514-1.715,0.852-2.72,1.021
				c0.028,0.131,0.055,0.262,0.084,0.393c0.082,0.362,0.164,0.929,0.374,1.366c-0.094,0.076-0.187,0.152-0.277,0.239
				c-0.131,0.12-0.257,0.247-0.373,0.394c-0.218,0.277-0.401,0.58-0.558,0.894c-0.848,1.704-0.771,3.782-0.614,5.629
				c0.354,4.143,3.792,9.873,8.476,10.033c1.042,0.035,1.965-0.627,2.544-1.446c0.062-0.087,0.105-0.182,0.158-0.273
				c0.658,2.456,1.669,4.818,2.874,7.067c0.445,0.833,0.911,1.654,1.401,2.455c1.208,1.892,2.516,3.712,3.901,5.469l1.056,1.307
				c0.387,0.448,0.777,0.871,1.178,1.285c0.8,0.829,1.632,1.61,2.493,2.363c3.449,2.976,7.384,5.534,11.94,6.957
				c2.27,0.701,4.707,1.071,7.167,0.947c1.226-0.066,2.459-0.241,3.651-0.572c0.581-0.159,1.201-0.369,1.887-0.701
				c0.621-0.294,1.19-0.657,1.721-1.046c1.46-1.088,2.67-2.437,3.591-3.992c1.531-2.584,2.751-5.355,3.63-8.228
				c0.605-1.971,1.053-3.99,1.34-6.032c0.344-2.455,0.509-4.925,0.517-7.388C101.813,58.193,101.202,53.703,100.088,49.359z
				 M66.971,11.707c3.436-0.93,9.965-4.225,10.829-4.61c-0.83,1.273-5.927,4.367-8.662,5.366c-2.372,0.866-7.499,1.45-9.073,0.616
				C62.026,12.895,65.235,12.176,66.971,11.707z"/>
			<path fill="#213247" d="M88.299,37.98c2.537-1.915,0.473-5.764-2.224-5.995c0.479,0.779,0.702,1.933,0.519,2.529
				c-0.647,2.108-2.422-0.793-3.271-1.227C81.802,35.766,85.05,40.435,88.299,37.98z"/>
			<path fill="#213247" d="M69.761,40.599c0.47-0.15,4.531-1.014,4.894-1.033c-0.332-0.333-0.936-1.1-1.635-1.133
				c-2.733-0.126-5.605,0.56-7.824,2.189c-0.57,0.417-1.097,0.785-1.437,1.41c-0.282,0.517-0.514,1.384-0.61,1.931
				c0.594-0.5,2.288-1.535,2.88-1.851C67.237,41.466,68.472,41.013,69.761,40.599z"/>
			<path fill="#213247" d="M68.47,43.462c0.636-0.37,1.557-0.638,1.944-1.297c0.005-0.009-0.094-0.093-0.088-0.102
				c-0.66-0.005-1.214,0.231-1.771,0.526c-1.087,0.576-2.1,1.229-3.159,1.854c-0.672,0.396-1.208,0.97-1.63,1.594
				c0.77-0.281,1.397-0.718,2.131-1.115C66.777,44.447,67.651,43.938,68.47,43.462z"/>
			<path fill="#213247" d="M80.511,24.408c-1.591,1.666-2.124,3.534-2.109,5.796c0.005,0.689,0.168,1.368,0.28,2.066
				c0.09,0.576,0.19,1.095,0.325,1.609c0.019,0.163,0.037,0.322,0.053,0.47c0.207,1.886,0.749,3.77,1.897,5.239
				c1.163,1.488,2.921,2.224,4.434,3.275c1.253,0.87,2.442,1.93,3.419,3.099c0.944,1.132,2.047,2.795,2.109,4.32
				c0.019,0.494-0.121,1.08-0.383,1.577c-0.198,0.373-0.465,0.698-0.786,0.897c-0.93,0.573-2.236,0.382-3.26,0.255
				c-1.664-0.204-3.298-0.593-4.726-1.512c-0.207-0.132-0.364-0.321-0.603-0.402c0.027,0.325,0.359,0.768,0.529,1.047
				c0.421,0.688,1.444,1.244,2.12,1.647c1.097,0.655,2.304,1.167,3.55,1.458c0.784,0.184,1.646,0.29,2.431,0.057
				c2.514-0.745,3.446-3.216,2.938-5.581c-0.476-2.214-1.831-4.08-3.484-5.581c-0.949-0.861-2.007-1.625-3.095-2.303
				c-1.662-1.037-3.519-2.035-4.777-3.636c-1.294-1.646-1.446-3.772-1.863-5.795c0.014-0.707,0.054-1.408,0.134-2.112
				C79.871,28.32,80.211,26.384,80.511,24.408z"/>
			<path fill="#213247" d="M92.461,62.822c0.659-0.503,1.238-1.088,1.645-1.785c0.199-0.341,0.653-1.762,0.143-2.053
				c-0.275-0.161-0.36,0.294-0.477,0.509c-0.263,0.48-0.593,0.92-0.983,1.305c-0.143,0.142-0.293,0.276-0.447,0.404
				c-1.119,0.927-2.476,1.509-3.825,2.029c-4.683,1.796-12.13,2.129-16.278-1.178c-0.728-0.582-1.347-1.307-1.822-2.11
				c-0.141-0.238-0.261-0.483-0.368-0.736c0.36-0.247,0.737-0.466,1.161-0.601c0.994-0.32,1.503-0.169,1.206-1.506
				c-3.566-0.333-7.253,3.318-7.216,6.753c0,0,2.391-2.691,3.694-3.777c0.034,0.064,0.064,0.129,0.099,0.193
				c0.321,0.578,0.697,1.126,1.134,1.624c0.48,0.548,1.033,1.017,1.626,1.428c0.046,0.106,0.087,0.215,0.135,0.321
				c1.241,2.8,2.808,6.215,5.125,8.61c1.572,1.626,3.491,2.783,5.889,2.959c1.57,0.115,4.09-0.372,5.35-1.377
				c0.454-0.361,0.817-0.78,1.117-1.234c1.193-1.811,1.34-4.237,1.755-6.313C91.368,65.053,91.728,63.866,92.461,62.822z
				 M87.551,68.226c-3.799,2.148-10.732,0.162-12.976-3.444c-0.008-0.014-0.019-0.025-0.027-0.038
				c2.26,0.831,4.796,1.141,6.99,1.177c2.355,0.039,4.725-0.332,6.954-1.099c-0.098,0.286-0.131,0.803-0.123,1.117
				C88.397,67.104,88.751,67.548,87.551,68.226z"/>
			<path fill="#213247" d="M78.706,77.536c0.541,3.092,4.719,4.323,6.573,3.965c2.271-0.439,4.081-2.269,4.52-4.241
				C87.474,80.579,81.315,80.016,78.706,77.536z"/>
			<path fill="#213247" d="M74.16,30.362c-0.241-0.459-1.077-0.964-1.558-1.188c-1.289-0.602-3.765-0.819-5.183-0.766
				c-1.909,0.073-4.563,0.979-6.135,2.07c-0.139,0.096-0.277,0.202-0.413,0.319c-0.378,0.324-0.829,0.47-1.096,0.967
				c-0.222,0.418-0.316,1.005-0.382,1.484c-0.153,1.132-0.404,2.256-0.506,3.369c0.458-0.439,0.771-1,1.333-1.429
				c0.562-0.43,1.115-0.902,1.716-1.273c2.164-1.333,5.043-2.236,7.475-2.905C70.033,30.838,73.883,29.835,74.16,30.362z"/>
		</g>
	</g>
	<path fill="#213247" d="M99.519,91.34c0.376-1.352-2.702-4.353-4.423-4.099c0.04,0.697,0.061,1.425,0.068,2.178
		c-0.055,0.583-0.11,1.16-0.177,1.735c-0.051,0.439-0.113,0.875-0.175,1.311c-0.101,0.709-0.21,1.416-0.334,2.121
		c-0.201,1.137-0.43,2.271-0.682,3.413c-0.245,1.142-0.541,2.286-0.697,3.491c0.588-0.942,1.102-1.921,1.518-2.949
		c-0.417,3.572-1.059,7.301-1.892,10.903c-0.383,2.336-1.213,4.841-1.623,6.966c-0.542,2.793-1.229,5.547-1.909,8.299l-2.146,8.22
		c-0.367,1.367-0.714,2.739-1.036,4.115c-0.357,1.371-0.647,2.754-0.933,4.148c0.073-2.162,0.373-4.305,0.748-6.431
		c-1.073-2.286-2.369-4.435-3.695-6.551c-1.276-2.282-2.722-4.471-4.233-6.615c-3.025-4.292-6.396-8.323-9.808-12.351l-0.316-0.374
		l0.337-0.37c1.022-1.131,1.895-2.463,2.706-3.816c-1.732-0.866-3.52-1.572-5.392-1.845l-0.439-0.064l-0.038-0.445l-0.26-3.02
		c-0.077-1.003-0.252-1.988-0.365-2.983c-0.129-2.008-0.44-4.011-0.703-6.032c0.709,1.911,1.292,3.864,1.794,5.86
		c0.202,1.006,0.274,2.032,0.394,3.045l0.222,2.605c2.079,0.375,4.027,1.208,5.839,2.154l0.526,0.273l-0.3,0.507
		c-0.844,1.433-1.733,2.837-2.841,4.141c3.302,3.903,6.597,7.86,9.562,12.065c1.534,2.164,2.978,4.394,4.306,6.701
		c0.652,1.16,1.128,2.417,1.628,3.648c0.424,1.086,0.797,2.192,1.104,3.313c0.112-0.628,0.229-1.252,0.351-1.876
		c0.536-2.791,1.218-5.549,1.9-8.301l2.158-8.218c0.368-1.365,0.717-2.736,1.038-4.112c0.049-0.196,0.117-0.407,0.19-0.625
		c-1.188-3.099-2.487-5.718-3.822-7.078c0.748-1.549,1.56-3.418,1.954-4.603c0.671,0.875,1.326,1.771,1.944,2.714
		c-0.212-0.812-0.538-1.588-0.896-2.349c-0.368-0.754-0.778-1.492-1.254-2.193c-0.461-0.71-1-1.373-1.588-2.005
		c-0.598-0.622-1.273-1.192-2.066-1.646l-0.218-0.124l-0.293-0.168l-0.132,0.212l-0.185,0.296c-0.475,0.763-0.992,1.524-1.505,2.284
		c-0.498,0.772-1.026,1.527-1.515,2.312c-0.502,0.774-0.986,1.564-1.459,2.361c-0.458,0.807-0.93,1.612-1.289,2.476
		c0.864-1.03,1.727-2.05,2.576-3.083c0.728,0.641,3.007,2.65,4.241,3.756c-0.174,0.541-1.841,4.5-3.55,9.489
		c0.573,1.381,1.217,2.761,1.841,4.14c0.683,1.522,1.409,3.033,1.998,4.598c-0.759-1.485-1.646-2.901-2.496-4.337
		c-0.602-1.013-1.206-2.023-1.799-3.05c-0.009,0.031-0.021,0.063-0.03,0.094c-3.474-6.042-7.737-12.693-10.938-18.797
		c0.836,1.155,1.73,2.268,2.716,3.3c1.199,1.255,2.509,2.455,4.044,3.292c-1.209-1.245-2.263-2.576-3.304-3.924
		c-1.025-1.357-2.027-2.73-2.974-4.141c-0.963-1.398-1.873-2.832-2.734-4.292c-0.04-0.07-0.078-0.142-0.119-0.212
		c-0.38-0.666-0.754-1.335-1.085-2.026c-0.139-0.284-0.269-0.571-0.393-0.862c-0.197-0.644-0.369-1.272-0.5-1.88
		c-1.744,0.519-7.7,4.617-11.226,4.764c0.015,0.054,0.029,0.108,0.044,0.162c-0.049-0.015-0.097-0.028-0.146-0.042
		c-2.837,8.681-6.98,25.134-15.492,39.525c1.979,6.892,13.906,7.43,22.474,8.862c0.155-2.974,0.774-10.637,0.774-10.637
		c0.549,2.174,0.848,8.546,0.848,12.584c-0.009,0.023-0.017,0.043-0.026,0.064c0.034,3.27-0.072,6.51-0.347,9.695
		c2.668,5.004,29.91,2.868,43.635-1.749C104.703,134.3,106.15,107.558,99.519,91.34z M56.262,126.042
		c1.345-3.283,5.043-12.559,6.833-17.484c0.085,0.451-1.167,6.8-1.58,8.104c0.755,4.157,1.106,7.23,1.571,11.479
		C63.087,128.141,58.086,127.199,56.262,126.042z M99.591,107.362l0.104,0.203l-0.062,0.208c-0.74,2.503-1.606,4.904-2.47,7.331
		c-0.866,2.42-1.761,4.828-2.674,7.229c-0.911,2.402-1.848,4.794-2.811,7.179c-0.415,1.219-1.072,2.338-1.657,3.485
		c-0.596,1.143-1.203,2.281-1.848,3.398l1.194-3.672c0.408-1.219,0.725-2.472,1.271-3.634c0.958-2.374,1.892-4.761,2.802-7.157
		c0.911-2.394,1.802-4.795,2.666-7.208c0.833-2.342,1.68-4.704,2.386-7.056c-0.752-1.482-1.39-2.992-2.055-4.469l-0.179-0.395
		l0.334-0.273c0.907-0.735,1.826-1.445,2.765-2.142c-0.194-0.688-0.352-1.373-0.535-2.046c-0.195-0.802-0.271-1.629-0.429-2.432
		c-0.289-1.618-0.662-3.214-1.203-4.782c0.85,1.428,1.463,2.996,2.011,4.57c0.257,0.793,0.559,1.576,0.742,2.381
		c0.165,0.806,0.37,1.601,0.592,2.365l0.111,0.384l-0.317,0.235c-0.909,0.667-1.809,1.364-2.691,2.073
		C98.279,104.569,98.892,106,99.591,107.362z"/>
</g>
</svg>
