<?xml version="1.0" encoding="utf-8"?>
<!-- Generator: Adobe Illustrator 18.1.1, SVG Export Plug-In . SVG Version: 6.00 Build 0)  -->
<svg version="1.1" id="Layer_1" xmlns="http://www.w3.org/2000/svg" xmlns:xlink="http://www.w3.org/1999/xlink" x="0px" y="0px"
	 viewBox="-397 461.7 204.7 79.3" enable-background="new -397 461.7 204.7 79.3" xml:space="preserve">
<g>
	<g>
		<path fill="#FFFFFF" d="M-201.2,480.8c-5.7-6-13.4-9.3-21.6-9.3h-87.5c0.1,0.7,0.1,1.3,0.1,1.9h87.4c7.7,0,14.8,3.1,20.3,8.8
			c5.5,5.6,8.4,13.2,8.4,21.2c0,16.6-12.9,30-28.6,30h-118c-1.8,0.8-3.7,1.5-5.6,1.9h123.6c16.8,0,30.6-14.3,30.6-31.9
			C-192.2,494.9-195.5,486.9-201.2,480.8z M-319.1,473.2L-319.1,473.2L-319.1,473.2L-319.1,473.2z"/>
	</g>
	<g>
		<path fill="#FFFFFF" d="M-321.5,503.4c0,13.3-8,24.8-19.4,30c-1.8,0.8-3.7,1.5-5.6,1.9c-2.5,0.6-5.2,1-8,1
			c-18.2,0-32.9-14.8-32.9-32.9c0-18.2,14.8-32.9,32.9-32.9c2.7,0,5.4,0.3,8,1h4.8c0,0.5-0.1,1.1-0.1,1.6c0,0.1,0,0.3,0,0.4
			c0,1.2,0,2.3,0,3.5c0,0.1,0,0.3,0,0.4c-3.8-1.9-8.1-2.9-12.6-2.9c-16.1,0-29,13-29,29c0,16,13,29,29,29c16,0,29-13,29-29
			c0-0.8,0-1.6-0.1-2.2c1.3-0.6,2.5-1.3,3.7-2C-321.5,500.5-321.5,502-321.5,503.4z"/>
	</g>
	<g>
		<path fill="#FFFFFF" d="M-247.6,512.6c0-0.5,0.2-0.9,0.5-1.2c0.3-0.3,0.7-0.4,1.1-0.4c0.5,0,0.9,0.1,1.1,0.4
			c0.2,0.3,0.4,0.7,0.4,1.2H-247.6L-247.6,512.6z M-243.4,510.3c-0.7-0.7-1.6-1.1-2.8-1.1c-1.2,0-2,0.4-2.6,1.1
			c-0.6,0.7-0.9,1.8-0.9,3c0,1.4,0.3,2.3,1,3.1c0.7,0.7,1.6,1.1,2.6,1.1c1,0,1.8-0.2,2.3-0.7s1.1-1.1,1.3-1.9h-1.5
			c-0.2,0-0.4,0.1-0.6,0.1c-0.1,0.1-0.2,0.2-0.2,0.2c-0.1,0.1-0.1,0.1-0.2,0.2c-0.1,0-0.1,0.1-0.2,0.1c-0.3,0.1-0.5,0.2-0.9,0.2
			c-0.5,0-0.9-0.2-1.2-0.5c-0.3-0.3-0.4-0.8-0.5-1.4h5.2c0,0,0-0.1,0-0.2v-0.3C-242.4,512.1-242.8,511-243.4,510.3L-243.4,510.3z
			 M-251.1,509.5c-0.5,0-0.8,0.2-1,0.7l-1.4,4.9l-1.6-5.6h-2.2l2.7,7.9h2.1l2.8-7.9H-251.1L-251.1,509.5z M-259.3,515.1
			c-0.3,0.4-0.5,0.6-0.8,0.7c-0.3,0.1-0.6,0.1-0.9,0c-0.3-0.1-0.5-0.3-0.6-0.4c-0.3-0.4-0.5-1-0.5-1.9c0-0.9,0.2-1.6,0.6-2
			c0.1-0.1,0.4-0.3,0.7-0.4c0.3-0.1,0.6-0.1,0.9,0c0.3,0.1,0.6,0.3,0.8,0.7c0.2,0.4,0.4,0.9,0.4,1.7
			C-259,514.1-259.1,514.7-259.3,515.1L-259.3,515.1z M-259.1,509.5c-0.7-0.2-1.4-0.3-2.2-0.2c-0.8,0.1-1.5,0.5-1.9,1.1
			c-0.3,0.4-0.6,0.8-0.7,1.4c-0.2,0.6-0.2,1.1-0.2,1.7c0,0.7,0.1,1.3,0.3,1.9c0.2,0.6,0.5,1.1,0.9,1.5s0.9,0.6,1.6,0.8
			c0.7,0.2,1.4,0.1,1.9,0c0.7-0.2,1.4-0.6,1.9-1.3c0.2-0.3,0.4-0.7,0.6-1.2c0.1-0.5,0.2-1,0.2-1.7c0-0.9-0.2-1.7-0.5-2.3
			C-257.9,510.2-258.4,509.8-259.1,509.5L-259.1,509.5z M-266.1,509.7c-0.5,0.1-1,0.4-1.4,0.7s-0.7,0.8-1,1.3
			c-0.2,0.5-0.4,1.2-0.4,1.9v3.9h2v-4.2c0-0.6,0.1-1.1,0.4-1.3c0.3-0.3,0.7-0.4,1.3-0.4h0.7v-2.1h-0.3
			C-265.2,509.5-265.7,509.5-266.1,509.7L-266.1,509.7z M-271.8,515.1c-0.3,0.4-0.7,0.6-1.3,0.6c-0.6,0-1-0.2-1.3-0.6
			c-0.3-0.4-0.5-1-0.5-1.7c0-0.8,0.2-1.5,0.4-1.8c0.3-0.4,0.7-0.6,1.3-0.6c0.6,0,1,0.2,1.3,0.6c0.3,0.4,0.5,1,0.5,1.8
			C-271.3,514.1-271.5,514.7-271.8,515.1L-271.8,515.1z M-271.4,509.5c-0.5-0.2-1-0.3-1.6-0.3c-1,0-1.9,0.3-2.6,0.8
			c-0.8,0.5-1.3,1.5-1.3,2.8v7.4h1c0.3,0,0.5-0.1,0.7-0.3s0.3-0.5,0.3-0.7v-2.9c0.3,0.4,0.6,0.7,1,0.9c0.4,0.2,0.8,0.3,1.3,0.3
			c1,0,1.7-0.4,2.3-1.2c0.6-0.8,0.9-1.8,0.9-3c0-1.2-0.3-2.2-0.9-3C-270.4,509.9-270.8,509.8-271.4,509.5L-271.4,509.5z
			 M-279.7,515.1c-0.3,0.4-0.7,0.6-1.3,0.6c-0.6,0-1-0.2-1.3-0.6c-0.3-0.4-0.5-1-0.5-1.7c0-0.8,0.1-1.5,0.4-1.8
			c0.3-0.4,0.7-0.6,1.3-0.6c0.6,0,1,0.2,1.3,0.6c0.3,0.4,0.5,1,0.5,1.8C-279.3,514.1-279.4,514.7-279.7,515.1L-279.7,515.1z
			 M-279.3,509.5c-0.5-0.2-1-0.3-1.5-0.3c-1,0-1.9,0.3-2.6,0.8c-0.8,0.5-1.2,1.5-1.2,2.8v7.4h1c0.3,0,0.5-0.1,0.7-0.3
			s0.3-0.5,0.3-0.7v-2.9c0.2,0.4,0.6,0.7,1,0.9c0.4,0.2,0.8,0.3,1.3,0.3c0.9,0,1.7-0.4,2.3-1.2c0.6-0.8,0.9-1.8,0.9-3
			c0-1.2-0.3-2.2-0.9-3C-278.4,509.9-278.8,509.8-279.3,509.5L-279.3,509.5z M-287.2,514c0,0.6-0.2,1-0.5,1.3
			c-0.3,0.3-0.8,0.5-1.3,0.5c-0.6,0-1.1-0.3-1.1-1c0-1,1-1.1,1.7-1.2c0.5-0.1,0.9-0.3,1.2-0.4L-287.2,514L-287.2,514z M-286.1,509.8
			c-0.6-0.4-1.4-0.6-2.5-0.6c-1,0-1.8,0.2-2.2,0.7c-0.5,0.4-0.8,0.9-0.9,1.6h1.9c0.1-0.2,0.3-0.4,0.5-0.5s0.5-0.1,0.8-0.1
			c0.5,0,1.4,0.1,1.4,0.7c0,0.4-0.4,0.7-1.3,0.8c-0.4,0-0.7,0.1-1.1,0.2c-1.4,0.3-2.3,1-2.3,2.4c0,0.9,0.3,1.6,0.8,1.9
			c1.2,0.8,3.2,0.8,4.5,0.1c0.4-0.2,0.8-0.5,1-1c0.3-0.5,0.4-1.1,0.4-1.9v-2.7C-285.2,510.7-285.5,510.2-286.1,509.8z"/>
		<path fill="#FFFFFF" d="M-216,515.3l-0.3-5.7c-0.1-2.5-2.4-4.3-5-4.1l-16,1.7c-2,0.2-3.4,2.1-3.4,4.1l-0.1,4.7
			c-0.1,1.9,1.3,4,3.3,4l6.6,0.1c-0.2,1.2-0.6,1.8-1.7,2.8c2.6-0.6,4.3-1.3,5.6-2.7l6.1,0.1C-218.1,520.2-215.9,518-216,515.3z
			 M-226.6,517.2h-1.1c-0.3,0-0.6-0.1-0.8-0.3c-0.2-0.2-0.3-0.5-0.3-0.8V512c0-0.5-0.1-0.8-0.4-1.1c-0.3-0.2-0.6-0.3-1-0.3
			c-0.4,0-0.7,0.1-1,0.3c-0.3,0.2-0.5,0.6-0.5,1.1v5.1h-2V512c0-0.9-0.6-1.4-1.4-1.4c-0.8,0-1.4,0.6-1.4,1.4v5.1h-2v-4.7
			c0-1.9,0.7-2.9,2.4-3.3c1.2-0.3,2.5-0.1,3.5,0.6c0.3-0.3,0.7-0.5,1.1-0.6c0.4-0.1,0.8-0.2,1.3-0.2c2.2,0,3.5,1.2,3.5,3.5
			L-226.6,517.2L-226.6,517.2z M-218.8,513.5c0,0.1,0,0.2,0,0.2h-5.2c0,0.6,0.2,1.1,0.5,1.4c0.3,0.3,0.7,0.5,1.2,0.5
			c0.3,0,0.6-0.1,0.9-0.2c0.1,0,0.1-0.1,0.2-0.1c0.1-0.1,0.1-0.1,0.2-0.2c0-0.1,0.1-0.1,0.2-0.2c0.1-0.1,0.3-0.2,0.6-0.2h1.5
			c-0.2,0.8-0.7,1.5-1.3,1.9c-0.6,0.5-1.4,0.7-2.3,0.7c-1.2,0-2-0.4-2.6-1.1c-0.7-0.7-1-1.8-1-3.1c0-1.3,0.3-2.2,0.9-3
			c0.7-0.8,1.6-1.1,2.6-1.1c1.2,0,2.1,0.4,2.7,1.1c0.7,0.8,1,1.8,1,3.1L-218.8,513.5L-218.8,513.5z M-222.4,510.8
			c-0.5,0-0.8,0.1-1.1,0.4c-0.3,0.3-0.4,0.7-0.5,1.2h3c0-0.5-0.2-1-0.4-1.2C-221.6,510.9-222,510.8-222.4,510.8z"/>
		<g enable-background="new    ">
			<path fill="#FFFFFF" d="M-214.7,506v2.4h-0.4V506h-0.8v-0.3h1.9v0.3H-214.7z M-211.1,508.5v-2.3l-0.9,2.3h-0.1l-0.9-2.3v2.3h-0.4
				v-2.8h0.5l0.8,2l0.8-2h0.5v2.8H-211.1z"/>
		</g>
	</g>
	<g>
		<path fill="#FFFFFF" d="M-342.4,496v-3.7c0-6.5-5.4-11.8-11.9-11.8c-6.5,0-11.9,5.3-11.9,11.8v3.7h-2.6v23.9h29.1V496H-342.4z
			 M-352.4,514.6h-4.4l1.1-6c-0.7-0.4-1.1-1.1-1.1-1.9c0-1.3,1-2.2,2.2-2.2s2.2,1,2.2,2.2c0,0.8-0.5,1.5-1.1,1.9L-352.4,514.6z
			 M-347.6,496h-13.2v-3.7c0-3.5,3-6.4,6.6-6.4s6.6,2.9,6.6,6.4V496L-347.6,496z"/>
	</g>
	<g>
		<path fill="#FFFFFF" d="M-340.8,473.4c0.2,0.1,0.4,0.2,0.6,0.3c0-0.1,0-0.2,0-0.3H-340.8z M-340.8,473.4c0.2,0.1,0.4,0.2,0.6,0.3
			c0-0.1,0-0.2,0-0.3H-340.8z M-340.8,473.4c0.2,0.1,0.4,0.2,0.6,0.3c0-0.1,0-0.2,0-0.3H-340.8z M-340.8,473.4
			c0.2,0.1,0.4,0.2,0.6,0.3c0-0.1,0-0.2,0-0.3H-340.8z M-340.8,473.4c0.2,0.1,0.4,0.2,0.6,0.3c0-0.1,0-0.2,0-0.3H-340.8z
			 M-340.8,473.4c0.2,0.1,0.4,0.2,0.6,0.3c0-0.1,0-0.2,0-0.3H-340.8z M-340.8,473.4c0.2,0.1,0.4,0.2,0.6,0.3c0-0.1,0-0.2,0-0.3
			H-340.8z M-340.8,473.4c0.2,0.1,0.4,0.2,0.6,0.3c0-0.1,0-0.2,0-0.3H-340.8z M-340.8,473.4c0.2,0.1,0.4,0.2,0.6,0.3
			c0-0.1,0-0.2,0-0.3H-340.8z M-340.8,473.4c0.2,0.1,0.4,0.2,0.6,0.3c0-0.1,0-0.2,0-0.3H-340.8z M-340.8,473.4
			c0.2,0.1,0.4,0.2,0.6,0.3c0-0.1,0-0.2,0-0.3H-340.8z"/>
		<path fill="#FFFFFF" d="M-310.3,473.4c0-0.7-0.1-1.3-0.1-1.9c-0.1-1.2-0.2-2.3-0.4-3.4c-3.2,0.2-6.5-0.4-9.6-1.3
			c-1.9-0.6-3.8-1.3-5.6-2.1c-2,1-4.3,1.8-6.5,2.3c-2.8,0.8-5.8,1.3-8.8,1c-0.2,1.2-0.3,2.3-0.4,3.5c0,0.5-0.1,1.1-0.1,1.6
			c0,0.1,0,0.3,0,0.4c0,1.2,0,2.3,0,3.5c0,0.1,0,0.3,0,0.4c0.1,2.2,0.4,4.5,1,6.6c0.8,3.3,2.2,6.4,4.2,9.2c1.9,2.6,4.4,4.9,7.1,6.6
			c1.1,0.7,2.2,1.3,3.4,1.7c0.2-0.1,0.4-0.2,0.6-0.3c1.3-0.6,2.5-1.3,3.7-2c0.1-0.1,0.3-0.2,0.4-0.3c2-1.5,3.9-3.2,5.5-5.3
			c1.5-1.9,2.7-4.2,3.6-6.5c1-2.5,1.6-5.3,1.9-7.9C-310.3,477.2-310.2,475.3-310.3,473.4z M-311.9,480.1c-0.3,2.3-0.8,4.7-1.6,6.7
			c-0.8,2-1.9,3.9-3.1,5.6c-1.4,1.8-2.9,3.2-4.7,4.5c-0.3,0.2-0.5,0.3-0.7,0.5c-1.2,0.8-2.3,1.4-3.4,1.8l-0.2,0.1l-0.5,0.2l-0.7-0.3
			c-1-0.4-1.9-0.9-3-1.5c-2.3-1.5-4.5-3.4-6.1-5.7s-2.9-5-3.6-7.9c-0.5-1.9-0.8-3.8-0.9-5.8c0-0.1,0-0.2,0-0.3c0-1.4,0-2.8,0.1-4.3
			c-0.2-0.1-0.4-0.2-0.6-0.3h0.6c0-0.7,0.1-1.3,0.2-1.9c0-0.2,0-0.3,0.1-0.5l0.3-1.8l1.8,0.1c1.9,0.1,3.9-0.1,6.2-0.8
			c1.7-0.5,3.3-1,4.8-1.8l0.8-0.4l0.8,0.4c1.3,0.6,2.6,1.1,4.2,1.6c2.6,0.8,4.9,1.1,6.8,0.9l1.8-0.1l0.3,1.8c0,0.2,0,0.3,0.1,0.5
			c0.1,0.7,0.2,1.4,0.2,1.9C-311.7,475.8-311.7,478-311.9,480.1z"/>
	</g>
	<g>
		<g>
			<path fill="#FFFFFF" d="M-315.8,473.4c0-0.1,0-0.1,0-0.2c-1.9-0.1-4.1-0.4-6.3-1.1c-0.7-0.2-1.5-0.4-2-0.7
				c-0.6-0.2-1.3-0.5-1.8-0.7c-0.6,0.3-1.2,0.5-1.9,0.7c-0.9,0.3-1.9,0.6-2.7,0.9c-2,0.5-3.9,0.9-5.6,0.9c0,0.1,0,0.1,0,0.2
				c-0.1,0.8-0.1,1.6-0.2,2.3c0,0.8,0,1.6,0,2.3c0,0.9,0.1,1.8,0.3,2.6c0.1,0.9,0.3,1.7,0.5,2.4c0.6,2.4,1.7,4.7,3,6.5
				c1.4,1.9,3.1,3.5,5.1,4.7c0.4,0.3,0.8,0.5,1.2,0.7c0.2,0.1,0.3,0.2,0.5,0.2c0.8-0.4,1.7-0.9,2.5-1.5c0.2-0.1,0.4-0.3,0.5-0.4
				c1.3-1,2.3-2,3.3-3.3c1.1-1.4,1.9-2.9,2.5-4.6c0.7-1.8,1.1-3.7,1.4-5.7C-315.6,477.8-315.6,475.7-315.8,473.4z M-326.5,485.8
				l-0.6,0.8l-1,1.1l-0.9-1.2l-3.9-4.4l1.3-2.5l1.9,1.9l1.9,1.9l8.7-10l0.1-0.1l0.1,0.1l1.2,1.2L-326.5,485.8z"/>
		</g>
	</g>
	<g enable-background="new    ">
		<path fill="#FFFFFF" d="M-300.2,500l-5.1-12.7h3.6l3.3,8.9l3.3-8.9h3.6l-5.1,12.7H-300.2z"/>
		<path fill="#FFFFFF" d="M-290.8,493.7c0-3.7,2.7-6.7,6.6-6.7c3.8,0,6.4,2.8,6.4,7v0.8h-9.5c0.2,1.6,1.5,2.8,3.7,2.8
			c1.1,0,2.6-0.4,3.4-1.2l1.5,2.2c-1.3,1.2-3.3,1.8-5.2,1.8C-287.8,500.4-290.8,497.7-290.8,493.7z M-284.2,489.7
			c-2.1,0-3,1.5-3.1,2.7h6.3C-281.1,491.2-281.9,489.7-284.2,489.7z"/>
		<path fill="#FFFFFF" d="M-275.3,500v-12.7h3.3v1.7c0.9-1.1,2.5-2,4.1-2v3.3c-0.2-0.1-0.5-0.1-0.9-0.1c-1.1,0-2.6,0.6-3.1,1.5v8.4
			H-275.3z"/>
		<path fill="#FFFFFF" d="M-266.2,483.9c0-1.1,0.9-2,2-2c1.1,0,2,0.9,2,2c0,1.1-0.9,2-2,2C-265.3,485.9-266.2,485-266.2,483.9z
			 M-265.9,500v-12.7h3.3V500H-265.9z"/>
		<path fill="#FFFFFF" d="M-258.4,500v-9.8h-2.1v-2.9h2.1v-0.5c0-3,1.8-4.6,4.3-4.6c1,0,1.8,0.2,2.4,0.5l-0.7,2.5
			c-0.3-0.2-0.6-0.3-1.1-0.3c-0.9,0-1.6,0.6-1.6,1.8v0.5h2.6v2.9h-2.6v9.8H-258.4z M-250.9,483.9c0-1.1,0.9-2,2-2c1.1,0,2,0.9,2,2
			c0,1.1-0.9,2-2,2C-250,485.9-250.9,485-250.9,483.9z M-250.6,500v-12.7h3.3V500H-250.6z"/>
		<path fill="#FFFFFF" d="M-244.7,493.7c0-3.7,2.7-6.7,6.6-6.7c3.8,0,6.4,2.8,6.4,7v0.8h-9.5c0.2,1.6,1.5,2.8,3.7,2.8
			c1.1,0,2.6-0.4,3.4-1.2l1.5,2.2c-1.3,1.2-3.3,1.8-5.2,1.8C-241.8,500.4-244.7,497.7-244.7,493.7z M-238.1,489.7
			c-2.1,0-3,1.5-3.1,2.7h6.3C-235,491.2-235.9,489.7-238.1,489.7z"/>
		<path fill="#FFFFFF" d="M-220.5,500v-1.6c-1,1.3-2.4,2-3.9,2c-3.2,0-5.6-2.4-5.6-6.7c0-4.1,2.4-6.7,5.6-6.7c1.5,0,2.9,0.6,3.9,2
			v-6.5h3.4V500H-220.5z M-220.5,495.9v-4.5c-0.6-0.8-1.8-1.5-2.9-1.5c-1.9,0-3.2,1.5-3.2,3.7c0,2.2,1.3,3.7,3.2,3.7
			C-222.3,497.4-221.1,496.8-220.5,495.9z"/>
	</g>
	<g enable-background="new    ">
		<path fill="#FFFFFF" d="M-305.3,515.7v-6.5h0.7v2.5c0.4-0.5,1-0.8,1.6-0.8c1.2,0,2.1,1,2.1,2.5c0,1.5-0.9,2.5-2.1,2.5
			c-0.7,0-1.2-0.3-1.6-0.8v0.7H-305.3z M-303.2,515.2c0.9,0,1.5-0.8,1.5-1.8c0-1-0.6-1.8-1.5-1.8c-0.6,0-1.2,0.4-1.4,0.8v2.1
			C-304.3,514.8-303.8,515.2-303.2,515.2z"/>
		<path fill="#FFFFFF" d="M-299.9,516.9c0.1,0,0.3,0.1,0.4,0.1c0.3,0,0.5-0.1,0.7-0.5l0.3-0.7l-2-4.8h0.8l1.6,3.9l1.6-3.9h0.8
			l-2.4,5.7c-0.3,0.7-0.8,0.9-1.4,1c-0.2,0-0.4,0-0.5-0.1L-299.9,516.9z"/>
	</g>
</g>
</svg>
