<?xml version="1.0" encoding="utf-8"?>
<!-- Generator: Adobe Illustrator 20.0.0, SVG Export Plug-In . SVG Version: 6.00 Build 0)  -->
<svg version="1.1" id="Layer_1" xmlns="http://www.w3.org/2000/svg" xmlns:xlink="http://www.w3.org/1999/xlink" x="0px" y="0px"
	 width="204.7px" height="79.3px" viewBox="0 0 204.7 79.3" style="enable-background:new 0 0 204.7 79.3;" xml:space="preserve">
<style type="text/css">
	.st0{enable-background:new    ;}
</style>
<g>
	<g>
		<path d="M190.9,16.1c-5.7-6-13.4-9.3-21.6-9.3H81.8c0.1,0.7,0.1,1.3,0.1,1.9h87.4c7.7,0,14.8,3.1,20.3,8.8
			c5.5,5.6,8.4,13.2,8.4,21.2c0,16.6-12.9,30-28.6,30h-118c-1.8,0.8-3.7,1.5-5.6,1.9h123.6c16.8,0,30.6-14.3,30.6-31.9
			C199.9,30.2,196.6,22.2,190.9,16.1z M73,8.5L73,8.5L73,8.5L73,8.5z"/>
	</g>
	<g>
		<path d="M70.6,38.7c0,13.3-8,24.8-19.4,30c-1.8,0.8-3.7,1.5-5.6,1.9c-2.5,0.6-5.2,1-8,1c-18.2,0-32.9-14.8-32.9-32.9
			c0-18.2,14.8-32.9,32.9-32.9c2.7,0,5.4,0.3,8,1h4.8c0,0.5-0.1,1.1-0.1,1.6c0,0.1,0,0.3,0,0.4c0,1.2,0,2.3,0,3.5c0,0.1,0,0.3,0,0.4
			c-3.8-1.9-8.1-2.9-12.6-2.9c-16.1,0-29,13-29,29s13,29,29,29s29-13,29-29c0-0.8,0-1.6-0.1-2.2c1.3-0.6,2.5-1.3,3.7-2
			C70.6,35.8,70.6,37.3,70.6,38.7z"/>
	</g>
	<g>
		<path d="M144.5,47.9c0-0.5,0.2-0.9,0.5-1.2c0.3-0.3,0.7-0.4,1.1-0.4c0.5,0,0.9,0.1,1.1,0.4c0.2,0.3,0.4,0.7,0.4,1.2H144.5
			L144.5,47.9z M148.7,45.6c-0.7-0.7-1.6-1.1-2.8-1.1c-1.2,0-2,0.4-2.6,1.1s-0.9,1.8-0.9,3c0,1.4,0.3,2.3,1,3.1
			c0.7,0.7,1.6,1.1,2.6,1.1s1.8-0.2,2.3-0.7s1.1-1.1,1.3-1.9h-1.5c-0.2,0-0.4,0.1-0.6,0.1c-0.1,0.1-0.2,0.2-0.2,0.2
			c-0.1,0.1-0.1,0.1-0.2,0.2c-0.1,0-0.1,0.1-0.2,0.1c-0.3,0.1-0.5,0.2-0.9,0.2c-0.5,0-0.9-0.2-1.2-0.5c-0.3-0.3-0.4-0.8-0.5-1.4h5.2
			c0,0,0-0.1,0-0.2v-0.3C149.7,47.4,149.3,46.3,148.7,45.6L148.7,45.6z M141,44.8c-0.5,0-0.8,0.2-1,0.7l-1.4,4.9l-1.6-5.6h-2.2
			l2.7,7.9h2.1l2.8-7.9L141,44.8L141,44.8z M132.8,50.4c-0.3,0.4-0.5,0.6-0.8,0.7c-0.3,0.1-0.6,0.1-0.9,0s-0.5-0.3-0.6-0.4
			c-0.3-0.4-0.5-1-0.5-1.9s0.2-1.6,0.6-2c0.1-0.1,0.4-0.3,0.7-0.4c0.3-0.1,0.6-0.1,0.9,0s0.6,0.3,0.8,0.7c0.2,0.4,0.4,0.9,0.4,1.7
			C133.1,49.4,133,50,132.8,50.4L132.8,50.4z M133,44.8c-0.7-0.2-1.4-0.3-2.2-0.2c-0.8,0.1-1.5,0.5-1.9,1.1
			c-0.3,0.4-0.6,0.8-0.7,1.4c-0.2,0.6-0.2,1.1-0.2,1.7c0,0.7,0.1,1.3,0.3,1.9c0.2,0.6,0.5,1.1,0.9,1.5s0.9,0.6,1.6,0.8
			s1.4,0.1,1.9,0c0.7-0.2,1.4-0.6,1.9-1.3c0.2-0.3,0.4-0.7,0.6-1.2c0.1-0.5,0.2-1,0.2-1.7c0-0.9-0.2-1.7-0.5-2.3
			C134.2,45.5,133.7,45.1,133,44.8L133,44.8z M126,45c-0.5,0.1-1,0.4-1.4,0.7s-0.7,0.8-1,1.3c-0.2,0.5-0.4,1.2-0.4,1.9v3.9h2v-4.2
			c0-0.6,0.1-1.1,0.4-1.3c0.3-0.3,0.7-0.4,1.3-0.4h0.7v-2.1h-0.3C126.9,44.8,126.4,44.8,126,45L126,45z M120.3,50.4
			c-0.3,0.4-0.7,0.6-1.3,0.6c-0.6,0-1-0.2-1.3-0.6c-0.3-0.4-0.5-1-0.5-1.7c0-0.8,0.2-1.5,0.4-1.8c0.3-0.4,0.7-0.6,1.3-0.6
			c0.6,0,1,0.2,1.3,0.6s0.5,1,0.5,1.8C120.8,49.4,120.6,50,120.3,50.4L120.3,50.4z M120.7,44.8c-0.5-0.2-1-0.3-1.6-0.3
			c-1,0-1.9,0.3-2.6,0.8c-0.8,0.5-1.3,1.5-1.3,2.8v7.4h1c0.3,0,0.5-0.1,0.7-0.3s0.3-0.5,0.3-0.7v-2.9c0.3,0.4,0.6,0.7,1,0.9
			s0.8,0.3,1.3,0.3c1,0,1.7-0.4,2.3-1.2c0.6-0.8,0.9-1.8,0.9-3s-0.3-2.2-0.9-3C121.7,45.2,121.3,45.1,120.7,44.8L120.7,44.8z
			 M112.4,50.4c-0.3,0.4-0.7,0.6-1.3,0.6c-0.6,0-1-0.2-1.3-0.6c-0.3-0.4-0.5-1-0.5-1.7c0-0.8,0.1-1.5,0.4-1.8
			c0.3-0.4,0.7-0.6,1.3-0.6c0.6,0,1,0.2,1.3,0.6s0.5,1,0.5,1.8C112.8,49.4,112.7,50,112.4,50.4L112.4,50.4z M112.8,44.8
			c-0.5-0.2-1-0.3-1.5-0.3c-1,0-1.9,0.3-2.6,0.8c-0.8,0.5-1.2,1.5-1.2,2.8v7.4h1c0.3,0,0.5-0.1,0.7-0.3s0.3-0.5,0.3-0.7v-2.9
			c0.2,0.4,0.6,0.7,1,0.9s0.8,0.3,1.3,0.3c0.9,0,1.7-0.4,2.3-1.2c0.6-0.8,0.9-1.8,0.9-3s-0.3-2.2-0.9-3
			C113.7,45.2,113.3,45.1,112.8,44.8L112.8,44.8z M104.9,49.3c0,0.6-0.2,1-0.5,1.3s-0.8,0.5-1.3,0.5c-0.6,0-1.1-0.3-1.1-1
			c0-1,1-1.1,1.7-1.2c0.5-0.1,0.9-0.3,1.2-0.4L104.9,49.3L104.9,49.3z M106,45.1c-0.6-0.4-1.4-0.6-2.5-0.6c-1,0-1.8,0.2-2.2,0.7
			c-0.5,0.4-0.8,0.9-0.9,1.6h1.9c0.1-0.2,0.3-0.4,0.5-0.5s0.5-0.1,0.8-0.1c0.5,0,1.4,0.1,1.4,0.7c0,0.4-0.4,0.7-1.3,0.8
			c-0.4,0-0.7,0.1-1.1,0.2c-1.4,0.3-2.3,1-2.3,2.4c0,0.9,0.3,1.6,0.8,1.9c1.2,0.8,3.2,0.8,4.5,0.1c0.4-0.2,0.8-0.5,1-1
			c0.3-0.5,0.4-1.1,0.4-1.9v-2.7C106.9,46,106.6,45.5,106,45.1z"/>
		<path d="M176.1,50.6l-0.3-5.7c-0.1-2.5-2.4-4.3-5-4.1l-16,1.7c-2,0.2-3.4,2.1-3.4,4.1l-0.1,4.7c-0.1,1.9,1.3,4,3.3,4l6.6,0.1
			c-0.2,1.2-0.6,1.8-1.7,2.8c2.6-0.6,4.3-1.3,5.6-2.7l6.1,0.1C174,55.5,176.2,53.3,176.1,50.6z M165.5,52.5h-1.1
			c-0.3,0-0.6-0.1-0.8-0.3c-0.2-0.2-0.3-0.5-0.3-0.8v-4.1c0-0.5-0.1-0.8-0.4-1.1c-0.3-0.2-0.6-0.3-1-0.3s-0.7,0.1-1,0.3
			c-0.3,0.2-0.5,0.6-0.5,1.1v5.1h-2v-5.1c0-0.9-0.6-1.4-1.4-1.4c-0.8,0-1.4,0.6-1.4,1.4v5.1h-2v-4.7c0-1.9,0.7-2.9,2.4-3.3
			c1.2-0.3,2.5-0.1,3.5,0.6c0.3-0.3,0.7-0.5,1.1-0.6c0.4-0.1,0.8-0.2,1.3-0.2c2.2,0,3.5,1.2,3.5,3.5L165.5,52.5L165.5,52.5z
			 M173.3,48.8c0,0.1,0,0.2,0,0.2h-5.2c0,0.6,0.2,1.1,0.5,1.4c0.3,0.3,0.7,0.5,1.2,0.5c0.3,0,0.6-0.1,0.9-0.2c0.1,0,0.1-0.1,0.2-0.1
			c0.1-0.1,0.1-0.1,0.2-0.2c0-0.1,0.1-0.1,0.2-0.2c0.1-0.1,0.3-0.2,0.6-0.2h1.5c-0.2,0.8-0.7,1.5-1.3,1.9c-0.6,0.5-1.4,0.7-2.3,0.7
			c-1.2,0-2-0.4-2.6-1.1c-0.7-0.7-1-1.8-1-3.1s0.3-2.2,0.9-3c0.7-0.8,1.6-1.1,2.6-1.1c1.2,0,2.1,0.4,2.7,1.1c0.7,0.8,1,1.8,1,3.1
			L173.3,48.8L173.3,48.8z M169.7,46.1c-0.5,0-0.8,0.1-1.1,0.4c-0.3,0.3-0.4,0.7-0.5,1.2h3c0-0.5-0.2-1-0.4-1.2
			C170.5,46.2,170.1,46.1,169.7,46.1z"/>
		<g class="st0">
			<path d="M177.4,41.3v2.4H177v-2.4h-0.8V41h1.9v0.3H177.4z M181,43.8v-2.3l-0.9,2.3H180l-0.9-2.3v2.3h-0.4V41h0.5l0.8,2l0.8-2h0.5
				v2.8H181z"/>
		</g>
	</g>
	<g>
		<path d="M49.7,31.3v-3.7c0-6.5-5.4-11.8-11.9-11.8s-11.9,5.3-11.9,11.8v3.7h-2.6v23.9h29.1V31.3H49.7z M39.7,49.9h-4.4l1.1-6
			c-0.7-0.4-1.1-1.1-1.1-1.9c0-1.3,1-2.2,2.2-2.2s2.2,1,2.2,2.2c0,0.8-0.5,1.5-1.1,1.9L39.7,49.9z M44.5,31.3H31.3v-3.7
			c0-3.5,3-6.4,6.6-6.4s6.6,2.9,6.6,6.4V31.3L44.5,31.3z"/>
	</g>
	<g>
		<path d="M51.3,8.7c0.2,0.1,0.4,0.2,0.6,0.3c0-0.1,0-0.2,0-0.3H51.3z M51.3,8.7c0.2,0.1,0.4,0.2,0.6,0.3c0-0.1,0-0.2,0-0.3H51.3z
			 M51.3,8.7c0.2,0.1,0.4,0.2,0.6,0.3c0-0.1,0-0.2,0-0.3H51.3z M51.3,8.7c0.2,0.1,0.4,0.2,0.6,0.3c0-0.1,0-0.2,0-0.3H51.3z
			 M51.3,8.7c0.2,0.1,0.4,0.2,0.6,0.3c0-0.1,0-0.2,0-0.3H51.3z M51.3,8.7c0.2,0.1,0.4,0.2,0.6,0.3c0-0.1,0-0.2,0-0.3H51.3z
			 M51.3,8.7c0.2,0.1,0.4,0.2,0.6,0.3c0-0.1,0-0.2,0-0.3H51.3z M51.3,8.7c0.2,0.1,0.4,0.2,0.6,0.3c0-0.1,0-0.2,0-0.3H51.3z
			 M51.3,8.7c0.2,0.1,0.4,0.2,0.6,0.3c0-0.1,0-0.2,0-0.3H51.3z M51.3,8.7c0.2,0.1,0.4,0.2,0.6,0.3c0-0.1,0-0.2,0-0.3H51.3z
			 M51.3,8.7c0.2,0.1,0.4,0.2,0.6,0.3c0-0.1,0-0.2,0-0.3H51.3z"/>
		<path d="M81.8,8.7c0-0.7-0.1-1.3-0.1-1.9c-0.1-1.2-0.2-2.3-0.4-3.4c-3.2,0.2-6.5-0.4-9.6-1.3c-1.9-0.6-3.8-1.3-5.6-2.1
			c-2,1-4.3,1.8-6.5,2.3c-2.8,0.8-5.8,1.3-8.8,1c-0.2,1.2-0.3,2.3-0.4,3.5c0,0.5-0.1,1.1-0.1,1.6c0,0.1,0,0.3,0,0.4
			c0,1.2,0,2.3,0,3.5c0,0.1,0,0.3,0,0.4c0.1,2.2,0.4,4.5,1,6.6c0.8,3.3,2.2,6.4,4.2,9.2c1.9,2.6,4.4,4.9,7.1,6.6
			c1.1,0.7,2.2,1.3,3.4,1.7c0.2-0.1,0.4-0.2,0.6-0.3c1.3-0.6,2.5-1.3,3.7-2c0.1-0.1,0.3-0.2,0.4-0.3c2-1.5,3.9-3.2,5.5-5.3
			c1.5-1.9,2.7-4.2,3.6-6.5c1-2.5,1.6-5.3,1.9-7.9C81.8,12.5,81.9,10.6,81.8,8.7z M80.2,15.4c-0.3,2.3-0.8,4.7-1.6,6.7
			c-0.8,2-1.9,3.9-3.1,5.6c-1.4,1.8-2.9,3.2-4.7,4.5c-0.3,0.2-0.5,0.3-0.7,0.5c-1.2,0.8-2.3,1.4-3.4,1.8l-0.2,0.1L66,34.8l-0.7-0.3
			c-1-0.4-1.9-0.9-3-1.5c-2.3-1.5-4.5-3.4-6.1-5.7s-2.9-5-3.6-7.9c-0.5-1.9-0.8-3.8-0.9-5.8c0-0.1,0-0.2,0-0.3c0-1.4,0-2.8,0.1-4.3
			c-0.2-0.1-0.4-0.2-0.6-0.3h0.6c0-0.7,0.1-1.3,0.2-1.9c0-0.2,0-0.3,0.1-0.5l0.3-1.8l1.8,0.1c1.9,0.1,3.9-0.1,6.2-0.8
			c1.7-0.5,3.3-1,4.8-1.8L66,1.6L66.8,2c1.3,0.6,2.6,1.1,4.2,1.6c2.6,0.8,4.9,1.1,6.8,0.9l1.8-0.1l0.3,1.8c0,0.2,0,0.3,0.1,0.5
			c0.1,0.7,0.2,1.4,0.2,1.9C80.4,11.1,80.4,13.3,80.2,15.4z"/>
	</g>
	<g>
		<g>
			<path d="M76.3,8.7c0-0.1,0-0.1,0-0.2c-1.9-0.1-4.1-0.4-6.3-1.1c-0.7-0.2-1.5-0.4-2-0.7c-0.6-0.2-1.3-0.5-1.8-0.7
				c-0.6,0.3-1.2,0.5-1.9,0.7c-0.9,0.3-1.9,0.6-2.7,0.9c-2,0.5-3.9,0.9-5.6,0.9c0,0.1,0,0.1,0,0.2c-0.1,0.8-0.1,1.6-0.2,2.3
				c0,0.8,0,1.6,0,2.3c0,0.9,0.1,1.8,0.3,2.6c0.1,0.9,0.3,1.7,0.5,2.4c0.6,2.4,1.7,4.7,3,6.5c1.4,1.9,3.1,3.5,5.1,4.7
				c0.4,0.3,0.8,0.5,1.2,0.7c0.2,0.1,0.3,0.2,0.5,0.2c0.8-0.4,1.7-0.9,2.5-1.5c0.2-0.1,0.4-0.3,0.5-0.4c1.3-1,2.3-2,3.3-3.3
				c1.1-1.4,1.9-2.9,2.5-4.6c0.7-1.8,1.1-3.7,1.4-5.7C76.5,13.1,76.5,11,76.3,8.7z M65.6,21.1L65,21.9L64,23l-0.9-1.2l-3.9-4.4
				l1.3-2.5l1.9,1.9l1.9,1.9l8.7-10l0.1-0.1l0.1,0.1l1.2,1.2L65.6,21.1z"/>
		</g>
	</g>
	<g class="st0">
		<path d="M91.9,35.3l-5.1-12.7h3.6l3.3,8.9l3.3-8.9h3.6l-5.1,12.7H91.9z"/>
		<path d="M101.3,29c0-3.7,2.7-6.7,6.6-6.7c3.8,0,6.4,2.8,6.4,7v0.8h-9.5c0.2,1.6,1.5,2.8,3.7,2.8c1.1,0,2.6-0.4,3.4-1.2l1.5,2.2
			c-1.3,1.2-3.3,1.8-5.2,1.8C104.3,35.7,101.3,33,101.3,29z M107.9,25c-2.1,0-3,1.5-3.1,2.7h6.3C111,26.5,110.2,25,107.9,25z"/>
		<path d="M116.8,35.3V22.6h3.3v1.7c0.9-1.1,2.5-2,4.1-2v3.3c-0.2-0.1-0.5-0.1-0.9-0.1c-1.1,0-2.6,0.6-3.1,1.5v8.4L116.8,35.3
			L116.8,35.3z"/>
		<path d="M125.9,19.2c0-1.1,0.9-2,2-2c1.1,0,2,0.9,2,2s-0.9,2-2,2C126.8,21.2,125.9,20.3,125.9,19.2z M126.2,35.3V22.6h3.3v12.7
			H126.2z"/>
		<path d="M133.7,35.3v-9.8h-2.1v-2.9h2.1v-0.5c0-3,1.8-4.6,4.3-4.6c1,0,1.8,0.2,2.4,0.5l-0.7,2.5c-0.3-0.2-0.6-0.3-1.1-0.3
			c-0.9,0-1.6,0.6-1.6,1.8v0.5h2.6v2.9H137v9.8h-3.3V35.3z M141.2,19.2c0-1.1,0.9-2,2-2s2,0.9,2,2s-0.9,2-2,2S141.2,20.3,141.2,19.2
			z M141.5,35.3V22.6h3.3v12.7H141.5z"/>
		<path d="M147.4,29c0-3.7,2.7-6.7,6.6-6.7c3.8,0,6.4,2.8,6.4,7v0.8h-9.5c0.2,1.6,1.5,2.8,3.7,2.8c1.1,0,2.6-0.4,3.4-1.2l1.5,2.2
			c-1.3,1.2-3.3,1.8-5.2,1.8C150.3,35.7,147.4,33,147.4,29z M154,25c-2.1,0-3,1.5-3.1,2.7h6.3C157.1,26.5,156.2,25,154,25z"/>
		<path d="M171.6,35.3v-1.6c-1,1.3-2.4,2-3.9,2c-3.2,0-5.6-2.4-5.6-6.7c0-4.1,2.4-6.7,5.6-6.7c1.5,0,2.9,0.6,3.9,2v-6.5h3.4v17.5
			H171.6z M171.6,31.2v-4.5c-0.6-0.8-1.8-1.5-2.9-1.5c-1.9,0-3.2,1.5-3.2,3.7s1.3,3.7,3.2,3.7C169.8,32.7,171,32.1,171.6,31.2z"/>
	</g>
	<g class="st0">
		<path d="M86.8,51v-6.5h0.7V47c0.4-0.5,1-0.8,1.6-0.8c1.2,0,2.1,1,2.1,2.5s-0.9,2.5-2.1,2.5c-0.7,0-1.2-0.3-1.6-0.8v0.7h-0.7V51z
			 M88.9,50.5c0.9,0,1.5-0.8,1.5-1.8s-0.6-1.8-1.5-1.8c-0.6,0-1.2,0.4-1.4,0.8v2.1C87.8,50.1,88.3,50.5,88.9,50.5z"/>
		<path d="M92.2,52.2c0.1,0,0.3,0.1,0.4,0.1c0.3,0,0.5-0.1,0.7-0.5l0.3-0.7l-2-4.8h0.8l1.6,3.9l1.6-3.9h0.8L94,52
			c-0.3,0.7-0.8,0.9-1.4,1c-0.2,0-0.4,0-0.5-0.1L92.2,52.2z"/>
	</g>
</g>
</svg>
