<?xml version="1.0" encoding="utf-8"?>
<!-- Generator: Adobe Illustrator 18.1.1, SVG Export Plug-In . SVG Version: 6.00 Build 0)  -->
<svg version="1.1" id="Layer_1" xmlns="http://www.w3.org/2000/svg" xmlns:xlink="http://www.w3.org/1999/xlink" x="0px" y="0px"
	 viewBox="-441 490.8 73.8 21.2" enable-background="new -441 490.8 73.8 21.2" xml:space="preserve">
<g>
	<path fill="#2D2D2D" d="M-427.8,505.4l-2.2-9.2l-2.2,9.2h-4l-4.2-14.7h4.2l2.2,9.8l2.5-9.8h2.9l2.5,9.8l2.2-9.8h4.3l-4.2,14.7
		H-427.8z"/>
	<path fill="#2D2D2D" d="M-419.8,505.4v-14.7h7.3c3.3,0,5.1,2.2,5.1,4.9c0,2.6-1.8,4.9-5.1,4.9h-3.6v4.9H-419.8z M-411.2,495.6
		c0-1-0.8-1.6-1.8-1.6h-3v3.1h3C-412,497.2-411.2,496.6-411.2,495.6z"/>
</g>
<path fill="#2D2D2D" d="M-405.5,505.1c-0.6-0.2-1-0.5-1.3-0.8c-0.3-0.4-0.5-0.8-0.6-1.3c-0.1-0.5-0.1-1,0-1.5c0.1-0.5,0.2-1,0.3-1.5
	c0.6-0.6,1.2-1.3,1.9-2c0.7-0.8,1.4-1.5,2.2-2.3c0.8-0.8,1.6-1.4,2.4-2.1c0.8-0.6,1.7-1.1,2.6-1.5c0.3-0.1,0.5-0.1,0.7,0
	c0.2,0.1,0.3,0.4,0.4,0.6c0.1,0.3,0.1,0.6,0.1,1c0,0.4,0,0.8-0.1,1.1c-0.1,0.4-0.1,0.7-0.2,1c-0.1,0.3-0.2,0.5-0.3,0.6
	c-0.2,0.2-0.4,0.4-0.9,0.7c-0.4,0.3-0.9,0.5-1.4,0.8c-0.5,0.3-1.1,0.6-1.7,0.9c-0.6,0.3-1.2,0.6-1.7,1c-0.6,0.3-1.1,0.7-1.5,1
	c-0.5,0.3-0.8,0.7-1,1c-0.2,0.3-0.3,0.6-0.3,0.9c0.1,0.3,0.3,0.6,0.8,0.9c0.6,0.1,1.4,0,2.3-0.1s1.8-0.3,2.8-0.6
	c0.9-0.2,1.8-0.5,2.7-0.7c0.9-0.3,1.6-0.4,2.1-0.6l0.3,0.3c-0.3,0.4-0.7,0.7-1.2,1c-0.5,0.3-1.1,0.6-1.7,0.9
	c-0.6,0.3-1.3,0.5-2.1,0.7c-0.7,0.2-1.4,0.3-2.1,0.4s-1.3,0.2-1.9,0.1C-404.6,505.3-405.1,505.2-405.5,505.1z M-398.9,494.5
	c0,0-0.2,0-0.4,0.2c-0.3,0.2-0.6,0.4-1,0.7c-0.4,0.3-0.8,0.6-1.2,0.9c-0.4,0.3-0.8,0.7-1.2,1c-0.4,0.3-0.7,0.5-0.9,0.8
	c-0.2,0.2-0.3,0.3-0.3,0.3c0.3,0.1,0.7,0,1.2-0.1c0.5-0.1,1-0.3,1.5-0.6c0.5-0.3,1-0.5,1.5-0.9c0.5-0.3,0.8-0.6,1.1-1
	c0.3-0.3,0.4-0.6,0.4-0.8C-398.3,494.8-398.5,494.6-398.9,494.5z"/>
<path fill="#2D2D2D" d="M-396.6,505.2c-0.1-0.1-0.1-0.2,0-0.4c0.1-0.2,0.4-0.3,0.7-0.5c0.3-0.2,0.7-0.4,1.1-0.6
	c0.4-0.2,0.8-0.4,1.2-0.6c0.4-0.2,0.7-0.3,1-0.5c0.3-0.1,0.5-0.2,0.6-0.3c0.3-0.3,0.5-0.5,0.6-0.7c0.1-0.2,0.1-0.4,0-0.5
	c-0.1-0.1-0.3-0.2-0.5-0.3c-0.2-0.1-0.5-0.2-0.8-0.2c-0.3-0.1-0.6-0.1-1-0.2c-0.3,0-0.7-0.1-1-0.2c-0.3-0.1-0.6-0.1-0.8-0.2
	c-0.2-0.1-0.4-0.2-0.5-0.3c-0.1-0.1-0.1-0.3,0-0.5c0.1-0.2,0.3-0.4,0.7-0.6c0.2-0.1,0.4-0.3,0.8-0.5c0.3-0.2,0.7-0.5,1.1-0.7
	s0.8-0.5,1.1-0.7c0.4-0.2,0.7-0.3,0.9-0.4c0.1,0,0.3,0,0.4,0c0.1,0.1,0.3,0.1,0.3,0.2c0.1,0.1,0.1,0.2,0.1,0.3
	c0,0.1-0.1,0.2-0.2,0.3c-0.7,0.4-1.3,0.7-2,1.1c-0.6,0.3-1.3,0.7-1.9,1.2c0,0.1,0,0.2,0,0.3c0.1,0.1,0.1,0.1,0.2,0.2
	c1,0.1,1.9,0.2,2.5,0.4c0.6,0.2,1.1,0.4,1.3,0.6c0.3,0.2,0.4,0.5,0.4,0.7c0,0.3-0.1,0.5-0.3,0.8c-0.2,0.3-0.5,0.5-0.8,0.8
	c-0.4,0.3-0.7,0.5-1.2,0.7c-0.4,0.2-0.9,0.4-1.3,0.6c-0.4,0.2-0.9,0.3-1.2,0.5c-0.4,0.1-0.7,0.2-1,0.3
	C-396.4,505.3-396.6,505.3-396.6,505.2z"/>
<path fill="#2D2D2D" d="M-390.6,505.2c0.6-1.9,1.1-3.4,1.6-4.5c0.5-1.1,0.9-1.9,1.2-2.3c0.3-0.4,0.5-0.6,0.7-0.4
	c0.1,0.2,0.1,0.6,0,1.2c-0.1,0.6-0.4,1.5-0.9,2.6c-0.4,1.1-1,2.3-1.8,3.7c-0.1,0-0.2,0.1-0.4,0
	C-390.4,505.4-390.6,505.3-390.6,505.2z M-386.9,494.9c0,0,0-0.1,0-0.2c0-0.1,0-0.1,0-0.2c0-0.1,0-0.2,0-0.2c0-0.1,0-0.1,0-0.1
	c0.3-0.1,0.6-0.1,0.8,0c0.2,0.1,0.3,0.2,0.3,0.4c0,0.2,0,0.3,0,0.5c-0.1,0.2-0.1,0.3-0.2,0.4c-0.1,0.1-0.2,0.1-0.4,0
	C-386.6,495.4-386.7,495.2-386.9,494.9z"/>
<path fill="#2D2D2D" d="M-389.5,511.7c-0.5-0.2-0.8-0.4-1.1-0.7c-0.3-0.3-0.5-0.7-0.7-1.1c-0.2-0.4-0.2-0.8-0.3-1.2c0-0.4,0-0.7,0-1
	c0.1-0.3,0.1-0.5,0.3-0.7c0.1-0.2,0.3-0.2,0.4-0.1c0,1.3,0.1,2.3,0.5,2.9c0.3,0.7,0.7,1.1,1.2,1.2c0.5,0.2,1.1,0.1,1.7-0.1
	c0.6-0.2,1.3-0.6,2-1.2c0.7-0.5,1.3-1.2,1.9-1.9c0.6-0.7,1.1-1.5,1.5-2.3c0.4-0.8,0.7-1.6,0.9-2.4c0.2-0.8,0.2-1.5,0-2.1
	c-1.1,0.8-1.9,1.3-2.6,1.6c-0.7,0.3-1.2,0.4-1.6,0.4c-0.4,0-0.6-0.2-0.7-0.5c-0.1-0.3-0.1-0.7,0-1.2c0.1-0.5,0.3-1,0.6-1.6
	c0.3-0.6,0.6-1.2,1-1.7c0.4-0.6,0.8-1.1,1.2-1.6c0.4-0.5,0.9-0.9,1.3-1.2c0.4-0.3,0.8-0.4,1.2-0.5c0.4,0,0.7,0.1,1,0.5
	c0.3,0.5,0.6,1.1,0.6,1.9c0.1,0.8,0.1,1.7-0.1,2.6c-0.1,1-0.4,1.9-0.7,3c-0.3,1-0.7,2.1-1.2,3c-0.5,1-1.1,1.9-1.7,2.8
	c-0.6,0.9-1.3,1.6-2,2.1c-0.7,0.6-1.5,0.9-2.3,1.1C-387.9,512.1-388.7,512-389.5,511.7z M-385,500.6c0,0,0,0.1,0,0.2
	c0,0.1,0,0.2,0,0.4c0,0.1,0,0.3,0,0.4c0,0.1,0,0.2,0,0.2c0.4,0.1,0.7,0.1,1.1-0.1c0.4-0.2,0.7-0.4,1.1-0.8c0.3-0.3,0.7-0.7,1-1.2
	c0.3-0.4,0.6-0.9,0.8-1.3c0.2-0.4,0.4-0.8,0.5-1.2c0.1-0.4,0.1-0.6,0.1-0.8c-0.1-0.2-0.2-0.2-0.4-0.2c-0.2,0.1-0.6,0.3-1,0.7
	c-0.2,0.2-0.4,0.4-0.7,0.7c-0.3,0.3-0.6,0.6-0.9,0.9c-0.3,0.3-0.6,0.7-0.8,1C-384.7,500-384.9,500.4-385,500.6z"/>
<path fill="#2D2D2D" d="M-371.9,505.2c0-0.4,0-0.9,0.1-1.3c0.1-0.4,0.3-0.8,0.5-1.2c0.2-0.4,0.4-0.8,0.6-1.2
	c0.2-0.4,0.4-0.8,0.6-1.2c0.2-0.4,0.3-0.8,0.3-1.2c0.1-0.4,0-0.8-0.1-1.1c-0.3-0.1-0.7-0.1-1.1,0.1c-0.4,0.2-0.9,0.4-1.3,0.8
	c-0.5,0.3-1,0.7-1.5,1.2c-0.5,0.5-1,0.9-1.5,1.4c-0.5,0.5-0.9,0.9-1.4,1.4s-0.8,0.8-1.2,1.1c-0.3,0.3-0.6,0.5-0.9,0.5
	c-0.2,0.1-0.4,0-0.5-0.2c0,0,0-0.1,0.1-0.3c0.1-0.2,0.2-0.4,0.4-0.7c0.1-0.3,0.3-0.7,0.5-1c0.2-0.4,0.4-0.8,0.6-1.2
	c0.2-0.4,0.4-0.8,0.6-1.2c0.2-0.4,0.4-0.8,0.6-1.1c0.2-0.3,0.3-0.6,0.4-0.8c0.1-0.2,0.2-0.3,0.2-0.3c0.3,0.2,0.4,0.4,0.4,0.6
	c0,0.2,0,0.4-0.1,0.7c-0.1,0.2-0.2,0.5-0.3,0.7c-0.1,0.2-0.1,0.5,0,0.7c0.2-0.1,0.5-0.3,0.9-0.6c0.4-0.3,0.8-0.5,1.2-0.8
	c0.4-0.3,0.9-0.5,1.4-0.8s0.9-0.5,1.3-0.6c0.4-0.2,0.8-0.2,1.1-0.2c0.3,0,0.6,0.1,0.7,0.3c0.2,0.2,0.2,0.5,0.1,1
	c-0.1,0.5-0.3,1.1-0.6,1.9c0,0.1-0.1,0.2-0.2,0.4c-0.1,0.2-0.2,0.4-0.3,0.6c-0.1,0.2-0.2,0.5-0.3,0.8c-0.1,0.3-0.2,0.5-0.3,0.8
	c-0.1,0.2-0.2,0.4-0.3,0.6c-0.1,0.2-0.1,0.3-0.1,0.4c0,0.1,0,0.1-0.1,0.3c0,0.1,0,0.3-0.1,0.5c0,0.2-0.1,0.3-0.1,0.5
	c-0.1,0.1-0.1,0.3-0.2,0.3c0,0-0.1,0.1-0.1,0c0,0-0.1,0-0.1-0.1C-371.8,505.4-371.8,505.3-371.9,505.2
	C-371.9,505.3-371.9,505.2-371.9,505.2z"/>
</svg>
