<?xml version="1.0" encoding="utf-8"?>
<!-- Generator: Adobe Illustrator 16.0.4, SVG Export Plug-In . SVG Version: 6.00 Build 0)  -->
<!DOCTYPE svg PUBLIC "-//W3C//DTD SVG 1.1 Tiny//EN" "http://www.w3.org/Graphics/SVG/1.1/DTD/svg11-tiny.dtd">
<svg version="1.1" baseProfile="tiny" id="Layer_1" xmlns="http://www.w3.org/2000/svg" xmlns:xlink="http://www.w3.org/1999/xlink"
	 x="0px" y="0px" width="224px" height="300px" viewBox="0 0 224 300" overflow="auto" xml:space="preserve">
<g>
	<path fill="#222222" d="M20.26,12.38c5.11-7.49,17.42-7.76,22.91-0.58c4.22,4.8,3.04,11.56,3.16,17.42
		c1.74,0.01,3.47,0.01,5.2,0.02c-0.03,9.78-0.01,19.56-0.02,29.34c-12.99,0-25.98,0.03-38.97-0.01c0.03-9.79-0.02-19.58,0.02-29.37
		c1.66,0.01,3.33,0.02,4.99,0.03C17.72,23.59,16.48,17.17,20.26,12.38z M25.4,17.39c-1.49,3.74-0.65,7.91-0.82,11.83
		c4.91,0,9.82,0,14.72,0c-0.15-3.87,0.61-7.96-0.75-11.68C36.14,12.38,27.94,12.3,25.4,17.39z"/>
</g>
<g>
	<path fill="#222222" d="M185.51,19.72c6.391-1.4,13.35-0.57,19,2.83c6.85,3.91,11.6,11.52,11.41,19.49
		c0.17,8.45-5.199,16.41-12.67,20.1c-9.98,5.25-23.42,2.99-30.779-5.67c-5.771-6.47-7.08-16.45-3.16-24.18
		C172.43,25.91,178.65,21.33,185.51,19.72z M186.311,26.42c-7.511,2.05-13.291,9.77-12.021,17.65c1.11,9.56,11.62,16.02,20.76,13.9
		c8.24-1.39,15.04-9.55,13.66-18.04C207.54,29.74,195.79,23.25,186.311,26.42z"/>
</g>
<path fill="#222222" d="M190.37,32.19c1.14-1,2.149-0.91,3.05,0.27c0.35,2.2,0.2,4.45,0.25,6.67c2.92,2.68,7.26,4.27,8.99,7.94
	c-0.42,0.34-1.26,1.04-1.68,1.39c-3.94-2.04-7.16-5.17-10.86-7.58C190.141,37.98,189.971,35.06,190.37,32.19z"/>
<g>
	<path fill="#222222" d="M17.28,86.48c9.91-0.47,19.87-0.04,29.8-0.21c1.92-0.17,4.84,0.25,4.61,2.82
		c0.18,20.64-0.01,41.29,0.09,61.939c0.11,1.851-0.06,4.851-2.67,4.621c-10.36,0.14-20.75,0.129-31.11,0
		c-1.97,0.22-2.94-1.86-2.74-3.541c-0.05-20.389,0.02-40.77-0.03-61.159C15.23,89.32,15.19,86.83,17.28,86.48z M17.68,98.43
		c0.08,15.01,0.06,30.02,0.01,45.03c10.56-0.01,21.11-0.03,31.66,0.01c-0.04-15.02-0.07-30.04,0.02-45.05
		C38.81,98.39,28.24,98.37,17.68,98.43z"/>
</g>
<path fill="#222222" d="M136.34,104.33c3.26-2.86,8.93-0.61,9.58,3.59c0.42,3.02-2.199,5.05-4.109,6.91
	c-4.961,4.42-9.601,9.18-14.681,13.46c-2.78-2.62-5.59-5.21-8.28-7.92C124.82,115.19,130.27,109.41,136.34,104.33z"/>
<g>
	<path fill="#222222" d="M166,134.01c4.62-4.63,9.29-9.21,13.83-13.92c10.66,0.07,21.32,0,31.98,0.04
		c0.029,21.2,0.01,42.399,0.01,63.601c-15.271,0.029-30.541,0.01-45.811,0.01C165.98,167.16,166.01,150.59,166,134.01z
		 M184.721,125.86c-0.011,4.48,0.079,8.97-0.181,13.45c-4.3-0.08-8.59-0.07-12.88-0.12c-0.051,13.041-0.01,26.08-0.03,39.11
		c11.601,0.03,23.2-0.03,34.8,0.04c0.021-17.52,0.12-35.03-0.05-52.54C199.16,125.89,191.939,125.81,184.721,125.86z"/>
</g>
<g>
	<path fill="#222222" d="M110.28,124.48c3.541,0.6,7.08,1.25,10.621,1.91c0.75,3.3,1.459,6.62,2.039,9.96
		c-5.859,2.51-12.31,4-17.41,8.01c-2.19,2.04-6.08-1.43-3.78-3.67C105.9,136.07,107.61,129.96,110.28,124.48z"/>
</g>
<path fill="#222222" d="M176.12,144.55c7.06-0.11,14.12-0.03,21.18-0.04c0,1.43-0.021,2.86-0.05,4.29
	c-7.01-0.02-14.02,0.02-21.029-0.02C176.17,147.37,176.141,145.96,176.12,144.55z"/>
<path fill="#222222" d="M176.08,153.91c5.12-0.02,10.279-0.45,15.35,0.41c-0.06,1-0.199,3.01-0.27,4.01
	c-4.939-0.109-9.9,0.35-14.82-0.21C176.2,156.721,176.12,155.32,176.08,153.91z"/>
<path fill="#222222" d="M176.221,163.33c8.51,0.01,17.029,0.01,25.539,0.01c0.03,1.42,0.04,2.84,0.03,4.27
	c-8.53,0.021-17.06,0.011-25.59,0.011C176.18,166.189,176.189,164.76,176.221,163.33z"/>
<path fill="#222222" d="M24.05,174.12c11.42,0.05,22.83,0,34.24,0.021c0.01,1.959,0.02,3.93,0.04,5.889
	c-1.83,1.83-3.67,3.641-5.54,5.431c-0.02-1.86-0.04-3.72-0.06-5.58c-7.72-0.04-15.44-0.021-23.15,0c-0.01,4.58-0.01,9.16-0.02,13.75
	c-4.66,0.021-9.32,0.011-13.98,0.021c-0.02,13.83-0.02,27.649,0,41.47c12.4,0,24.79,0.09,37.19-0.04c-0.03-4.6-0.07-9.2,0.05-13.801
	c1.84-1.739,3.64-3.539,5.48-5.279c0.02,8.279,0.02,16.57-0.01,24.859c-16.09,0-32.19,0-48.29,0
	c-0.01-17.59,0.01-35.189-0.01-52.789C14.69,183.43,19.32,178.721,24.05,174.12z"/>
<g>
	<path fill="#222222" d="M112.44,182.38c5.6-8.11,18.98-8.55,25.291-1.069c3.529,4.279,4.569,10.25,3.709,15.629
		c-1.85,8.141-6.68,15.17-9.33,23.031c-4.379,0-8.77,0.01-13.149-0.011c-2.63-7.69-7.31-14.58-9.3-22.5
		C108.67,192.35,109.55,186.75,112.44,182.38z M116.939,182.95c-3.41,3.36-4.299,8.569-3.649,13.14
		c1.06,4.93,3.521,9.391,5.54,13.95c1.189,2.41,1.99,5.21,4.32,6.819c0.22-3.479,0.18-6.959,0.16-10.439
		c1.5-0.01,2.989-0.02,4.489-0.02c-0.021,3.47-0.06,6.939,0.13,10.41c2.391-1.471,3.09-4.301,4.24-6.66
		c1.98-4.601,4.52-9.041,5.54-13.99c0.681-4.801-0.3-10.37-4.149-13.67C128.88,178.7,121.37,178.83,116.939,182.95z"/>
</g>
<path fill="#222222" d="M118.71,222.029c4.521-0.01,9.04,0,13.56,0c0.01,0.881,0.051,2.631,0.07,3.511
	c-4.47,0.06-8.949,0.03-13.42,0.09C118.84,224.43,118.779,223.23,118.71,222.029z"/>
<g>
	<path fill="#222222" d="M164.471,252.02C179.73,241.6,195.54,231.98,211,221.85c0,13.871,0,27.74,0,41.61
		c-6.311-3.43-12.6-6.899-18.87-10.38c-4.18,4.97-8.19,10.08-12.44,14.99c-0.069-5.311-0.029-10.62-0.029-15.92
		C174.59,252.109,169.529,252.23,164.471,252.02z M207.91,225.971c-8.43,8.299-16.57,16.879-24.891,25.289
		c-0.02,2.73-0.02,5.461,0,8.2C191.391,248.35,199.73,237.221,207.91,225.971z"/>
</g>
<path fill="#222222" d="M122.1,230.95c0.09-1.14,0.19-2.29,0.291-3.431c2.149,0.051,4.299,0.09,6.459,0.131
	c0,0.83,0.021,2.49,0.03,3.33C126.62,230.971,124.359,230.971,122.1,230.95z"/>
<g>
	<path fill="#222222" d="M105,253.05c6.65-2.62,14.7,0.78,18.17,6.87c1.471,2.38,1.58,5.25,2.33,7.891
		c2.609,2.47,5.87,5.109,5.55,9.129c0.72,5.721-4.43,10.851-10.04,10.851c-9.99,0.06-19.99,0.09-29.98-0.01
		c-5.73,0.11-11.05-4.96-10.74-10.771c-0.11-3.439,2.07-6.27,4.4-8.539c0.29-2.771,0.55-5.961,3.07-7.681
		c2.38-2.11,5.67-1.49,8.44-0.681C98.54,257.141,101.23,254.141,105,253.05z M104.32,257.26c-3.49,1.67-5.14,5.34-6.67,8.66
		c-2.26-1.42-5.16-4.57-7.82-2.141c-2.04,1.551-0.96,4.141-0.6,6.201c-2.14,1.56-4.84,3.1-5.22,6c-0.93,4.17,2.79,8.359,7.02,8.09
		c10.01,0.1,20.04,0.119,30.05-0.01c4.5,0.17,7.93-5,6.04-9.07c-0.88-2.49-3.5-3.471-5.58-4.7c0-2.81,0.13-5.8-1.38-8.29
		C117.359,256.42,109.73,254.15,104.32,257.26z"/>
</g>
<path fill="#222222" d="M36.1,268.07c1.48-5.28,8.93-6.141,12.77-3.01c2.74,2.539,2.3,6.619,2.06,9.989
	c-0.19,3.261-1.95,6.091-3.49,8.87c4.93,1.55,9.68,3.79,13.91,6.75c2.08,1.42,1.49,4.18,1.79,6.33
	c-13.13-0.01-26.26,0.04-39.38-0.03c0.34-2.14-0.23-4.909,1.84-6.329c4.21-2.91,8.9-5.15,13.78-6.721
	C36.26,279.3,34.85,273.561,36.1,268.07z"/>
<path fill="#222222" d="M17.1,276.05c1.09-4.85,9.57-4.84,10.65,0c0.41,2.681,0.38,5.53-0.56,8.11c-1.08,2.98-4.31,4.41-5.68,7.199
	c-0.48,1.83-0.36,3.761-0.48,5.641c-4.39-0.01-8.79,0.04-13.18-0.04c0.46-1.51,0.14-3.51,1.6-4.521c2.94-2.25,6.44-3.629,9.9-4.89
	C17.35,284.1,16.18,280.029,17.1,276.05z"/>
<circle fill="#FFFFFF" stroke="#202020" stroke-width="0.0938" stroke-miterlimit="10.43" cx="33.517" cy="150.042" r="2.792"/>
<circle fill="#FFFFFF" stroke="#202020" stroke-width="0.0938" stroke-miterlimit="10.43" cx="113.934" cy="133.042" r="2.792"/>
<g>
	<path fill="#222222" d="M34.553,208.514l12.495,12.498l29.979-29.979L64.532,178.54L34.553,208.514z M67.035,186.035
		l-24.983,24.979l-2.5-2.5l24.979-24.979L67.035,186.035z M77.027,176.042l2.496,2.498c2.759,2.759,2.759,7.233,0,9.992
		l-12.488-12.49C69.791,173.279,74.268,173.279,77.027,176.042z M43.556,222.512l-18.49,7.987l7.983-18.497L43.556,222.512z"/>
</g>
</svg>
