<?xml version="1.0" encoding="utf-8"?>
<!-- Generator: Adobe Illustrator 16.0.4, SVG Export Plug-In . SVG Version: 6.00 Build 0)  -->
<!DOCTYPE svg PUBLIC "-//W3C//DTD SVG 1.1//EN" "http://www.w3.org/Graphics/SVG/1.1/DTD/svg11.dtd">
<svg version="1.1" id="Layer_1" xmlns="http://www.w3.org/2000/svg" xmlns:xlink="http://www.w3.org/1999/xlink" x="0px" y="0px"
	 width="165.881px" height="268.119px" viewBox="0 0 165.881 268.119" enable-background="new 0 0 165.881 268.119"
	 xml:space="preserve">
<path d="M33.816,29.339c-0.292-1.433-0.354-2.871-0.247-4.334c0.211-2.86,0.872-5.628,1.706-8.354
	c1.191-3.893,2.754-7.633,4.925-11.094c0.971-1.546,1.989-3.067,3.374-4.28c0.487-0.427,1.052-0.797,1.64-1.067
	c1.344-0.618,2.849,0.179,3.379,1.696c0.504,1.444,0.062,2.75-0.621,3.983c-1.229,2.218-2.954,4.061-4.66,5.907
	c-1.383,1.498-2.799,2.965-4.168,4.475c-0.308,0.339-0.566,0.77-0.705,1.205c-0.877,2.769-1.775,5.537-2.123,8.438
	c-0.088,0.736-0.102,1.489-0.065,2.23c0.037,0.739,0.249,0.843,0.894,0.51c1.281-0.66,2.352-1.606,3.299-2.666
	c4.645-5.199,9.264-10.423,13.89-15.639c0.87-0.981,1.729-1.971,2.595-2.954c0.121-0.136,0.24-0.303,0.396-0.369
	c0.243-0.102,0.552-0.234,0.769-0.162c0.365,0.121,0.426,0.518,0.278,0.834c-0.261,0.555-0.511,1.147-0.906,1.605
	c-3.413,3.958-6.864,7.882-10.29,11.831c-1.909,2.2-3.781,4.432-5.688,6.634c-0.955,1.103-1.996,2.114-3.245,2.901
	c-1.532,0.966-3.281,0.718-4.06-0.702c-0.011-0.021-0.062-0.02-0.097-0.03C33.996,29.74,33.906,29.54,33.816,29.339z M40.081,12.808
	c0.213-0.142,0.298-0.176,0.354-0.238c1.489-1.666,3.021-3.298,4.445-5.019c0.952-1.149,1.816-2.403,2.083-3.918
	c0.075-0.424-0.075-0.923-0.241-1.341c-0.146-0.363-0.533-0.486-0.859-0.188c-0.494,0.449-1.062,0.879-1.384,1.438
	c-0.958,1.674-1.859,3.385-2.691,5.125C41.166,9.965,40.684,11.328,40.081,12.808z"/>
<g>
	<path d="M15.72,24.363h-1.067c-0.561-1.45-1.125-2.89-1.692-4.319c-0.566-1.426-1.13-2.865-1.692-4.317
		c-0.225,0.589-0.449,1.171-0.674,1.741c-0.224,0.572-0.449,1.147-0.673,1.727L7.9,24.363H6.833L2.466,13.256H4.01l2.022,5.167
		c0.225,0.571,0.45,1.144,0.674,1.72c0.224,0.576,0.444,1.159,0.66,1.748c0.224-0.599,0.45-1.184,0.674-1.755
		c0.224-0.57,0.449-1.142,0.674-1.711l2.022-5.167h1.082l2.021,5.153c0.225,0.571,0.45,1.144,0.675,1.72
		c0.224,0.577,0.45,1.164,0.674,1.762c0.225-0.607,0.447-1.197,0.666-1.769c0.221-0.573,0.443-1.143,0.668-1.713l2.022-5.153h1.544
		L15.72,24.363z"/>
	<path d="M29.326,19.393c-1.01,0.58-2.518,0.871-4.521,0.871h-2.078v4.1h-1.46V13.258h3.818c1.919,0,3.358,0.294,4.318,0.885
		c0.959,0.589,1.439,1.45,1.439,2.583C30.843,17.922,30.337,18.811,29.326,19.393z M29.221,16.007
		c-0.108-0.242-0.314-0.461-0.619-0.659c-0.303-0.197-0.73-0.358-1.277-0.483c-0.547-0.128-1.257-0.19-2.127-0.19h-2.471v4.171
		h2.049c0.964,0,1.749-0.061,2.352-0.183c0.604-0.122,1.072-0.283,1.404-0.484c0.333-0.2,0.557-0.428,0.675-0.681
		c0.117-0.252,0.176-0.509,0.176-0.771C29.383,16.491,29.328,16.251,29.221,16.007z"/>
</g>
<g>
	<path d="M64.736,22.292c-0.262,0.426-0.618,0.788-1.067,1.087c-0.458,0.31-1,0.55-1.623,0.724c-0.622,0.173-1.298,0.26-2.028,0.26
		c-0.608,0-1.163-0.042-1.664-0.127c-0.501-0.083-0.962-0.216-1.383-0.393c-0.422-0.177-0.81-0.402-1.166-0.673
		s-0.693-0.594-1.011-0.969l1.137-0.941c0.44,0.553,0.983,0.974,1.629,1.263c0.646,0.291,1.47,0.436,2.471,0.436
		c0.627,0,1.174-0.072,1.643-0.218c0.468-0.145,0.865-0.325,1.193-0.541c0.261-0.168,0.46-0.365,0.596-0.59
		c0.136-0.225,0.204-0.459,0.204-0.702c0-0.328-0.076-0.585-0.232-0.772c-0.154-0.187-0.329-0.333-0.525-0.435
		c-0.113-0.066-0.239-0.128-0.379-0.183c-0.14-0.056-0.326-0.117-0.556-0.183c-0.229-0.063-0.517-0.141-0.863-0.224
		c-0.347-0.084-0.781-0.183-1.306-0.295c-0.533-0.122-0.976-0.224-1.326-0.309c-0.351-0.083-0.645-0.161-0.878-0.231
		c-0.235-0.07-0.426-0.135-0.576-0.197c-0.15-0.06-0.295-0.128-0.436-0.204c-0.167-0.083-0.33-0.194-0.484-0.33
		c-0.155-0.134-0.29-0.293-0.407-0.471c-0.119-0.176-0.213-0.381-0.289-0.61c-0.074-0.229-0.112-0.484-0.112-0.766
		c0-0.42,0.114-0.828,0.343-1.221s0.592-0.716,1.088-0.969c0.44-0.234,0.941-0.4,1.502-0.499c0.561-0.097,1.179-0.146,1.854-0.146
		c0.599,0,1.134,0.039,1.607,0.119c0.473,0.079,0.896,0.211,1.272,0.392c0.373,0.183,0.708,0.419,1.003,0.71
		c0.295,0.291,0.565,0.642,0.808,1.053l-1.292,0.687c-0.15-0.261-0.316-0.487-0.498-0.681c-0.183-0.192-0.408-0.353-0.675-0.483
		c-0.267-0.132-0.58-0.23-0.94-0.295c-0.361-0.064-0.789-0.098-1.285-0.098c-0.562,0-1.077,0.04-1.544,0.119
		c-0.468,0.081-0.837,0.2-1.109,0.359c-0.243,0.13-0.417,0.276-0.519,0.436c-0.104,0.159-0.155,0.346-0.155,0.562
		c0,0.206,0.054,0.386,0.161,0.54c0.107,0.154,0.255,0.279,0.443,0.372c0.121,0.056,0.257,0.109,0.408,0.161
		c0.148,0.052,0.338,0.107,0.567,0.169c0.229,0.06,0.514,0.13,0.85,0.211c0.337,0.079,0.758,0.175,1.264,0.287
		c0.422,0.094,0.798,0.177,1.131,0.252c0.332,0.076,0.631,0.153,0.898,0.231c0.267,0.08,0.508,0.169,0.723,0.268
		c0.216,0.099,0.422,0.208,0.618,0.33c0.16,0.104,0.316,0.227,0.47,0.371c0.155,0.146,0.294,0.315,0.422,0.507
		c0.126,0.192,0.226,0.407,0.301,0.646c0.075,0.238,0.113,0.504,0.113,0.792C65.129,21.396,64.998,21.867,64.736,22.292z"/>
	<path d="M66.238,24.166V13.06h1.461v11.106H66.238z"/>
	<path d="M78.019,16.26c-0.291-0.365-0.562-0.676-0.815-0.933c-0.251-0.258-0.512-0.463-0.778-0.618
		c-0.268-0.155-0.552-0.267-0.85-0.336c-0.301-0.07-0.642-0.106-1.025-0.106c-0.486,0-0.995,0.075-1.521,0.225
		c-0.531,0.15-1.016,0.392-1.461,0.73c-0.444,0.337-0.81,0.784-1.095,1.341c-0.286,0.556-0.429,1.241-0.429,2.057
		c0,0.693,0.117,1.309,0.352,1.846c0.234,0.539,0.555,0.993,0.961,1.363c0.406,0.369,0.889,0.65,1.446,0.842
		c0.558,0.192,1.154,0.288,1.79,0.288c0.478,0,0.969-0.062,1.475-0.19c0.506-0.126,0.978-0.315,1.417-0.568v-2.119h-4.058v-1.419
		h5.518v4.297c-0.392,0.262-0.774,0.482-1.143,0.66c-0.37,0.177-0.732,0.322-1.09,0.436c-0.355,0.112-0.716,0.192-1.08,0.239
		c-0.364,0.048-0.744,0.07-1.139,0.07c-0.777,0-1.519-0.127-2.23-0.379c-0.713-0.252-1.34-0.625-1.882-1.118
		c-0.542-0.492-0.979-1.093-1.306-1.802c-0.328-0.712-0.492-1.526-0.492-2.443c0-0.702,0.088-1.332,0.267-1.889
		c0.178-0.557,0.416-1.049,0.716-1.475c0.3-0.425,0.646-0.79,1.039-1.095c0.393-0.304,0.809-0.553,1.249-0.745
		c0.439-0.191,0.886-0.332,1.34-0.421c0.454-0.087,0.887-0.132,1.298-0.132c0.553,0,1.048,0.053,1.482,0.161
		c0.437,0.106,0.837,0.269,1.2,0.484c0.366,0.215,0.712,0.487,1.04,0.814c0.329,0.328,0.665,0.712,1.011,1.151L78.019,16.26z"/>
	<path d="M88.339,24.166c-1.609-1.984-2.986-3.683-4.128-5.097c-1.143-1.413-2.083-2.579-2.822-3.496
		c0.01,0.917,0.014,2.078,0.014,3.481s0,3.107,0,5.111h-1.46V13.059h1.235c1.611,2.003,2.989,3.709,4.135,5.118
		c1.146,1.41,2.086,2.562,2.815,3.461c-0.01-0.907-0.015-2.059-0.015-3.452c0-1.405,0-3.114,0-5.125h1.46v11.106L88.339,24.166
		L88.339,24.166z"/>
	<path d="M99.655,24.166l-1.559-3.468h-4.492l-1.543,3.468h-1.572l4.9-11.106h0.939l4.929,11.106H99.655z M96.595,17.202
		c-0.123-0.281-0.244-0.562-0.367-0.843c-0.121-0.281-0.248-0.566-0.379-0.856c-0.113,0.281-0.227,0.556-0.344,0.829
		c-0.115,0.271-0.236,0.543-0.357,0.814l-0.912,2.133h3.244L96.595,17.202z"/>
	<path d="M104.851,14.479v9.688h-1.459v-9.688H99.29V13.06h9.661v1.418H104.851z"/>
	<path d="M118.892,21.82c-0.18,0.609-0.449,1.103-0.814,1.482c-0.363,0.379-0.828,0.648-1.391,0.812
		c-0.562,0.164-1.229,0.247-2.008,0.247c-0.758,0-1.416-0.083-1.972-0.247c-0.558-0.164-1.021-0.435-1.386-0.812
		c-0.363-0.379-0.637-0.875-0.812-1.489c-0.176-0.613-0.267-1.364-0.267-2.253v-6.5h1.462v6.473c0,0.664,0.043,1.213,0.132,1.649
		s0.246,0.787,0.47,1.052c0.227,0.268,0.53,0.455,0.913,0.561c0.384,0.108,0.87,0.162,1.46,0.162c0.608,0,1.107-0.054,1.504-0.162
		c0.392-0.106,0.7-0.294,0.926-0.561c0.226-0.267,0.379-0.619,0.463-1.052c0.084-0.436,0.128-0.985,0.128-1.649V13.06h1.46v6.5
		C119.158,20.459,119.069,21.212,118.892,21.82z"/>
	<path d="M129.688,24.166l-4.451-4.324h-2.947v4.324h-1.459V13.06h3.915c1.808,0,3.175,0.276,4.103,0.828
		c0.926,0.554,1.389,1.381,1.389,2.486c0,0.431-0.081,0.824-0.245,1.18c-0.163,0.356-0.386,0.672-0.667,0.954
		c-0.281,0.281-0.614,0.52-0.997,0.718c-0.386,0.196-0.796,0.345-1.235,0.449l4.676,4.492L129.688,24.166L129.688,24.166z
		 M128.663,15.749c-0.075-0.219-0.252-0.424-0.533-0.611c-0.281-0.188-0.697-0.343-1.249-0.471
		c-0.554-0.126-1.303-0.188-2.248-0.188h-2.345v3.946h3.286c0.569,0,1.058-0.062,1.461-0.189c0.401-0.127,0.731-0.289,0.989-0.484
		c0.256-0.197,0.447-0.417,0.567-0.661c0.122-0.243,0.185-0.481,0.185-0.716C128.776,16.176,128.737,15.968,128.663,15.749z"/>
	<path d="M132.117,24.166V13.06h7.68v1.418h-6.219v3.201h5.053v1.419h-5.053v3.65h6.416v1.418H132.117L132.117,24.166z"/>
</g>
<g>
	<g>
		<path fill="none" stroke="#000000" stroke-width="2" stroke-miterlimit="10" d="M80.762,40.847
			c-22.42,9.804-34.398,31.921-26.755,49.401c2.656,6.078,7.336,10.791,13.25,13.946l0,0c10.076,5.217,9.61,22.377,9.61,22.377
			l16.343-18.18c5.031-0.637,10.175-2.027,15.229-4.231c22.418-9.802,34.396-31.919,26.752-49.399
			C127.55,37.278,103.179,31.049,80.762,40.847"/>
	</g>
</g>
<g>
	<path d="M127.756,120.917c0.894-2.008,1.914-3.961,2.919-5.918c0.646,0.404,1.297,0.8,1.948,1.2
		c-2.549,3.484-5.063,6.999-7.556,10.525C125.714,124.677,126.894,122.869,127.756,120.917z"/>
	<path d="M97.302,119.903c0.562-0.565,1.12-1.131,1.678-1.701c2.194,2.885,4.699,5.522,6.869,8.432
		C102.96,124.438,100.166,122.128,97.302,119.903z"/>
	<g>
		<path d="M113.712,122.695c1.812-0.638,3.979-0.371,5.387,1c2.73,2.498,2.969,6.735,1.857,10.065
			c-0.749,2.681-2.659,4.872-3.264,7.585c5.759-0.543,11.742-2.402,17.437-0.515c2.33,1.646,4.513,5.327,2.319,7.914
			c1.462,1.515,1.084,3.777,1.324,5.688c0.137,0.021,0.403,0.06,0.537,0.08c-0.513,0.795-1.062,1.613-1.457,2.502
			c-0.562,0.468-1.244,0.752-1.881,1.097c0.166,2,0.275,4.387-1.414,5.815c-0.014,1.838-0.369,4.123-2.287,4.924
			c-2.635,0.761-5.375,1.332-8.137,1.199c-2.738-0.094-5.498,0.303-8.215-0.168c-0.674-0.223-1.107,0.519-1.639,0.781
			c0.419,0.583,0.848,1.162,1.273,1.735c-0.904,0.89-1.927,1.644-2.977,2.35c0.404,0.685,0.795,1.378,1.169,2.083
			c-8.3,5.643-16.882,10.858-25.433,16.104c-0.926-2.021-1.629-4.225-3.222-5.854c1.726,3.465,2.599,7.268,3.238,11.062
			c0.97,8.324-0.003,16.736,0.864,25.07c0.184,1.57,0.478,3.129,0.914,4.647c-1.467,0.774-3.028,1.339-4.553,1.981
			c-0.445,6.752-0.756,13.508-1.022,20.269c-0.448,2.229,1.952,3.354,3.372,4.565c-0.949,0.697-1.422,2.025-2.701,2.221
			c0.536,0.512,1.199,0.852,1.918,1.014c-0.829-1.451,0.923-1.996,1.829-2.631c0.713,0.575,1.549,0.954,2.284,1.49
			c-0.653,0.484-1.523,0.855-1.769,1.705c-0.196,0.009-0.581,0.031-0.771,0.044c-0.639,0.948,1.093,1.231,1.75,1.141
			c-0.17-0.235-0.512-0.707-0.682-0.94c0.803-0.52,1.611-1.033,2.42-1.549c2.207,1.48,4.766,2.894,5.808,5.492
			c0.728,1.428,0.312,3.014-0.099,4.455l-0.029-0.566c-3.105,0.293-6.318,0.138-9.258-0.986c-1.135-0.459-2.403-0.821-3.219-1.803
			c-0.979-1.073-1.975-2.148-3.162-2.996c-0.868-0.06-0.239,1.48-0.546,1.981c-1.953-0.396-3.957-0.629-5.837-1.313
			c-0.63-0.208-1.341-0.817-1.212-1.545c0.225-1.996,0.599-4,0.421-6.017c-0.484-7.108-0.246-14.247-0.596-21.362
			c-0.396,1.863-0.145,3.793-0.319,5.682c-0.047,6.238-0.716,12.449-1.005,18.674c-0.26,1.632,1.154,3.95-0.549,5.048
			c-2.016,0.613-4.123,0.972-6.212,1.273c-0.076-0.728-0.157-1.453-0.242-2.179c-2.162,1.158-3.345,3.625-5.744,4.379
			c-3.374,1.412-7.161,1.638-10.738,0.99c-0.174-1.416-0.268-2.979,0.579-4.215c1.234-2.312,3.637-3.562,5.786-4.874
			c0.848,0.763,2.886,1.326,1.766,2.74c0.621-0.205,1.259-0.396,1.851-0.688c-0.626-1.004-1.886-1.468-2.596-2.44
			c0.693-0.486,1.429-0.902,2.157-1.327c0.728,0.43,1.434,0.9,2.14,1.374c-0.132,0.446-0.208,0.905-0.26,1.373
			c0.707-0.297,1.375-0.676,1.979-1.144c-0.305-0.099-0.927-0.295-1.238-0.388c-0.413-0.672-0.893-1.297-1.417-1.881
			c1.162-0.853,2.392-1.66,3.285-2.804c0.247-0.65,0.132-1.371,0.175-2.047c-0.016-5.42-0.003-10.84-0.247-16.256
			c-0.702,1.828-1.816,3.604-3.692,4.397c-1.698,0.868-3.663,0.903-5.522,1.069c-1.203,0.145-1.514-1.527-0.936-2.314
			c0.421-1.068,1.711-0.724,2.604-0.844c-1.063-0.469-2.145-1.029-2.625-2.157c0.059-0.938-0.451-1.723-0.792-2.549
			c0.344-1.696,0.162-3.978,1.958-4.89c1.123-0.633,2.259,0.158,3.003,0.977c0.302-1.225,0.961-2.301,1.706-3.302
			c-0.272-0.085-0.817-0.255-1.089-0.341c-0.315,0.535-0.622,1.08-0.923,1.63c-0.983-0.269-1.948-0.593-2.909-0.915
			c-0.159,0.18-0.473,0.54-0.63,0.723c-4.999-1.311-10.101-2.516-14.67-4.999c-0.948-0.612-2.088-1.673-1.492-2.92
			c1.173-3.297,3.569-5.959,5.636-8.726c2.953-3.662,6.062-7.197,9.25-10.662c1.153-1.124,2.06-2.51,3.425-3.399
			c1.851-1.28,3.655-2.752,4.706-4.79c0.446,0.827,0.795,1.728,1.392,2.471c2.487,3.009,5.556,5.442,8.474,8.008
			c-1.791-0.957-3.378-2.237-5.084-3.332c3.348,4.156,7.198,7.867,10.739,11.854c0.766,0.91,1.561,1.799,2.433,2.611
			c-1.056-1.752-2.118-3.501-3.301-5.164c0.263-2.26,0.671-4.494,1.041-6.734c-0.966-0.58-1.894-1.223-2.812-1.873
			c-0.596,0.924-1.204,1.849-1.94,2.674c1.039-2.455,2.119-4.906,3.235-7.314c2.025,1.188,3.981,2.709,5.125,4.803
			c-0.617-0.453-1.212-0.947-1.816-1.414c-0.344,0.961-0.707,1.914-1.059,2.871c1.485,1.799,2.638,3.838,3.986,5.733
			c-0.324,6.08-1.081,12.188-0.345,18.267c0.336-5.65,0.753-11.306,0.885-16.969c0.455-6.279,0.524-12.669-0.957-18.831
			c-1.383,2.212-3.492,4.039-6.136,4.472c-5.983,1.2-11.878-1.804-16.376-5.518c-3.233-3.025-6.284-6.467-7.921-10.641
			c-0.847,1.379-2.596,1.537-3.958,0.873c-3.088-1.629-4.859-5.252-4.637-8.68c0.094-1.107,1.307-2.047,0.553-3.154
			c1.88-0.854,3.515-2.467,3.808-4.594c-1.396,1.62-2.481,3.748-4.643,4.467c-0.863,0.403-2.233,0.42-2.416-0.767
			c0.936-0.032,1.846-0.251,2.676-0.698c-1-3.186-1.852-6.428-2.506-9.699c-0.804-3.937,0.132-8.434,3.128-11.246
			c0.863-3.879,4.382-6.492,7.998-7.636c0.307-0.187,0.142-0.103,0.442-0.234c4.323-1.141,8.922-1.146,13.231,0.056
			c0.911-0.629,2.021-0.86,2.949-0.094c-3.356,2.097-6.097,5.062-9.619,6.914c-0.01,0.148-1.41,0.621-1.988,0.77
			c-2.979,1.047-6.217,0.953-9.314,0.588c-1.697,1.815-2.803,4.557-1.646,6.942c0.822,1.804,0.775,3.791,0.184,5.649
			c1.081-1.183,1.276-2.791,1.2-4.325c0.562,0.637,1.08,1.353,1.166,2.229c-0.676,3.496-3.005,6.268-4.775,9.245
			c1.852-1.434,3.328-3.34,4.336-5.446c-0.217,1.842,0.919,3.565,0.609,5.369c0.114,0.034,0.344,0.098,0.458,0.127
			c0.137,1.047-0.264,2.043-0.519,3.037c0.408-0.634,0.774-1.289,1.165-1.931c1.15,2.749,2.936,5.162,4.136,7.884
			c-0.604-0.167-1.409-0.064-1.757-0.701c-1.361-1.621-2.434-3.754-4.613-4.404c-1.131-0.553-2.816-0.076-3.102,1.256
			c-0.332,1.629,0.294,3.271,0.898,4.761c0.834,1.812,2.634,3.642,4.808,3.251c0.876-0.621,0.889-1.787,1.127-2.732
			c0.128,0.051,0.388,0.153,0.519,0.205c1.626,4.479,4.872,8.121,8.28,11.351c3.404,3.03,7.591,5.515,12.219,5.887
			c2.873,0.233,6.17-0.39,7.879-2.946c2.098-3.191,2.801-7.113,2.915-10.875c0.17-7.606-2.209-15.117-6.16-21.572
			c0.191,0,0.574-0.004,0.765-0.008c3.744,4.522,5.852,10.236,6.701,16.006c0.541,3.871,0.601,7.879-0.442,11.675
			c7.718-6.037,15.351-12.177,23.055-18.231c0.166,0.221,0.503,0.66,0.669,0.881c0.854-0.716,1.735-1.396,2.601-2.098
			c0.601,0.906,1.846-0.064,1.34-0.873c-1.564-3.706-2.203-7.73-2.449-11.721c0-1.838-0.286-3.795,0.564-5.501
			c1.312-2.812,2.649-5.625,3.657-8.564c0.789-3.9,0.962-7.956,0.456-11.909C112.272,123.707,112.821,122.861,113.712,122.695z
			 M113.614,124.502c0.527,3.527,0.298,7.129-0.133,10.663c-0.58,4.148-3.098,7.628-4.344,11.56
			c-0.441,3.689,0.289,7.392,0.92,11.017c0.422,2.327,1.34,4.599,3.08,6.258c-0.431-0.073-1.285-0.218-1.715-0.288
			c-0.465,0.398-0.923,0.803-1.376,1.211c1.206,1.523,2.347,3.094,3.427,4.701c0.312-0.183,0.932-0.553,1.238-0.736
			c-0.222-0.709-1.395-1.455-0.763-2.193c1.43-0.588,1.384,1.747,2.565,2.045c1.23,0.318,2.519,0.247,3.776,0.35
			c-1.356-1.285-1.748-3.148-1.424-4.939c-0.8-0.294-1.481-0.809-1.995-1.485c-0.693,0.195-1.393,0.388-2.092,0.565
			c0.893-1.553,1.789-3.195,1.933-5.012c-0.185-0.987-0.489-1.979-0.284-2.986c0.186-1.715,0.852-3.914,2.904-4.072
			c-0.549-1.932-0.682-4.607,1.171-5.893c2.245-0.69,4.638-0.121,6.918-0.414c1.276-0.676,2.425-1.676,3.89-1.928
			c0.029,0.192,0.094,0.574,0.127,0.771c-0.994,1.062-2.332,1.736-3.625,2.37c-2.287,0.366-4.717-0.353-6.949,0.417
			c-0.775,1.267-0.988,3.292-0.065,4.479c2.864,0.864,6.045,1.178,8.89,0.068c2.377-0.838,4.943-1.686,6.688-3.596
			c0.775-0.719,0.404-1.885,0-2.701c-0.65-1.17-1.427-2.569-2.871-2.816c-4.783-1.029-9.645,0.166-14.375,0.928
			c0.366,0.438,0.714,0.894,1.046,1.36c-0.854,0.868-1.978,0-2.534-0.745c-0.6-0.812-1.43-1.65-1.447-2.71
			c0.996-3.515,3.709-6.467,3.873-10.229c0.166-2.361-0.664-5.029-2.853-6.232C116.099,123.546,114.702,123.92,113.614,124.502z
			 M55.586,139.862c-1.511,0.71-3.161,0.996-4.735,1.522c4.378,0.451,8.509-2.113,11.288-5.301
			C60.01,137.438,57.848,138.747,55.586,139.862z M135.263,150.09c-2.232,1.137-4.613,1.979-7,2.744
			c-3.16,0.903-6.382-0.799-9.518-0.101c-1.335,1.024-1.018,3.067-1.033,4.582c2.863,0.268,5.65,1.63,8.557,1.021
			c3.029-0.506,6.071-0.994,9.041-1.795c0.658-0.281,1.723-0.395,1.735-1.322c0.207-1.418,0.195-2.877-0.063-4.285
			C136.896,150.145,135.924,149.66,135.263,150.09z M124.144,159.415c-2.151-0.028-4.25-0.641-6.402-0.629
			c0.021,1.195-0.194,2.544,0.531,3.595c1.418,0.81,3.021,1.303,4.631,1.549c2.348,0.056,4.703-0.229,7.031-0.537
			c0.562-0.021,0.924-0.991,1.5-0.612c0.814,0.767,1.989-0.004,2.574-0.702c0.946-1.085,0.116-2.697,1.057-3.787
			C131.41,158.42,127.812,159.36,124.144,159.415z M106.44,165.917c1.949,2.728,3.91,5.441,5.783,8.22
			c0.744-0.635,1.506-1.242,2.268-1.852c-2.062-2.681-3.944-5.497-5.975-8.195C107.827,164.704,107.138,165.316,106.44,165.917z
			 M127.51,164.883c-2.415,0.35-4.901,0.472-7.272-0.213c0.121,0.91-0.055,2.021,0.695,2.719c0.909,0.949,2.305,1.145,3.557,1.174
			l-0.312,0.49c2.494-1.03,5.545-0.541,7.94-2.004c0.928-0.629,0.748-1.89,0.952-2.847c-1.17,0.166-2.34,0.349-3.52,0.435
			C128.935,163.947,128.216,164.973,127.51,164.883z M82.534,189.25c0.872,1.786,1.599,3.637,2.34,5.479
			c-0.575,0.667-1.145,1.336-1.704,2.016c0.753,0.992,1.593,1.966,2.078,3.123c-0.162,2.128-0.634,4.222-0.843,6.349
			c-0.539,4.596-1.879,9.071-2.17,13.695c1.243-3.295,1.877-6.771,2.319-10.254c0.588-3.387,1.163-6.777,1.535-10.193
			c-0.634-0.848-1.343-1.638-1.841-2.569c0.093-0.876,1.024-1.429,1.547-2.097C84.823,192.891,84.069,190.801,82.534,189.25z
			 M59.376,192.811l0.532,0.503c0.821,2.075,1.357,4.255,1.991,6.395c0.152,0.472,0.255,1.19,0.953,1.041
			c1.213,0.089,2.426,0.218,3.608,0.517c-0.391,1.144-0.915,2.235-1.515,3.289c3.668,2.846,7.254,5.813,10.484,9.154
			c1.528,1.629,2.944,3.365,4.5,4.969c-1.215-2.857-3.542-5.002-5.687-7.168c-2.621-2.553-5.464-4.854-8.306-7.147
			c0.537-1.183,1.03-2.383,1.417-3.62c-1.48-0.451-3.013-0.677-4.552-0.688c-0.639-2.414-1.447-4.806-2.8-6.92
			C59.896,192.866,59.618,192.844,59.376,192.811z M59.223,206.322c-0.37,0.997-0.392,2.312-1.417,2.896
			c-2.709,1.787-5.402,3.617-7.892,5.705c-1.498-0.535-3.127-0.246-4.476,0.537c0.71,0.064,1.617-0.285,2.085,0.438l-0.277-0.731
			c3.867,0.293,7.207,2.549,10.989,3.241c0.315,0.983,1.548,0.795,2.332,1.095c-0.064,0.275-0.196,0.832-0.259,1.11
			c0.37,0.089,1.114,0.259,1.485,0.349c-0.115-4.289-0.916-8.5-2.09-12.611c0.686-2.387,0.818-4.998-0.395-7.25
			C59.551,202.833,59.794,204.622,59.223,206.322z M54.777,223.789c0.676,0.264,1.361,0.52,2.05,0.762
			c0.886-1.455,1.723-2.938,2.583-4.408c-0.574-0.188-1.145-0.37-1.718-0.545C56.641,220.938,55.773,222.404,54.777,223.789z
			 M59.538,221.422c-0.345,0.569-0.626,1.178-0.906,1.782c0.757,0.228,1.492,0.519,2.204,0.873
			c-1.307,0.987-2.226,2.293-2.544,3.914c-0.928,0.493-1.948,0.789-2.966,1.04c0.35-0.535,0.77-1.012,1.26-1.426
			c-1.254-1.33-3.51,0.626-2.694,2.113c0.894,2.02,3.545,0.992,5.131,0.556c-0.953,1.948-4.037,1.743-5.539,0.493
			c0.135,0.761,0.195,1.715,1.067,1.998c1.884,1.076,3.91-0.051,5.667-0.795c-1.145,2.377-4.2,2.051-6.353,1.696
			c0.774,0.652,1.553,1.417,2.607,1.574c1.71,0.385,3.271-0.576,4.782-1.214c-0.017,0.536-0.242,1.082-0.795,1.27
			c-1.34,0.588-2.718,1.098-4.096,1.6c-0.018,0.33-0.047,1-0.063,1.332c1.858-0.333,3.872-0.895,5.164-2.366
			c1.205-1.924,1.796-4.161,2.314-6.353c0.175-0.105,0.524-0.312,0.699-0.418c-0.123-0.103-0.375-0.314-0.498-0.418
			c-0.187-2.008,0.336-4.144-0.413-6.062C62.295,222.051,60.912,221.559,59.538,221.422z M81.425,231.203
			c-0.022,6.896,0.059,13.805,0.297,20.699c0.506-0.094,1.007-0.18,1.514-0.264c-0.06-7.021,0-14.041-0.025-21.061
			C82.61,230.778,82.016,230.982,81.425,231.203z M78.704,231.706c-0.021,7.007,0.834,14.03,0.106,21.03
			c0.762-0.184,1.528-0.357,2.294-0.532c-0.187-0.937,0.395-2.459-0.791-2.858c0.195,0.068,0.589,0.195,0.786,0.26
			c-0.355-6.121-0.173-12.266-0.353-18.396C80.063,231.369,79.382,231.534,78.704,231.706z M75.952,232.18
			c-0.247,6.957-0.025,13.932,0.481,20.873c0.654-0.084,1.31-0.17,1.961-0.254c0.136-6.979-0.259-13.951-0.399-20.929
			C77.314,231.973,76.633,232.081,75.952,232.18z M65.669,232.883c0.06,0.219,0.179,0.659,0.237,0.881
			c-0.213-0.031-0.641-0.097-0.854-0.131l0.613,0.27c0.06,6.023-0.438,12.061-0.531,18.095c0.501,0.114,1.003,0.237,1.509,0.357
			c0.392-5.854,0.596-11.718,0.958-17.572c0.03-0.629-0.03-1.258-0.067-1.885C66.911,232.897,66.29,232.889,65.669,232.883z
			 M68.302,232.961c-0.438,6.563-0.557,13.149-1.124,19.706c0.773,0.234,1.549,0.46,2.327,0.688
			c-0.403-4.719,0.106-9.444,0.405-14.154c-0.265-0.371-0.771-0.975-0.004-1.111c0.335-1.723,0.328-3.482,0.489-5.224
			C69.698,232.901,69,232.932,68.302,232.961z M71.105,232.812c-0.569,6.818-0.987,13.652-1.246,20.492
			c0.671,0.148,1.34,0.304,2.016,0.451c0.756-7.006,1.05-14.048,1.375-21.089C72.531,232.713,71.822,232.766,71.105,232.812z
			 M54.215,237.76c0.294,0.392,0.728,0.477,1.298,0.25c0.451-0.179,0.599-0.459,0.442-0.843
			C55.254,237.024,54.675,237.219,54.215,237.76z"/>
	</g>
	<path d="M136.972,133.398c2.739-1.728,5.484-3.451,8.297-5.059c0.217,0.468,0.438,0.937,0.66,1.404
		C142.89,130.833,140.009,132.314,136.972,133.398z"/>
	<path d="M67.587,134.748c1.214-0.851,2.788-0.88,4.059-0.14c-0.029,0.464-0.068,0.928-0.115,1.388
		c-2.451-0.923-4.748,0.554-6.628,1.975c2.229,2.187,5.075,4.098,5.893,7.305c-2.303-2.221-4.404-4.676-7.075-6.493
		c-0.814,0.481-1.656,0.923-2.57,1.17C63.307,138.236,65.273,136.253,67.587,134.748z"/>
	<path d="M92.351,134.769c3.364,0.711,6.772,1.188,10.116,2c-3.468-0.008-6.918-0.357-10.376-0.549
		C92.153,135.858,92.286,135.13,92.351,134.769z"/>
	<path d="M53.143,147.201c0.626-1.447,2.166-3.268,3.915-2.625C55.538,145.104,54.25,146.053,53.143,147.201z"/>
	<path d="M64.61,147.95c0.03-1.464,1.081-2.692,2.601-2.672c3.56-0.532,6.29,2.313,7.315,5.42c0.108,0.237,0.146,0.358,0.153,0.41
		c0.243,1.127,0.636,2.144,0.741,3.295c-0.94-0.688-0.982-1.991-1.497-2.961c-0.741-1.565-1.549-3.464-3.39-3.949
		C68.596,146.652,66.443,147.061,64.61,147.95z"/>
	<path d="M53.62,148.881c0.94-1.809,2.634-3.617,4.893-3.062C56.768,146.648,55.151,147.703,53.62,148.881z"/>
	<path d="M143.149,146.605c2.42-0.264,4.863-0.162,7.291-0.303c0.021,0.533,0.031,1.063,0.026,1.601
		C148.032,147.436,145.571,147.133,143.149,146.605z"/>
	<path d="M56.547,148.864c1.344-0.834,2.992-0.242,4.302,0.356c-3.265,1.191-5.782,3.783-7.446,6.771
		c-0.353,0.646-0.809,1.229-1.264,1.81c0.396-1.43,0.161-3,0.906-4.332C53.76,151.647,54.965,150.025,56.547,148.864z"/>
	<path d="M95.005,150.631c2.254-0.687,4.426-1.627,6.705-2.223c-1.873,1.417-4.009,2.43-6.034,3.6
		C95.451,151.545,95.229,151.09,95.005,150.631z"/>
	<path d="M65.038,152.473c0.733,1.238,0.911,2.724,1.703,3.922c1.672,1.996,4.454,2.349,6.39,3.986
		c1.417,1.127,2.723,2.717,2.765,4.607c0.077,1.863-1.901,3.378-3.692,2.854c-1.566-0.369-3.467-0.758-4.306-2.289
		c1.731,0.816,3.757,1.222,5.625,0.662c1.178-0.604,0.987-2.312,0.408-3.297c-1.511-2.301-4.11-3.441-6.48-4.632
		C65.801,156.91,64.912,154.607,65.038,152.473z"/>
	<path d="M68.635,156.859c-1.132-0.936,0.229-2.115,1.103-2.609c1.462-0.787,3.999-0.99,4.705,0.881
		C72.357,154.932,69.996,154.995,68.635,156.859z"/>
	<path d="M58.262,158.74c1.166-0.46,2.901-0.729,3.642,0.553c-2.574-0.103-4.854,1.578-6.139,3.701
		c-0.127,0.115-0.389,0.336-0.52,0.447C54.547,161.352,56.381,159.36,58.262,158.74z"/>
	<path d="M44.328,168.653c1.45-0.979,3.258,0.114,4.126,1.366c-0.829-0.272-1.62-0.793-2.522-0.754
		c-0.638,0.218-1.192,0.607-1.782,0.914C43.609,169.764,43.749,168.955,44.328,168.653z"/>
	<g>
		<path d="M67.987,173.146c3.49-0.523,7.255-1.915,9.045-5.182c0.067,0.854-0.132,1.701-0.629,2.403
			c-1.94,2.451-0.112,6.079-2.306,8.429c-2.259,1.851-5.914,1.676-7.999-0.393c-1.322-1.13-2.322-2.553-3.242-4.016
			c-0.787-1.303-2.059-2.17-3.224-3.103c-0.686,0.915-1.162,2.024-2.107,2.714c0.124-2.48,1.851-5.097,4.54-5.182
			c0.026,0.939-0.965,1.227-1.569,1.718C62.159,172.877,65.29,173.506,67.987,173.146z M64.081,173.996
			c2.66,2.145,6.974,2.948,9.662,0.43c-0.114-0.596-0.229-1.187-0.335-1.783C70.528,174.104,67.243,174.342,64.081,173.996z"/>
	</g>
	<path d="M72.277,182.846c1.302-0.149,2.339-1,3.391-1.703c-0.595,1.162-1.285,2.464-2.579,2.957
		c-1.911,0.673-4.199-0.187-5.156-1.99C69.307,182.646,70.782,183.19,72.277,182.846z"/>
</g>
<text transform="matrix(0.8925 -0.4511 0.4511 0.8925 59.6416 81.6865)"><tspan x="0" y="0" font-family="'ProximaNova-Semibold'" font-size="9">My name is eSign</tspan><tspan x="0" y="10.799" font-family="'ProximaNova-Semibold'" font-size="9">let’s sign some</tspan><tspan x="0" y="21.599" font-family="'ProximaNova-Semibold'" font-size="9">documents!</tspan></text>
</svg>
