<?xml version="1.0" encoding="UTF-8"?>
<svg width="20px" height="20px" viewBox="0 0 20 20" version="1.1" xmlns="http://www.w3.org/2000/svg" xmlns:xlink="http://www.w3.org/1999/xlink">
    <!-- Generator: Sketch 56.2 (81672) - https://sketch.com -->
    <title>blue_fill_notification</title>
    <desc>Created with Sketch.</desc>
    <defs>
        <linearGradient x1="78.9708464%" y1="110.495563%" x2="14.1164491%" y2="-23.7471956%" id="linearGradient-1">
            <stop stop-color="#2589FF" offset="0%"></stop>
            <stop stop-color="#78DAFF" offset="100%"></stop>
        </linearGradient>
    </defs>
    <g id="blue_fill_notification" stroke="none" stroke-width="1" fill="none" fill-rule="evenodd">
        <g id="Group-3" transform="translate(2.000000, 1.000000)">
            <circle id="Oval-4" fill="#FFFFFF" cx="8" cy="7" r="6"></circle>
            <g id="Rectangle-6" fill="url(#linearGradient-1)">
                <path d="M0.839184945,10.7681205 C0.818566514,10.7343568 0.797090516,10.7005369 0.774730952,10.6666667 L0.796990312,10.6869652 C0.287112152,9.69110029 0,8.56602064 0,7.375 C0,3.30189997 3.35786438,0 7.5,0 C11.6421356,0 15,3.30189997 15,7.375 C15,11.4481 11.6421356,14.75 7.5,14.75 C6.44899966,14.75 5.44849141,14.5374207 4.54051649,14.1536026 C-2.21769262,16.3343004 2.42929147,13.9461998 0.975079955,11.0139922 C0.928253698,10.93298 0.882942726,10.8510104 0.839184945,10.7681205 Z M5.27859312,4.90765174 C4.90807613,4.90765174 4.60771277,5.20801511 4.60771277,5.5785321 C4.60771277,5.94904909 4.90807613,6.24941246 5.27859312,6.24941246 L8.9005393,6.24941246 C9.27105629,6.24941246 9.57141966,5.94904909 9.57141966,5.5785321 C9.57141966,5.20801511 9.27105629,4.90765174 8.9005393,4.90765174 L5.27859312,4.90765174 Z M5.27859312,8.79725022 C4.90807613,8.79725022 4.60771277,9.09761359 4.60771277,9.46813058 C4.60771277,9.83864757 4.90807613,10.1390109 5.27859312,10.1390109 L8.9005393,10.1390109 C9.27105629,10.1390109 9.57141966,9.83864757 9.57141966,9.46813058 C9.57141966,9.09761359 9.27105629,8.79725022 8.9005393,8.79725022 L5.27859312,8.79725022 Z M6.02389446,6.85245098 C5.65337747,6.85245098 5.3530141,7.15281435 5.3530141,7.52333134 C5.3530141,7.89384833 5.65337747,8.19421169 6.02389446,8.19421169 L9.64584064,8.19421169 C10.0163576,8.19421169 10.316721,7.89384833 10.316721,7.52333134 C10.316721,7.15281435 10.0163576,6.85245098 9.64584064,6.85245098 L6.02389446,6.85245098 Z" id="Mask"></path>
            </g>
            <g id="Group-2" transform="translate(11.000000, 0.000000)" fill="#FF2E2E">
                <g id="Group">
                    <rect id="Rectangle-7" x="0" y="0" width="4" height="4" rx="2"></rect>
                </g>
            </g>
        </g>
    </g>
</svg>