<?xml version="1.0" encoding="utf-8"?>
<!-- Generator: Adobe Illustrator 16.0.4, SVG Export Plug-In . SVG Version: 6.00 Build 0)  -->
<!DOCTYPE svg PUBLIC "-//W3C//DTD SVG 1.1//EN" "http://www.w3.org/Graphics/SVG/1.1/DTD/svg11.dtd">
<svg version="1.1" id="Layer_1" xmlns="http://www.w3.org/2000/svg" xmlns:xlink="http://www.w3.org/1999/xlink" x="0px" y="0px"
	 width="26.016px" height="26.017px" viewBox="0 0 26.016 26.017" enable-background="new 0 0 26.016 26.017" xml:space="preserve">
<g>
	<g>
		<path fill="#A6A6A6" d="M10.707,0.143C10.861,0.005,11.081,0,11.277,0c1.192,0.004,2.384-0.002,3.577,0.003
			c0.225-0.006,0.452,0.098,0.574,0.291c0.052,0.104,0.068,0.22,0.088,0.333c0.148,0.982,0.299,1.964,0.448,2.947
			c0.008,0.089,0.129,0.082,0.188,0.12c0.463,0.15,0.906,0.354,1.348,0.559c0.816-0.623,1.641-1.236,2.459-1.856
			c0.254-0.197,0.621-0.094,0.833,0.117c0.928,0.878,1.885,1.739,2.677,2.746c0.213,0.229,0.225,0.599,0.03,0.842
			c-0.568,0.787-1.197,1.528-1.772,2.311c0.263,0.536,0.509,1.081,0.687,1.652c0.872,0.162,1.754,0.272,2.63,0.415
			c0.217,0.041,0.446,0.041,0.649,0.136c0.22,0.111,0.332,0.364,0.321,0.602c0.002,1.211,0.001,2.423,0.001,3.635
			c0.016,0.315-0.208,0.646-0.534,0.686c-1.026,0.157-2.053,0.31-3.079,0.468c-0.184,0.526-0.393,1.045-0.66,1.534
			c0.559,0.792,1.169,1.547,1.78,2.299c0.118,0.151,0.225,0.335,0.195,0.534c-0.026,0.219-0.192,0.376-0.315,0.545
			c-0.428,0.522-0.903,1.004-1.383,1.479c-0.368,0.374-0.749,0.739-1.168,1.056c-0.16,0.115-0.328,0.236-0.526,0.27
			c-0.226-0.004-0.429-0.118-0.598-0.258c-0.73-0.575-1.463-1.146-2.194-1.719c-0.239,0.101-0.469,0.219-0.704,0.327
			c-0.276,0.115-0.562,0.206-0.84,0.315c-0.13,1.013-0.242,2.03-0.464,3.027c-0.045,0.199-0.123,0.425-0.318,0.522
			c-0.229,0.112-0.491,0.068-0.736,0.077c-1.065,0-2.13,0-3.196,0c-0.219,0.009-0.46-0.034-0.613-0.204
			c-0.124-0.116-0.136-0.295-0.166-0.452c-0.148-0.99-0.305-1.979-0.449-2.97C9.525,22.211,9.015,22,8.517,21.763
			c-0.766,0.583-1.534,1.164-2.3,1.748c-0.138,0.109-0.295,0.206-0.477,0.212c-0.215,0.028-0.392-0.122-0.539-0.258
			c-0.853-0.789-1.716-1.571-2.467-2.46c-0.16-0.2-0.361-0.408-0.358-0.683c-0.006-0.304,0.231-0.526,0.394-0.758
			c0.504-0.656,1.024-1.3,1.519-1.964c-0.288-0.535-0.521-1.1-0.701-1.681c-1.023-0.153-2.046-0.299-3.069-0.455
			C0.2,15.425-0.016,15.11,0.002,14.8C0,13.589,0,12.378,0.001,11.167c-0.015-0.253,0.118-0.507,0.339-0.633
			c0.157-0.076,0.335-0.077,0.505-0.107c0.921-0.142,1.844-0.274,2.765-0.418c0.177-0.537,0.396-1.057,0.662-1.556
			c-0.54-0.765-1.124-1.499-1.718-2.222C2.429,6.076,2.292,5.905,2.292,5.696C2.305,5.504,2.419,5.34,2.533,5.194
			C3.073,4.509,3.706,3.907,4.32,3.291c0.308-0.29,0.62-0.579,0.969-0.819c0.124-0.078,0.254-0.163,0.403-0.18
			c0.309,0,0.539,0.234,0.77,0.407C7.14,3.221,7.812,3.754,8.496,4.27c0.49-0.258,1.005-0.465,1.53-0.643
			c0.118-0.961,0.232-1.924,0.427-2.874C10.505,0.54,10.536,0.299,10.707,0.143z M12.391,8.714c-1.868,0.225-3.47,1.84-3.681,3.708
			c-0.126,1.013,0.075,2.082,0.649,2.936c0.586,0.874,1.47,1.571,2.498,1.837c0.94,0.241,1.963,0.189,2.859-0.191
			c0.886-0.385,1.63-1.079,2.106-1.917c0.522-0.936,0.64-2.069,0.407-3.107c-0.244-1.091-0.975-2.034-1.899-2.644
			C14.471,8.774,13.401,8.574,12.391,8.714z"/>
	</g>
</g>
</svg>
